<?xml version="1.0" encoding="UTF-8"?>
<svg id="Capa_1" xmlns="http://www.w3.org/2000/svg" version="1.1" viewBox="0 0 109.85 32.24">
  <!-- Generator: Adobe Illustrator 30.2.1, SVG Export Plug-In . SVG Version: 2.1.1 Build 1)  -->
  <defs>
    <style>
      .st0 {
        fill: #fff;
      }
    </style>
  </defs>
  <path class="st0" d="M86.16,24.65v-4.04c0-10.54-6.63-13.2-12.83-13.2-5.18,0-12.24,1.97-15.97,4.7V.26h-10.2v24.39h10.2v-5.48c2.72-2.05,8.92-3.79,12.41-3.79,5.44,0,6.12,3.79,6.12,7.81v1.46h10.28Z"/>
  <path class="st0" d="M109.85,0c-11.17,1.05-17.81,8.93-17.81,16.63,0,2.84.88,5.61,2.48,8.06h12.14c-2.99-1.78-4.7-4.9-4.7-8.11,0-3.98,2.8-8.15,7.89-9.19V0Z"/>
  <path class="st0" d="M40.04,0c-11.17,1.05-17.81,8.93-17.81,16.63,0,2.84.88,5.61,2.48,8.06h12.14c-2.99-1.78-4.7-4.9-4.7-8.11,0-3.98,2.8-8.15,7.89-9.19V0Z"/>
  <path class="st0" d="M17.81,0C6.64,1.05,0,8.93,0,16.63c0,2.84.88,5.61,2.48,8.06h12.14c-2.99-1.78-4.7-4.9-4.7-8.11,0-3.98,2.8-8.15,7.89-9.19V0Z"/>
  <path class="st0" d="M109.51,32.19v-3.03h-.47v1.83c0,.15,0,.3,0,.42h0c-.07-.12-.15-.24-.31-.46l-1.34-1.79h-.48v3.03h.47v-1.9c0-.15,0-.29,0-.4h0c.07.12.15.24.3.44l1.4,1.86h.44ZM105.04,30.69c0,.7-.4,1.14-1,1.14s-1-.43-1-1.14.4-1.14,1-1.14,1,.46,1,1.14M102.54,30.7c0,.47.17.88.47,1.16.26.24.61.37,1.03.37s.8-.15,1.07-.42c.27-.28.43-.68.43-1.13,0-.43-.13-.8-.37-1.08-.27-.3-.66-.47-1.13-.47-.44,0-.81.16-1.08.44-.27.28-.42.68-.42,1.13M101.18,29.16h-.47v3.03h.47v-3.03ZM99.39,31.97l-.14-.36c-.21.12-.45.2-.72.2-.64,0-1.03-.48-1.03-1.14,0-.62.38-1.13,1.06-1.13.29,0,.52.07.75.22v-.46c-.16-.09-.43-.17-.76-.17-.95,0-1.57.7-1.57,1.58s.55,1.53,1.47,1.53c.31,0,.61-.08.92-.27M95.83,31.97l-.13-.36c-.21.12-.45.2-.72.2-.64,0-1.03-.48-1.03-1.14,0-.62.38-1.13,1.06-1.13.29,0,.52.07.75.22v-.46c-.16-.09-.43-.17-.76-.17-.95,0-1.57.7-1.57,1.58s.54,1.53,1.47,1.53c.31,0,.61-.08.92-.27M92.06,31.1v-1.94h-.47v1.93c0,.22-.05.4-.17.53-.11.12-.29.2-.55.2-.24,0-.41-.07-.52-.2-.13-.14-.19-.35-.19-.56v-1.9h-.47v1.93c0,.32.07.64.29.86.18.18.47.29.88.29s.72-.12.92-.33c.19-.2.28-.49.28-.81M87.71,30.06c0,.29-.23.53-.53.53h-.28v-1.01h.27c.38,0,.54.22.54.48M88.53,32.19c-.46-.78-.78-1.31-.9-1.38h0c.29-.12.56-.39.56-.8,0-.46-.28-.85-1.03-.85h-.74v3.03h.47v-1.23h.28c.12.03.35.45.81,1.23h.55ZM85.23,29.16h-2.28v.41h.86v2.62h.48v-2.62h.82l.13-.41ZM81.85,31.4c0-.93-1.3-.91-1.3-1.51,0-.24.21-.35.47-.35.24,0,.47.09.68.21v-.45c-.15-.08-.38-.16-.7-.16-.6,0-.93.37-.93.81,0,.23.08.4.2.54.36.41,1.08.5,1.08.97,0,.28-.28.39-.53.39-.28,0-.51-.12-.66-.23l-.2.36c.19.12.47.26.88.26.57,0,1.01-.33,1.01-.84M78.6,32.19v-3.03h-.47v1.83c0,.15,0,.3,0,.42h0c-.07-.12-.15-.24-.31-.46l-1.34-1.79h-.48v3.03h.47v-1.9c0-.15,0-.29,0-.4h0c.07.12.15.24.3.44l1.4,1.86h.44ZM74.13,30.69c0,.7-.4,1.14-1,1.14s-1-.43-1-1.14.4-1.14,1-1.14,1,.46,1,1.14M71.64,30.7c0,.47.17.88.47,1.16.26.24.61.37,1.03.37s.8-.15,1.07-.42c.27-.28.43-.68.43-1.13,0-.43-.13-.8-.37-1.08-.27-.3-.66-.47-1.13-.47-.44,0-.81.16-1.08.44-.27.28-.42.68-.42,1.13M70.47,31.97l-.14-.36c-.21.12-.45.2-.72.2-.64,0-1.03-.48-1.03-1.14,0-.62.38-1.13,1.06-1.13.29,0,.52.07.75.22v-.46c-.16-.09-.43-.17-.76-.17-.95,0-1.57.7-1.57,1.58s.54,1.53,1.47,1.53c.31,0,.61-.08.92-.27M64.1,31.01h-.8l.29-.81c.05-.14.09-.26.12-.37h0c.02.1.06.22.11.37l.27.81ZM65.06,32.19l-1.18-3.04h-.33l-1.15,3.04h.47l.28-.77h1.1l.3.77h.51ZM61.44,32.19v-.41h-1.09v-2.62h-.47v3.03h1.55ZM56.55,32.19v-.41h-1.12v-.93h.96v-.41h-.96v-.86h.97l.14-.41h-1.59v3.03h1.59ZM53.1,30.65c0,.59-.31,1.12-1.13,1.12h-.35v-2.2h.35c.77,0,1.13.46,1.13,1.08M53.6,30.64c0-.87-.54-1.48-1.64-1.48h-.82v3.03h.8c1.07,0,1.65-.66,1.65-1.54M47.01,31.01h-.8l.29-.81c.05-.14.09-.26.12-.37h0c.02.1.06.22.11.37l.28.81ZM47.97,32.19l-1.18-3.04h-.33l-1.15,3.04h.47l.28-.77h1.1l.3.77h.51ZM44.08,32.19v-3.03h-.47v1.83c0,.15,0,.3,0,.42h0c-.07-.12-.15-.24-.31-.46l-1.34-1.79h-.48v3.03h.47v-1.9c0-.15,0-.29,0-.4h0c.07.12.15.24.3.44l1.4,1.86h.44ZM40.08,32.19v-.41h-1.12v-.93h.96v-.41h-.96v-.86h.97l.14-.41h-1.59v3.03h1.59ZM37.25,32.19v-.41h-1.09v-2.62h-.47v3.03h1.56ZM34.18,29.16h-.47v3.03h.47v-3.03ZM32.19,32.19v-3.03h-.47v1.28h-1.5v-1.28h-.47v3.03h.47v-1.33h1.5v1.33h.47ZM28.43,31.97l-.14-.36c-.21.12-.45.2-.72.2-.64,0-1.03-.48-1.03-1.14,0-.62.38-1.13,1.06-1.13.29,0,.52.07.75.22v-.46c-.16-.09-.43-.17-.76-.17-.95,0-1.57.7-1.57,1.58s.54,1.53,1.47,1.53c.31,0,.61-.08.92-.27M22.05,31.01h-.8l.29-.81c.05-.14.09-.26.12-.37h0c.02.1.06.22.11.37l.27.81ZM23.01,32.19l-1.18-3.04h-.33l-1.15,3.04h.47l.28-.77h1.1l.3.77h.51ZM18.58,30.06c0,.29-.23.53-.53.53h-.28v-1.01h.27c.38,0,.54.22.54.48M19.41,32.19c-.46-.78-.78-1.31-.9-1.38h0c.29-.12.56-.39.56-.8,0-.46-.28-.85-1.03-.85h-.74v3.03h.47v-1.23h.28c.12.03.35.45.81,1.23h.55ZM15.11,31.01h-.8l.29-.81c.05-.14.09-.26.12-.37h0c.02.1.06.22.11.37l.27.81ZM16.07,32.19l-1.18-3.04h-.33l-1.15,3.04h.47l.28-.77h1.1l.3.77h.51ZM12.17,32.19v-3.03h-.45l-.8,1.28c-.08.13-.13.23-.17.31h0c-.05-.09-.1-.18-.18-.3l-.86-1.29h-.45v3.03h.47v-1.94c0-.1,0-.18-.01-.31h0c.06.13.12.22.17.29l.73,1.09h.25l.68-1.08c.05-.08.13-.2.17-.31h0c0,.13,0,.21,0,.32v1.93h.47ZM7.06,31.01h-.8l.29-.81c.05-.14.09-.26.12-.37h0c.02.1.06.22.11.37l.27.81ZM8.02,32.19l-1.18-3.04h-.33l-1.15,3.04h.47l.28-.77h1.1l.3.77h.51ZM4.24,31.97l-.14-.36c-.21.12-.45.2-.72.2-.64,0-1.03-.48-1.03-1.14,0-.62.38-1.13,1.06-1.13.29,0,.52.07.75.22v-.46c-.16-.09-.43-.17-.76-.17-.95,0-1.57.7-1.57,1.58s.54,1.53,1.47,1.53c.31,0,.61-.08.92-.27"/>
</svg>