<?xml version="1.0" encoding="UTF-8"?>
<svg id="Capa_1" xmlns="http://www.w3.org/2000/svg" xmlns:xlink="http://www.w3.org/1999/xlink" version="1.1" viewBox="0 0 88.17 67.07">
  <!-- Generator: Adobe Illustrator 30.2.1, SVG Export Plug-In . SVG Version: 2.1.1 Build 1)  -->
  <defs>
    <style>
      .st0 {
        fill: none;
      }

      .st1 {
        fill-rule: evenodd;
      }

      .st1, .st2 {
        fill: #fff;
      }

      .st3 {
        clip-path: url(#clippath);
      }
    </style>
    <clipPath id="clippath">
      <rect class="st0" width="88.17" height="67.07"/>
    </clipPath>
  </defs>
  <g class="st3">
    <path class="st2" d="M5.83,57.94h.63c.09,0,.13.01.15.02v.46c0,.29-.08.51-.25.69-.17.17-.41.26-.74.26-.24,0-.44-.06-.62-.19-.18-.13-.32-.33-.42-.61-.11-.29-.17-.72-.17-1.25s.06-.99.17-1.28c.1-.28.25-.49.44-.63.19-.14.4-.2.64-.2.31,0,.58.13.83.41.2.23.38.61.54,1.14l.05.15h.6l-.15-2.38h-.55l-.21.39c-.18-.12-.34-.21-.5-.27-.21-.08-.44-.12-.67-.12-.4,0-.81.13-1.2.37-.39.25-.69.58-.92,1-.22.42-.33.89-.33,1.41s.11.99.33,1.41c.22.42.53.75.91.98.38.23.81.35,1.26.35.33,0,.62-.08.88-.23.14-.09.28-.2.4-.33.04.14.08.28.12.43l.04.16h.6v-2.08s0-.02,0-.02c0,0,.04-.02.13-.02h.49v-.66h-2.48v.66Z"/>
    <path class="st2" d="M12.34,54.88c-.39-.24-.82-.36-1.27-.36-.42,0-.82.12-1.21.36-.38.24-.69.57-.9.99-.22.42-.33.89-.33,1.4s.11,1,.34,1.43c.23.43.53.77.9,1.01.38.24.79.35,1.22.35s.86-.12,1.25-.36c.39-.24.7-.58.92-1,.22-.42.33-.9.33-1.42s-.11-1-.33-1.41c-.22-.42-.53-.76-.93-.99M11.73,59.19c-.18.13-.38.19-.62.19-.34,0-.62-.14-.85-.42-.24-.29-.36-.86-.36-1.68,0-.76.12-1.3.36-1.62.23-.3.51-.45.87-.45.23,0,.43.06.61.2.18.13.33.35.43.63.11.31.17.74.17,1.3,0,.51-.06.92-.18,1.23-.11.29-.26.5-.44.63"/>
    <path class="st2" d="M18.44,57.47c-.14-.13-.33-.24-.55-.33.14-.08.26-.18.36-.28.22-.23.34-.52.34-.86,0-.4-.16-.73-.48-.99-.3-.25-.74-.38-1.29-.38h-2.76v.68h.64c.08,0,.1.02.1.02,0,0,0,.02,0,.05v3.88s-.05.02-.14.02h-.62v.68h2.69c.42,0,.79-.07,1.12-.21.34-.15.59-.33.75-.55.16-.22.24-.48.24-.77,0-.38-.14-.7-.42-.95M17.29,55.57c.06.1.09.25.09.44,0,.32-.06.55-.19.67-.13.13-.3.19-.53.19h-.71v-1.53s0-.02,0-.02c.03,0,.13-.03.38-.03.43,0,.63.04.72.08.11.04.19.11.25.2M15.95,59.26h0s0-.02,0-.04v-1.67h.79c.29,0,.5.07.65.23.15.15.23.36.23.64,0,.3-.07.52-.21.65-.15.13-.39.2-.73.2h-.59c-.09,0-.13-.01-.14-.01"/>
    <path class="st2" d="M19.09,55.3h.6c.1,0,.15.01.18.02,0,.02,0,.05,0,.11v3.71c0,.07,0,.11-.01.13-.02,0-.06.01-.13.01h-.64v.68h2.68v-.68h-.65c-.07,0-.11,0-.13-.01,0-.02,0-.06,0-.13v-3.71c0-.06,0-.09,0-.11.03,0,.08-.01.17-.01h.6v-.68h-2.68v.68Z"/>
    <path class="st2" d="M26.12,57.88c-.15,1.24-.76,1.39-1.21,1.39h-.76c-.05,0-.08,0-.09,0v-1.73h.17c.18,0,.32.06.42.17.11.12.17.35.18.67v.21h.66v-2.69h-.65v.21c-.02.28-.07.49-.18.61-.1.11-.22.17-.38.17h-.21v-1.53s0-.03,0-.04c0,0,.01,0,.02,0h.96c.25,0,.44.08.59.24.16.18.28.51.36.98l.03.18h.63l-.12-2.08h-4.29v.68h.61s.06,0,.07,0c0,0,0,.02,0,.03v3.88s0,.03,0,.03c0,0-.04.02-.14.02h-.55v.68h4.45l.1-2.25h-.65l-.02.19Z"/>
    <path class="st2" d="M31.44,58.65c-.02.3-.06.4-.08.43,0,0,0,.01-.01.02,0,0,0,0,0,0-.03-.05-.1-.18-.18-.52-.1-.43-.19-.7-.27-.86-.09-.16-.2-.29-.35-.39.1-.03.19-.07.27-.1.24-.12.42-.28.55-.48.13-.2.19-.44.19-.69,0-.43-.16-.78-.48-1.04-.31-.25-.74-.38-1.28-.38h-2.74v.68h.69c.06,0,.09,0,.09,0,0,0,0,.01,0,.03v3.91s0,0,0,0c0,0-.04.01-.09.01h-.69v.68h2.7v-.68h-.68s-.08,0-.1-.01c0,0,0,0,0-.01v-1.71h.19c.18,0,.33.03.45.09.11.06.19.13.25.21.04.07.09.22.13.54.08.7.13.9.17.99.08.2.19.36.34.46.15.11.34.16.54.16.44,0,.98-.23,1.04-1.33v-.23s-.64,0-.64,0v.2ZM28.98,55.33s0,0,0,0c.04,0,.14-.02.36-.02.48,0,.65.04.71.07.09.04.16.11.22.21.06.12.1.29.1.51,0,.3-.08.5-.23.6-.18.12-.45.18-.79.18h-.37v-1.55Z"/>
    <path class="st2" d="M35.67,55.3h.21c.17,0,.3.05.37.13.09.09.13.25.13.47v2.15l-2.63-3.43h-1.49v.68h.43c.08,0,.13.01.15.02,0,0,.05.03.17.17v3.23c0,.15-.05.28-.14.38-.1.1-.23.16-.41.16h-.21v.68h2.29v-.67h-.21c-.22,0-.39-.05-.48-.15-.09-.09-.14-.24-.14-.44v-2.32l2.73,3.58h.63v-4.1c0-.12.02-.23.07-.32.04-.09.09-.15.14-.17.03-.02.11-.05.29-.05h.21v-.68h-2.14v.67Z"/>
    <path class="st2" d="M41.79,54.88c-.39-.24-.82-.36-1.27-.36-.42,0-.82.12-1.21.36-.38.24-.69.57-.9.99-.22.42-.33.89-.33,1.4s.11,1,.34,1.43c.23.43.53.77.91,1.01.38.24.79.35,1.22.35s.86-.12,1.25-.36c.39-.24.7-.58.92-1,.22-.42.33-.9.33-1.42s-.11-1-.33-1.41c-.22-.42-.53-.76-.93-.99M41.17,59.19c-.18.13-.38.19-.62.19-.34,0-.62-.14-.85-.42-.24-.29-.36-.86-.36-1.68,0-.76.12-1.3.36-1.62.23-.3.51-.45.87-.45.23,0,.43.06.61.2.18.13.33.35.43.63.11.31.17.74.17,1.3,0,.51-.06.92-.18,1.23-.11.29-.26.5-.44.63"/>
    <path class="st2" d="M49.82,58.65c-.02.3-.06.4-.08.43,0,0,0,.01-.01.02,0,0,0,0,0,0-.03-.05-.1-.18-.18-.52-.1-.43-.19-.7-.27-.86-.09-.16-.2-.29-.35-.39.1-.03.19-.07.27-.1.24-.12.42-.28.55-.48.13-.2.19-.44.19-.69,0-.43-.16-.78-.48-1.04-.31-.25-.74-.38-1.28-.38h-2.74v.68h.69c.06,0,.09,0,.09,0,0,0,0,.01,0,.03v3.91s0,0,0,0c0,0-.04.01-.09.01h-.69v.68h2.7v-.68h-.68s-.08,0-.1-.01c0,0,0,0,0-.01v-1.71h.19c.18,0,.33.03.45.09.11.06.19.13.25.21.04.07.09.22.13.54.08.7.13.9.17.99.08.2.19.36.34.46.15.11.34.16.54.16.44,0,.98-.23,1.04-1.33v-.23s-.64,0-.64,0v.2ZM47.36,55.33s0,0,0,0c.04,0,.14-.02.36-.02.48,0,.65.04.71.07.09.04.16.11.22.21.06.12.1.29.1.51,0,.3-.08.5-.23.6-.18.12-.45.18-.79.18h-.37v-1.55Z"/>
    <path class="st2" d="M54.69,57.88c-.15,1.24-.76,1.39-1.21,1.39h-.76c-.05,0-.08,0-.09,0v-1.73h.17c.18,0,.32.06.42.17.11.12.17.35.18.67v.21h.66v-2.69h-.65v.21c-.02.28-.07.49-.18.61-.1.11-.22.17-.38.17h-.21v-1.53s0-.03,0-.04c0,0,.01,0,.02,0h.96c.25,0,.44.08.59.24.16.18.28.51.36.98l.03.18h.63l-.12-2.08h-4.29v.68h.61s.06,0,.07,0c0,0,0,.02,0,.03v3.88s0,.03,0,.03c0,0-.04.02-.14.02h-.55v.68h4.45l.1-2.25h-.65l-.02.19Z"/>
    <path class="st2" d="M58.5,57.94h.63c.09,0,.13.01.15.02v.46c0,.29-.08.51-.25.69-.17.17-.41.26-.74.26-.24,0-.44-.06-.62-.19-.18-.13-.32-.33-.42-.61-.11-.29-.17-.72-.17-1.25s.06-.99.17-1.28c.1-.28.25-.49.44-.63.19-.14.4-.2.64-.2.31,0,.58.13.83.41.2.23.38.61.54,1.14l.05.15h.6l-.15-2.38h-.55l-.21.39c-.18-.12-.34-.21-.5-.27-.21-.08-.44-.12-.67-.12-.4,0-.81.13-1.2.37-.39.25-.69.58-.92,1-.22.42-.33.89-.33,1.41s.11.99.33,1.41c.22.42.53.75.91.98.38.23.81.35,1.26.35.33,0,.62-.08.88-.23.14-.09.28-.2.4-.33.04.14.08.28.12.43l.04.16h.6v-2.08s0-.02,0-.02c0,0,.04-.02.13-.02h.49v-.66h-2.48v.66Z"/>
    <path class="st2" d="M61.19,55.3h.6c.1,0,.15.01.18.02,0,.02,0,.05,0,.11v3.71c0,.07,0,.11-.01.13-.02,0-.06.01-.13.01h-.64v.68h2.68v-.68h-.65c-.07,0-.11,0-.13-.01,0-.02,0-.06,0-.13v-3.71c0-.06,0-.09,0-.11.03,0,.08-.01.17-.01h.6v-.68h-2.68v.68Z"/>
    <path class="st2" d="M67.98,54.88c-.39-.24-.82-.36-1.27-.36-.42,0-.82.12-1.21.36-.38.24-.69.57-.9.99-.22.42-.33.89-.33,1.4s.11,1,.34,1.43c.23.43.53.77.91,1.01.38.24.79.35,1.22.35s.86-.12,1.25-.36c.39-.24.7-.58.92-1,.22-.42.33-.9.33-1.42s-.11-1-.33-1.41c-.22-.42-.53-.76-.93-.99M67.36,59.19c-.18.13-.38.19-.62.19-.34,0-.62-.14-.85-.42-.24-.29-.36-.86-.36-1.68,0-.76.12-1.3.36-1.62.23-.3.51-.45.87-.45.23,0,.43.06.61.2.18.13.33.35.43.63.11.31.17.74.17,1.3,0,.51-.06.92-.18,1.23-.11.29-.26.5-.44.63"/>
    <path class="st2" d="M75.2,54.63h-2.14v.67h.21c.17,0,.3.05.37.13.09.09.13.25.13.47v2.15l-2.63-3.43h-1.49v.68h.43c.08,0,.13.01.15.02,0,0,.05.03.17.17v3.23c0,.15-.05.28-.14.38-.1.1-.23.16-.41.16h-.21v.68h2.29v-.67h-.21c-.22,0-.39-.05-.48-.15-.09-.09-.14-.24-.14-.44v-2.32l2.73,3.58h.63v-4.1c0-.12.02-.23.07-.32.04-.09.09-.15.14-.17.03-.02.11-.05.29-.05h.21v-.68Z"/>
    <path class="st2" d="M84.4,57.64l-.03.18c-.1.56-.25.95-.45,1.16-.19.2-.43.3-.74.3h-.69c-.1,0-.15,0-.17-.01,0,0,0-.02,0-.03v-3.86s0-.06,0-.07c0,0,.02,0,.03,0h.76v-.68h-2.7v.68h.71s.06,0,.06,0c0,0,0,.01,0,.03v3.82c0,.07-.01.09-.01.09,0,0-.04.02-.14.02h-.93c-.15,0-.2-.05-.23-.14l-1.81-4.61h-.51l-1.72,4.29c-.1.25-.19.35-.23.38-.07.05-.18.08-.32.08h-.21v.68h2.2v-.68h-.38c-.14,0-.25-.02-.31-.07-.07-.05-.07-.09-.07-.11,0-.04,0-.13.08-.3l.17-.46h1.64l.35.9s0,0,0,.01c-.04.01-.13.03-.3.03h-.37v.68h6.82l.14-2.31h-.64ZM77.02,57.65l.56-1.39.54,1.39h-1.1Z"/>
    <path class="st2" d="M4.04,62.03h1.2c.18,0,.33.03.45.09.15.08.29.21.39.4.11.18.16.4.16.66,0,.21-.03.4-.1.56-.05.13-.12.24-.23.34-.1.1-.23.17-.37.22-.11.04-.26.05-.44.05h-1.07v-.12h.22c.06,0,.09,0,.11-.03.02-.02.03-.05.03-.08v-1.86s-.01-.06-.03-.08c-.02-.02-.05-.03-.1-.03h-.24v-.12ZM4.88,62.14s-.08,0-.1.03c-.02.02-.03.05-.03.09v1.85s.01.07.04.09c.03.02.07.03.13.03h.2c.18,0,.33-.05.46-.14.09-.06.15-.15.2-.26.06-.15.09-.35.09-.61,0-.39-.07-.67-.2-.85-.11-.15-.29-.23-.52-.23h-.26Z"/>
    <path class="st2" d="M6.63,62.03h1.83l.04.78h-.1c-.04-.25-.11-.42-.2-.52-.09-.1-.21-.15-.35-.15h-.45s-.06,0-.08.03c-.02.02-.03.05-.03.09v.82h.2c.11,0,.19-.04.26-.11.07-.08.1-.19.11-.35h.11v1.07h-.11c0-.18-.04-.3-.11-.38-.07-.08-.16-.12-.27-.12h-.18v.92s.01.06.03.08c.02.02.06.03.11.03h.36c.39,0,.61-.25.67-.74h.11l-.04.86h-1.91v-.12h.16c.06,0,.1-.01.13-.03.03-.02.04-.05.04-.09v-1.83s-.01-.07-.03-.09c-.02-.02-.06-.03-.1-.03h-.19v-.12Z"/>
    <path class="st2" d="M9.68,62.03h.77l.69,1.83.64-1.83h.79v.12h-.19c-.07,0-.11,0-.14.03-.02.02-.04.05-.04.1v1.83s.01.06.04.08c.03.02.08.03.15.03h.18v.12h-1.06v-.12h.2c.06,0,.1-.01.13-.03.03-.02.04-.05.04-.08v-1.97l-.77,2.2h-.11l-.82-2.19v1.68c0,.1.01.18.04.22.03.05.06.09.11.11.05.03.12.04.23.05v.12h-.87v-.12c.14,0,.24-.04.29-.09.05-.05.08-.14.08-.28v-1.6s-.01-.07-.04-.09c-.02-.02-.07-.03-.13-.03h-.2v-.12Z"/>
    <path class="st2" d="M13.77,61.98h.1l.83,2.12c.03.09.1.13.21.13h.07v.12h-.92v-.12h.07c.1,0,.16-.01.2-.03.03-.01.04-.04.04-.07,0-.02,0-.04-.01-.06l-.19-.49h-.92l-.11.28c-.03.08-.04.13-.04.18,0,.05.02.09.07.13.05.04.12.05.21.05h.08v.12h-.84v-.12c.09,0,.16-.02.21-.06.05-.04.1-.11.14-.22l.79-1.96ZM13.73,62.42l-.42,1.03h.82l-.4-1.03Z"/>
    <path class="st2" d="M16.77,62.21l.13-.23h.1l.06.92h-.1c-.08-.27-.17-.46-.28-.58-.14-.15-.29-.23-.47-.23-.13,0-.25.04-.36.11-.11.08-.19.19-.24.34-.06.15-.09.37-.09.64s.03.48.09.63c.06.15.14.26.24.33.1.07.22.11.35.11.18,0,.32-.05.42-.15.1-.1.15-.23.15-.4v-.22s-.01-.06-.04-.08c-.03-.02-.07-.03-.13-.03h-.2v-.11h.97v.11h-.13c-.06,0-.1.01-.13.03-.03.02-.04.05-.04.09v.88h-.1c-.04-.14-.08-.27-.12-.4-.08.13-.17.22-.28.29-.11.06-.23.1-.37.1-.2,0-.38-.05-.54-.15-.17-.1-.3-.24-.39-.42-.1-.18-.14-.39-.14-.62s.05-.44.15-.62c.1-.18.23-.33.4-.44.17-.11.34-.16.51-.16.1,0,.19.02.28.05.09.03.19.09.3.18"/>
    <path class="st2" d="M18.58,61.98h.1l.83,2.12c.03.09.1.13.21.13h.07v.12h-.92v-.12h.07c.1,0,.16-.01.2-.03.03-.01.04-.04.04-.07,0-.02,0-.04-.01-.06l-.19-.49h-.92l-.11.28c-.03.08-.04.13-.04.18,0,.05.02.09.07.13.05.04.12.05.21.05h.08v.12h-.84v-.12c.09,0,.16-.02.21-.06.05-.04.1-.11.14-.22l.79-1.96ZM18.53,62.42l-.42,1.03h.82l-.4-1.03Z"/>
    <path class="st2" d="M19.87,62.03h1.07v.12h-.26s-.07.01-.09.03c-.02.02-.03.06-.03.1v1.83s.01.07.04.09c.02.02.07.03.15.03h.33c.17,0,.31-.06.42-.17.11-.12.19-.32.24-.6h.11l-.05.89h-1.93v-.12h.19c.06,0,.11-.01.14-.04.03-.02.04-.06.04-.12v-1.81s-.01-.07-.03-.09c-.02-.02-.05-.03-.1-.03h-.23v-.12Z"/>
    <path class="st2" d="M22.01,62.03h1.07v.12h-.26s-.07.01-.09.03c-.02.02-.03.06-.03.1v1.83s.01.07.04.09c.02.02.07.03.15.03h.33c.17,0,.31-.06.42-.17.11-.12.19-.32.24-.6h.11l-.05.89h-1.93v-.12h.19c.06,0,.11-.01.14-.04.03-.02.04-.06.04-.12v-1.81s-.01-.07-.03-.09c-.02-.02-.05-.03-.1-.03h-.23v-.12Z"/>
    <path class="st2" d="M25.17,61.98h.1l.83,2.12c.03.09.1.13.2.13h.07v.12h-.92v-.12h.07c.1,0,.16-.01.2-.03.03-.01.04-.04.04-.07,0-.02,0-.04-.01-.06l-.19-.49h-.92l-.11.28c-.03.08-.04.13-.04.18,0,.05.02.09.07.13.05.04.12.05.21.05h.08v.12h-.84v-.12c.09,0,.16-.02.21-.06.05-.04.1-.11.14-.22l.79-1.96ZM25.12,62.42l-.42,1.03h.82l-.4-1.03Z"/>
    <path class="st2" d="M26.5,62.03h.55l1.4,1.82v-1.32c0-.13-.03-.23-.09-.29-.06-.06-.14-.09-.25-.09v-.12h.81v.12c-.08,0-.14.01-.19.03-.04.02-.08.06-.11.13-.03.06-.05.13-.05.2v1.84h-.15l-1.44-1.89v1.4c0,.13.03.22.1.28.06.06.16.09.3.1v.12h-.88v-.12c.11,0,.2-.04.26-.11.06-.07.1-.15.1-.25v-1.57l-.03-.03c-.05-.06-.09-.09-.11-.1-.03-.01-.07-.02-.12-.02h-.1v-.12Z"/>
    <path class="st2" d="M29.19,62.03h1.83l.04.78h-.1c-.04-.25-.11-.42-.2-.52-.09-.1-.21-.15-.35-.15h-.45s-.06,0-.08.03c-.02.02-.03.05-.03.09v.82h.2c.11,0,.19-.04.26-.11.07-.08.1-.19.11-.35h.11v1.07h-.11c0-.18-.04-.3-.11-.38-.07-.08-.16-.12-.27-.12h-.18v.92s.01.06.03.08c.02.02.06.03.11.03h.36c.39,0,.61-.25.67-.74h.11l-.04.86h-1.91v-.12h.16c.06,0,.1-.01.13-.03.03-.02.04-.05.04-.09v-1.83s-.01-.07-.03-.09c-.02-.02-.06-.03-.1-.03h-.19v-.12Z"/>
    <path class="st2" d="M32.77,62.2l.14-.2h.11v.84s-.09,0-.09,0c-.06-.26-.16-.45-.29-.57-.13-.12-.27-.18-.44-.18-.14,0-.25.04-.34.12-.09.08-.13.18-.13.3,0,.07.02.14.05.2.03.06.08.1.15.14.07.03.19.07.37.11.26.06.44.11.54.17.1.06.18.13.23.22.05.09.08.19.08.31,0,.21-.07.38-.21.52-.14.14-.32.21-.54.21-.24,0-.45-.08-.62-.23l-.18.22h-.11v-.9h.11c.04.25.14.44.29.59.15.14.32.21.51.21.15,0,.28-.05.38-.14.1-.09.15-.2.15-.33,0-.07-.02-.14-.05-.19-.04-.06-.09-.1-.17-.14-.08-.04-.24-.08-.47-.14-.26-.06-.43-.13-.52-.2-.13-.11-.2-.26-.2-.45s.07-.37.19-.5c.13-.13.3-.19.5-.19.1,0,.19.02.28.05.09.03.18.09.27.17"/>
    <path class="st2" d="M34.06,62.03h1.01v.12h-.11c-.09,0-.15,0-.18.02-.03.01-.04.03-.04.06s0,.05.02.07l.59.91.42-.78s.03-.07.03-.11c0-.05-.02-.1-.05-.13-.04-.03-.09-.05-.15-.05h-.11v-.12h.88v.12c-.1,0-.18.02-.24.05-.06.04-.11.1-.17.2l-.54.98v.73s.01.07.03.08c.03.02.08.03.13.03h.2v.12h-1.06v-.12h.21c.06,0,.1-.01.12-.03.03-.02.04-.05.04-.09v-.71l-.72-1.12s-.07-.08-.11-.1c-.04-.02-.11-.03-.21-.03v-.12Z"/>
    <path class="st2" d="M37.34,62.03h1.2c.18,0,.33.03.45.09.15.08.29.21.39.4.11.18.16.4.16.66,0,.21-.03.4-.1.56-.05.13-.12.24-.23.34-.1.1-.23.17-.37.22-.11.04-.26.05-.44.05h-1.07v-.12h.22c.06,0,.09,0,.12-.03.02-.02.03-.05.03-.08v-1.86s-.01-.06-.03-.08c-.02-.02-.05-.03-.1-.03h-.24v-.12ZM38.18,62.14s-.08,0-.1.03c-.02.02-.03.05-.03.09v1.85s.01.07.04.09c.03.02.07.03.13.03h.2c.18,0,.33-.05.46-.14.09-.06.15-.15.2-.26.06-.15.09-.35.09-.61,0-.39-.07-.67-.2-.85-.11-.15-.29-.23-.52-.23h-.26Z"/>
    <path class="st2" d="M39.93,62.03h1.83l.04.78h-.1c-.04-.25-.11-.42-.2-.52-.09-.1-.21-.15-.35-.15h-.45s-.06,0-.08.03c-.02.02-.03.05-.03.09v.82h.2c.11,0,.19-.04.26-.11.07-.08.1-.19.11-.35h.11v1.07h-.11c0-.18-.04-.3-.11-.38-.07-.08-.16-.12-.27-.12h-.18v.92s.01.06.03.08c.02.02.06.03.11.03h.36c.39,0,.61-.25.67-.74h.11l-.04.86h-1.91v-.12h.16c.06,0,.1-.01.13-.03.03-.02.04-.05.04-.09v-1.83s-.01-.07-.03-.09c-.02-.02-.06-.03-.1-.03h-.19v-.12Z"/>
    <path class="st2" d="M43.03,62.03h1.07v.12h-.26s-.07.01-.09.03c-.02.02-.03.06-.03.1v1.83s.01.07.04.09c.02.02.07.03.15.03h.33c.17,0,.31-.06.42-.17.11-.12.19-.32.24-.6h.11l-.05.89h-1.93v-.12h.19c.06,0,.11-.01.14-.04.03-.02.04-.06.04-.12v-1.81s-.01-.07-.03-.09c-.02-.02-.05-.03-.1-.03h-.23v-.12Z"/>
    <path class="st2" d="M46.18,61.98h.1l.83,2.12c.03.09.1.13.2.13h.07v.12h-.92v-.12h.07c.1,0,.16-.01.2-.03.03-.01.04-.04.04-.07,0-.02,0-.04-.01-.06l-.19-.49h-.92l-.11.28c-.03.08-.04.13-.04.18,0,.05.02.09.07.13.05.04.12.05.21.05h.08v.12h-.84v-.12c.09,0,.16-.02.21-.06.05-.04.1-.11.14-.22l.79-1.96ZM46.14,62.42l-.42,1.03h.82l-.4-1.03Z"/>
    <path class="st2" d="M49.04,61.98h.1l.83,2.12c.03.09.1.13.2.13h.07v.12h-.92v-.12h.07c.1,0,.16-.01.2-.03.03-.01.04-.04.04-.07,0-.02,0-.04-.01-.06l-.19-.49h-.92l-.11.28c-.03.08-.04.13-.04.18,0,.05.02.09.07.13.05.04.12.05.21.05h.08v.12h-.84v-.12c.09,0,.16-.02.21-.06.05-.04.1-.11.14-.22l.79-1.96ZM48.99,62.42l-.42,1.03h.82l-.4-1.03Z"/>
    <path class="st2" d="M50.36,62.03h.55l1.4,1.82v-1.32c0-.13-.03-.23-.09-.29-.06-.06-.14-.09-.25-.09v-.12h.81v.12c-.08,0-.14.01-.19.03-.04.02-.08.06-.11.13-.03.06-.05.13-.05.2v1.84h-.15l-1.44-1.89v1.4c0,.13.03.22.1.28.06.06.16.09.3.1v.12h-.88v-.12c.11,0,.2-.04.26-.11.06-.07.1-.15.1-.25v-1.57l-.03-.03c-.05-.06-.09-.09-.11-.1-.03-.01-.07-.02-.12-.02h-.1v-.12Z"/>
    <path class="st2" d="M52.98,62.03h1.88l.05.87h-.11c-.07-.51-.26-.77-.56-.77-.06,0-.1.01-.12.03-.02.02-.03.06-.03.1v1.85s.01.07.03.08c.02.02.06.03.11.03h.23v.12h-1.08v-.12h.27s.06,0,.08-.03c.02-.02.03-.04.03-.07v-1.88s-.01-.07-.04-.09c-.02-.02-.06-.03-.12-.03-.15,0-.28.07-.38.21-.08.12-.14.3-.18.56h-.11l.05-.87Z"/>
    <path class="st2" d="M56.1,61.98h.1l.83,2.12c.03.09.1.13.2.13h.07v.12h-.92v-.12h.07c.1,0,.16-.01.2-.03.03-.01.04-.04.04-.07,0-.02,0-.04-.01-.06l-.19-.49h-.92l-.11.28c-.03.08-.04.13-.04.18,0,.05.02.09.07.13.05.04.12.05.21.05h.08v.12h-.84v-.12c.09,0,.16-.02.21-.06.05-.04.1-.11.14-.22l.79-1.96ZM56.05,62.42l-.42,1.03h.82l-.4-1.03ZM55.96,61.85l-.04-.04.27-.38c.07-.11.12-.17.15-.19.03-.02.06-.03.09-.03.03,0,.06.01.09.04.03.03.04.05.04.09,0,.05-.04.11-.11.16l-.49.36Z"/>
    <path class="st2" d="M57.38,62.03h1.2c.23,0,.41.05.54.16.13.11.19.24.19.41,0,.1-.03.19-.08.27-.05.08-.12.14-.22.19-.1.05-.25.08-.45.1.15.04.25.08.31.12.06.04.1.09.13.15.03.06.07.19.12.38.03.14.07.23.1.28.03.04.06.06.09.06s.06-.02.09-.07c.03-.05.04-.13.05-.25h.11c-.02.35-.15.53-.39.53-.08,0-.14-.02-.2-.06-.06-.04-.1-.1-.13-.17-.02-.06-.05-.2-.07-.44-.02-.14-.04-.24-.07-.3-.03-.06-.09-.11-.16-.14-.07-.04-.16-.05-.26-.05h-.19v.91s.01.07.03.08c.03.02.06.03.12.03h.22v.12h-1.08v-.12h.23c.05,0,.09,0,.11-.03.02-.02.04-.05.04-.08v-1.85s-.01-.07-.04-.09c-.02-.02-.06-.03-.11-.03h-.23v-.12ZM58.08,63.09h.27c.18,0,.33-.03.43-.1.1-.07.16-.19.16-.37,0-.12-.02-.22-.06-.29-.04-.07-.09-.12-.15-.15-.06-.03-.19-.04-.38-.04-.12,0-.2,0-.23.03-.03.02-.04.05-.04.09v.83Z"/>
    <path class="st2" d="M59.75,62.03h1.88l.05.87h-.11c-.07-.51-.26-.77-.56-.77-.06,0-.1.01-.12.03-.02.02-.03.06-.03.1v1.85s.01.07.03.08c.02.02.06.03.11.03h.23v.12h-1.08v-.12h.27s.06,0,.08-.03c.02-.02.03-.04.03-.07v-1.88s-.01-.07-.04-.09c-.02-.02-.06-.03-.12-.03-.15,0-.28.07-.38.21-.08.12-.14.3-.18.56h-.11l.05-.87Z"/>
    <path class="st2" d="M61.87,62.03h1.07v.12h-.18c-.08,0-.13.01-.15.03-.02.02-.03.06-.03.13v1.75c0,.07,0,.11.03.13.03.02.07.04.14.04h.2v.12h-1.07v-.12h.2c.07,0,.12-.01.14-.03.02-.02.03-.07.03-.14v-1.75c0-.07,0-.11-.03-.12-.03-.02-.08-.04-.16-.04h-.18v-.12Z"/>
    <path class="st2" d="M64.91,62.21l.11-.22h.1l.04.93h-.1c-.07-.26-.16-.45-.26-.58-.13-.16-.28-.23-.46-.23-.19,0-.35.09-.47.26-.12.17-.18.47-.18.88,0,.35.07.61.21.8.12.15.29.23.5.23.19,0,.35-.06.47-.18.13-.12.21-.3.25-.55h.11c-.03.28-.13.49-.28.64-.16.15-.35.22-.59.22-.19,0-.37-.05-.53-.15-.16-.1-.29-.24-.39-.42-.1-.18-.14-.38-.14-.6,0-.23.05-.45.15-.65.1-.2.23-.35.38-.46.16-.1.32-.15.5-.15.1,0,.2.02.29.05.09.03.2.09.31.18"/>
    <path class="st2" d="M66.49,61.98h.1l.83,2.12c.03.09.1.13.21.13h.07v.12h-.92v-.12h.07c.1,0,.16-.01.2-.03.03-.01.04-.04.04-.07,0-.02,0-.04-.01-.06l-.19-.49h-.92l-.11.28c-.03.08-.04.13-.04.18,0,.05.02.09.07.13.05.04.12.05.21.05h.08v.12h-.84v-.12c.09,0,.16-.02.21-.06.05-.04.1-.11.14-.22l.79-1.96ZM66.44,62.42l-.42,1.03h.82l-.4-1.03Z"/>
    <path class="st2" d="M70.25,62.21l.11-.22h.1l.04.93h-.1c-.07-.26-.16-.45-.26-.58-.13-.16-.28-.23-.46-.23-.19,0-.35.09-.47.26-.12.17-.18.47-.18.88,0,.35.07.61.21.8.12.15.29.23.5.23.19,0,.35-.06.47-.18.13-.12.21-.3.25-.55h.11c-.03.28-.13.49-.28.64-.16.15-.35.22-.59.22-.19,0-.37-.05-.53-.15-.16-.1-.29-.24-.39-.42-.1-.18-.14-.38-.14-.6,0-.23.05-.45.15-.65.1-.2.23-.35.38-.46.16-.1.32-.15.5-.15.1,0,.2.02.29.05.09.03.2.09.31.18"/>
    <path class="st2" d="M70.86,62.03h.99v.12h-.18c-.06,0-.11.01-.12.03-.02.02-.03.08-.03.16v.71h1.06v-.71c0-.09,0-.14-.03-.17-.02-.02-.06-.03-.13-.03h-.17v-.12h.98v.12h-.18s-.08,0-.09.02c-.02.01-.03.03-.04.06,0,.02,0,.06,0,.14v1.67c0,.08,0,.13.02.15.03.04.08.05.15.05h.16v.12h-.98v-.12h.17c.07,0,.11-.02.14-.05.01-.02.02-.07.02-.16v-.8h-1.06v.82c0,.08,0,.13.02.15.03.03.07.05.13.05h.18v.12h-.99v-.12h.19s.06,0,.08-.02c.02-.01.03-.03.04-.06,0-.02,0-.06,0-.13v-1.67c0-.09,0-.14-.03-.16-.02-.02-.06-.03-.13-.03h-.17v-.12Z"/>
    <path class="st2" d="M73.5,62.03h1.07v.12h-.18c-.08,0-.13.01-.15.03-.02.02-.03.06-.03.13v1.75c0,.07,0,.11.03.13.03.02.07.04.14.04h.21v.12h-1.07v-.12h.2c.07,0,.12-.01.14-.03.02-.02.03-.07.03-.14v-1.75c0-.07,0-.11-.03-.12-.03-.02-.08-.04-.16-.04h-.18v-.12Z"/>
    <path class="st2" d="M74.79,62.03h1.07v.12h-.26s-.07.01-.09.03c-.02.02-.03.06-.03.1v1.83s.01.07.04.09c.02.02.07.03.15.03h.32c.17,0,.31-.06.42-.17.11-.12.19-.32.24-.6h.11l-.05.89h-1.93v-.12h.19c.06,0,.11-.01.14-.04.03-.02.04-.06.04-.12v-1.81s-.01-.07-.03-.09c-.02-.02-.05-.03-.1-.03h-.23v-.12Z"/>
    <path class="st2" d="M77.03,62.03h1.83l.04.78h-.1c-.04-.25-.11-.42-.2-.52-.09-.1-.21-.15-.35-.15h-.45s-.06,0-.08.03c-.02.02-.03.05-.03.09v.82h.2c.11,0,.19-.04.26-.11.07-.08.1-.19.11-.35h.11v1.07h-.11c0-.18-.04-.3-.11-.38-.07-.08-.16-.12-.27-.12h-.18v.92s.01.06.03.08c.02.02.06.03.11.03h.36c.39,0,.61-.25.67-.74h.11l-.04.86h-1.91v-.12h.16c.06,0,.1-.01.13-.03.03-.02.04-.05.04-.09v-1.83s-.01-.07-.03-.09c-.02-.02-.06-.03-.1-.03h-.19v-.12Z"/>
    <path class="st2" d="M79.27,62.03h.55l1.4,1.82v-1.32c0-.13-.03-.23-.09-.29-.06-.06-.14-.09-.25-.09v-.12h.81v.12c-.08,0-.14.01-.19.03-.04.02-.08.06-.11.13-.03.06-.05.13-.05.2v1.84h-.15l-1.44-1.89v1.4c0,.13.03.22.1.28.06.06.16.09.3.1v.12h-.88v-.12c.11,0,.2-.04.26-.11.06-.07.1-.15.1-.25v-1.57l-.03-.03c-.05-.06-.09-.09-.11-.1-.03-.01-.07-.02-.12-.02h-.1v-.12Z"/>
    <path class="st2" d="M82.87,61.98h.1l.83,2.12c.03.09.1.13.21.13h.07v.12h-.92v-.12h.07c.1,0,.16-.01.2-.03.03-.01.04-.04.04-.07,0-.02,0-.04-.01-.06l-.19-.49h-.92l-.11.28c-.03.08-.04.13-.04.18,0,.05.02.09.07.13.05.04.12.05.21.05h.08v.12h-.84v-.12c.09,0,.16-.02.21-.06.05-.04.1-.11.14-.22l.79-1.96ZM82.82,62.42l-.42,1.03h.82l-.4-1.03Z"/>
    <path class="st1" d="M59.6,27.36c.03-.22.06-.44.08-.66.12-1.01.16-2.06.11-3.13V2.94h-31.9v.31c.01,7.57-.03,15.14.02,22.71h0c.25,6.95,5.54,13.27,12.33,14.73,6.28,1.53,13.27-1.21,16.81-6.63,1.36-1.95,2.16-4.18,2.52-6.49.01-.07.02-.14.03-.21M30.68,32.85c-1.3-2.18-2.03-4.6-2.12-7-.03-4.68-.02-9.45-.02-14.05,0-2.74,0-5.49,0-8.23h15.21v21.74l-13.07,7.55ZM44.17,24.36h1.31v-1.52h-1.31v-6.25h1.31v-1.52h-1.31v-6.25h1.31v-1.52h-1.31v-3.73h14.96v2.21h-1.46v1.52h1.46v1.52h-1.46v1.52h1.46v3.2h-1.46v1.52h1.46v1.52h-1.46v1.52h1.46v3.2h-1.46v1.52h1.46v.85h0c.01.23.02.46.02.68h-1.48v1.52h1.44c-.16,2.42-.79,4.8-2,6.89l-12.94-7.47v-.94ZM56.52,33.71h0c-3.39,5.19-10.14,7.83-16.15,6.37h0s0,0,0,0c-3.95-.85-7.38-3.44-9.52-6.84l13.12-7.57,12.94,7.47c-.12.19-.25.38-.38.57h0Z"/>
    <rect class="st2" x="53.1" y="7.3" width="1.52" height="1.52"/>
    <rect class="st2" x="48.53" y="8.82" width="1.52" height="1.52"/>
    <rect class="st2" x="56.15" y="7.3" width="1.52" height="1.52"/>
    <rect class="st2" x="51.58" y="8.82" width="1.52" height="1.52"/>
    <rect class="st2" x="45.49" y="5.77" width="1.52" height="1.52"/>
    <rect class="st2" x="45.49" y="8.82" width="1.52" height="1.52"/>
    <rect class="st2" x="54.63" y="8.82" width="1.52" height="1.52"/>
    <rect class="st2" x="50.06" y="7.3" width="1.52" height="1.52"/>
    <rect class="st2" x="47.01" y="7.3" width="1.52" height="1.52"/>
    <rect class="st2" x="54.63" y="5.77" width="1.52" height="1.52"/>
    <rect class="st2" x="51.58" y="5.77" width="1.52" height="1.52"/>
    <rect class="st2" x="48.53" y="5.77" width="1.52" height="1.52"/>
    <rect class="st2" x="47.01" y="15.07" width="1.52" height="1.52"/>
    <rect class="st2" x="48.53" y="13.54" width="1.52" height="1.52"/>
    <rect class="st2" x="54.63" y="16.59" width="1.52" height="1.52"/>
    <rect class="st2" x="48.53" y="16.59" width="1.52" height="1.52"/>
    <rect class="st2" x="51.58" y="16.59" width="1.52" height="1.52"/>
    <rect class="st2" x="53.1" y="15.07" width="1.52" height="1.52"/>
    <rect class="st2" x="45.49" y="13.54" width="1.52" height="1.52"/>
    <rect class="st2" x="45.49" y="16.59" width="1.52" height="1.52"/>
    <rect class="st2" x="56.15" y="15.07" width="1.52" height="1.52"/>
    <rect class="st2" x="50.06" y="15.07" width="1.52" height="1.52"/>
    <rect class="st2" x="51.58" y="13.54" width="1.52" height="1.52"/>
    <rect class="st2" x="54.63" y="13.54" width="1.52" height="1.52"/>
    <rect class="st2" x="51.58" y="24.36" width="1.52" height="1.52"/>
    <rect class="st2" x="54.63" y="24.36" width="1.52" height="1.52"/>
    <rect class="st2" x="47.01" y="22.84" width="1.52" height="1.52"/>
    <rect class="st2" x="48.53" y="24.36" width="1.52" height="1.52"/>
    <rect class="st2" x="56.15" y="22.84" width="1.52" height="1.52"/>
    <rect class="st2" x="45.49" y="24.36" width="1.52" height="1.52"/>
    <rect class="st2" x="51.58" y="21.31" width="1.52" height="1.52"/>
    <rect class="st2" x="53.1" y="22.84" width="1.52" height="1.52"/>
    <rect class="st2" x="54.63" y="21.31" width="1.52" height="1.52"/>
    <rect class="st2" x="45.49" y="21.31" width="1.52" height="1.52"/>
    <rect class="st2" x="50.06" y="22.84" width="1.52" height="1.52"/>
    <rect class="st2" x="48.53" y="21.31" width="1.52" height="1.52"/>
    <polygon class="st1" points="32.31 21.54 32.29 20.39 31.63 21.33 30.53 21 31.23 21.92 30.57 22.86 31.65 22.48 32.35 23.4 32.32 22.25 33.41 21.87 32.31 21.54"/>
    <polygon class="st1" points="31.45 15.51 32.14 16.43 32.12 15.28 33.2 14.9 32.1 14.57 32.08 13.43 31.42 14.37 30.32 14.03 31.02 14.95 30.36 15.89 31.45 15.51"/>
    <polygon class="st1" points="39.14 19.51 39.11 18.36 38.46 19.3 37.36 18.97 38.05 19.88 37.4 20.82 38.48 20.45 39.17 21.36 39.15 20.21 40.23 19.84 39.14 19.51"/>
    <polygon class="st1" points="37.16 13.79 37.7 13.61 37.15 13.44 37.14 12.87 36.81 13.34 36.27 13.17 36.61 13.63 36.28 14.1 36.83 13.91 37.17 14.37 37.16 13.79"/>
    <polygon class="st1" points="41.46 8.59 41.43 7.44 40.78 8.39 39.68 8.05 40.37 8.97 39.72 9.91 40.8 9.53 41.49 10.45 41.47 9.3 42.55 8.92 41.46 8.59"/>
    <path class="st1" d="M38.3,32.72c0-.27-.19-.8-.31-.92-.12.11-.31.65-.31.92-.03.61-.22-.44-.86,0,.46.22.93,1.24,1.17,1.89.25-.65.71-1.67,1.17-1.89-.65-.44-.84.61-.86,0"/>
    <path class="st1" d="M50.64,32.63c0-.27-.19-.81-.31-.92-.12.11-.31.65-.31.92-.03.61-.22-.44-.86,0,.46.22.93,1.24,1.17,1.89.25-.65.71-1.67,1.17-1.89-.65-.44-.84.61-.86,0"/>
    <path class="st1" d="M44.47,35.04c0-.27-.19-.8-.31-.92-.12.11-.31.65-.31.92-.03.61-.22-.44-.86,0,.46.22.93,1.24,1.17,1.89.24-.65.71-1.67,1.17-1.89-.65-.44-.84.61-.86,0"/>
    <path class="st2" d="M60.05,23.57V2.67H27.62v.58c0,2.88,0,5.81,0,8.65,0,4.61,0,9.37.02,14.06h0c.25,7.06,5.64,13.5,12.53,14.99,1.17.28,2.37.42,3.6.42,2.02,0,4.07-.38,6-1.14,3.1-1.22,5.77-3.36,7.5-6.02,1.32-1.88,2.18-4.1,2.57-6.6,0-.04.01-.09.02-.13v-.09c.04-.22.07-.44.09-.66.12-1.07.16-2.13.11-3.16M56.52,33.23c-.07.11-.14.21-.21.31l-.02.03c-3.3,5.05-9.96,7.68-15.84,6.25l-.04-.02h-.03c-3.67-.8-6.99-3.15-9.17-6.48l12.74-7.36,12.56,7.25ZM28.81,3.83h14.67v21.32l-12.71,7.34c-1.19-2.08-1.86-4.37-1.95-6.64-.03-4.63-.02-9.33-.02-13.89v-.16c0-2.68,0-5.32,0-7.96M58.87,3.83l-.02,22.04c-.16,2.43-.77,4.63-1.83,6.54l-12.58-7.26V3.83h14.43Z"/>
    <g>
      <g>
        <path class="st2" d="M61.46,37.86l.55-3.82-.39.25c-2.47,1.55-4.04,3.56-4.11,3.64l-.05.06v1.92c-2.72,2.16-7.54,5.2-13.17,5.2s-11.05-3.2-13.96-5.37v-1.75l-.05-.06c-.07-.08-1.64-2.09-4.11-3.64l-.39-.25.55,3.82-3.21-.27.58.45s3.73,2.87,3.9,4.78v.93l.03.05c.04.07,4.51,7.09,16.53,7.09.1,0,10.35-.44,15.97-7.13l.05-.06v-.9c.19-1.91,3.86-4.73,3.9-4.76l.58-.45-3.21.27ZM24.52,38.14l2.32.19-.49-3.42c1.84,1.24,3.12,2.71,3.5,3.15h-1.58s0,0,0,0h-.65v3.51c-.75-1.35-2.27-2.73-3.09-3.42ZM44.16,50.47c-11.23,0-15.71-6.22-16.12-6.84v-4.94l1.55,1.02c.2.15.41.31.63.48l.02.02h0c2.99,2.2,8.27,5.34,14.06,5.34,6.72,0,12.29-4.22,14.64-6.31l.82-.54v4.13c0,.1,0,.19,0,.29h0s0,.44,0,.44c-5.5,6.49-15.51,6.92-15.6,6.92ZM60.19,41.55v-3.5h-.62s0,0,0,0h-1.61c.37-.44,1.66-1.9,3.5-3.15l-.49,3.42,2.32-.19c-.82.69-2.34,2.07-3.09,3.41Z"/>
        <path class="st2" d="M44.17,51.06c-12.1,0-16.63-7.1-16.67-7.17l-.06-.09v-.98c-.16-1.8-3.8-4.62-3.84-4.65l-1.03-.78,3.56.3-.57-3.97.69.44c2.49,1.57,4.08,3.6,4.15,3.68l.08.1v1.72c2.69,2,8.01,5.29,13.8,5.29,5.4,0,10.04-2.77,13.01-5.12v-1.89l.08-.1c.07-.09,1.66-2.12,4.15-3.68l.69-.44-.57,3.97,3.56-.3-1.03.78s-3.65,2.83-3.83,4.65v.95s-.09.11-.09.11c-5.64,6.73-15.99,7.19-16.09,7.19ZM27.77,43.71h0c.04.08,4.5,7.03,16.39,7.03.1,0,10.29-.46,15.85-7.08h.01v-.86c.2-1.98,3.81-4.78,3.96-4.89l.14-.11-2.85.24.53-3.67-.09.06c-2.44,1.54-4,3.52-4.07,3.61h-.01v.17l.2-.24c.36-.43,1.67-1.93,3.53-3.18l.31-.21-.52,3.59,2.63-.22-.4.33c-.82.69-2.32,2.05-3.05,3.37l-.31.55v-3.97h-2.4v1.77l-.06.05c-3,2.39-7.75,5.24-13.28,5.24-5.93,0-11.35-3.39-14.06-5.41l-.07-.05v-1.59h-2.39s0,3.97,0,3.97l-.31-.55c-.73-1.32-2.23-2.68-3.05-3.37l-.4-.33,2.63.22-.52-3.59.31.21c1.86,1.26,3.17,2.75,3.53,3.18l.2.25v-.17c-.08-.08-1.64-2.07-4.08-3.61l-.09-.06.53,3.67-2.85-.24.14.11c.16.12,3.79,2.94,3.96,4.9v.9ZM25.01,38.34c.74.65,1.76,1.63,2.44,2.64v-3.1h2.03c-.5-.56-1.54-1.64-2.92-2.63l.47,3.26-2.02-.17ZM59.57,37.89h.78v.16s0,2.93,0,2.93c.68-1.01,1.69-1.98,2.43-2.63l-2.02.17.47-3.26c-1.38.99-2.42,2.07-2.92,2.64h1.25ZM44.16,50.63h0c-11.28,0-15.78-6.21-16.26-6.91l-.03-.04v-5.29l1.8,1.18c.21.16.41.32.64.48h.02c2.69,2,8.09,5.32,13.96,5.32,6.76,0,12.42-4.38,14.54-6.27h.02s1.07-.72,1.07-.72v4.43s0,.07,0,.11h0s0,.68,0,.68l-.04.05c-5.54,6.53-15.62,6.98-15.72,6.98h0ZM28.2,43.58c.59.86,5.05,6.73,15.96,6.73.21,0,10.01-.47,15.44-6.82v-.37c-.01-.1-.01-.21,0-.32v-3.81s-.56.37-.56.37c-2.15,1.91-7.89,6.34-14.74,6.34-5.52,0-10.56-2.77-13.89-5.18v.03l-.29-.24c-.22-.16-.43-.32-.62-.47l-1.28-.84v4.58Z"/>
      </g>
      <g>
        <path class="st2" d="M30.94,43.71l-.29.39s-.04.06-.04.07c0,0,0,.02.01.03.01.02.03.04.07.07s.09.08.16.13v.02s-.76-.55-.76-.55v-.02c.07.04.12.08.16.1.04.03.07.04.09.05.02,0,.03,0,.03,0,.01,0,.03-.03.05-.06l.66-.89s.04-.05.04-.07c0,0,0-.02-.01-.03-.03-.04-.1-.1-.21-.19v-.02s.68.49.68.49c.14.1.22.21.25.33.03.12.01.22-.06.32-.05.07-.12.1-.22.12-.12.01-.24-.02-.36-.11l-.26-.19ZM30.95,43.69l.17.13c.1.07.18.1.26.07.06-.02.13-.07.2-.17.07-.1.11-.19.1-.27,0-.08-.05-.16-.14-.22l-.08-.06s-.04-.03-.06-.03-.03,0-.04,0c-.01,0-.03.03-.05.06l-.36.48Z"/>
        <path class="st2" d="M32.62,45.25l-.04.06c-.05.07-.09.11-.12.13-.05.03-.11.03-.17-.02-.08-.05-.12-.12-.1-.2.01-.06.06-.17.16-.31l.02-.04s.02-.02.03-.04c.04-.06.06-.12.04-.16-.02-.04-.05-.08-.11-.12l-.21-.14-.32.48s-.04.06-.04.07c0,.01,0,.03.01.04.01.01.04.04.08.07.04.03.09.06.13.09v.02s-.74-.48-.74-.48v-.02c.14.08.22.13.25.13.02,0,.03,0,.04,0,.01,0,.03-.03.05-.06l.61-.92s.03-.06.03-.07c0,0,0-.02-.01-.03-.03-.04-.1-.09-.21-.17v-.02s.74.48.74.48c.13.09.21.19.24.31.02.1.02.17-.02.23-.05.07-.11.11-.18.12-.09.02-.21-.01-.34-.08.11.11.15.24.11.38-.02.07-.07.17-.14.28-.02.03-.04.06-.04.08,0,.02,0,.04.03.05.03.02.06,0,.09-.03.04-.03.08-.09.12-.16h.01ZM32.13,44.41l.17.11c.09.06.16.08.22.08.08,0,.14-.05.2-.15.07-.1.09-.19.08-.25-.01-.07-.07-.13-.16-.2l-.09-.06s-.04-.03-.06-.03-.03,0-.04,0c-.01,0-.03.03-.05.07l-.28.42Z"/>
        <path class="st2" d="M33.64,44.76l-.57.95s-.03.06-.03.07c0,0,0,.02.01.03.03.03.1.09.21.15v.02s-.74-.43-.74-.43v-.02c.06.03.11.06.15.08.04.02.07.03.09.03s.03,0,.04,0c0,0,.02-.03.04-.06l.57-.95s.03-.06.03-.07c0,0,0-.02-.02-.03-.03-.03-.1-.09-.21-.15v-.02s.74.44.74.44v.02c-.06-.03-.11-.06-.15-.08s-.07-.03-.09-.03h-.02s-.03.02-.06.06Z"/>
        <path class="st2" d="M34.47,45.07l-.15,1.05.73-.74.53.28v.02c-.12-.06-.2-.09-.25-.1-.02,0-.03,0-.03,0-.01,0-.03.03-.05.06l-.52.97s-.03.06-.03.07c0,0,0,.02.02.03.01.01.04.03.07.06.04.02.08.05.14.08v.02s-.74-.39-.74-.39v-.02c.06.02.1.04.14.06.04.02.07.03.09.03s.03,0,.03,0c.01,0,.03-.03.04-.07l.54-1.03s.01-.03,0-.04c0,0-.02,0-.03.02l-.96.98-.04-.02.21-1.38v-.04s-.01,0-.02.03l-.42.79c-.07.14-.1.24-.09.31s.07.12.18.18v.02s-.55-.28-.55-.28v-.02c.1.05.17.06.23.03.06-.03.12-.09.18-.2l.31-.59c.06-.11.08-.2.07-.26-.01-.06-.06-.12-.16-.17v-.02s.5.26.5.26Z"/>
        <path class="st2" d="M35.96,46.81l-.38-.17-.14.15s-.06.07-.07.1c-.02.05-.02.09,0,.13.03.04.07.07.14.1v.02s-.51-.22-.51-.22v-.02c.1.04.18.04.26,0,.04-.03.11-.09.21-.19l.74-.78.04.02-.09,1.34c0,.06,0,.1.02.12s.07.05.17.09v.02s-.73-.32-.73-.32v-.02c.11.04.18.07.22.08s.06,0,.07-.02v-.02s.03-.4.03-.4ZM35.96,46.78l.04-.58-.4.42.36.16Z"/>
        <path class="st2" d="M37.86,46.73l-.37,1.04s-.02.06-.02.08c0,0,0,.01.02.02.03.03.11.06.23.11v.02s-.8-.28-.8-.28v-.02c.07.02.12.04.16.05s.07.02.09.02c.02,0,.03,0,.04-.01,0,0,.02-.03.03-.07l.37-1.04s.02-.06.02-.07c0,0,0-.02-.02-.03-.03-.03-.11-.06-.23-.11v-.02s.81.28.81.28v.02c-.06-.02-.12-.04-.16-.05s-.08-.02-.1-.02h-.02s-.03.03-.04.07Z"/>
        <path class="st2" d="M39.1,47.96l.16-.57c.04-.13.04-.22.01-.28-.03-.06-.1-.1-.21-.14v-.02s.59.17.59.17v.02c-.1-.03-.18-.02-.23.01-.05.04-.1.12-.13.24l-.28.99h-.05s-.51-1.34-.51-1.34v-.03s-.02.01-.03.04l-.19.67c-.04.15-.05.26-.02.32.03.06.1.11.21.14v.02s-.61-.17-.61-.17v-.02c.11.03.19.03.25,0s.1-.11.13-.24l.2-.7c.02-.08.02-.14,0-.2-.03-.07-.1-.11-.2-.14v-.02s.43.12.43.12l.45,1.13s.02.04.02.04c0,0,.01-.01.02-.04Z"/>
        <path class="st2" d="M41.33,47.43l-.11.6h-.03c0-.24-.02-.41-.07-.51-.05-.08-.12-.13-.24-.15-.03,0-.04,0-.05,0,0,0-.01.02-.02.05l-.2,1.14s0,.07,0,.08c0,0,.01.01.03.02.02,0,.05.02.09.03s.11.03.19.04v.02s-.92-.16-.92-.16v-.02c.08.01.15.02.2.03s.08,0,.1,0,.03,0,.04-.02c0,0,.01-.03.02-.07l.2-1.14s0-.06,0-.06c0,0-.02,0-.04-.01-.11-.02-.2,0-.27.06-.09.08-.17.22-.24.44h-.03s.1-.6.1-.6l1.25.22Z"/>
        <path class="st2" d="M41.82,48.15l-.05.57s0,.06,0,.08.02.02.04.03c.02,0,.05.02.08.02.03,0,.08,0,.16.02.16.01.29-.02.38-.11.09-.09.16-.24.2-.45h.03s-.06.64-.06.64l-1.39-.12v-.02c.13.01.21.01.26,0,.01,0,.02-.01.03-.02s.01-.03.01-.07l.1-1.1s0-.07,0-.08c0,0-.01-.01-.03-.02-.02,0-.05-.02-.09-.03-.05-.01-.1-.02-.16-.02v-.02s1.32.12,1.32.12l-.05.53h-.03c0-.11,0-.22-.05-.33-.06-.14-.16-.22-.3-.23-.05,0-.11,0-.16-.01s-.1,0-.15,0c-.01,0-.02.01-.03.02s-.01.03-.01.08l-.05.5c.15.01.24,0,.28-.02.06-.04.11-.16.15-.36h.03s-.08.84-.08.84h-.03c0-.2-.03-.32-.08-.37-.03-.03-.12-.06-.27-.07Z"/>
        <path class="st2" d="M44.2,48.63v.07c0,.08,0,.14-.02.18-.03.05-.08.08-.15.08-.1,0-.17-.04-.2-.11-.03-.06-.04-.17-.04-.34v-.05s0-.03,0-.04c0-.08-.02-.13-.06-.15s-.09-.04-.15-.04h-.25s0,.58,0,.58c0,.04,0,.07,0,.08,0,.01.02.02.03.03.02,0,.05.01.1.01.05,0,.1,0,.16,0v.02s-.87,0-.87,0v-.02c.15,0,.24,0,.27-.02.01,0,.02-.01.03-.03s0-.04,0-.08v-1.11s-.02-.06-.02-.07c0,0-.01-.01-.03-.02-.04-.02-.13-.02-.27-.02v-.02s.88,0,.88,0c.15,0,.28.04.37.12.07.06.11.13.11.2,0,.08-.03.15-.08.2-.07.07-.18.11-.33.13.15.03.25.11.3.25.03.07.04.18.04.32,0,.04,0,.07.01.09,0,.02.02.03.05.03.03,0,.05-.02.06-.07.01-.05.02-.11.02-.2h.02ZM43.33,48.2h.2c.1,0,.18-.02.23-.06.06-.05.09-.12.09-.23,0-.12-.03-.21-.08-.26-.05-.05-.13-.07-.25-.07h-.1s-.05,0-.07,0c-.01,0-.02.01-.03.03,0,.01,0,.04,0,.08v.51Z"/>
        <path class="st2" d="M45.72,48.53v.07c.01.08,0,.14,0,.18-.02.06-.07.09-.15.09-.1,0-.17-.03-.2-.1-.03-.06-.05-.17-.06-.34v-.04s0-.03,0-.05c0-.08-.03-.13-.06-.15-.04-.02-.09-.03-.16-.03l-.25.02.04.58s0,.07.01.08c0,.01.02.02.03.02.02,0,.05,0,.1,0,.05,0,.1,0,.16,0v.02s-.87.06-.87.06v-.02c.15-.01.24-.02.27-.04.01,0,.02-.02.03-.03,0-.01,0-.04,0-.08l-.07-1.1s0-.06-.01-.07c0,0-.01-.01-.03-.02-.04-.01-.13-.01-.27,0v-.02s.87-.06.87-.06c.15-.01.28.02.38.1.08.06.12.13.12.2,0,.08-.02.15-.07.21-.06.07-.17.12-.32.14.15.02.26.1.32.23.03.07.05.17.06.31,0,.04,0,.07.02.09s.03.03.05.02c.03,0,.05-.03.06-.08,0-.05.01-.11,0-.2h.02ZM44.82,48.16h.2c.1-.02.18-.04.23-.09.06-.05.08-.13.07-.24,0-.12-.04-.2-.09-.25-.05-.05-.13-.07-.25-.06h-.1s-.05.01-.07.02c-.01,0-.02.02-.03.03s0,.04,0,.08l.03.5Z"/>
        <path class="st2" d="M46.59,48.24l-.41.06-.04.2s-.01.09,0,.13c0,.05.03.09.07.11.04.02.1.02.17.01v.02s-.54.07-.54.07v-.02c.09-.01.17-.06.21-.14.02-.04.05-.14.08-.27l.22-1.05h.04s.63,1.18.63,1.18c.03.06.06.09.08.09.02,0,.09,0,.19-.01v.02s-.78.11-.78.11v-.02c.1-.01.18-.03.21-.04.04-.01.06-.03.05-.06v-.02s-.19-.36-.19-.36ZM46.58,48.22l-.27-.52-.12.57.39-.05Z"/>
        <path class="st2" d="M48.87,47.71c.04.2.04.36-.02.47-.06.11-.16.18-.3.21-.17.04-.32.02-.45-.06-.16-.09-.27-.25-.32-.47-.05-.22-.02-.41.09-.58.09-.15.21-.23.34-.27.07-.01.13-.02.18,0,.07.02.14.05.21.11l.06-.22h.01s.14.6.14.6h-.02c-.04-.19-.12-.32-.25-.41-.1-.07-.2-.1-.29-.08-.12.03-.2.1-.22.23-.03.12-.02.3.03.52.05.22.12.38.2.48.08.1.18.14.3.11.13-.03.23-.09.28-.19.06-.11.07-.27.03-.47h.02Z"/>
        <path class="st2" d="M50.18,47.78l-.16-.53-.59.17.16.53s.02.06.03.07c0,0,.02,0,.03,0,.02,0,.05,0,.09-.01s.09-.02.15-.04v.02s-.8.24-.8.24v-.02c.05-.02.1-.03.15-.05.04-.02.07-.03.08-.04.01-.01.02-.02.02-.03s0-.03-.01-.07l-.31-1.06s-.02-.06-.03-.07c0,0-.02,0-.03,0-.02,0-.05,0-.1.01-.05,0-.1.02-.15.04v-.02s.8-.24.8-.24v.02c-.11.03-.19.07-.23.1-.01,0-.02.02-.02.02,0,.01,0,.04.01.08l.14.49.59-.17-.14-.49s-.02-.06-.03-.07c0,0-.02,0-.03,0-.02,0-.05,0-.1.01-.05,0-.1.02-.15.04v-.02s.8-.24.8-.24v.02c-.06.02-.11.04-.14.05s-.07.03-.09.05h-.02s0,.06.01.1l.31,1.06s.02.06.03.07c0,0,.01,0,.03,0,.04,0,.13-.01.25-.05v.02s-.8.24-.8.24v-.02c.11-.04.19-.07.23-.09.01,0,.02-.02.02-.02,0-.01,0-.04-.01-.08Z"/>
        <path class="st2" d="M50.92,46.37l.38,1.04s.03.06.04.07c0,0,.01,0,.03,0,.04,0,.13-.02.25-.06v.02s-.79.29-.79.29v-.02c.05-.02.1-.04.14-.06.04-.02.07-.03.08-.05.01-.01.02-.02.02-.03,0-.01,0-.03-.02-.07l-.38-1.04s-.03-.06-.03-.07c0,0-.02,0-.03,0-.04,0-.13.02-.25.06v-.02s.79-.29.79-.29v.02c-.05.02-.1.04-.14.06-.04.02-.07.04-.08.05l-.02.02s0,.04.01.08Z"/>
        <path class="st2" d="M52.47,47.06c.16-.07.26-.17.3-.3.04-.13.02-.3-.06-.49h.03s.26.6.26.6l-1.29.55v-.02s.1-.05.14-.07c.04-.02.06-.04.08-.05.01-.01.02-.02.02-.03s0-.03-.02-.07l-.43-1.01s-.03-.06-.04-.07c0,0-.02,0-.03,0-.02,0-.05,0-.1.02-.05.01-.1.03-.15.05v-.02s.8-.34.8-.34v.02c-.07.03-.12.06-.16.08s-.07.04-.08.05c-.01.01-.02.02-.02.03,0,.01,0,.04.02.08l.43,1.01s.03.06.04.07c0,0,.02,0,.03,0,.05,0,.13-.03.24-.08Z"/>
        <path class="st2" d="M53.27,45.93l.26.51s.03.06.04.06.02,0,.05,0c.02,0,.05-.01.08-.02.03-.01.08-.04.14-.07.15-.07.23-.17.26-.29.03-.12,0-.29-.07-.49h.02s.29.56.29.56l-1.25.62v-.02c.1-.06.18-.1.21-.13.01-.01.02-.02.02-.03s0-.03-.03-.07l-.49-.99s-.03-.06-.04-.07c0,0-.02,0-.03,0-.02,0-.05.01-.09.03-.05.02-.09.04-.14.06v-.02s1.17-.59,1.17-.59l.24.48h-.02c-.05-.09-.12-.17-.22-.23-.13-.09-.25-.1-.37-.04-.05.02-.1.05-.15.07-.05.03-.09.05-.12.08,0,.01-.01.02-.01.03,0,.01,0,.03.03.07l.23.45c.13-.07.21-.12.23-.16.03-.07,0-.19-.06-.38h.02s.38.74.38.74h-.02c-.11-.15-.19-.25-.26-.26-.05-.01-.14.02-.27.08Z"/>
        <path class="st2" d="M55.31,45.14l-.3-.52c-.07-.11-.13-.18-.19-.2-.06-.02-.14,0-.24.06v-.02s.52-.31.52-.31v.02c-.08.05-.13.11-.14.17-.01.06.02.15.08.26l.52.89-.04.03-1.3-.55h-.03s0,0,.01.02l.35.61c.08.14.15.22.21.24.06.02.14,0,.25-.05v.02s-.53.31-.53.31v-.02c.09-.06.14-.11.15-.17.01-.06-.01-.15-.08-.27l-.37-.63c-.04-.07-.09-.11-.15-.13-.07-.02-.15,0-.24.04v-.02s.37-.22.37-.22l1.12.46s.04.02.05.01c0,0,0-.02-.02-.04Z"/>
        <path class="st2" d="M55.73,43.86c.03-.11.05-.17.05-.18l.26.39h-.02c-.09-.09-.19-.15-.3-.17-.12-.03-.22,0-.31.05-.06.04-.11.09-.13.15-.03.07-.03.14.02.21.04.06.11.1.19.1.07,0,.18-.02.31-.07.17-.06.29-.09.36-.09.11,0,.2.07.29.2.08.12.1.23.06.35-.03.1-.09.18-.18.24-.07.05-.14.08-.21.09-.07.01-.14,0-.22-.02-.01.14-.02.22-.02.22l-.32-.5h.01c.09.08.17.14.24.19.06.04.12.06.17.08.11.03.22,0,.34-.08.06-.04.1-.09.12-.16.03-.08.02-.15-.02-.21-.05-.08-.13-.12-.23-.12-.07,0-.18.03-.33.07-.15.05-.26.07-.33.06-.11,0-.19-.06-.26-.17-.06-.09-.08-.19-.05-.3.02-.11.08-.19.17-.25.08-.05.15-.08.21-.09.02,0,.07,0,.15,0Z"/>
        <path class="st2" d="M56.5,43.37l.64.91s.04.05.05.06c0,0,.02,0,.03,0,.04-.01.12-.05.22-.13v.02s-.68.49-.68.49v-.02s.08-.07.11-.1c.03-.03.06-.05.07-.07,0-.02.01-.03.01-.04s-.01-.03-.04-.06l-.63-.91s-.04-.05-.05-.06c0,0-.02,0-.03,0-.04.01-.12.05-.22.13v-.02s.68-.49.68-.49v.02s-.08.07-.12.1-.06.05-.07.07v.02s0,.04.02.08Z"/>
        <path class="st2" d="M57.35,42.71c.02-.11.04-.17.04-.18l.28.37h-.02c-.09-.08-.2-.14-.31-.15-.12-.02-.22,0-.31.07-.06.04-.1.1-.12.16-.03.07-.02.14.03.21.05.06.11.09.2.09.07,0,.17-.03.3-.09.17-.07.28-.11.35-.11.11,0,.21.06.3.18.08.11.11.23.09.34-.02.1-.08.18-.17.25-.07.05-.14.08-.21.1-.07.02-.14.02-.22,0,0,.14,0,.22,0,.22l-.35-.47h.01c.1.07.18.13.25.17.06.03.12.05.17.06.11.02.22-.01.34-.1.05-.04.09-.09.11-.16.02-.08,0-.15-.04-.21-.06-.08-.14-.11-.24-.1-.07,0-.18.04-.32.09-.14.06-.25.09-.32.09-.11,0-.2-.05-.27-.15-.07-.09-.09-.19-.07-.29.02-.11.07-.19.15-.26.07-.05.14-.09.2-.1.02,0,.07,0,.15-.01Z"/>
      </g>
    </g>
  </g>
</svg>