<?xml version="1.0" encoding="UTF-8"?>
<svg id="Capa_1" xmlns="http://www.w3.org/2000/svg" version="1.1" viewBox="0 0 147.81 38.23">
  <!-- Generator: Adobe Illustrator 30.2.1, SVG Export Plug-In . SVG Version: 2.1.1 Build 1)  -->
  <defs>
    <style>
      .st0 {
        fill: #fff;
      }
    </style>
  </defs>
  <g>
    <path class="st0" d="M98.77,34.29c-.25.31-.76.79-1.52,1.45-.76.66-1.23.99-1.4.99-.12,0-.18-.1-.18-.31s.16-.6.49-1.16c.32-.57.68-1.05,1.07-1.46,1.09-1.13,2.15-1.7,3.17-1.7-.81,1.12-1.35,1.85-1.63,2.19M103,35.35c-.02-.17-.09-.26-.21-.26-.07,0-.13.02-.16.04-.04.03-.14.15-.33.35-.18.2-.37.4-.56.59-.19.19-.41.38-.65.54-.24.17-.46.26-.63.26s-.27-.16-.27-.49c0-.11,0-.19.03-.25.09-.48.29-1.07.59-1.75.31-.68.59-1.24.84-1.68.25-.44.42-.7.5-.77.08-.08.12-.2.12-.37,0-.31-.23-.47-.68-.47-.2,0-.34.03-.44.09-.1.06-.22.19-.36.41-.05-.16-.18-.29-.38-.4s-.47-.16-.79-.16c-.84,0-1.75.39-2.74,1.16-.47.37-.9.78-1.3,1.23-.39.45-.71.95-.95,1.49-.1.22-.17.45-.23.67-.11.08-.27.19-.49.33-.31.2-.61.36-.89.48-.29.12-.66.24-1.11.34-.45.1-.89.16-1.34.16s-.76-.11-.95-.32c-.19-.21-.28-.46-.28-.76,0-.73.3-1.43.89-2.1.27-.31.57-.59.87-.84.31-.25.65-.49,1.02-.72s.73-.34,1.06-.34c.07,0,.1.04.1.13s-.09.25-.27.5c-.18.24-.27.41-.27.51,0,.36.19.54.57.54.33,0,.65-.22.97-.67s.48-.84.48-1.16-.13-.58-.39-.76c-.26-.18-.55-.28-.87-.28-.67,0-1.34.15-2.03.46-.68.31-1.28.71-1.8,1.21-.52.5-.94,1.08-1.27,1.73-.33.66-.49,1.32-.49,1.98s.25,1.19.75,1.6c.5.41,1.06.61,1.69.61s1.38-.16,2.27-.49c.45-.16.87-.35,1.26-.57.14-.08.27-.16.4-.25.06.37.21.66.46.89.26.24.59.37.99.37s.93-.22,1.57-.67c.64-.45,1.21-.99,1.7-1.64-.12.27-.18.58-.18.94s.11.68.34.97c.23.29.58.44,1.06.44s1.01-.24,1.6-.72c.59-.48.97-.89,1.14-1.23.04-.07.05-.2.05-.39s-.01-.36-.04-.54M79.37,32.22c.9-.48,1.44-.51,1.53-.37.08.12.06.45-.11.76-.17.32-.49.6-.85.75-.56.23-1.24.27-2.09.12.49-.55.99-.97,1.51-1.25M89.05,31.41c0-.23-.08-.42-.24-.57-.16-.15-.36-.22-.6-.22-.99,0-2.19.8-3.59,2.4l.38-.56c.52-.78.78-1.3.78-1.58,0-.18-.07-.27-.21-.27-.64,0-1.09.17-1.36.51-.14.18-.33.47-.55.86-.11.19-.44.75-.98,1.66-.55.92-.95,1.6-1.21,2.06-.04.08-.08.14-.12.21,0,0,0,0,0,0-.31.2-.61.36-.89.48-.29.12-.66.24-1.1.34-.45.1-.89.16-1.34.16s-.76-.11-.95-.32c-.19-.21-.28-.46-.28-.76,0-.4.09-.79.27-1.17.64.16,1.23.25,1.77.25.61,0,1.16-.1,1.65-.31.65-.27,1.2-.76,1.52-1.35.3-.57.5-1.47.03-2.15-.34-.49-1.21-1.14-3.26-.04-.58.31-1.12.73-1.63,1.27h0c-.52.49-.94,1.07-1.27,1.73-.21.42-.35.84-.43,1.27-.09.07-.17.14-.24.2-.09.07-.29.21-.59.41-.31.2-.61.36-.89.48-.29.12-.66.24-1.11.34-.45.1-.89.16-1.34.16s-.76-.11-.95-.32c-.19-.21-.28-.46-.28-.76,0-.73.3-1.43.89-2.1.27-.31.56-.59.87-.84.31-.25.65-.49,1.02-.72s.73-.34,1.06-.34c.07,0,.1.04.1.13s-.09.25-.27.5c-.18.24-.27.41-.27.51,0,.36.19.54.57.54.33,0,.65-.22.97-.67.32-.45.48-.84.48-1.16s-.13-.58-.39-.76c-.26-.18-.55-.28-.87-.28-.67,0-1.34.15-2.03.46-.68.31-1.28.71-1.8,1.21-.52.5-.94,1.08-1.27,1.73-.33.66-.49,1.32-.49,1.98s.25,1.19.75,1.6c.5.41,1.06.61,1.69.61s1.38-.16,2.27-.49c.45-.16.87-.35,1.26-.57.32-.18.6-.39.83-.63.1.42.33.78.69,1.08.5.41,1.06.61,1.69.61s1.38-.16,2.27-.49c.17-.06.33-.13.49-.2.01.03.03.06.05.08.04.04.17.09.39.17s.38.12.51.12.28-.13.47-.38c.64-.86,1.23-1.59,1.78-2.19.55-.6,1.21-1.28,1.99-2.04.78-.76,1.27-1.14,1.46-1.16l.02.02c-.44.52-.66.98-.66,1.39,0,.19.05.35.16.48.1.14.25.21.44.21s.36-.09.51-.29c.28-.38.59-.84.92-1.38.33-.55.5-.93.5-1.17"/>
    <path class="st0" d="M56.4,34.28c-.25.31-.76.79-1.52,1.45-.76.66-1.23.99-1.4.99-.12,0-.18-.1-.18-.31s.16-.6.49-1.16c.32-.57.68-1.05,1.07-1.46,1.09-1.13,2.15-1.7,3.17-1.7-.81,1.12-1.35,1.85-1.63,2.19M65.79,30.26c-.67,0-1.51.21-2.5.62-.5.21-.97.45-1.4.72-.44.27-.8.6-1.09.99-.29.39-.43.77-.43,1.16s.14.68.42.88c.13.09.26.17.38.22.13.05.3.11.51.17.21.06.56.15,1.03.26.47.11.81.2,1.01.28.2.07.3.16.3.26,0,.21-.27.43-.83.64-.55.21-1.19.32-1.9.32-.1,0-.2-.05-.31-.16s-.17-.24-.17-.39v-.14c0-.09-.05-.14-.16-.17,0-.02,0-.04,0-.06,0-.18-.01-.36-.04-.54-.02-.17-.09-.26-.21-.26-.07,0-.13.01-.16.04-.04.03-.14.15-.33.35-.18.2-.37.4-.56.59-.19.19-.41.38-.65.55-.24.17-.46.25-.64.25s-.27-.16-.27-.49c0-.11,0-.19.03-.25.09-.48.29-1.07.59-1.75.31-.68.59-1.24.84-1.68.25-.44.42-.7.5-.77.08-.08.12-.2.12-.37,0-.31-.23-.46-.68-.46-.2,0-.34.03-.44.08-.1.06-.22.19-.36.41-.05-.16-.18-.3-.39-.4-.2-.11-.46-.16-.79-.16-.83,0-1.75.39-2.74,1.16-.47.37-.9.78-1.3,1.23-.39.45-.71.95-.95,1.49-.12.28-.22.56-.28.84-.1.09-.2.19-.3.28-.2.18-.43.36-.69.54-.26.17-.46.26-.6.28-.14.01-.27,0-.37-.06-.1-.05-.15-.21-.15-.49,0-.2.24-.68.72-1.44.48-.76.96-1.52,1.44-2.27.48-.75.73-1.23.73-1.43s-.08-.37-.23-.51c-.16-.14-.35-.21-.57-.21-.66,0-1.31.2-1.96.61-.27.17-.56.4-.87.68-.31.28-.57.53-.77.75-.21.22-.46.5-.76.82-.3.33-.53.58-.7.74.01-.02.09-.11.23-.28.14-.17.23-.28.28-.34.04-.06.13-.17.25-.33.12-.16.2-.29.25-.38.05-.1.11-.22.18-.36.07-.14.12-.27.15-.4.03-.13.04-.29.04-.48s-.08-.38-.24-.55c-.16-.17-.38-.25-.68-.25s-.77.21-1.43.62c-.66.41-1.4,1.04-2.21,1.89.04-.05.19-.23.45-.55.26-.32.49-.61.68-.86.19-.25.31-.43.36-.54.05-.11.07-.2.07-.26,0-.23-.07-.35-.22-.35-.25,0-.51.04-.77.13-.27.09-.46.21-.58.38-1.08,1.53-2.21,3.58-3.37,6.13-.05.15-.07.26-.07.33s.02.11.05.13c.04.02.09.06.16.12.07.05.13.09.19.11h.16l.44.02c.05,0,.16-.09.31-.27.15-.18.26-.31.31-.39.83-1.42,2-2.86,3.51-4.3.55-.52.91-.79,1.09-.79s.26.07.26.22-.47,1.03-1.42,2.64c-.95,1.61-1.42,2.45-1.42,2.51,0,.12.1.22.31.29.21.07.41.11.6.11s.34-.06.42-.18c.78-1.02,1.28-1.65,1.48-1.9.79-.95,1.74-1.93,2.83-2.95.64-.6,1.05-.89,1.23-.89.05,0,.07.01.07.04s-.13.22-.39.58c-.26.35-.54.75-.85,1.19-.31.44-.59.93-.85,1.48-.26.54-.39,1-.39,1.39s.12.71.35.99c.24.28.66.45,1.27.51.03,0,.08,0,.14,0,.54,0,1.11-.24,1.7-.72.07-.06.14-.12.21-.18.08.19.19.35.34.49.26.24.59.37.99.37s.93-.22,1.57-.67c.64-.45,1.21-.99,1.7-1.64-.12.27-.18.58-.18.93s.11.68.34.97c.23.29.58.44,1.06.44s1.01-.24,1.6-.72c.08-.06.15-.12.21-.18.05.22.17.42.39.59.27.22.76.33,1.48.33s1.55-.24,2.51-.71c.45-.21.82-.49,1.13-.83.3-.34.46-.7.46-1.08,0-.18-.07-.39-.22-.62-.15-.23-.42-.43-.8-.61-.39-.18-1.2-.39-2.43-.64-.27-.05-.41-.12-.41-.21s.1-.22.3-.41c.2-.18.46-.38.76-.58.31-.2.68-.39,1.1-.55.43-.16.84-.25,1.23-.27-.02.08-.07.16-.13.24-.06.07-.09.15-.09.22s.02.12.07.13c.04.02.08.05.11.08.03.04.07.07.11.09.04.02.15.04.32.04s.4-.07.69-.21.5-.3.63-.48c.13-.18.2-.43.2-.74v-.06c0-.13-.02-.24-.07-.34-.16-.29-.56-.43-1.23-.43M57.77,29.91c.18,0,.63-.21,1.36-.62.73-.41,1.18-.69,1.34-.85.5-.33.75-.74.75-1.23,0-.18-.06-.38-.17-.59-.11-.21-.23-.31-.34-.31s-.2.05-.24.16c-.04.11-.1.2-.19.29-.09.08-.25.21-.48.37-.23.16-.5.37-.81.62-.31.25-.59.52-.85.8-.26.28-.45.6-.59.94-.03.06-.04.12-.04.17,0,.16.09.23.26.23"/>
  </g>
  <polygon class="st0" points="11.05 22.27 11.05 8.41 11.05 8.12 10.76 8.12 9.32 8.12 9.03 8.12 9.03 8.41 9.04 24.08 9.04 24.37 9.32 24.37 15.91 24.37 16.19 24.37 16.19 24.08 16.19 22.56 16.19 22.27 15.91 22.27 11.05 22.27"/>
  <path class="st0" d="M23.2,13.68c1.02,0,1.89.43,2.68,1.31.8.89,1.19,1.9,1.19,3.09,0,1.27-.4,2.37-1.18,3.27-.78.9-1.68,1.34-2.72,1.34s-2-.42-2.78-1.27c-.78-.85-1.17-1.9-1.18-3.15,0-1.33.39-2.4,1.18-3.29.78-.88,1.7-1.31,2.81-1.31M29.03,11.96h-.29s-1.38,0-1.38,0h-.29v.29s0,1.07,0,1.07c-.39-.42-.84-.76-1.34-1.03-.75-.39-1.58-.58-2.47-.58h0c-1.73,0-3.19.63-4.34,1.88-1.15,1.24-1.73,2.8-1.73,4.64s.57,3.35,1.69,4.59c1.13,1.24,2.56,1.87,4.25,1.87.92,0,1.79-.2,2.58-.61.53-.28.99-.62,1.37-1.03v1.04s0,.29,0,.29h1.66s.29,0,.29,0v-12.12s0-.29,0-.29Z"/>
  <path class="st0" d="M44.34,17.47h-4.69s2.33-6.71,2.33-6.71l2.37,6.71ZM43.14,8.31l-.07-.19h-.2s-1.73,0-1.73,0h-.2s-.07.19-.07.19l-5.67,15.66-.14.38h.41s1.52,0,1.52,0h.2l.07-.19,1.68-4.73h6.1s1.68,4.73,1.68,4.73l.07.19h1.74s.41,0,.41,0l-.14-.39-5.66-15.67Z"/>
  <path class="st0" d="M55.18,12.06v-.29s-.3.01-.3.01c-.59.02-1.12.16-1.57.43-.24.14-.48.34-.7.57v-.83h-1.92v12.12s0,.29,0,.29h2.01v-7.43c0-1.02.17-1.76.51-2.18.33-.42.9-.67,1.71-.75l.26-.02v-1.92Z"/>
  <path class="st0" d="M62.27,22.83v-.14c-1.09,0-2-.42-2.78-1.27-.79-.86-1.17-1.89-1.17-3.15s.4-2.41,1.17-3.29c.77-.87,1.72-1.31,2.81-1.31,1.02,0,1.9.43,2.68,1.31.79.88,1.18,1.92,1.18,3.09,0,1.27-.4,2.37-1.18,3.27-.78.9-1.67,1.34-2.73,1.34v.14ZM68.12,11.96h-1.95v1.35c-.39-.42-.84-.76-1.35-1.03-.75-.39-1.58-.58-2.47-.58-1.73,0-3.19.63-4.35,1.88-1.15,1.24-1.73,2.8-1.72,4.64,0,1.81.57,3.35,1.69,4.59,1.13,1.24,2.56,1.87,4.26,1.87.91,0,1.78-.2,2.56-.61.53-.27.99-.62,1.38-1.03v1.33h1.95v-12.12s0-.29,0-.29Z"/>
  <path class="st0" d="M80.56,11.96h-1.99v6.11c0,.99-.03,1.73-.1,2.14-.07.38-.18.72-.33,1-.27.47-.62.83-1.06,1.09-.43.25-.95.37-1.53.37-1.02,0-1.75-.3-2.18-.89-.45-.62-.68-1.72-.68-3.26v-6.57h-1.98v6.46c0,2.19.38,3.79,1.12,4.76.75.99,1.99,1.5,3.68,1.5.79,0,1.48-.13,2.04-.4.37-.17.71-.42,1.02-.72v.82h1.71s.29,0,.29,0v-12.12s0-.29,0-.29Z"/>
  <path class="st0" d="M88.48,13.64c.81,0,1.49.19,2.08.57.58.38,1.08.99,1.5,1.8l.08.16h2.15l-.14-.39c-.47-1.3-1.19-2.33-2.15-3.05-.96-.73-2.08-1.1-3.34-1.1-1.67,0-3.12.64-4.28,1.92-1.16,1.27-1.75,2.83-1.74,4.65,0,1.78.58,3.32,1.73,4.59,1.15,1.28,2.59,1.92,4.26,1.92,1.31,0,2.46-.37,3.43-1.11.96-.73,1.67-1.78,2.12-3.12l.12-.38h-1.96s-.19,0-.19,0l-.07.17c-.33.77-.8,1.37-1.4,1.77-.6.42-1.31.63-2.1.63-1.1,0-2-.42-2.75-1.27-.75-.85-1.13-1.94-1.13-3.23s.37-2.37,1.12-3.24c.74-.87,1.62-1.29,2.68-1.29"/>
  <path class="st0" d="M102.08,13.68c1.02,0,1.9.43,2.68,1.31.79.89,1.18,1.91,1.18,3.1,0,1.27-.39,2.37-1.18,3.27-.79.9-1.67,1.34-2.72,1.34h0c-1.09,0-2-.42-2.78-1.27-.78-.86-1.17-1.91-1.17-3.15,0-1.3.4-2.41,1.18-3.29.78-.88,1.7-1.31,2.81-1.31M107.9,11.96h-1.95v1.35c-.39-.42-.84-.76-1.35-1.03-.74-.39-1.57-.58-2.46-.58h-.02c-1.73,0-3.19.63-4.34,1.88-1.14,1.24-1.73,2.79-1.73,4.64s.57,3.35,1.69,4.59c1.13,1.24,2.56,1.87,4.26,1.88.92,0,1.78-.21,2.57-.61.53-.27.99-.62,1.38-1.03v1.33h1.95v-12.12s0-.29,0-.29Z"/>
  <path class="st0" d="M119.58,13.73c-.39-.65-.94-1.15-1.62-1.5-.66-.34-1.43-.52-2.29-.52-.78,0-1.48.14-2.08.41-.4.18-.77.43-1.11.74v-.62s0-.29,0-.29h-1.95v12.12s0,.29,0,.29h1.66s.29,0,.29,0v-6.05c0-1.01.03-1.72.1-2.11.07-.38.18-.72.34-1.01.25-.46.6-.82,1.04-1.07.45-.25.95-.38,1.55-.38,1.02,0,1.73.27,2.17.84.46.57.68,1.54.69,2.87v6.63s0,.29,0,.29h1.97v-6.47c0-1.12-.06-1.99-.17-2.58-.12-.6-.32-1.14-.59-1.59"/>
  <path class="st0" d="M128.42,13.68c1.01,0,1.91.44,2.68,1.3.8.89,1.19,1.9,1.19,3.1,0,1.27-.4,2.37-1.18,3.27-.77.89-1.69,1.34-2.72,1.34-1.09,0-2-.42-2.79-1.27-.78-.85-1.17-1.91-1.17-3.15,0-1.3.39-2.41,1.18-3.29.77-.87,1.71-1.3,2.81-1.3M134.24,12.25v-.29h-1.67s-.29,0-.29,0v1.35c-.39-.42-.84-.76-1.34-1.03-.75-.39-1.59-.58-2.48-.58-1.74,0-3.2.63-4.34,1.88-1.15,1.24-1.73,2.8-1.73,4.64s.57,3.35,1.69,4.59c1.13,1.24,2.56,1.87,4.26,1.87.92,0,1.78-.21,2.57-.61.53-.27.98-.62,1.37-1.02v1.04s0,.29,0,.29h1.95v-12.12Z"/>
  <path class="st0" d="M36.88,33.56H4.81c-2.65,0-4.81-2.16-4.81-4.81V4.81C0,2.16,2.16,0,4.81,0h133.62c2.65,0,4.81,2.16,4.81,4.81v23.94c0,2.65-2.16,4.81-4.81,4.81h-30.65c-.51,0-.93-.42-.93-.93s.42-.93.93-.93h30.65c1.62,0,2.95-1.32,2.95-2.95V4.81c0-1.62-1.32-2.95-2.95-2.95H4.81c-1.63,0-2.95,1.32-2.95,2.95v23.95c0,1.62,1.32,2.95,2.95,2.95h32.08c.51,0,.93.42.93.93s-.42.93-.93.93"/>
  <path class="st0" d="M145.58,1.72h.27c.06,0,.11,0,.17,0,.06,0,.11-.02.15-.04.05-.02.08-.05.11-.09s.04-.09.04-.16-.01-.12-.04-.16-.07-.07-.11-.09c-.05-.02-.1-.03-.15-.03-.06,0-.11,0-.17,0h-.27v.57ZM145.21.84h.78c.24,0,.42.05.54.16.12.1.17.26.17.45,0,.18-.04.31-.14.4-.09.09-.21.14-.34.16l.52.85h-.39l-.5-.83h-.27v.83h-.37V.84ZM144.42,1.86c0,.21.04.41.12.59.08.19.19.35.33.49.14.14.3.25.49.33.19.08.39.12.6.12s.41-.04.59-.12c.19-.08.35-.19.49-.33.14-.14.25-.3.33-.49.08-.19.12-.39.12-.59s-.04-.41-.12-.59c-.08-.19-.19-.35-.33-.49-.14-.14-.3-.25-.49-.33-.19-.08-.38-.12-.59-.12s-.41.04-.6.12c-.19.08-.35.19-.49.33-.14.14-.25.3-.33.49-.08.19-.12.39-.12.59M144.09,1.86c0-.26.05-.5.15-.72.1-.23.23-.42.4-.59.17-.17.37-.3.59-.4.23-.1.47-.15.72-.15s.5.05.72.15c.23.1.42.23.59.4.17.17.3.37.4.59.1.23.15.47.15.72s-.05.5-.15.72c-.1.23-.23.42-.4.59-.17.17-.36.3-.59.4-.23.1-.47.15-.72.15s-.5-.05-.72-.15c-.23-.1-.42-.23-.59-.4-.17-.17-.3-.37-.4-.59-.1-.23-.15-.47-.15-.72"/>
</svg>