<?xml version="1.0" encoding="UTF-8"?>
<svg id="Capa_1" xmlns="http://www.w3.org/2000/svg" version="1.1" viewBox="0 0 107.42 57.16">
  <!-- Generator: Adobe Illustrator 30.2.1, SVG Export Plug-In . SVG Version: 2.1.1 Build 1)  -->
  <defs>
    <style>
      .st0 {
        fill: #fff;
      }
    </style>
  </defs>
  <path class="st0" d="M9.4,47.94c.88,0,1.63-.08,2.25-.23.6-.16,1.17-.36,1.66-.62l.75,2.62c-.52.26-1.19.49-2.02.67-.8.18-1.81.28-2.98.28-1.29,0-2.49-.21-3.6-.62-1.11-.41-2.07-1.01-2.87-1.81-.8-.78-1.42-1.76-1.89-2.9-.47-1.11-.7-2.43-.7-3.88s.21-2.69.65-3.86c.44-1.14,1.06-2.12,1.86-2.93.8-.8,1.76-1.4,2.87-1.84,1.11-.41,2.36-.65,3.73-.65,1.22,0,2.2.1,2.98.31.78.21,1.45.47,1.99.75l-.8,2.62c-.57-.28-1.14-.52-1.74-.67-.6-.18-1.27-.26-2.05-.26s-1.55.13-2.25.36-1.32.62-1.84,1.14-.93,1.19-1.24,2.02-.47,1.81-.47,3,.16,2.12.47,2.95c.31.83.7,1.5,1.22,2.02s1.11.93,1.81,1.17c.67.26,1.42.36,2.2.36Z"/>
  <path class="st0" d="M24.03,32.19c1.24,0,2.41.21,3.47.62s1.97,1.01,2.75,1.79,1.37,1.76,1.81,2.9.65,2.46.65,3.96-.23,2.75-.67,3.88-1.06,2.1-1.84,2.87-1.71,1.4-2.8,1.81c-1.06.41-2.23.62-3.47.62s-2.41-.21-3.47-.6-1.97-.98-2.75-1.76-1.37-1.74-1.81-2.87c-.44-1.14-.65-2.46-.65-3.96s.23-2.77.67-3.91c.44-1.14,1.06-2.12,1.84-2.93s1.71-1.4,2.8-1.81c1.06-.41,2.2-.62,3.47-.62ZM18.93,41.46c0,1.11.13,2.1.39,2.9.26.8.62,1.5,1.09,2.02.47.54,1.01.93,1.63,1.22.62.26,1.27.39,1.97.39s1.35-.13,1.97-.39c.6-.26,1.14-.67,1.58-1.22.44-.54.8-1.22,1.06-2.02s.39-1.79.39-2.9-.13-2.12-.39-2.95-.62-1.53-1.09-2.07c-.47-.54-1.01-.93-1.63-1.19s-1.27-.39-1.97-.39-1.35.13-1.97.41c-.6.28-1.14.67-1.58,1.22-.44.54-.8,1.22-1.06,2.07-.26.83-.39,1.81-.39,2.9Z"/>
  <path class="st0" d="M35.79,32.48h6.45c.98,0,1.84.13,2.59.41.75.28,1.35.67,1.86,1.17.49.49.88,1.06,1.14,1.74.26.67.39,1.37.39,2.15,0,.73-.1,1.35-.34,1.92-.21.54-.49,1.04-.83,1.45s-.73.75-1.14,1.04c-.41.28-.83.49-1.22.67l4.53,7.35h-3.96l-3.73-6.73h-2.36v6.73h-3.39v-17.9h0ZM39.18,40.94h1.74c1.09,0,1.97-.23,2.67-.67.7-.44,1.06-1.19,1.06-2.23,0-.96-.28-1.66-.83-2.15-.57-.49-1.37-.75-2.46-.75h-2.15v5.8h-.03Z"/>
  <g>
    <path class="st0" d="M50.27,0v57.16h57.16V0h-57.16ZM83.42,6.79l1.32,1.4,1.74-.83-.93,1.68,1.32,1.4-1.89-.36-.93,1.68-.23-1.92-1.89-.36,1.74-.83-.23-1.86ZM74.14,11.37l.65.7.88-.41-.47.85.67.7-.96-.18-.47.85-.13-.96-.96-.18.88-.41-.1-.96ZM64.48,7.64l1.32,1.4,1.74-.83-.93,1.68,1.32,1.4-1.89-.36-.93,1.68-.23-1.92-1.89-.36,1.74-.83-.23-1.86ZM58.55,17.61l1.32,1.4,1.74-.83-.93,1.68,1.32,1.4-1.89-.36-.93,1.68-.23-1.92-1.89-.36,1.74-.83-.23-1.86ZM68.4,50.4c-.16-1.89-.31-3.81-.44-5.72-.13-1.92-.26-3.86-.34-5.78l-.1-3.26h-.05c-.31,1.17-.65,2.36-1.01,3.57s-.73,2.38-1.09,3.5l-2.54,7.72h-2.59l-2.56-7.74c-.26-.8-.49-1.55-.7-2.23s-.39-1.27-.54-1.84c-.16-.57-.31-1.09-.44-1.58-.13-.49-.26-.96-.36-1.42h-.08c-.05,1.61-.13,3.26-.26,4.92-.1,1.66-.21,3.26-.31,4.82l-.34,5.05h-2.9l1.42-17.92h3.94l3.16,9.66c.26.8.49,1.55.7,2.2s.41,1.4.62,2.2h.08c.21-.67.41-1.42.65-2.2.21-.78.44-1.53.65-2.23l3.03-9.66h3.91l1.48,17.92h-2.98v.03ZM70.8,25.72l-.23-1.92-1.89-.36,1.74-.83-.23-1.89,1.32,1.4,1.74-.83-.93,1.68,1.32,1.4-1.89-.36-.93,1.71ZM87.27,50.4l-1.79-4.69h-7.02l-1.76,4.69h-3.16l7.04-17.92h2.9l6.97,17.92h-3.19ZM106.26,49.59c-.75.31-1.61.57-2.56.78-.96.21-2.05.31-3.31.31s-2.43-.21-3.52-.6-2.05-.98-2.87-1.76c-.8-.78-1.45-1.74-1.92-2.87-.47-1.14-.7-2.46-.7-3.96s.23-2.82.67-3.99c.47-1.17,1.09-2.12,1.89-2.93.8-.78,1.76-1.37,2.85-1.79,1.09-.39,2.3-.6,3.57-.6,2.07,0,3.83.36,5.23,1.06l-.67,2.25c-.67-.31-1.37-.57-2.07-.7-.7-.16-1.4-.23-2.15-.23-.8,0-1.58.13-2.3.36-.73.26-1.37.65-1.94,1.19s-1.01,1.27-1.35,2.12c-.34.88-.49,1.94-.49,3.21,0,2.23.49,3.91,1.5,5.08s2.43,1.76,4.27,1.76c.65,0,1.19-.03,1.66-.1.47-.08.91-.18,1.32-.34v-4.71h-3.24v-2.33h6.11v8.78h.03Z"/>
    <path class="st0" d="M82.79,38.22c-.13-.36-.26-.73-.39-1.11s-.26-.8-.39-1.24h-.05c-.28.83-.54,1.61-.8,2.3s-.52,1.48-.85,2.3l-1.09,2.87h5.44l-1.06-2.9c-.16-.39-.28-.78-.41-1.14-.13-.36-.26-.73-.39-1.09Z"/>
  </g>
</svg>