<?xml version="1.0" encoding="UTF-8"?>
<svg id="Capa_1" xmlns="http://www.w3.org/2000/svg" version="1.1" viewBox="0 0 122.94 25.31">
  <!-- Generator: Adobe Illustrator 30.2.1, SVG Export Plug-In . SVG Version: 2.1.1 Build 1)  -->
  <defs>
    <style>
      .st0 {
        fill: #fff;
      }
    </style>
  </defs>
  <path class="st0" d="M18.29,15.25l-3.77,1.97c-.1.52-.28,1.02-.52,1.5-.93,1.72-2.73,2.88-4.82,2.88-1.52,0-2.88-.61-3.88-1.61l12.7-6.31c-.71-2.57-2.5-4.69-4.85-5.83-.01,0-.02-.01-.03-.02-.11-.05-.22-.1-.34-.15-.05-.02-.1-.04-.14-.06-.09-.04-.18-.07-.28-.11-.1-.04-.19-.07-.29-.1-.05-.02-.11-.04-.16-.05-.86-.27-1.78-.42-2.73-.42-1.39,0-2.7.31-3.88.86h0s-.02,0-.05.02c-.31.14-.6.31-.88.48-.13.07-.26.14-.39.23C1.94,9.93.5,12.1.09,14.63c0,0-.09.98-.09,1.5,0,.85.12,1.67.33,2.45.31,1.13.83,2.17,1.52,3.08,1.67,2.21,4.33,3.65,7.32,3.65.71,0,1.39-.08,2.06-.23.02,0,.04,0,.06-.01.1-.02.2-.05.3-.08.05-.01.1-.03.15-.04.07-.02.15-.04.22-.07.08-.03.16-.05.25-.08.04-.02.09-.03.13-.05.13-.05.25-.1.37-.15h0c3.02-1.28,5.21-4.12,5.56-7.52v-.02c.01-.1.02-.2.02-.3.11,2.28.99,4.25,2.64,5.9,1.77,1.77,3.9,2.65,6.39,2.65,1.99,0,4.25-.22,6.83-1.68l.65-.34,4.2-2.09c.16.26.12.21.31.46,1.67,2.21,4.33,3.65,7.32,3.65.71,0,1.39-.08,2.06-.23.02,0,.04,0,.06-.01.1-.02.2-.05.3-.08.05-.01.1-.03.15-.04.07-.02.15-.04.22-.07.08-.03.16-.05.25-.08.04-.02.09-.03.13-.05.13-.05.25-.1.37-.15h0c2.8-1.18,4.88-3.71,5.45-6.78v7.5h3.61l-.02-25.31-3.6.02v15.3l-3.65,1.91c-.1.52-.28,1.02-.52,1.5-.93,1.72-2.73,2.88-4.82,2.88-1.52,0-2.88-.61-3.88-1.61l12.7-6.31c-.71-2.57-2.5-4.69-4.85-5.83-.01,0-.02-.01-.03-.02-.11-.05-.22-.1-.34-.15-.05-.02-.1-.04-.14-.06-.09-.04-.18-.07-.28-.11-.1-.04-.19-.07-.29-.1-.05-.02-.11-.04-.16-.05-.86-.27-1.78-.42-2.73-.42-1.39,0-2.7.31-3.88.86h0s-.02,0-.05.02c-.31.14-.6.31-.88.48-.13.07-.26.14-.39.23-2.03,1.39-3.47,3.56-3.88,6.09v.03c-.09.49-.08.95-.08,1.47,0,.62.02,1.64.13,2.23l-1.2.57-.02-18.91h-3.63l-.02,9.52c-1.96-1.57-3.76-2.35-5.4-2.35-2.49,0-4.62.88-6.39,2.65-1.52,1.52-2.39,3.32-2.6,5.38M3.7,16.13c0-1.98,1.04-3.7,2.61-4.67l.67-.34h0c.67-.3,1.41-.47,2.2-.47,1.6,0,3.04.69,4.04,1.78l-9.46,4.51c-.04-.26-.06-.54-.06-.81h0ZM32.75,20.04c-2.16,1.31-3.96,1.59-5.4,1.59s-2.76-.52-3.81-1.57c-1.05-1.05-1.57-2.32-1.57-3.81s.52-2.78,1.57-3.83c1.05-1.05,2.32-1.57,3.81-1.57s2.78.52,3.83,1.57c1.05,1.05,1.57,2.33,1.57,3.83v3.79ZM41.17,16.13c0-1.98,1.04-3.7,2.61-4.67l.67-.34h0c.67-.3,1.41-.47,2.2-.47,1.6,0,3.04.69,4.04,1.78l-9.46,4.51c-.04-.26-.06-.54-.06-.81h0Z"/>
  <path class="st0" d="M78.75,7.22h-.05c-1.72,0-3.6.74-5.62,2.2-1.58-1.46-3.21-2.19-4.9-2.2h-.04c-2.38,0-4.74,1.16-7.06,3.49v14.56h3.65v-12.3c.94-1.4,2.1-2.1,3.47-2.1.83,0,1.61.37,2.35,1.12.71.74,1.08,1.83,1.1,3.29v10.01l3.63.02v-.04h.02v-12.3c.94-1.4,2.09-2.1,3.45-2.1.84,0,1.63.37,2.37,1.12.71.74,1.08,1.83,1.1,3.29v10.01l3.63.02.02-9.83c0-2.52-.73-4.52-2.18-6.01-1.45-1.49-3.1-2.24-4.94-2.25h0Z"/>
  <path class="st0" d="M88.85,9.91c-1.76,1.76-2.64,3.88-2.64,6.38s.88,4.62,2.64,6.38c1.76,1.76,3.88,2.64,6.38,2.64,1.64,0,3.43-.79,5.37-2.37v2.37h3.65v-14.47c-3.48-2.37-6.48-3.56-9.01-3.56s-4.62.88-6.38,2.64h0ZM100.59,16.29c0,1.49-.52,2.76-1.56,3.8-1.04,1.04-2.31,1.56-3.8,1.56s-2.76-.52-3.8-1.56-1.56-2.31-1.56-3.8.52-2.76,1.56-3.8c1.04-1.04,2.31-1.56,3.8-1.56s3.22.65,5.37,1.95c0,0,0,3.41,0,3.41Z"/>
  <path class="st0" d="M121.42,11.22l-4.24,2.36-7.38,3.85c.32.91,1.3,2.18,2.38,2.65l5.85-3.18,1.27-.69c-.04,2.9-2.35,5.3-5.28,5.42-.76.03-1.49-.09-2.16-.34-1.66-.62-2.96-2.03-3.41-3.79-.1-.37-.15-.75-.17-1.15-.13-3.04,2.24-5.62,5.28-5.74,1.22-.05,2.41.33,3.37,1l3.37-1.95c-1.56-1.58-3.69-2.6-6.05-2.73-.03,0-.06,0-.09,0-.11,0-.22,0-.33,0-.12,0-.25,0-.38,0h-.05c-5.07.22-9.01,4.5-8.79,9.58.19,4.4,3.43,7.94,7.6,8.67.05,0,.1.02.15.03.02,0,.03,0,.04,0,.45.07.9.1,1.36.1,5.08,0,9.2-4.12,9.2-9.2,0-1.91-.52-3.44-1.52-4.91h0Z"/>
</svg>