<?xml version="1.0" encoding="UTF-8"?>
<svg id="Capa_1" xmlns="http://www.w3.org/2000/svg" version="1.1" viewBox="0 0 109.98 42.16">
  <!-- Generator: Adobe Illustrator 30.2.1, SVG Export Plug-In . SVG Version: 2.1.1 Build 1)  -->
  <defs>
    <style>
      .st0 {
        fill: #fff;
      }
    </style>
  </defs>
  <polygon class="st0" points="6.87 8.72 6.87 29.34 0 29.34 0 0 8.09 0 19.45 18.36 19.45 0 26.32 0 26.32 29.34 19.53 29.34 6.87 8.72"/>
  <polygon class="st0" points="51.6 5.53 37.05 5.53 37.05 11.65 49.58 11.65 49.58 17.19 37.05 17.19 37.05 23.72 51.6 23.72 51.6 29.34 30.01 29.34 30.01 0 51.6 0 51.6 5.53"/>
  <polygon class="st0" points="54.53 0 63.75 0 70.88 19.91 77.79 0 87.01 0 87.01 29.34 80.47 29.34 80.47 8.72 73.52 29.34 68.11 29.34 61.07 8.72 61.07 29.34 54.53 29.34 54.53 0"/>
  <g>
    <path class="st0" d="M91.04,28.31c-1.26-1.13-1.89-2.66-1.89-4.59,0-2.04.72-3.53,2.16-4.48,1.44-.95,3.57-1.62,6.39-2.01l4.65-.67c.31-.06.53-.16.67-.31.14-.15.21-.45.21-.9,0-.92-.31-1.63-.94-2.12-.63-.49-1.43-.73-2.41-.73s-1.8.22-2.39.67c-.59.45-.95,1.08-1.09,1.89h-6.54c.2-2.35,1.19-4.16,3-5.43,1.8-1.27,4.14-1.91,7.02-1.91s5.21.67,7.17,2.01c1.96,1.34,2.93,3.44,2.93,6.29v13.33h-6.54v-4.74c-.31,1.68-1.09,3-2.35,3.96-1.26.96-2.88,1.45-4.86,1.45-2.21,0-3.94-.57-5.2-1.7M102.02,24.35c.81-.73,1.22-1.79,1.22-3.19v-1.22c-.11.08-.32.14-.63.17l-3.69.54c-.92.14-1.63.4-2.12.78-.49.38-.73.92-.73,1.61,0,.78.24,1.38.71,1.78.47.41,1.22.61,2.22.61,1.2,0,2.21-.36,3.02-1.09"/>
    <polygon class="st0" points=".77 37.19 .77 34.33 1.29 34.33 2.46 37.04 2.51 37.04 2.51 34.33 2.77 34.33 2.77 37.19 2.25 37.19 1.08 34.48 1.03 34.48 1.03 37.19 .77 37.19"/>
    <path class="st0" d="M5.13,37.25c-.2,0-.38-.04-.54-.11-.15-.07-.27-.18-.36-.33-.09-.15-.13-.33-.13-.56v-1.93h.26v1.93c0,.26.07.45.2.57.13.12.32.19.57.19s.43-.06.57-.19c.13-.12.2-.31.2-.57v-1.93h.26v1.93c0,.22-.04.41-.13.56-.09.15-.21.26-.36.33-.16.07-.34.11-.54.11M4.94,34.09l.27-.48h.32l-.34.48h-.25Z"/>
    <path class="st0" d="M8.51,37.25c-.34,0-.6-.1-.8-.3-.2-.2-.3-.49-.3-.87v-.65c0-.38.1-.67.3-.87.2-.2.47-.3.8-.3s.59.09.76.28c.18.19.26.44.26.76v.02h-.26v-.03c0-.23-.06-.43-.19-.57-.12-.15-.32-.22-.58-.22s-.47.08-.62.24c-.15.16-.22.39-.22.68v.66c0,.29.07.52.22.68.15.16.36.24.62.24s.45-.07.58-.22c.12-.15.19-.34.19-.57v-.06h.26v.05c0,.32-.09.58-.26.76-.18.19-.43.28-.76.28"/>
    <polygon class="st0" points="10.77 37.19 10.77 34.33 11.03 34.33 11.03 36.96 12.54 36.96 12.54 37.19 10.77 37.19"/>
    <polygon class="st0" points="13.66 37.19 13.66 34.33 15.39 34.33 15.39 34.57 13.92 34.57 13.92 35.64 15.28 35.64 15.28 35.88 13.92 35.88 13.92 36.96 15.41 36.96 15.41 37.19 13.66 37.19"/>
    <path class="st0" d="M17.64,37.25c-.34,0-.6-.1-.8-.3-.2-.2-.3-.49-.3-.87v-.65c0-.38.1-.67.3-.87.2-.2.47-.3.8-.3s.6.1.8.3c.2.2.3.49.3.87v.65c0,.38-.1.67-.3.87-.2.2-.47.3-.8.3M17.64,37.01c.27,0,.47-.08.62-.24.15-.16.22-.39.22-.68v-.66c0-.29-.07-.52-.22-.68-.15-.16-.35-.24-.62-.24s-.47.08-.62.24c-.15.16-.22.39-.22.68v.66c0,.29.07.52.22.68.15.16.35.24.62.24"/>
    <polygon class="st0" points="22.34 37.19 22.34 34.57 21.39 34.57 21.39 34.33 23.56 34.33 23.56 34.57 22.61 34.57 22.61 37.19 22.34 37.19"/>
    <polygon class="st0" points="24.68 37.19 24.68 34.33 26.41 34.33 26.41 34.57 24.94 34.57 24.94 35.64 26.3 35.64 26.3 35.88 24.94 35.88 24.94 36.96 26.43 36.96 26.43 37.19 24.68 37.19"/>
    <path class="st0" d="M28.67,37.25c-.34,0-.6-.1-.8-.3-.2-.2-.3-.49-.3-.87v-.65c0-.38.1-.67.3-.87.2-.2.47-.3.8-.3s.59.09.76.28c.18.19.26.44.26.76v.02h-.26v-.03c0-.23-.06-.43-.19-.57-.12-.15-.32-.22-.58-.22s-.47.08-.62.24c-.15.16-.22.39-.22.68v.66c0,.29.07.52.22.68.15.16.36.24.62.24s.45-.07.58-.22c.12-.15.19-.34.19-.57v-.06h.26v.05c0,.32-.09.58-.26.76-.18.19-.43.28-.76.28"/>
    <polygon class="st0" points="30.93 37.19 30.93 34.33 31.45 34.33 32.62 37.04 32.67 37.04 32.67 34.33 32.93 34.33 32.93 37.19 32.41 37.19 31.24 34.48 31.19 34.48 31.19 37.19 30.93 37.19"/>
    <path class="st0" d="M35.3,37.25c-.34,0-.6-.1-.8-.3-.2-.2-.3-.49-.3-.87v-.65c0-.38.1-.67.3-.87.2-.2.47-.3.8-.3s.6.1.8.3c.2.2.3.49.3.87v.65c0,.38-.1.67-.3.87-.2.2-.47.3-.8.3M35.3,37.01c.27,0,.47-.08.62-.24.15-.16.22-.39.22-.68v-.66c0-.29-.07-.52-.22-.68-.15-.16-.35-.24-.62-.24s-.47.08-.62.24c-.15.16-.22.39-.22.68v.66c0,.29.07.52.22.68.15.16.35.24.62.24"/>
    <polygon class="st0" points="37.67 37.19 37.67 34.33 37.93 34.33 37.93 36.96 39.43 36.96 39.43 37.19 37.67 37.19"/>
    <path class="st0" d="M41.49,37.25c-.34,0-.6-.1-.8-.3-.2-.2-.3-.49-.3-.87v-.65c0-.38.1-.67.3-.87.2-.2.47-.3.8-.3s.6.1.8.3c.2.2.3.49.3.87v.65c0,.38-.1.67-.3.87-.2.2-.47.3-.8.3M41.49,37.01c.27,0,.47-.08.62-.24.15-.16.22-.39.22-.68v-.66c0-.29-.07-.52-.22-.68-.15-.16-.35-.24-.62-.24s-.47.08-.62.24c-.15.16-.22.39-.22.68v.66c0,.29.07.52.22.68.15.16.35.24.62.24M41.3,34.09l.27-.48h.32l-.34.48h-.25Z"/>
    <path class="st0" d="M44.86,37.25c-.22,0-.41-.04-.57-.13-.16-.09-.29-.22-.38-.39-.09-.17-.13-.39-.13-.64v-.65c0-.38.1-.67.3-.87.2-.2.47-.3.8-.3s.58.09.75.28c.17.19.26.43.26.74v.02h-.26v-.03c0-.15-.03-.28-.08-.4-.05-.12-.13-.21-.24-.27-.11-.07-.25-.1-.43-.1-.26,0-.47.08-.62.24-.15.16-.22.39-.22.68v.66c0,.29.07.52.22.68.15.16.36.24.62.24s.45-.07.57-.22c.12-.15.18-.35.18-.61v-.08h-.94v-.23h1.2v1.32h-.24v-.32h-.05c-.03.07-.08.13-.14.19-.06.06-.14.11-.24.14-.1.04-.22.05-.37.05"/>
    <rect class="st0" x="47.21" y="34.33" width=".26" height="2.86"/>
    <path class="st0" d="M49.84,37.25c-.34,0-.6-.1-.8-.3-.2-.2-.3-.49-.3-.87v-.65c0-.38.1-.67.3-.87.2-.2.47-.3.8-.3s.59.09.76.28c.18.19.26.44.26.76v.02h-.26v-.03c0-.23-.06-.43-.19-.57-.12-.15-.32-.22-.58-.22s-.47.08-.62.24c-.15.16-.22.39-.22.68v.66c0,.29.07.52.22.68.15.16.36.24.62.24s.45-.07.58-.22c.12-.15.19-.34.19-.57v-.06h.26v.05c0,.32-.09.58-.26.76-.18.19-.43.28-.76.28"/>
    <path class="st0" d="M53.12,37.25c-.34,0-.6-.1-.8-.3-.2-.2-.3-.49-.3-.87v-.65c0-.38.1-.67.3-.87.2-.2.47-.3.8-.3s.6.1.8.3c.2.2.3.49.3.87v.65c0,.38-.1.67-.3.87-.2.2-.47.3-.8.3M53.12,37.01c.27,0,.47-.08.62-.24.15-.16.22-.39.22-.68v-.66c0-.29-.07-.52-.22-.68-.15-.16-.35-.24-.62-.24s-.47.08-.62.24c-.15.16-.22.39-.22.68v.66c0,.29.07.52.22.68.15.16.35.24.62.24"/>
    <path class="st0" d="M57.19,37.19v-2.86h1.06c.17,0,.32.03.46.1.13.06.24.16.32.28.08.12.12.27.12.44v.05c0,.17-.04.32-.12.44-.08.12-.19.21-.32.28-.13.06-.29.09-.45.09h-.8v1.19h-.26ZM57.45,35.76h.77c.2,0,.37-.05.48-.15.12-.1.18-.24.18-.43v-.04c0-.19-.06-.33-.17-.43-.12-.1-.28-.15-.49-.15h-.77v1.19Z"/>
    <path class="st0" d="M59.83,37.19l.94-2.86h.47l.94,2.86h-.27l-.25-.76h-1.3l-.25.76h-.27ZM60.42,36.2h1.15l-.55-1.71h-.05l-.55,1.71Z"/>
    <path class="st0" d="M63.29,37.19v-2.86h1.12c.18,0,.33.03.47.09.13.06.24.15.32.26.08.11.12.25.12.41v.04c0,.19-.05.35-.14.46-.09.11-.2.18-.33.22v.05c.1,0,.18.03.24.09.07.06.1.15.1.27v.97h-.26v-.94c0-.09-.02-.15-.07-.2-.05-.05-.12-.07-.21-.07h-1.09v1.21h-.26ZM63.55,35.74h.83c.21,0,.38-.05.49-.15.12-.1.17-.24.17-.43v-.02c0-.19-.06-.33-.17-.43-.11-.1-.28-.15-.5-.15h-.83v1.17Z"/>
    <path class="st0" d="M66.28,37.19l.94-2.86h.47l.94,2.86h-.27l-.25-.76h-1.3l-.25.76h-.27ZM66.88,36.2h1.15l-.55-1.71h-.05l-.55,1.71Z"/>
    <polygon class="st0" points="71.39 37.19 71.39 34.33 73.12 34.33 73.12 34.57 71.66 34.57 71.66 35.64 73.01 35.64 73.01 35.88 71.66 35.88 71.66 36.96 73.14 36.96 73.14 37.19 71.39 37.19"/>
    <polygon class="st0" points="74.37 37.19 74.37 34.33 74.63 34.33 74.63 36.96 76.13 36.96 76.13 37.19 74.37 37.19"/>
    <path class="st0" d="M78.71,37.19v-.24h.41v-2.39h-.41v-.24h1.09c.37,0,.66.09.87.28.21.19.31.48.31.89v.53c0,.4-.1.7-.31.88-.21.19-.5.28-.87.28h-1.09ZM79.38,36.96h.42c.3,0,.53-.07.69-.22.16-.14.24-.38.24-.7v-.55c0-.32-.08-.56-.24-.7-.16-.14-.39-.21-.69-.21h-.42v2.38Z"/>
    <polygon class="st0" points="82.23 37.19 82.23 34.33 83.96 34.33 83.96 34.57 82.49 34.57 82.49 35.64 83.85 35.64 83.85 35.88 82.49 35.88 82.49 36.96 83.98 36.96 83.98 37.19 82.23 37.19"/>
    <path class="st0" d="M86.14,37.25c-.2,0-.39-.04-.55-.11-.16-.07-.29-.18-.38-.33-.09-.15-.14-.34-.14-.57v-.08h.26v.08c0,.26.08.46.23.59.15.13.34.19.58.19s.42-.06.55-.17c.13-.11.19-.25.19-.42,0-.11-.03-.21-.08-.28-.06-.07-.13-.13-.23-.17-.1-.04-.21-.08-.35-.11l-.26-.07c-.16-.04-.29-.09-.42-.15-.12-.06-.22-.14-.29-.24-.07-.1-.11-.23-.11-.38s.04-.29.12-.4c.08-.11.19-.2.33-.26.14-.06.31-.09.49-.09s.36.03.51.1c.15.07.27.16.36.29.09.13.13.29.13.48v.19h-.26v-.19c0-.15-.03-.27-.1-.36-.07-.09-.15-.16-.27-.2-.11-.04-.24-.07-.38-.07-.2,0-.36.05-.49.14-.13.09-.19.22-.19.39,0,.11.03.21.08.27.05.07.13.12.22.16.1.04.21.08.34.11l.26.07c.15.04.29.08.41.14.13.06.23.14.3.24.08.1.11.24.11.4s-.04.31-.12.43c-.08.12-.2.22-.35.28-.15.07-.33.1-.53.1"/>
    <path class="st0" d="M88.12,37.19l.94-2.86h.47l.94,2.86h-.27l-.25-.76h-1.3l-.25.76h-.27ZM88.72,36.2h1.15l-.55-1.71h-.05l-.55,1.71Z"/>
    <path class="st0" d="M91.58,37.19v-2.86h1.12c.18,0,.33.03.47.09.13.06.24.15.32.26.08.11.12.25.12.41v.04c0,.19-.05.35-.14.46-.09.11-.2.18-.33.22v.05c.1,0,.18.03.24.09.07.06.1.15.1.27v.97h-.26v-.94c0-.09-.02-.15-.07-.2-.05-.05-.12-.07-.21-.07h-1.09v1.21h-.26ZM91.84,35.74h.83c.21,0,.38-.05.49-.15.12-.1.17-.24.17-.43v-.02c0-.19-.06-.33-.17-.43-.11-.1-.28-.15-.5-.15h-.83v1.17Z"/>
    <path class="st0" d="M94.82,37.19v-2.86h1.12c.18,0,.33.03.47.09.13.06.24.15.32.26.08.11.12.25.12.41v.04c0,.19-.05.35-.14.46-.09.11-.2.18-.33.22v.05c.1,0,.18.03.24.09.07.06.1.15.1.27v.97h-.26v-.94c0-.09-.02-.15-.07-.2-.05-.05-.12-.07-.21-.07h-1.09v1.21h-.26ZM95.08,35.74h.83c.21,0,.38-.05.49-.15.12-.1.17-.24.17-.43v-.02c0-.19-.06-.33-.17-.43-.11-.1-.28-.15-.5-.15h-.83v1.17Z"/>
    <path class="st0" d="M99.06,37.25c-.34,0-.6-.1-.8-.3-.2-.2-.3-.49-.3-.87v-.65c0-.38.1-.67.3-.87.2-.2.47-.3.8-.3s.6.1.8.3c.2.2.3.49.3.87v.65c0,.38-.1.67-.3.87-.2.2-.47.3-.8.3M99.06,37.01c.27,0,.47-.08.62-.24.15-.16.22-.39.22-.68v-.66c0-.29-.07-.52-.22-.68-.15-.16-.35-.24-.62-.24s-.47.08-.62.24c-.15.16-.22.39-.22.68v.66c0,.29.07.52.22.68.15.16.35.24.62.24"/>
    <polygon class="st0" points="101.43 37.19 101.43 34.33 101.69 34.33 101.69 36.96 103.2 36.96 103.2 37.19 101.43 37.19"/>
    <polygon class="st0" points="104.32 37.19 104.32 34.33 104.58 34.33 104.58 36.96 106.09 36.96 106.09 37.19 104.32 37.19"/>
    <path class="st0" d="M108.15,37.25c-.34,0-.6-.1-.8-.3-.2-.2-.3-.49-.3-.87v-.65c0-.38.1-.67.3-.87.2-.2.47-.3.8-.3s.6.1.8.3c.2.2.3.49.3.87v.65c0,.38-.1.67-.3.87-.2.2-.47.3-.8.3M108.15,37.01c.27,0,.47-.08.62-.24.15-.16.22-.39.22-.68v-.66c0-.29-.07-.52-.22-.68-.15-.16-.35-.24-.62-.24s-.47.08-.62.24c-.15.16-.22.39-.22.68v.66c0,.29.07.52.22.68.15.16.35.24.62.24"/>
    <path class="st0" d="M.61,42.1v-.24h.41v-2.39h-.41v-.24h1.09c.37,0,.66.09.87.28.21.19.31.48.31.89v.53c0,.4-.1.7-.31.88-.21.19-.5.28-.87.28H.61ZM1.28,41.86h.42c.3,0,.53-.07.69-.22.16-.14.24-.38.24-.7v-.55c0-.32-.08-.56-.24-.7-.16-.14-.39-.21-.69-.21h-.42v2.38Z"/>
    <polygon class="st0" points="4.13 42.1 4.13 39.24 5.86 39.24 5.86 39.48 4.39 39.48 4.39 40.55 5.74 40.55 5.74 40.78 4.39 40.78 4.39 41.86 5.88 41.86 5.88 42.1 4.13 42.1"/>
    <polygon class="st0" points="8.73 42.1 8.73 39.24 9.76 39.24 10.32 41.73 10.4 41.73 10.4 39.24 10.93 39.24 10.93 42.1 9.9 42.1 9.34 39.61 9.26 39.61 9.26 42.1 8.73 42.1"/>
    <path class="st0" d="M13.23,42.16c-.23,0-.44-.04-.6-.13-.17-.09-.3-.21-.38-.37-.09-.16-.13-.35-.13-.57v-1.86h.54v1.87c0,.17.05.31.15.41.1.1.24.15.43.15s.33-.05.43-.15c.1-.1.15-.24.15-.41v-1.87h.54v1.86c0,.22-.04.41-.13.57-.09.16-.22.28-.38.37-.17.09-.37.13-.6.13"/>
    <polygon class="st0" points="15.53 42.1 15.53 39.24 17.37 39.24 17.37 39.73 16.07 39.73 16.07 40.41 17.25 40.41 17.25 40.9 16.07 40.9 16.07 41.61 17.39 41.61 17.39 42.1 15.53 42.1"/>
    <polygon class="st0" points="18.98 42.1 18.25 39.24 18.81 39.24 19.41 41.75 19.47 41.75 20.07 39.24 20.63 39.24 19.9 42.1 18.98 42.1"/>
    <path class="st0" d="M21.24,42.1l.75-2.86h.94l.75,2.86h-.56l-.16-.63h-1.02l-.16.63h-.56ZM22.08,40.97h.77l-.35-1.39h-.07l-.35,1.39Z"/>
    <path class="st0" d="M25.68,42.16c-.22,0-.42-.04-.58-.12-.17-.08-.3-.19-.4-.34-.1-.15-.14-.32-.14-.53v-.11h.53v.11c0,.17.05.3.16.39.11.09.25.13.43.13s.32-.04.42-.11c.09-.07.14-.17.14-.28,0-.08-.02-.14-.07-.19-.04-.05-.11-.09-.2-.12-.09-.03-.19-.06-.31-.09l-.09-.02c-.2-.04-.36-.1-.51-.17-.14-.07-.25-.15-.32-.26-.08-.11-.11-.25-.11-.43s.04-.32.12-.45c.08-.12.2-.22.35-.29.15-.07.33-.1.53-.1s.39.03.55.1c.16.07.28.17.38.31.09.14.14.31.14.52v.12h-.53v-.12c0-.11-.02-.2-.06-.26-.04-.07-.1-.12-.18-.15-.08-.03-.17-.05-.28-.05-.16,0-.28.03-.36.09-.08.06-.12.15-.12.25,0,.07.02.13.06.18.04.05.09.09.17.12.07.03.17.06.28.09l.09.02c.2.04.38.1.53.17s.27.16.35.27c.08.11.13.25.13.43s-.04.33-.13.46c-.09.13-.21.24-.38.31-.16.07-.35.11-.57.11"/>
    <polygon class="st0" points="29.51 42.1 29.51 39.24 31.35 39.24 31.35 39.73 30.05 39.73 30.05 40.41 31.24 40.41 31.24 40.9 30.05 40.9 30.05 41.61 31.38 41.61 31.38 42.1 29.51 42.1"/>
    <polygon class="st0" points="32.43 42.1 32.43 39.24 33.46 39.24 34.03 41.73 34.1 41.73 34.1 39.24 34.63 39.24 34.63 42.1 33.61 42.1 33.04 39.61 32.96 39.61 32.96 42.1 32.43 42.1"/>
    <polygon class="st0" points="35.83 42.1 35.83 39.24 37.67 39.24 37.67 39.73 36.37 39.73 36.37 40.41 37.55 40.41 37.55 40.9 36.37 40.9 36.37 41.61 37.69 41.61 37.69 42.1 35.83 42.1"/>
    <path class="st0" d="M38.75,42.1v-2.86h1.24c.18,0,.34.03.47.09.13.06.24.15.31.27.07.11.11.25.11.4v.05c0,.17-.04.31-.12.42-.08.11-.18.18-.3.23v.07c.11,0,.19.04.25.11.06.07.09.16.09.28v.94h-.54v-.86c0-.07-.02-.12-.05-.16-.03-.04-.09-.06-.17-.06h-.75v1.08h-.54ZM39.29,40.53h.65c.13,0,.23-.03.3-.1.07-.07.11-.16.11-.28v-.04c0-.11-.04-.21-.11-.28-.07-.07-.17-.1-.3-.1h-.65v.8Z"/>
    <path class="st0" d="M42.97,42.16c-.2,0-.37-.04-.53-.13-.16-.09-.29-.22-.38-.39-.09-.17-.14-.38-.14-.62v-.69c0-.37.1-.65.31-.85.21-.2.49-.3.84-.3s.62.09.82.28c.19.19.29.44.29.76v.02h-.53v-.03c0-.1-.02-.19-.06-.27-.04-.08-.11-.15-.19-.19-.08-.05-.19-.07-.32-.07-.19,0-.34.06-.45.18-.11.12-.16.28-.16.48v.7c0,.2.05.36.16.48.11.12.26.18.46.18s.34-.05.43-.16c.09-.1.13-.23.13-.39v-.04h-.68v-.46h1.21v1.46h-.5v-.27h-.07s-.05.1-.09.15c-.04.05-.11.1-.19.13-.08.04-.2.05-.35.05"/>
    <path class="st0" d="M45.3,39l.29-.53h.6l-.43.53h-.46ZM45.35,39.24h.54v2.86h-.54v-2.86Z"/>
    <path class="st0" d="M46.88,42.1l.75-2.86h.94l.75,2.86h-.56l-.16-.63h-1.02l-.16.63h-.56ZM47.72,40.97h.77l-.35-1.39h-.07l-.35,1.39Z"/>
    <path class="st0" d="M51.32,42.16c-.22,0-.42-.04-.58-.12-.17-.08-.3-.19-.4-.34-.1-.15-.14-.32-.14-.53v-.11h.53v.11c0,.17.05.3.16.39.11.09.25.13.43.13s.32-.04.42-.11c.09-.07.14-.17.14-.28,0-.08-.02-.14-.07-.19-.04-.05-.11-.09-.2-.12-.09-.03-.19-.06-.31-.09l-.09-.02c-.2-.04-.36-.1-.51-.17-.14-.07-.25-.15-.32-.26-.08-.11-.11-.25-.11-.43s.04-.32.12-.45c.08-.12.2-.22.35-.29.15-.07.33-.1.53-.1s.39.03.55.1c.16.07.28.17.38.31.09.14.14.31.14.52v.12h-.53v-.12c0-.11-.02-.2-.06-.26-.04-.07-.1-.12-.18-.15-.08-.03-.17-.05-.28-.05-.16,0-.28.03-.36.09-.08.06-.12.15-.12.25,0,.07.02.13.06.18.04.05.09.09.17.12.07.03.17.06.28.09l.09.02c.2.04.38.1.53.17s.27.16.35.27c.08.11.13.25.13.43s-.04.33-.13.46c-.09.13-.21.24-.38.31-.16.07-.35.11-.57.11"/>
    <polygon class="st0" points="55.15 42.1 55.15 39.24 56.99 39.24 56.99 39.73 55.69 39.73 55.69 40.41 56.88 40.41 56.88 40.9 55.69 40.9 55.69 41.61 57.02 41.61 57.02 42.1 55.15 42.1"/>
    <polygon class="st0" points="58.07 42.1 58.07 39.24 59.1 39.24 59.67 41.73 59.74 41.73 59.74 39.24 60.27 39.24 60.27 42.1 59.24 42.1 58.68 39.61 58.6 39.61 58.6 42.1 58.07 42.1"/>
    <polygon class="st0" points="63.16 42.1 63.16 39.24 64.16 39.24 64.66 41.73 64.73 41.73 65.22 39.24 66.23 39.24 66.23 42.1 65.7 42.1 65.7 39.63 65.63 39.63 65.14 42.1 64.25 42.1 63.76 39.63 63.68 39.63 63.68 42.1 63.16 42.1"/>
    <path class="st0" d="M67.22,42.1l.75-2.86h.94l.75,2.86h-.56l-.16-.63h-1.02l-.16.63h-.56ZM68.06,40.97h.77l-.35-1.39h-.07l-.35,1.39Z"/>
    <path class="st0" d="M71.63,42.16c-.2,0-.37-.04-.53-.13-.16-.09-.29-.22-.38-.39-.09-.17-.14-.38-.14-.62v-.69c0-.37.1-.65.31-.85.21-.2.49-.3.84-.3s.62.09.82.28c.19.19.29.44.29.76v.02h-.53v-.03c0-.1-.02-.19-.06-.27-.04-.08-.11-.15-.19-.19-.08-.05-.19-.07-.32-.07-.19,0-.34.06-.45.18-.11.12-.16.28-.16.48v.7c0,.2.05.36.16.48.11.12.26.18.46.18s.34-.05.43-.16c.09-.1.13-.23.13-.39v-.04h-.68v-.46h1.21v1.46h-.5v-.27h-.07s-.05.1-.09.15c-.04.05-.11.1-.19.13-.08.04-.2.05-.35.05"/>
    <path class="st0" d="M73.81,42.1l.75-2.86h.94l.75,2.86h-.56l-.16-.63h-1.02l-.16.63h-.56ZM74.65,40.97h.77l-.35-1.39h-.07l-.35,1.39Z"/>
    <polygon class="st0" points="77.25 42.1 77.25 39.24 77.79 39.24 77.79 41.61 79.1 41.61 79.1 42.1 77.25 42.1"/>
    <polygon class="st0" points="80.12 42.1 80.12 39.24 80.66 39.24 80.66 41.61 81.97 41.61 81.97 42.1 80.12 42.1"/>
    <path class="st0" d="M82.8,42.1l.75-2.86h.94l.75,2.86h-.56l-.16-.63h-1.02l-.16.63h-.56ZM83.63,40.97h.77l-.35-1.39h-.07l-.35,1.39Z"/>
    <polygon class="st0" points="86.24 42.1 86.24 39.24 87.26 39.24 87.83 41.73 87.91 41.73 87.91 39.24 88.44 39.24 88.44 42.1 87.41 42.1 86.84 39.61 86.77 39.61 86.77 42.1 86.24 42.1"/>
    <polygon class="st0" points="89.63 42.1 89.63 39.24 91.47 39.24 91.47 39.73 90.17 39.73 90.17 40.41 91.36 40.41 91.36 40.9 90.17 40.9 90.17 41.61 91.5 41.61 91.5 42.1 89.63 42.1"/>
    <path class="st0" d="M93.55,42.16c-.22,0-.42-.04-.58-.12-.17-.08-.3-.19-.4-.34-.1-.15-.14-.32-.14-.53v-.11h.53v.11c0,.17.05.3.16.39.11.09.25.13.43.13s.32-.04.42-.11c.09-.07.14-.17.14-.28,0-.08-.02-.14-.07-.19-.04-.05-.11-.09-.2-.12-.09-.03-.19-.06-.31-.09l-.09-.02c-.2-.04-.36-.1-.51-.17-.14-.07-.25-.15-.32-.26-.08-.11-.11-.25-.11-.43s.04-.32.12-.45c.08-.12.2-.22.35-.29.15-.07.33-.1.53-.1s.39.03.55.1c.16.07.28.17.38.31.09.14.14.31.14.52v.12h-.53v-.12c0-.11-.02-.2-.06-.26-.04-.07-.1-.12-.18-.15-.08-.03-.17-.05-.28-.05-.16,0-.28.03-.36.09-.08.06-.12.15-.12.25,0,.07.02.13.06.18.04.05.09.09.17.12.07.03.17.06.28.09l.09.02c.2.04.38.1.53.17s.27.16.35.27c.08.11.13.25.13.43s-.04.33-.13.46c-.09.13-.21.24-.38.31-.16.07-.35.11-.57.11"/>
  </g>
</svg>