<?xml version="1.0" encoding="UTF-8"?>
<svg id="Capa_1" xmlns="http://www.w3.org/2000/svg" version="1.1" viewBox="0 0 137.69 49.26">
  <!-- Generator: Adobe Illustrator 30.2.1, SVG Export Plug-In . SVG Version: 2.1.1 Build 1)  -->
  <defs>
    <style>
      .st0 {
        fill: #fff;
      }
    </style>
  </defs>
  <g>
    <path class="st0" d="M119.02,4.98l.23-.84c.05-.17.12-.33.23-.46.11-.14.23-.25.37-.33.14-.08.3-.14.47-.16.17-.02.34-.01.52.03.17.05.33.12.46.23s.25.23.33.38c.08.14.14.3.16.47s.01.34-.03.52l-.33-.09c.03-.13.04-.25.03-.38-.02-.12-.06-.24-.12-.35s-.14-.2-.24-.27c-.1-.08-.21-.13-.34-.17-.12-.03-.25-.04-.37-.02-.12.02-.24.06-.35.12-.11.06-.2.14-.28.24-.08.1-.14.21-.17.34l-.22.84c-.04.13-.04.25-.03.38.02.12.06.24.12.34.06.11.14.2.24.27.1.08.21.13.34.17.13.03.25.04.38.02.12-.02.24-.06.34-.12.11-.06.2-.14.28-.24.08-.1.14-.21.17-.34l.33.09c-.05.17-.12.33-.23.46-.11.14-.23.25-.38.33-.14.08-.3.14-.47.16-.17.03-.34.01-.51-.03-.17-.05-.33-.12-.46-.23-.14-.11-.24-.23-.33-.37-.08-.14-.14-.3-.16-.47-.02-.17-.01-.34.03-.52Z"/>
    <path class="st0" d="M125.62,5.39l-1.02-.48-1.18,2.51,1.02.48-.15.31-2.35-1.11.15-.31,1.02.48,1.18-2.51-1.02-.48.15-.31,2.35,1.11-.15.31Z"/>
    <path class="st0" d="M127.27,5.9l-1.26,1.76c-.08.11-.13.22-.15.35s-.03.25,0,.37c.02.12.06.23.13.34.07.11.15.2.26.27.11.08.22.13.35.16.12.03.24.03.36.01s.23-.06.34-.13.2-.15.28-.26l1.26-1.76.28.2-1.26,1.76c-.1.15-.23.26-.38.35-.15.09-.3.15-.47.18-.16.03-.33.02-.5-.01-.17-.04-.33-.11-.47-.21-.15-.1-.26-.23-.35-.38-.09-.15-.15-.3-.17-.47-.03-.16-.02-.33.01-.5.04-.17.11-.33.21-.47l1.26-1.76.28.2Z"/>
    <path class="st0" d="M128.61,11.4l-.9-.93,2.49-2.41.9.93c.12.13.22.27.28.43.06.16.09.32.09.49,0,.17-.04.33-.1.49s-.16.3-.29.43l-.62.6c-.13.13-.28.22-.44.28-.16.06-.32.09-.49.09-.17,0-.33-.04-.49-.1-.16-.07-.3-.16-.43-.29ZM128.2,10.47l.66.68c.09.1.2.17.31.22.12.05.23.07.36.08s.24-.02.36-.06c.12-.05.22-.11.32-.21l.62-.6c.09-.09.16-.19.21-.31.05-.12.07-.24.08-.36,0-.12-.02-.24-.06-.36-.04-.12-.11-.22-.2-.32l-.66-.69-1.99,1.93Z"/>
    <path class="st0" d="M131.3,14.74c.08-.11.16-.22.25-.35.09-.13.19-.26.29-.4l-.67-1c-.17.04-.33.08-.48.11s-.29.07-.42.1l-.21-.31,3.6-.84-2.16,3-.21-.31ZM131.53,12.9l.53.79c.08-.11.16-.22.24-.33.08-.11.15-.21.22-.3.07-.1.13-.18.19-.26s.1-.15.14-.2c-.06.01-.14.03-.24.05-.09.02-.2.05-.31.07-.12.03-.23.06-.36.09-.13.03-.26.06-.4.09Z"/>
    <path class="st0" d="M132.45,16.87l-.52-1.19,3.18-1.38.52,1.19c.07.16.11.33.11.5s-.03.33-.09.49c-.06.15-.15.3-.27.42s-.26.22-.43.3l-.8.34c-.17.07-.34.11-.51.11s-.33-.03-.49-.09c-.15-.06-.29-.15-.42-.27-.13-.12-.22-.26-.3-.43ZM132.39,15.85l.38.87c.05.12.12.23.22.31.09.09.19.15.31.2.11.04.23.07.36.07.13,0,.25-.03.37-.08l.8-.34c.12-.05.22-.12.31-.22.09-.09.15-.2.2-.31.05-.11.07-.23.07-.36,0-.13-.03-.25-.08-.37l-.38-.87-2.54,1.1Z"/>
    <path class="st0" d="M134.09,22.98c.11-.06.24-.13.38-.2.14-.07.29-.15.44-.23l-.14-1.2c-.16-.04-.32-.08-.48-.12-.15-.04-.29-.07-.42-.1l-.04-.37,3.59.88-3.29,1.7-.04-.37ZM135.14,21.45l.11.94c.12-.06.24-.13.36-.19.12-.06.23-.12.33-.17.1-.05.2-.1.28-.15.09-.05.16-.08.22-.11-.06-.02-.14-.04-.24-.06-.09-.02-.2-.05-.31-.08-.11-.03-.24-.06-.36-.09-.13-.03-.26-.06-.4-.1Z"/>
    <path class="st0" d="M134.24,24.11l3.46.22-2.63,2.09,2.49.16-.02.35-3.46-.22,2.63-2.09-2.49-.16.02-.35Z"/>
    <path class="st0" d="M136.77,30.79l-.34-.08.27-1.09-3.03-.75.08-.34,3.03.75.27-1.09.34.08-.62,2.52Z"/>
    <path class="st0" d="M132.32,32.74c.13,0,.27.02.43.03.16,0,.32.02.49.03l.49-1.1c-.12-.12-.24-.24-.35-.35-.11-.11-.22-.21-.31-.3l.15-.34,2.63,2.6-3.69-.23.15-.34ZM134,31.97l-.39.87c.14,0,.27.02.4.02.13,0,.25.02.37.02.12,0,.22.01.32.02.1,0,.18.01.25.02-.05-.05-.1-.1-.17-.17-.07-.07-.15-.14-.23-.23-.08-.08-.17-.17-.27-.26s-.19-.19-.29-.29Z"/>
    <path class="st0" d="M131.63,35.87l-1.24.05.25-.36,1.51-.05-.02.04s-.06.1-.09.15-.04.11-.05.16c-.02.09-.03.19-.03.28,0,.1.03.19.06.27.03.09.08.17.14.25s.13.14.21.2c.11.08.23.13.35.15.12.03.25.03.37,0,.12-.02.23-.07.34-.13.11-.07.2-.16.27-.27l.54-.79-2.57-1.77.2-.29,2.86,1.96-.73,1.07c-.1.15-.23.27-.37.36-.15.09-.3.15-.46.18-.16.03-.33.03-.5,0-.17-.03-.33-.1-.47-.2-.1-.07-.2-.16-.27-.25-.08-.1-.14-.2-.19-.31-.05-.11-.08-.23-.09-.35-.02-.12-.01-.24,0-.36Z"/>
    <path class="st0" d="M130.59,40.84l-.25-.24.8-.8-2.21-2.2.25-.25,2.21,2.2.79-.8.25.24-1.84,1.84Z"/>
    <path class="st0" d="M127.26,42.98l.92-.64-1.58-2.28-.92.64-.2-.28,2.13-1.48.2.28-.92.64,1.58,2.28.93-.64.2.28-2.13,1.48-.2-.28Z"/>
    <path class="st0" d="M125.4,42.05l.36.79c.08.16.11.33.12.5,0,.17-.02.34-.08.49-.06.16-.14.3-.26.42-.12.13-.25.23-.42.3-.16.07-.33.11-.5.12-.17,0-.34-.02-.49-.08-.15-.06-.3-.14-.42-.26s-.23-.26-.3-.42l.31-.14c.05.12.13.22.22.31.09.08.2.15.31.19s.23.06.36.06c.12,0,.25-.03.37-.09.12-.05.22-.13.3-.22s.15-.2.19-.31c.04-.12.06-.24.06-.36,0-.13-.03-.25-.08-.37l-.36-.79c-.05-.12-.13-.22-.22-.31-.09-.08-.2-.15-.31-.19-.12-.04-.23-.06-.36-.06-.12,0-.25.03-.37.09-.12.05-.22.13-.3.22-.08.09-.15.2-.19.31-.04.11-.06.23-.06.36,0,.13.03.25.09.37l-.32.14c-.07-.16-.11-.33-.12-.5,0-.17.02-.34.08-.49s.15-.3.26-.42c.11-.13.25-.23.42-.3.16-.07.33-.11.5-.12.17,0,.34.02.49.08.15.06.3.14.42.26.13.12.23.25.3.42Z"/>
    <path class="st0" d="M119.65,42.82c.07.11.16.22.25.35.09.13.18.26.28.41l1.17-.3c.02-.17.04-.33.05-.49.02-.16.03-.3.05-.43l.36-.09-.41,3.68-2.11-3.04.36-.09ZM121.3,43.65l-.92.23c.08.11.16.22.23.33.08.11.15.21.21.3.07.1.13.18.19.26.06.08.1.15.14.2,0-.06.02-.14.03-.24.01-.1.02-.2.03-.32.01-.12.03-.24.04-.37.01-.13.03-.27.04-.41Z"/>
  </g>
  <g>
    <path class="st0" d="M45.29,30.48v1.55h1.17v1.24h-1.17v1.95c0,.65.15.95.64.95.2,0,.36-.02.48-.04v1.27c-.2.09-.59.14-1.05.14-.53,0-.96-.19-1.22-.46-.3-.32-.45-.84-.45-1.6v-2.21h-.7v-1.24h.7v-1.17l1.6-.38Z"/>
    <path class="st0" d="M50.37,37.43l-.1-.54h-.03c-.34.43-.88.66-1.5.66-1.06,0-1.69-.8-1.69-1.66,0-1.4,1.22-2.08,3.07-2.07v-.08c0-.29-.15-.7-.95-.7-.54,0-1.1.19-1.45.41l-.3-1.08c.36-.21,1.08-.47,2.04-.47,1.75,0,2.3,1.06,2.3,2.33v1.88c0,.52.02,1.02.07,1.31h-1.47ZM50.18,34.88c-.86-.01-1.52.2-1.52.85,0,.43.28.64.64.64.41,0,.74-.28.85-.62.02-.09.03-.19.03-.29v-.59Z"/>
    <path class="st0" d="M56.95,35.52l-.51,1.91h-1.69l2.21-7.44h2.14l2.24,7.44h-1.76l-.56-1.91h-2.07ZM58.78,34.26l-.45-1.58c-.13-.44-.26-.99-.36-1.44h-.02c-.11.44-.21,1.01-.33,1.44l-.43,1.58h1.6Z"/>
    <path class="st0" d="M62.24,33.8c0-.79-.02-1.31-.04-1.78h1.4l.05.99h.04c.27-.78.91-1.12,1.41-1.12.15,0,.23,0,.34.02v1.58c-.12-.02-.26-.04-.44-.04-.6,0-1.01.33-1.11.85-.02.11-.03.24-.03.38v2.74h-1.63v-3.62Z"/>
    <path class="st0" d="M67.57,35.26c.05.7.72,1.03,1.48,1.03.56,0,1.01-.08,1.45-.22l.21,1.14c-.54.22-1.19.33-1.9.33-1.78,0-2.8-1.06-2.8-2.75,0-1.37.83-2.88,2.65-2.88,1.69,0,2.34,1.36,2.34,2.69,0,.29-.03.54-.05.66h-3.37ZM69.48,34.11c0-.41-.17-1.09-.92-1.09-.69,0-.96.64-1.01,1.09h1.93Z"/>
    <path class="st0" d="M71.97,33.75c0-.67-.02-1.25-.04-1.72h1.41l.08.74h.03c.21-.34.75-.86,1.62-.86,1.07,0,1.87.73,1.87,2.32v3.2h-1.63v-2.99c0-.7-.24-1.17-.82-1.17-.45,0-.72.32-.82.63-.04.1-.06.26-.06.42v3.11h-1.63v-3.68Z"/>
    <path class="st0" d="M81.22,37.43l-.1-.54h-.03c-.34.43-.88.66-1.5.66-1.06,0-1.69-.8-1.69-1.66,0-1.4,1.22-2.08,3.07-2.07v-.08c0-.29-.15-.7-.95-.7-.54,0-1.1.19-1.45.41l-.3-1.08c.36-.21,1.08-.47,2.04-.47,1.75,0,2.3,1.06,2.3,2.33v1.88c0,.52.02,1.02.08,1.31h-1.47ZM81.03,34.88c-.86-.01-1.52.2-1.52.85,0,.43.28.64.64.64.41,0,.74-.28.85-.62.02-.09.03-.19.03-.29v-.59Z"/>
    <path class="st0" d="M83.89,35.96c.3.19.92.41,1.4.41s.7-.18.7-.45-.16-.41-.77-.62c-1.08-.38-1.5-.98-1.49-1.62,0-1.01.84-1.77,2.13-1.77.61,0,1.16.14,1.48.31l-.29,1.16c-.24-.13-.69-.31-1.14-.31-.4,0-.62.17-.62.44,0,.25.2.39.85.62,1,.35,1.41.87,1.43,1.67,0,1-.77,1.74-2.27,1.74-.69,0-1.3-.15-1.69-.38l.29-1.2Z"/>
    <g>
      <g>
        <path class="st0" d="M8.1,21.88c-.04-1.16-.08-2.55-.08-3.95h-.04c-.29,1.23-.68,2.6-1.04,3.72l-1.13,3.75h-1.65l-1-3.72c-.3-1.13-.62-2.5-.84-3.75h-.03c-.06,1.3-.1,2.78-.17,3.98l-.17,3.65H0l.59-9.61h2.81l.91,3.21c.29,1.11.58,2.31.79,3.44h.04c.26-1.11.58-2.38.89-3.45l1-3.2h2.75l.51,9.61h-2.06l-.14-3.68Z"/>
        <path class="st0" d="M18.23,23.32c0,.91.03,1.65.06,2.24h-1.83l-.1-.98h-.04c-.26.43-.9,1.14-2.12,1.14-1.37,0-2.38-.88-2.38-3.04v-4.09h2.12v3.75c0,1.01.32,1.63,1.05,1.63.58,0,.91-.41,1.05-.76.06-.13.07-.3.07-.47v-4.15h2.12v4.74Z"/>
        <path class="st0" d="M19.92,20.81c0-.87-.03-1.61-.06-2.23h1.83l.1.96h.04c.28-.44.97-1.11,2.09-1.11,1.38,0,2.42.94,2.42,3v4.14h-2.1v-3.87c0-.9-.3-1.51-1.07-1.51-.58,0-.93.41-1.07.81-.06.13-.08.34-.08.54v4.02h-2.1v-4.75Z"/>
        <path class="st0" d="M30.2,16.64c0,.6-.44,1.08-1.13,1.08s-1.11-.49-1.09-1.08c-.01-.63.43-1.1,1.11-1.1s1.11.47,1.12,1.1ZM28.03,25.56v-6.97h2.1v6.97h-2.1Z"/>
        <path class="st0" d="M36.9,25.39c-.37.17-1.08.31-1.88.31-2.19,0-3.58-1.37-3.58-3.57,0-2.04,1.36-3.71,3.87-3.71.55,0,1.16.1,1.61.27l-.33,1.61c-.25-.11-.62-.21-1.18-.21-1.11,0-1.83.81-1.81,1.95,0,1.28.83,1.95,1.85,1.95.5,0,.89-.09,1.2-.21l.25,1.6Z"/>
        <path class="st0" d="M40.23,16.64c0,.6-.44,1.08-1.13,1.08s-1.11-.49-1.09-1.08c-.01-.63.43-1.1,1.11-1.1s1.11.47,1.12,1.1ZM38.06,25.56v-6.97h2.1v6.97h-2.1Z"/>
        <path class="st0" d="M41.85,20.92c0-.91-.03-1.7-.06-2.34h1.83l.1.97h.03c.5-.74,1.27-1.13,2.26-1.13,1.48,0,2.81,1.33,2.81,3.55,0,2.54-1.56,3.74-3.07,3.74-.82,0-1.45-.34-1.76-.8h-.03v3.47h-2.1v-7.46ZM43.95,22.56c0,.17.01.33.04.46.14.58.62,1.03,1.23,1.03.91,0,1.45-.78,1.45-1.97,0-1.11-.48-1.95-1.43-1.95-.6,0-1.12.46-1.26,1.1-.03.11-.04.26-.04.39v.96Z"/>
        <path class="st0" d="M53.97,25.56l-.12-.7h-.04c-.44.56-1.13.86-1.94.86-1.37,0-2.19-1.03-2.19-2.14,0-1.81,1.58-2.68,3.97-2.67v-.1c0-.37-.19-.9-1.23-.9-.69,0-1.43.24-1.87.53l-.39-1.4c.47-.27,1.4-.61,2.63-.61,2.26,0,2.97,1.37,2.97,3.01v2.42c0,.67.03,1.31.1,1.7h-1.9ZM53.72,22.26c-1.11-.01-1.97.26-1.97,1.1,0,.56.36.83.83.83.53,0,.96-.36,1.09-.8.03-.11.04-.24.04-.37v-.76Z"/>
        <path class="st0" d="M57.43,15.43h2.1v10.13h-2.1v-10.13Z"/>
        <path class="st0" d="M63.41,16.64c0,.6-.44,1.08-1.13,1.08s-1.11-.49-1.09-1.08c-.01-.63.43-1.1,1.11-1.1s1.11.47,1.12,1.1ZM61.24,25.56v-6.97h2.1v6.97h-2.1Z"/>
        <path class="st0" d="M71.59,15.43v8.04c0,.78.03,1.61.06,2.08h-1.87l-.1-1.03h-.03c-.43.78-1.25,1.18-2.12,1.18-1.61,0-2.89-1.41-2.89-3.58-.01-2.35,1.41-3.71,3.03-3.71.83,0,1.48.3,1.79.78h.03v-3.78h2.1ZM69.49,21.53c0-.11-.01-.27-.03-.39-.12-.58-.58-1.07-1.23-1.07-.96,0-1.45.88-1.45,1.98,0,1.18.57,1.93,1.44,1.93.61,0,1.09-.43,1.22-1.04.04-.16.06-.31.06-.5v-.91Z"/>
        <path class="st0" d="M77.13,25.56l-.12-.7h-.04c-.44.56-1.13.86-1.94.86-1.37,0-2.19-1.03-2.19-2.14,0-1.81,1.58-2.68,3.97-2.67v-.1c0-.37-.19-.9-1.23-.9-.69,0-1.43.24-1.87.53l-.39-1.4c.47-.27,1.4-.61,2.63-.61,2.26,0,2.97,1.37,2.97,3.01v2.42c0,.67.03,1.31.1,1.7h-1.9ZM76.88,22.26c-1.11-.01-1.97.26-1.97,1.1,0,.56.36.83.83.83.53,0,.96-.36,1.09-.8.03-.11.04-.24.04-.37v-.76Z"/>
        <path class="st0" d="M87.15,15.43v8.04c0,.78.03,1.61.06,2.08h-1.87l-.1-1.03h-.03c-.43.78-1.25,1.18-2.12,1.18-1.61,0-2.89-1.41-2.89-3.58-.01-2.35,1.41-3.71,3.03-3.71.83,0,1.48.3,1.79.78h.03v-3.78h2.1ZM85.04,21.53c0-.11-.01-.27-.03-.39-.12-.58-.58-1.07-1.23-1.07-.96,0-1.45.88-1.45,1.98,0,1.18.57,1.93,1.44,1.93.61,0,1.09-.43,1.22-1.04.04-.16.06-.31.06-.5v-.91Z"/>
      </g>
      <path class="st0" d="M15.59,29.59v6.23c0,.61.02,1.25.04,1.61h-1.45l-.08-.8h-.02c-.33.61-.96.92-1.64.92-1.24,0-2.24-1.09-2.24-2.77-.01-1.82,1.09-2.87,2.35-2.87.64,0,1.15.23,1.38.61h.02v-2.93h1.63ZM13.96,34.31c0-.09-.01-.21-.02-.3-.1-.45-.45-.83-.95-.83-.74,0-1.12.68-1.12,1.53,0,.92.44,1.49,1.11,1.49.47,0,.85-.33.94-.81.03-.12.04-.24.04-.39v-.71Z"/>
      <path class="st0" d="M18.15,35.26c.05.7.72,1.03,1.48,1.03.56,0,1.01-.08,1.45-.22l.21,1.14c-.54.22-1.19.33-1.9.33-1.78,0-2.8-1.06-2.8-2.75,0-1.37.82-2.88,2.65-2.88,1.69,0,2.34,1.36,2.34,2.69,0,.29-.03.54-.05.66h-3.37ZM20.07,34.11c0-.41-.17-1.09-.92-1.09-.69,0-.96.64-1.01,1.09h1.93Z"/>
      <path class="st0" d="M24.77,30.08c.5-.09,1.21-.15,2.21-.15s1.73.2,2.21.6c.46.38.77.99.77,1.72s-.24,1.35-.66,1.77c-.56.54-1.38.78-2.35.78-.21,0-.41-.01-.56-.03v2.66h-1.62v-7.34ZM26.39,33.46c.14.03.31.04.55.04.87,0,1.4-.45,1.4-1.21,0-.68-.46-1.09-1.27-1.09-.33,0-.56.03-.67.07v2.2Z"/>
      <path class="st0" d="M35.88,35.69c0,.71.02,1.28.04,1.73h-1.41l-.07-.76h-.03c-.2.33-.7.88-1.64.88-1.06,0-1.84-.68-1.84-2.35v-3.17h1.64v2.9c0,.78.25,1.26.81,1.26.45,0,.71-.32.81-.58.04-.1.05-.23.05-.36v-3.21h1.64v3.67Z"/>
      <path class="st0" d="M37.19,33.75c0-.67-.02-1.25-.04-1.72h1.41l.08.74h.03c.21-.34.75-.86,1.62-.86,1.07,0,1.87.73,1.87,2.32v3.2h-1.63v-2.99c0-.7-.24-1.17-.82-1.17-.45,0-.72.32-.82.63-.04.1-.06.26-.06.42v3.11h-1.63v-3.68Z"/>
      <g>
        <path class="st0" d="M1.33,4.9v7.44H.4v-7.44h.93Z"/>
        <path class="st0" d="M2.93,4.51h.94v7.84h-.94v-7.84Z"/>
        <path class="st0" d="M9.8,10.89c0,.55.01,1.04.04,1.46h-.84l-.05-.87h-.02c-.25.43-.79.99-1.71.99-.81,0-1.79-.46-1.79-2.34v-3.13h.94v2.96c0,1.02.3,1.7,1.16,1.7.63,0,1.07-.45,1.24-.88.05-.14.09-.32.09-.5v-3.28h.94v3.89Z"/>
        <path class="st0" d="M11.23,11.35c.28.19.77.39,1.24.39.69,0,1.01-.35,1.01-.8,0-.46-.27-.72-.96-.98-.93-.34-1.37-.87-1.37-1.51,0-.86.68-1.57,1.79-1.57.52,0,.99.15,1.28.33l-.24.71c-.2-.13-.58-.31-1.06-.31-.56,0-.87.33-.87.73,0,.44.31.64.99.91.9.35,1.36.82,1.36,1.61,0,.94-.71,1.6-1.94,1.6-.57,0-1.09-.14-1.46-.36l.24-.74Z"/>
        <path class="st0" d="M16.74,5.47v1.53h1.35v.74h-1.35v2.88c0,.66.18,1.04.71,1.04.25,0,.43-.03.55-.07l.04.73c-.18.08-.47.13-.84.13-.44,0-.79-.14-1.02-.41-.27-.29-.36-.76-.36-1.39v-2.92h-.8v-.74h.8v-1.28l.92-.25Z"/>
        <path class="st0" d="M19.15,8.67c0-.63-.01-1.17-.04-1.67h.82l.03,1.05h.04c.24-.72.8-1.17,1.44-1.17.11,0,.18.01.27.03v.92c-.1-.02-.19-.03-.32-.03-.66,0-1.14.52-1.26,1.25-.02.13-.04.29-.04.45v2.85h-.93v-3.68Z"/>
      </g>
      <path class="st0" d="M23.17,9.85c.02,1.31.84,1.86,1.78,1.86.68,0,1.08-.12,1.44-.28l.16.7c-.33.15-.9.33-1.72.33-1.6,0-2.55-1.08-2.55-2.69s.92-2.88,2.43-2.88c1.69,0,2.14,1.53,2.14,2.52,0,.2-.02.35-.03.45h-3.64ZM25.94,9.15c.01-.62-.25-1.58-1.31-1.58-.95,0-1.37.91-1.45,1.58h2.75Z"/>
    </g>
  </g>
  <path class="st0" d="M114.74,8.76c-3.41,0-6.56,1.09-9.15,2.92v25.93c2.59,1.83,5.74,2.92,9.15,2.92,8.77,0,15.88-7.11,15.88-15.88s-7.11-15.88-15.88-15.88ZM122.79,29.07c-.03.07-.08.17-.12.23l-.08.09-.18.05-.18.05-.04-.08-.04-.08-.08.06s-.1.01-.17.04l-.23.09-.05.1s-.06.13-.14.18l-.14.09-.06.08-.06.08-.44.17c-.18.14-.23.34-.24.36l-.03.04-.07-.04-.07-.04-.11-.26c-.06-.14-.14-.31-.17-.37l-.06-.11h-.07s-.07.03-.07.03l-.1-.06-.1-.06-.08.03-.08.03-.07-.17-.07-.17h-.03s-.04.07-.04.11v.09s.13.35.13.35l.14.35-.05.1-.05.1-.06.03-.06.03v.03s0,.13-.04.25l-.07.21.04.08.04.08v.12s-.02.12-.02.12l-.1.12c-.06.07-.11.15-.12.19-.01.04-.01.08,0,.09,0,.01.02.05.03.07v.05s-.1.02-.1.02l-.11.02-.06.11-.06.11h-.06s-.06,0-.06,0l-.15.17-.15.17-.14.03-.14.03-.14.12-.14.12-.11.02-.11.02-.14.09-.14.09-.08-.02-.08-.02-.17.09c-.09.05-.19.11-.22.15l-.04.06.02.05s0,.06,0,.09l-.03.04-.11-.06-.11-.06-.05.07-.05.07-.12.05-.12.05-.24-.26c-.22-.05-.51-.04-.5-.06.11-.19-.1.04-.15.02l-.1-.02-.05.06s-.08.07-.12.09l-.07.03-.03.08-.03.08-.15.08-.15.08-.06-.03s-.1-.09-.15-.15l-.08-.12h-.07s-.1.02-.13.01l-.06-.02-.03-.07-.03-.07-.19-.09-.19-.09h-.17s-.17,0-.17,0l-.22.07-.22.07-.09-.02-.09-.02-.07.04-.07.04-.06-.07s-.09-.13-.12-.2l-.06-.13h-.12s-.12-.02-.12-.02l-.07.09s-.1.1-.13.11l-.06.02-.22-.06c-.12-.03-.3-.09-.4-.12l-.18-.06-.03-.08-.03-.08h-.04s-.12-.09-.21-.17c-.09-.09-.24-.21-.32-.28-.08-.07-.16-.14-.17-.17-.01-.02-.05-.06-.09-.08-.04-.02-.11-.09-.16-.16l-.1-.12.04-.06.04-.06-.09-.2-.09-.2v-.07s0-.07,0-.07l-.14-.11-.14-.11v-.1s.02-.1.02-.1l-.09-.09-.09-.09-.09-.02-.09-.02v-.08s0-.11-.01-.15-.07-.1-.12-.14l-.09-.08-.08-.15-.06-.14v-.09s.04-.14.05-.21l.03-.12-.18-.4-.18-.4.03-.09c.02-.05.04-.17.04-.26v-.17s.07,0,.07,0c.03,0,.11-.03.18-.07l.13-.06h.08s.08.02.08.02l.02.05.02.05h.27s.27.03.27.03l.1-.03.1-.03.12.04.12.04.07-.08s.17-.16.29-.26l.21-.18.15-.27.15-.27.14.02c.08.01.18.04.21.06l.06.04.13-.08.13-.08.08-.11c.04-.06.1-.12.13-.13s.09-.07.15-.14c.05-.07.14-.21.18-.33.05-.12.14-.32.2-.46l.11-.25.02-.32.02-.32.1-.23c.06-.13.12-.29.13-.37l.04-.15-.04-.1-.04-.1h-.07s-.07,0-.07,0v.08s-.04.14-.07.22l-.05.14-.07-.02-.07-.02-.09.09-.09.09h-.03s-.03-.02-.03-.02v-.09s.02-.09.02-.09l-.06-.03-.06-.03-.11.05-.11.05v-.03s0-.06.03-.1l.05-.07-.05-.09-.05-.09-.19-.02-.19-.02-.12.08-.12.08v-.07s-.01-.1-.02-.14l-.03-.07-.1.03-.1.03-.02-.06-.02-.06-.13-.05-.13-.05-.12.07-.12.07-.02.06-.02.06-.09.04-.09.04-.04-.04-.04-.04-.05.02-.05.02v.1s0,.1,0,.1l-.05.02s-.08.02-.11.02h-.06s-.05-.11-.05-.11l-.05-.11.07-.15c.04-.08.09-.18.13-.22l.06-.07-.05-.11-.04-.12v-.05s.02-.05.02-.05l-.11-.06-.11-.06-.05.02-.05.02-.11-.04-.11-.04-.05-.14c-.03-.08-.05-.2-.06-.27,0-.07-.01-.18-.02-.25v-.13s-.05-.1-.05-.1c-.03-.05-.06-.14-.06-.19l-.02-.08.07-.03.07-.03.09-.18c.05-.1.1-.2.12-.24.01-.03.04-.11.07-.17.02-.06.14-.28.25-.48.11-.2.21-.39.21-.42v-.06s.08-.03.08-.03l.08-.03.04-.07.04-.07v-.07s-.03-.08-.03-.09.05,0,.11.03l.11.04.06-.04.06-.04-.05-.09-.05-.09h.06s.06-.03.06-.03l.06.12.06.12.15-.06.15-.06.15-.19.15-.19.12-.03.12-.03v-.03s-.05-.04-.09-.06l-.06-.02.04-.06.04-.06-.03-.07-.03-.07-.05.02-.05.02-.11-.07-.18.03.1-.09.1-.09-.02-.05-.02-.05h-.08s-.13.04-.18.07l-.11.06h-.05s-.06-.03-.06-.04v-.02s.17-.08.17-.08c.1-.04.24-.11.31-.14.07-.03.19-.08.25-.11.07-.03.23-.11.37-.17l.26-.12.04-.08.04-.08.11.03.11.03.06-.03.06-.03.35-.03.28.06.04-.04s.04-.09.05-.16l.02-.13.05-.02.05-.02.06.08.06.08h.03s.07,0,.12.02l.09.04.45-.21.45-.21.05-.07s.07-.13.1-.21l.04-.14-.06-.14-.02-.11.02-.05.02-.05-.08-.27c-.04-.15-.08-.29-.07-.32v-.05s.1-.04.1-.04l.09-.04.02-.06.02-.06-.03-.08-.03-.08.02-.03s.03-.12.03-.22v-.19s-.06-.04-.06-.04l-.07-.04.03-.04.03-.04.06.02.06.02.02-.11.02-.11.06.04s.06-.06.08-.12c.03-.06.06-.11.09-.13.03-.01.08-.07.13-.12l.09-.09v-.08s-.02-.08-.02-.08h.07s.09.05.09.05l.19-.14c.11-.08.24-.05.26-.07l.04-.04.27-.04c.14-.06.25-.1.25-.1,0,0-.05.07-.11.15l-.11.14h-.08s-.08,0-.08,0l-.17.06c-.08.07-.15.03-.23.04l-.06.03-.04.13c-.03.07-.07.1-.08.15l-.02.08h-.11s-.11-.02-.11-.02l-.04.12-.06.06-.12.14-.12.14v.15s-.03.15-.03.15l.05.13.05.13h.08s.08,0,.08,0l.08.22.08.22v.13s-.01.13-.01.13v.14c.03.09.05.22.05.28v.11s-.05.04-.05.04l-.05.04.06.08.06.08-.05.07-.05.07h-.06s-.06,0-.06,0v.03s.03.03.03.03h.1s.1,0,.1,0v.03s.03.03.03.03l-.08.03-.08.03v.06s0,.06,0,.06l.04.03.04.03-.03.06s-.04.1-.04.15v.09s-.11.04-.11.04l-.1.04-.06.09-.06.09.03.06.03.06-.1.07c-.05.04-.19.11-.31.15l-.21.09-.02.09-.02.09h-.18s-.18,0-.18,0l-.1-.11c-.06-.06-.12-.11-.15-.12h-.04s-.03.07-.03.07l-.03.08.07.11c.04.06.11.16.16.23l.09.11h.1s.1,0,.1,0l.02.05.02.05-.05.04-.05.04h-.14c-.08-.02-.2-.03-.26-.05l-.12-.02-.03.04s-.02.06,0,.08l.02.04.14.06.14.06.03.06.03.06-.08.03-.08.03-.15-.08-.15-.08-.05.02-.05.02.03.07.03.07.16.14c.09.08.17.15.18.15,0,0,.03-.01.04-.05.01-.03.05-.07.08-.08l.06-.03.06.03.06.03v.06s0,.06,0,.06l-.1.04-.1.04.02.05.02.05h.08s.08.02.08.02l.08.18.08.18v.11s0,.11,0,.11l.05.02.05.02.05-.15.05-.15h.07s.07-.02.07-.02l.07.08.07.08v.15s.02.15.02.15l.1.13.1.13-.03.08-.03.08.02.06.02.06h.05s.05,0,.05,0l.13-.19.13-.19.11-.07.11-.07h.09s.09-.03.09-.03l.05.12.05.12.09-.04c.05-.02.14-.08.19-.12l.1-.08.2-.03.2-.03.12.03.12.03.11-.05.12-.05.09-.12.09-.12v-.03s-.08-.1-.15-.18l-.13-.15.04-.09.04-.09.12-.05.12-.05.24-.04c.13-.02.3-.04.36-.05.06,0,.18-.01.27-.02h.15s.19.03.19.03l.19.04.11.09c.06.05.14.08.16.08.03,0,.11-.02.18-.04l.14-.03.06.04s.13.06.2.09l.14.06.05-.02.05-.02-.03-.06s-.05-.07-.08-.08l-.05-.02v-.05s.02-.05.02-.05l.08-.03.08-.03.1.08.1.08.06-.02.06-.02.19.04c.11.02.21.03.23.02.02,0,.05-.04.07-.06l.03-.05.16.02c.09,0,.17.03.17.04,0,.01-.03.07-.07.12l-.08.1.03.05.03.05.11-.02c.06-.01.15-.02.2-.01.05,0,.1.02.11.04v.03s-.08.02-.08.02l-.09.02v.06s0,.06,0,.06l.1.15.1.15v.11c-.02.06,0,.14.01.19l.03.07h.08s.08.02.08.02l.13.11.13.11.11.22.11.22.06.03.06.03.06.15.06.15-.07.13-.07.13.02.05s.05.05.08.06l.06.02.06.08.06.09v.12s-.02.12-.02.12l.1.17.1.17-.07.16c-.04.09-.09.24-.11.34l-.04.18.07.31c.04.17.09.36.12.41l.04.1v.13s-.02.13-.02.13l.09.19.09.19.13.07.13.07v.03s-.02.03-.02.03l-.26.12-.26.12-.08.13-.08.13.06.09.06.09.13.07.13.07v.08s.05.17.08.28l.05.2v.06s-.02.12,0,.2c.01.08.04.19.05.25l.04.11-.08.05s-.09.07-.1.1l-.03.05.03.08.03.08h.08s.08-.02.08-.02v.05s-.01.05-.01.05h-.06s-.06.02-.06.02l-.04.06-.04.06.02.05.02.05h.12c.07.02.13.03.14.05,0,.02.01.09.02.16v.13s-.04.13-.04.13Z"/>
  <rect class="st0" x="96.74" width=".32" height="49.26"/>
</svg>