<?xml version="1.0" encoding="UTF-8"?>
<svg id="Capa_1" xmlns="http://www.w3.org/2000/svg" version="1.1" viewBox="0 0 65.55 25.26">
  <!-- Generator: Adobe Illustrator 30.2.1, SVG Export Plug-In . SVG Version: 2.1.1 Build 1)  -->
  <defs>
    <style>
      .st0 {
        fill: #fff;
      }
    </style>
  </defs>
  <path class="st0" d="M25.78,13.06c.42,0,.74-.15.97-.46l2.97-5.31c.1-.16.19-.32.28-.47.09-.15.17-.31.25-.47l.1.02v10c0,.52.48.77,1.45.77h.7c.97,0,1.45-.26,1.45-.77V.92c0-.51-.48-.77-1.45-.77h-1.26c-.35,0-.66.05-.93.14-.27.1-.46.27-.59.51l-4.08,7.15c-.03.06-.07.13-.11.19-.04.06-.08.14-.11.22-.03-.08-.07-.15-.12-.22-.05-.06-.09-.13-.12-.19L21.17.8c-.13-.24-.33-.41-.59-.51-.27-.1-.58-.14-.93-.14h-1.28c-.97,0-1.45.26-1.45.77v15.45c0,.52.48.77,1.45.77h.7c.97,0,1.45-.26,1.45-.77V6.37l.1-.02c.08.16.17.32.25.47.09.15.18.31.28.47l2.97,5.31c.23.31.55.46.97.46h.7ZM38.29,17.14c.29,0,.53-.04.72-.12.19-.08.32-.21.39-.39l.97-2.95h5.7l.97,2.95c.06.19.22.33.46.4.24.07.54.11.89.11h1.06c.81,0,1.21-.18,1.21-.53,0-.13-.02-.27-.07-.43L45.27.65c-.11-.34-.57-.51-1.38-.51h-1.26c-.79,0-1.25.17-1.38.51l-5.31,15.53c-.02.08-.04.16-.06.23-.02.07-.04.14-.04.21,0,.35.49.53,1.47.53h.97ZM42.83,6.21c.1-.26.17-.51.22-.77.05-.26.1-.52.14-.77h.1c.05.26.1.52.16.77.06.26.12.52.21.77l1.38,4.3h-3.62l1.42-4.3ZM61.52,17.22c.63-.05,1.25-.14,1.86-.27.61-.13,1.13-.32,1.55-.57.42-.25.63-.58.63-1v-6.71c0-.64-.32-.97-.97-.97h-4.9c-.48,0-.72.4-.72,1.21v.77c0,.81.24,1.21.72,1.21h2.12v4.47l1.06-1.64c-.6.14-1.11.25-1.53.31-.43.06-.9.1-1.41.1-.69,0-1.3-.12-1.81-.35-.52-.23-.95-.58-1.29-1.04-.35-.46-.6-1.03-.77-1.73-.17-.69-.25-1.49-.25-2.39,0-1.21.15-2.21.45-3.02.3-.8.76-1.41,1.38-1.81.62-.4,1.4-.6,2.35-.6.77,0,1.41.06,1.92.19.51.13.9.26,1.18.39.28.13.47.19.57.19.21,0,.43-.14.68-.42.24-.28.45-.6.63-.97.18-.36.27-.66.27-.88,0-.26-.17-.49-.5-.69-.33-.2-.76-.38-1.29-.53-.53-.15-1.1-.27-1.69-.35-.6-.08-1.16-.12-1.69-.12-2.67,0-4.68.71-6.04,2.14-1.35,1.42-2.03,3.58-2.03,6.46s.65,5.17,1.94,6.58c1.3,1.41,3.3,2.11,6,2.11.43,0,.97-.02,1.59-.07"/>
  <path class="st0" d="M12.3,15.75c1.23-1.02,1.85-2.46,1.85-4.31V.92c0-.51-.48-.77-1.45-.77h-.8c-.97,0-1.45.26-1.45.77v10.29c0,.56-.14,1.07-.42,1.51-.28.44-.67.79-1.16,1.04-.49.25-1.07.37-1.73.37s-1.22-.12-1.71-.37c-.5-.25-.89-.6-1.16-1.04-.27-.44-.41-.95-.41-1.51V.92c0-.51-.48-.77-1.45-.77h-.82C.62.14.14.4.14.92v10.53c0,1.85.62,3.29,1.85,4.31,1.23,1.02,2.95,1.53,5.16,1.53s3.92-.51,5.16-1.53"/>
  <g>
    <path class="st0" d="M.63,24.03c-.2-.09-.36-.23-.47-.4-.11-.17-.16-.36-.16-.58,0-.06,0-.1,0-.13l.24-2.38c.01-.09.1-.13.26-.13h.08c.08,0,.14.01.18.03.03.02.05.05.05.1l-.24,2.32s0,.06,0,.11c0,.23.07.4.23.52.15.12.35.18.6.18.17,0,.33-.03.48-.1.15-.07.26-.16.35-.27.09-.11.14-.24.16-.39l.25-2.38c.01-.09.1-.13.26-.13h.08c.08,0,.14.01.17.03.03.02.05.05.05.1l-.25,2.39c-.04.39-.2.7-.48.91-.28.22-.66.33-1.12.33-.27,0-.5-.05-.71-.14Z"/>
    <path class="st0" d="M6.3,23.73s0,.12-.03.23c-.01.07-.06.12-.14.16s-.15.05-.23.05c-.17,0-.3-.05-.39-.14-.09-.09-.13-.24-.13-.43v-.16s.02-.13.02-.13c.01-.12.02-.24.03-.36.01-.12.02-.23.03-.33.03-.28.05-.43.05-.46,0-.24-.12-.37-.37-.37-.13,0-.26.06-.4.17-.13.11-.25.29-.33.53l-.16,1.52c-.01.09-.1.13-.25.13h-.06c-.08,0-.14-.01-.18-.04-.04-.02-.06-.05-.05-.09l.19-1.79c.02-.28.04-.44.04-.48,0-.06,0-.11,0-.14,0-.03,0-.05,0-.07,0-.05.04-.09.13-.11.08-.02.17-.03.26-.03.1,0,.15.12.15.37v.05c.12-.16.26-.29.42-.37.16-.08.32-.13.49-.13.24,0,.42.06.53.18.11.12.17.29.17.51,0,.07-.01.17-.03.3-.01.13-.03.27-.04.42-.05.45-.08.71-.08.78,0,.08.02.14.05.16s.08.04.13.04c.03,0,.06,0,.09-.01.03,0,.05-.01.06-.01.02,0,.04.01.04.04Z"/>
    <path class="st0" d="M6.89,23.61c0-.07.01-.24.04-.51.02-.27.05-.57.09-.89.03-.32.06-.57.08-.73.01-.09.1-.13.25-.13h.06c.16,0,.23.04.23.13-.02.2-.06.57-.12,1.12-.06.55-.09.85-.09.91,0,.08.01.14.04.16s.07.04.13.04c.03,0,.06,0,.08-.01.03,0,.05-.01.06-.01.02,0,.03.01.03.04,0,.06,0,.14-.02.23-.01.07-.06.12-.14.16s-.15.05-.23.05c-.35,0-.52-.19-.52-.56ZM7.22,20.87s-.06-.06-.06-.11l.04-.32c.01-.1.11-.15.31-.15.1,0,.16.01.2.04.04.02.06.06.06.11l-.03.32c-.02.1-.13.14-.31.14-.1,0-.17-.01-.21-.03Z"/>
    <path class="st0" d="M8.9,24.05l-.58-2.54s-.01-.05-.01-.06c0-.07.09-.1.27-.1h.08c.14,0,.22.03.23.09l.28,1.28.07.34c.02.1.04.22.07.38h.03c.11-.32.21-.56.28-.72l.55-1.28c.03-.06.11-.09.24-.09h.04c.16,0,.24.03.24.09,0,.03,0,.06-.02.09l-1.12,2.53c-.03.06-.11.09-.24.09h-.18c-.14,0-.21-.03-.23-.09Z"/>
    <path class="st0" d="M11.58,22.98v.02c0,.27.06.45.18.56s.3.16.53.16c.14,0,.27-.02.38-.06.11-.04.22-.09.32-.14.01,0,.03-.02.06-.03.03-.01.05-.02.06-.02.01,0,.02,0,.03.01,0,0,0,.03,0,.06,0,.02,0,.07,0,.13,0,.06-.01.11-.02.16-.02.12-.14.2-.33.26-.2.06-.38.09-.55.09-.36,0-.65-.08-.88-.25-.23-.17-.34-.46-.34-.86,0-.53.13-.95.38-1.26.25-.31.61-.47,1.08-.47.22,0,.4.04.54.12.14.08.24.17.3.28.06.11.09.22.09.33,0,.34-.13.58-.39.74-.26.16-.58.23-.96.23-.18,0-.34-.01-.48-.04ZM11.86,22c-.13.15-.22.35-.25.59h.34c.21,0,.42-.03.62-.1.2-.07.3-.2.3-.38,0-.1-.04-.18-.11-.24-.08-.06-.18-.09-.32-.09-.25,0-.44.07-.57.22Z"/>
    <path class="st0" d="M15.65,21.38s.07.09.07.16c0,.07-.02.15-.06.23-.04.08-.08.12-.11.12-.01,0-.03,0-.07-.03-.04-.02-.08-.03-.14-.03-.12,0-.24.06-.35.18-.11.12-.2.28-.26.5l-.16,1.5c-.01.09-.1.13-.25.13h-.06c-.07,0-.13-.01-.17-.04-.04-.02-.06-.05-.06-.09l.2-1.84c.02-.18.03-.32.03-.43v-.21c0-.05.04-.09.12-.11.08-.02.17-.03.26-.03.1,0,.15.1.15.31,0,.04,0,.07,0,.1.08-.14.19-.26.3-.35.12-.09.24-.13.38-.13.07,0,.14.02.19.06Z"/>
    <path class="st0" d="M16.2,24.09c-.17-.05-.25-.15-.25-.28,0-.09,0-.16.03-.21.02-.05.04-.08.06-.08.01,0,.05.02.11.06.07.04.14.07.23.1.08.03.18.04.28.04.15,0,.27-.03.37-.1s.14-.16.14-.29c0-.11-.04-.19-.11-.24-.07-.05-.19-.11-.36-.17-.19-.07-.34-.16-.45-.26-.11-.1-.17-.26-.17-.47,0-.27.09-.48.28-.64.19-.15.42-.23.7-.23.17,0,.33.02.48.07.15.05.23.11.23.2,0,.05-.03.11-.08.19-.05.08-.1.11-.13.11-.01,0-.04-.01-.09-.03-.05-.02-.1-.04-.16-.06-.06-.02-.13-.03-.21-.03-.14,0-.25.03-.32.08-.08.05-.12.13-.12.23,0,.11.04.2.12.25.08.06.2.12.36.18.13.05.23.1.32.15.08.05.15.12.21.21.06.09.08.21.08.35,0,.18-.04.35-.13.49-.09.14-.21.25-.36.33s-.33.12-.54.12c-.16,0-.33-.03-.5-.08Z"/>
    <path class="st0" d="M18.39,23.61c0-.07.01-.24.04-.51.02-.27.05-.57.09-.89.03-.32.06-.57.08-.73.01-.09.1-.13.25-.13h.06c.16,0,.23.04.23.13-.02.2-.06.57-.12,1.12-.06.55-.09.85-.09.91,0,.08.01.14.04.16s.07.04.13.04c.03,0,.06,0,.08-.01.03,0,.05-.01.06-.01.02,0,.03.01.03.04,0,.06,0,.14-.02.23-.01.07-.06.12-.14.16s-.15.05-.23.05c-.35,0-.52-.19-.52-.56ZM18.71,20.87s-.06-.06-.06-.11l.04-.32c.01-.1.11-.15.31-.15.1,0,.16.01.2.04.04.02.06.06.06.11l-.03.32c-.02.1-.13.14-.31.14-.1,0-.17-.01-.21-.03Z"/>
    <path class="st0" d="M22.5,23.73c0,.06,0,.14-.03.23-.01.07-.05.12-.13.16-.08.03-.15.05-.23.05-.33,0-.5-.17-.53-.51-.1.17-.21.3-.35.38s-.29.13-.45.13-.31-.04-.46-.11-.27-.2-.37-.37c-.1-.17-.14-.4-.14-.67,0-.33.05-.62.16-.88.11-.26.26-.46.46-.6.2-.15.42-.22.68-.22s.48.08.68.23l.14-1.28c.01-.09.1-.13.25-.13h.06c.16,0,.23.04.23.13-.04.33-.1.93-.19,1.82-.09.89-.14,1.36-.14,1.42,0,.08.01.14.05.16.03.02.07.04.14.04.02,0,.05,0,.08-.01.03,0,.05-.01.06-.01.02,0,.04.01.04.04ZM21.74,21.96c-.15-.12-.33-.18-.54-.18-.3,0-.51.11-.64.33-.13.22-.2.51-.2.87,0,.26.05.44.14.56s.24.17.43.17c.12,0,.25-.06.38-.17s.24-.3.32-.55l.11-1.03Z"/>
    <path class="st0" d="M25.48,23.73c0,.06,0,.14-.03.23-.01.07-.05.12-.13.16s-.15.05-.23.05c-.33,0-.51-.17-.52-.51-.09.17-.21.3-.34.38-.14.09-.29.13-.45.13-.15,0-.28-.04-.42-.11s-.24-.2-.33-.37c-.09-.17-.13-.39-.13-.67,0-.33.05-.62.16-.88.11-.26.25-.46.45-.6s.41-.21.66-.21c.24,0,.46.09.66.28.03-.1.06-.16.1-.2.03-.04.09-.06.17-.06h.04c.12,0,.19.04.19.12l-.03.25c-.04.33-.07.69-.12,1.11-.04.41-.06.64-.06.69,0,.08.02.14.05.16s.08.04.13.04c.03,0,.06,0,.08-.01.03,0,.05-.01.06-.01.02,0,.03.01.03.04ZM24.74,21.97c-.15-.12-.31-.19-.49-.19-.28,0-.48.11-.6.33-.12.22-.18.51-.18.88,0,.48.16.72.48.72.12,0,.24-.06.37-.18.13-.12.23-.3.32-.55l.07-.71s.02-.15.05-.31Z"/>
    <path class="st0" d="M28.6,23.73c0,.06,0,.14-.03.23-.01.07-.05.12-.13.16s-.15.05-.23.05c-.33,0-.5-.17-.53-.51-.1.17-.21.3-.35.38-.14.09-.29.13-.45.13s-.31-.04-.46-.11c-.15-.07-.27-.2-.37-.37-.1-.17-.14-.4-.14-.67,0-.33.05-.62.16-.88.11-.26.26-.46.46-.6.2-.15.42-.22.68-.22s.48.08.68.23l.14-1.28c.01-.09.1-.13.25-.13h.06c.16,0,.23.04.23.13-.04.33-.1.93-.19,1.82-.09.89-.14,1.36-.14,1.42,0,.08.01.14.04.16s.08.04.14.04c.02,0,.05,0,.08-.01.03,0,.05-.01.06-.01.02,0,.04.01.04.04ZM27.84,21.96c-.15-.12-.33-.18-.54-.18-.3,0-.51.11-.64.33-.13.22-.2.51-.2.87,0,.26.05.44.14.56s.24.17.43.17c.12,0,.25-.06.38-.17.13-.11.24-.3.32-.55l.11-1.03Z"/>
    <path class="st0" d="M33.02,23.73c0,.06,0,.14-.03.23-.01.07-.05.12-.13.16-.08.03-.15.05-.23.05-.33,0-.5-.17-.53-.51-.1.17-.21.3-.35.38s-.29.13-.45.13-.31-.04-.46-.11c-.15-.07-.27-.2-.37-.37-.1-.17-.14-.4-.14-.67,0-.33.05-.62.16-.88.11-.26.26-.46.46-.6.2-.15.42-.22.68-.22s.48.08.68.23l.14-1.28c.01-.09.1-.13.25-.13h.06c.16,0,.23.04.23.13-.04.33-.1.93-.19,1.82-.09.89-.14,1.36-.14,1.42,0,.08.01.14.05.16.03.02.07.04.14.04.02,0,.05,0,.08-.01.03,0,.05-.01.06-.01.02,0,.04.01.04.04ZM32.26,21.96c-.15-.12-.33-.18-.54-.18-.3,0-.51.11-.64.33-.13.22-.2.51-.2.87,0,.26.05.44.14.56.09.11.24.17.43.17.12,0,.25-.06.38-.17.13-.11.24-.3.32-.55l.11-1.03Z"/>
    <path class="st0" d="M34.02,22.98v.02c0,.27.06.45.18.56s.3.16.53.16c.14,0,.27-.02.38-.06.11-.04.22-.09.32-.14.01,0,.03-.02.06-.03.03-.01.04-.02.06-.02.01,0,.02,0,.03.01,0,0,0,.03,0,.06,0,.02,0,.07,0,.13,0,.06-.01.11-.02.16-.02.12-.14.2-.33.26s-.38.09-.55.09c-.36,0-.65-.08-.88-.25-.23-.17-.34-.46-.34-.86,0-.53.13-.95.38-1.26.25-.31.61-.47,1.08-.47.22,0,.4.04.54.12.14.08.24.17.3.28.06.11.09.22.09.33,0,.34-.13.58-.39.74-.26.16-.58.23-.96.23-.18,0-.34-.01-.48-.04ZM34.3,22c-.13.15-.22.35-.25.59h.34c.21,0,.42-.03.62-.1.2-.07.3-.2.3-.38,0-.1-.04-.18-.11-.24-.08-.06-.18-.09-.32-.09-.25,0-.44.07-.57.22Z"/>
    <path class="st0" d="M39.44,23.06l-.71-1.52c-.04-.09-.07-.16-.09-.21h-.02c0,.07,0,.15-.02.27l-.25,2.42c-.01.09-.1.13-.25.13h-.07c-.08,0-.14-.01-.18-.03-.04-.02-.05-.05-.05-.1l.37-3.47c0-.09.09-.13.25-.13h.22c.13,0,.21.04.25.11l.77,1.67c.05.1.08.19.1.29.04-.08.09-.17.15-.27l1.14-1.69c.05-.07.14-.11.27-.11h.2c.08,0,.14.01.18.03.04.02.05.05.05.1l-.37,3.47c-.01.09-.1.13-.25.13h-.07c-.08,0-.14-.01-.18-.03-.04-.02-.05-.05-.05-.1l.25-2.37.03-.28h-.02c-.04.06-.08.12-.12.18l-1.03,1.52c-.04.05-.09.08-.15.08h-.2c-.06,0-.1-.03-.13-.08Z"/>
    <path class="st0" d="M44.86,23.73c0,.06,0,.14-.03.23-.01.07-.05.12-.13.16s-.15.05-.23.05c-.33,0-.51-.17-.52-.51-.09.17-.21.3-.34.38-.14.09-.29.13-.45.13-.15,0-.28-.04-.42-.11-.13-.07-.24-.2-.33-.37-.09-.17-.13-.39-.13-.67,0-.33.05-.62.16-.88.11-.26.25-.46.45-.6s.41-.21.66-.21c.24,0,.46.09.66.28.03-.1.06-.16.1-.2.03-.04.09-.06.17-.06h.04c.12,0,.19.04.19.12l-.03.25c-.04.33-.07.69-.12,1.11-.04.41-.06.64-.06.69,0,.08.02.14.05.16s.08.04.13.04c.03,0,.06,0,.08-.01.03,0,.05-.01.06-.01.02,0,.03.01.03.04ZM44.12,21.97c-.15-.12-.31-.19-.49-.19-.28,0-.48.11-.6.33-.12.22-.18.51-.18.88,0,.48.16.72.48.72.12,0,.24-.06.37-.18.13-.12.23-.3.32-.55l.07-.71s.02-.15.05-.31Z"/>
    <path class="st0" d="M47.78,21.46l-.23,2.15c-.04.4-.12.72-.22.96-.11.24-.25.41-.42.52-.18.11-.4.16-.66.16-.17,0-.33-.02-.47-.06-.14-.04-.26-.08-.34-.14-.08-.06-.12-.12-.12-.18,0-.23.03-.34.08-.34.01,0,.05.02.13.07.08.05.17.09.28.13.11.04.24.06.39.06.25,0,.44-.09.57-.28s.21-.48.25-.89c-.1.16-.22.29-.35.37-.14.08-.28.12-.44.12s-.3-.04-.44-.11c-.14-.07-.25-.19-.34-.36s-.14-.38-.14-.65c0-.33.05-.62.16-.88.11-.26.26-.46.46-.6.2-.14.42-.21.68-.21s.48.1.68.29c.04-.1.07-.17.1-.2s.09-.06.17-.06h.04c.12,0,.19.04.19.12ZM47.19,21.96c-.08-.05-.16-.1-.24-.13-.08-.04-.17-.05-.28-.05-.29,0-.5.11-.63.33-.13.22-.19.51-.19.87,0,.46.17.69.51.69.12,0,.25-.06.38-.18.13-.12.24-.3.32-.56l.07-.65c.02-.13.04-.24.05-.32Z"/>
    <path class="st0" d="M50.86,23.73c0,.06,0,.14-.03.23-.01.07-.05.12-.13.16s-.15.05-.23.05c-.33,0-.51-.17-.52-.51-.09.17-.21.3-.34.38-.14.09-.29.13-.45.13-.15,0-.28-.04-.42-.11-.13-.07-.24-.2-.33-.37-.09-.17-.13-.39-.13-.67,0-.33.05-.62.16-.88.11-.26.25-.46.45-.6s.41-.21.66-.21c.24,0,.46.09.66.28.03-.1.06-.16.1-.2.03-.04.09-.06.17-.06h.04c.12,0,.19.04.19.12l-.03.25c-.04.33-.07.69-.12,1.11-.04.41-.06.64-.06.69,0,.08.02.14.05.16s.08.04.13.04c.03,0,.06,0,.08-.01.03,0,.05-.01.06-.01.02,0,.03.01.03.04ZM50.12,21.97c-.15-.12-.31-.19-.49-.19-.28,0-.48.11-.6.33-.12.22-.18.51-.18.88,0,.48.16.72.48.72.12,0,.24-.06.37-.18.13-.12.23-.3.32-.55l.07-.71s.02-.15.05-.31Z"/>
    <path class="st0" d="M51.56,24.03c-.09-.09-.13-.22-.13-.4,0-.06,0-.1,0-.13l.33-3.24s.02-.08.06-.1.1-.03.18-.03h.09c.09,0,.15.01.18.04.03.02.04.07.03.13l-.33,3.13s0,.06,0,.1c0,.07.01.11.04.14.03.03.07.04.15.04.03,0,.06,0,.09-.01.03,0,.05-.01.06-.01.02,0,.04.01.04.04,0,.04,0,.12-.03.23-.01.07-.06.12-.14.16s-.15.05-.23.05c-.17,0-.3-.05-.39-.14Z"/>
    <path class="st0" d="M53.24,24.03c-.09-.09-.13-.22-.13-.4,0-.06,0-.1,0-.13l.33-3.24s.02-.08.06-.1c.04-.02.1-.03.17-.03h.09c.09,0,.15.01.18.04.03.02.04.07.03.13l-.33,3.13s0,.06,0,.1c0,.07.01.11.04.14.03.03.08.04.15.04.03,0,.06,0,.09-.01.03,0,.05-.01.06-.01.02,0,.04.01.04.04,0,.04,0,.12-.03.23-.01.07-.06.12-.14.16-.08.03-.15.05-.23.05-.17,0-.3-.05-.39-.14Z"/>
    <path class="st0" d="M57.22,23.73c0,.06,0,.14-.03.23-.01.07-.05.12-.13.16s-.15.05-.23.05c-.33,0-.51-.17-.52-.51-.09.17-.21.3-.34.38-.14.09-.29.13-.45.13-.15,0-.28-.04-.42-.11-.13-.07-.24-.2-.33-.37-.09-.17-.13-.39-.13-.67,0-.33.05-.62.16-.88.11-.26.25-.46.45-.6s.41-.21.66-.21c.24,0,.46.09.66.28.03-.1.06-.16.1-.2.03-.04.09-.06.17-.06h.04c.12,0,.19.04.19.12l-.03.25c-.04.33-.07.69-.12,1.11-.04.41-.06.64-.06.69,0,.08.02.14.05.16s.08.04.13.04c.03,0,.06,0,.08-.01.03,0,.05-.01.06-.01.02,0,.03.01.03.04ZM56.48,21.97c-.15-.12-.31-.19-.49-.19-.28,0-.48.11-.6.33-.12.22-.18.51-.18.88,0,.48.16.72.48.72.12,0,.24-.06.37-.18.13-.12.23-.3.32-.55l.07-.71s.02-.15.05-.31Z"/>
    <path class="st0" d="M60.2,23.73s0,.12-.03.23c-.01.07-.06.12-.14.16s-.15.05-.23.05c-.17,0-.3-.05-.39-.14-.09-.09-.13-.24-.13-.43v-.16s.02-.13.02-.13c.01-.12.02-.24.03-.36.01-.12.02-.23.03-.33.03-.28.05-.43.05-.46,0-.24-.12-.37-.37-.37-.13,0-.26.06-.4.17-.13.11-.25.29-.33.53l-.16,1.52c-.01.09-.1.13-.25.13h-.06c-.08,0-.14-.01-.18-.04-.04-.02-.06-.05-.05-.09l.19-1.79c.02-.28.04-.44.04-.48,0-.06,0-.11,0-.14,0-.03,0-.05,0-.07,0-.05.04-.09.13-.11.08-.02.17-.03.26-.03.1,0,.15.12.15.37v.05c.12-.16.26-.29.42-.37.16-.08.32-.13.49-.13.24,0,.42.06.53.18.11.12.17.29.17.51,0,.07-.01.17-.03.3-.01.13-.03.27-.04.42-.05.45-.08.71-.08.78,0,.08.02.14.05.16s.08.04.13.04c.03,0,.06,0,.09-.01.03,0,.05-.01.06-.01.02,0,.04.01.04.04Z"/>
    <path class="st0" d="M61.3,22.98v.02c0,.27.06.45.18.56.12.11.3.16.53.16.14,0,.27-.02.38-.06.11-.04.22-.09.32-.14.01,0,.03-.02.06-.03.03-.01.05-.02.06-.02.01,0,.02,0,.03.01s0,.03,0,.06c0,.02,0,.07,0,.13s-.01.11-.02.16c-.02.12-.14.2-.33.26-.2.06-.38.09-.55.09-.36,0-.65-.08-.88-.25-.23-.17-.34-.46-.34-.86,0-.53.13-.95.38-1.26.25-.31.61-.47,1.08-.47.22,0,.4.04.54.12.14.08.24.17.3.28.06.11.09.22.09.33,0,.34-.13.58-.39.74-.26.16-.58.23-.96.23-.18,0-.34-.01-.48-.04ZM61.58,22c-.13.15-.22.35-.25.59h.34c.21,0,.42-.03.62-.1.2-.07.3-.2.3-.38,0-.1-.04-.18-.11-.24s-.18-.09-.32-.09c-.25,0-.44.07-.57.22Z"/>
    <path class="st0" d="M63.87,24.09c-.17-.05-.25-.15-.25-.28,0-.09,0-.16.03-.21.02-.05.04-.08.06-.08.01,0,.05.02.11.06.07.04.14.07.23.1.08.03.18.04.28.04.15,0,.27-.03.37-.1.09-.07.14-.16.14-.29,0-.11-.04-.19-.11-.24-.07-.05-.19-.11-.36-.17-.19-.07-.34-.16-.45-.26-.11-.1-.17-.26-.17-.47,0-.27.09-.48.28-.64.19-.15.42-.23.7-.23.17,0,.33.02.48.07.15.05.23.11.23.2,0,.05-.03.11-.08.19-.05.08-.1.11-.13.11-.01,0-.04-.01-.09-.03-.05-.02-.1-.04-.16-.06-.06-.02-.13-.03-.21-.03-.14,0-.25.03-.32.08s-.12.13-.12.23c0,.11.04.2.12.25.08.06.2.12.36.18.13.05.23.1.32.15.08.05.15.12.21.21.06.09.08.21.08.35,0,.18-.04.35-.13.49-.09.14-.21.25-.36.33-.16.08-.33.12-.54.12-.16,0-.33-.03-.5-.08Z"/>
  </g>
</svg>