<?xml version="1.0" encoding="UTF-8"?>
<svg id="Capa_1" xmlns="http://www.w3.org/2000/svg" version="1.1" viewBox="0 0 84.79 47.71">
  <!-- Generator: Adobe Illustrator 30.2.1, SVG Export Plug-In . SVG Version: 2.1.1 Build 1)  -->
  <defs>
    <style>
      .st0 {
        fill: #fff;
      }
    </style>
  </defs>
  <g>
    <path class="st0" d="M5.98,11.38c-.11,0-.15.04-.2.18l-1.19,3.15c-.22.55-.33,1.08-.33,1.34,0,.4.2.68.88.68h.33c.26,0,.33.04.33.18,0,.18-.13.22-.37.22-.7,0-1.65-.07-2.33-.07-.24,0-1.45.07-2.6.07-.29,0-.42-.04-.42-.22,0-.13.13-.18.31-.18.2,0,.46-.02.64-.04,1.01-.13,1.43-.88,1.87-1.98L8.42.88c.26-.64.42-.88.62-.88.18,0,.33.2.55.7.53,1.21,4.05,10.19,5.46,13.54.84,1.98,1.47,2.29,1.94,2.4.33.07.66.09.92.09.18,0,.29.04.29.18,0,.18-.2.22-1.01.22s-2.55,0-4.31-.04c-.4-.02-.51-.04-.51-.18,0-.11.09-.18.31-.2.15-.04.31-.24.2-.51l-1.76-4.67c-.04-.11-.11-.15-.22-.15h-4.91ZM10.47,10.28c.11,0,.13-.07.11-.13l-1.98-5.44c-.07-.2-.15-.26-.24,0l-2.03,5.42c-.02.09,0,.15.09.15h4.05Z"/>
    <path class="st0" d="M18.11,8.81C18.11,5.04,20.6.18,27.2.18c5.48,0,8.89,3.19,8.89,8.23s-3.52,9.03-9.11,9.03c-6.32,0-8.87-4.73-8.87-8.63ZM33.01,9.22c0-4.93-2.84-7.99-6.45-7.99-2.53,0-5.42,1.41-5.42,6.89,0,4.58,2.53,8.21,6.76,8.21,1.54,0,5.11-.75,5.11-7.11Z"/>
    <path class="st0" d="M40.59,6.87c0-3.35,0-3.96-.04-4.67-.04-.75-.22-1.1-.95-1.25-.18-.04-.55-.07-.86-.07-.24,0-.37-.04-.37-.2s.15-.2.48-.2c1.17,0,2.55.07,2.99.07,1.08,0,1.94-.07,2.69-.07,3.98,0,4.69,2.14,4.69,3.3,0,1.81-1.03,2.88-2.25,3.85,1.81.62,4.01,2.18,4.01,4.76,0,2.36-1.83,4.8-5.88,4.8-1.01,0-2.03-.13-3.19-.13-.88,0-1.78.07-2.77.07-.29,0-.44-.07-.44-.22,0-.11.09-.18.35-.18.33,0,.64-.04.84-.11.42-.13.51-.55.59-1.19.11-.92.11-2.66.11-4.69v-3.87ZM43.23,7.24c0,.18.07.22.15.24.2.04.53.07,1.03.07.73,0,1.21-.09,1.59-.42.57-.46.9-1.25.9-2.33,0-1.47-.86-3.41-2.75-3.41-.31,0-.51,0-.73.04-.15.04-.2.13-.2.37v5.44ZM43.23,10.24v3.59c0,1.45.07,1.83.77,2.11.59.24,1.1.26,1.61.26.99,0,2.66-.53,2.66-2.82,0-1.37-.46-3.21-2.14-4.38-.46-.33-.97-.48-1.83-.53-.4-.02-.62-.02-.95-.02-.09,0-.13.04-.13.15v1.63Z"/>
    <path class="st0" d="M57.36,11.38c-.11,0-.15.04-.2.18l-1.19,3.15c-.22.55-.33,1.08-.33,1.34,0,.4.2.68.88.68h.33c.26,0,.33.04.33.18,0,.18-.13.22-.37.22-.7,0-1.65-.07-2.33-.07-.24,0-1.45.07-2.6.07-.29,0-.42-.04-.42-.22,0-.13.13-.18.31-.18.2,0,.46-.02.64-.04,1.01-.13,1.43-.88,1.87-1.98L59.8.88c.26-.64.42-.88.62-.88.18,0,.33.2.55.7.53,1.21,4.05,10.19,5.46,13.54.84,1.98,1.47,2.29,1.94,2.4.33.07.66.09.92.09.18,0,.29.04.29.18,0,.18-.2.22-1.01.22s-2.55,0-4.31-.04c-.4-.02-.51-.04-.51-.18,0-.11.09-.18.31-.2.15-.04.31-.24.2-.51l-1.76-4.67c-.04-.11-.11-.15-.22-.15h-4.91ZM61.85,10.28c.11,0,.13-.07.11-.13l-1.98-5.44c-.07-.2-.15-.26-.24,0l-2.03,5.42c-.02.09,0,.15.09.15h4.05Z"/>
    <path class="st0" d="M72.22,15.04c-2.16-1.89-2.73-4.36-2.73-6.49,0-1.5.46-4.09,2.58-6.03,1.59-1.45,3.68-2.33,6.96-2.33,1.37,0,2.18.09,3.19.22.84.11,1.61.31,2.27.37.24.02.26.13.26.26,0,.18-.07.44-.11,1.21-.04.73-.02,1.94-.07,2.38-.02.33-.07.53-.26.53-.18,0-.22-.2-.22-.51-.02-.68-.31-1.45-.86-2.03-.73-.77-2.44-1.37-4.47-1.37-1.92,0-3.17.48-4.14,1.37-1.61,1.47-2.03,3.57-2.03,5.7,0,5.24,3.98,7.84,6.93,7.84,1.96,0,3.15-.22,4.03-1.23.37-.42.66-1.06.75-1.45.07-.35.11-.44.29-.44.15,0,.2.15.2.33,0,.26-.26,2.18-.48,2.93-.11.37-.2.48-.57.64-.88.35-2.55.51-3.96.51-3.02,0-5.55-.66-7.55-2.4Z"/>
  </g>
  <rect class="st0" x=".08" y="19.34" width="84.71" height=".23"/>
  <g>
    <path class="st0" d="M40.91,24.12l-.26.87h-.58l.98-3.06h.71l.99,3.06h-.6l-.28-.87h-.97ZM41.79,23.69l-.24-.75c-.06-.19-.11-.39-.15-.57h0c-.05.18-.09.39-.15.57l-.24.75h.78Z"/>
    <path class="st0" d="M43.12,24.47c.13.08.37.16.57.16.24,0,.35-.1.35-.24s-.09-.23-.36-.32c-.43-.15-.61-.39-.61-.64,0-.39.32-.69.83-.69.24,0,.46.06.59.13l-.11.39c-.1-.05-.27-.13-.47-.13s-.31.1-.31.23.1.21.39.31c.4.14.58.35.59.68,0,.4-.31.69-.9.69-.27,0-.51-.06-.67-.15l.11-.4Z"/>
    <path class="st0" d="M47.13,23.86c0,.81-.57,1.17-1.13,1.17-.63,0-1.11-.43-1.11-1.14s.48-1.17,1.14-1.17,1.1.46,1.1,1.13ZM45.47,23.88c0,.43.21.75.55.75.32,0,.54-.31.54-.76,0-.34-.15-.74-.54-.74s-.55.38-.55.75Z"/>
    <path class="st0" d="M49.22,24.91c-.12.05-.35.11-.63.11-.69,0-1.14-.44-1.14-1.12s.45-1.18,1.23-1.18c.2,0,.41.05.54.1l-.1.42c-.09-.04-.22-.09-.42-.09-.43,0-.68.31-.68.72,0,.45.29.71.68.71.19,0,.33-.04.44-.09l.08.41Z"/>
    <path class="st0" d="M50.22,22.16c0,.17-.12.3-.32.3s-.31-.13-.31-.3.13-.3.31-.3.31.13.31.3ZM49.63,24.98v-2.21h.56v2.21h-.56Z"/>
    <path class="st0" d="M52.03,24.98l-.04-.24h-.01c-.14.17-.37.29-.65.29-.44,0-.69-.32-.69-.66,0-.56.49-.84,1.31-.83v-.04c0-.14-.06-.39-.45-.39-.22,0-.44.07-.59.16l-.11-.36c.16-.1.45-.19.8-.19.71,0,.91.45.91.93v.8c0,.2,0,.39.03.53h-.5ZM51.96,23.9c-.39,0-.77.08-.77.41,0,.22.14.32.32.32.22,0,.39-.15.44-.3.01-.04.02-.09.02-.12v-.3Z"/>
    <path class="st0" d="M54.72,24.91c-.12.05-.35.11-.63.11-.69,0-1.14-.44-1.14-1.12s.45-1.18,1.23-1.18c.2,0,.41.05.54.1l-.1.42c-.09-.04-.22-.09-.42-.09-.43,0-.68.31-.68.72,0,.45.29.71.68.71.19,0,.33-.04.44-.09l.08.41Z"/>
    <path class="st0" d="M55.73,22.16c0,.17-.12.3-.32.3s-.31-.13-.31-.3.13-.3.31-.3.31.13.31.3ZM55.13,24.98v-2.21h.56v2.21h-.56Z"/>
    <path class="st0" d="M58.39,23.86c0,.81-.57,1.17-1.13,1.17-.63,0-1.11-.43-1.11-1.14s.48-1.17,1.14-1.17,1.1.46,1.1,1.13ZM56.73,23.88c0,.43.21.75.55.75.32,0,.54-.31.54-.76,0-.34-.15-.74-.54-.74s-.55.38-.55.75ZM57.94,21.82l-.56.67h-.39l.39-.67h.55Z"/>
    <path class="st0" d="M58.85,23.43c0-.25,0-.47-.02-.66h.49l.03.33h.01c.1-.17.34-.38.7-.38s.78.25.78.95v1.31h-.56v-1.25c0-.32-.12-.56-.42-.56-.22,0-.38.16-.44.33-.02.05-.02.12-.02.18v1.3h-.56v-1.55Z"/>
    <path class="st0" d="M64.86,24.84c-.19.07-.58.17-.98.17-.52,0-.91-.13-1.2-.41-.27-.26-.43-.66-.43-1.12,0-.97.69-1.59,1.7-1.59.38,0,.67.08.81.14l-.12.45c-.17-.07-.37-.13-.69-.13-.65,0-1.11.39-1.11,1.1s.43,1.11,1.06,1.11c.2,0,.35-.03.42-.06v-.76h-.54v-.44h1.08v1.55Z"/>
    <path class="st0" d="M65.42,23.49c0-.3,0-.51-.02-.71h.49l.02.42h.02c.11-.31.37-.47.6-.47.05,0,.09,0,.13.01v.53s-.1-.02-.16-.02c-.27,0-.45.17-.5.42,0,.05-.02.11-.02.17v1.14h-.56v-1.5Z"/>
    <path class="st0" d="M67.39,24.03c.01.4.33.57.68.57.26,0,.44-.04.61-.1l.08.39c-.19.08-.45.14-.77.14-.72,0-1.14-.44-1.14-1.12,0-.61.37-1.19,1.08-1.19s.95.59.95,1.07c0,.1,0,.19-.02.24h-1.48ZM68.36,23.64c0-.2-.09-.54-.46-.54-.34,0-.49.31-.51.54h.97Z"/>
    <path class="st0" d="M69.34,23.43c0-.25,0-.47-.02-.66h.48l.02.33h.01c.11-.17.31-.38.68-.38.29,0,.52.16.61.41h0c.08-.12.17-.21.27-.28.12-.09.26-.13.44-.13.37,0,.74.25.74.96v1.3h-.54v-1.22c0-.37-.13-.59-.39-.59-.19,0-.33.14-.39.29-.01.05-.03.12-.03.19v1.32h-.54v-1.28c0-.31-.12-.53-.38-.53-.21,0-.35.16-.4.32-.02.05-.03.12-.03.18v1.31h-.54v-1.55Z"/>
    <path class="st0" d="M73.78,22.16c0,.17-.12.3-.32.3s-.31-.13-.31-.3.13-.3.31-.3.31.13.31.3ZM73.19,24.98v-2.21h.56v2.21h-.56Z"/>
    <path class="st0" d="M75.59,24.98l-.04-.24h-.01c-.14.17-.37.29-.65.29-.44,0-.69-.32-.69-.66,0-.56.49-.84,1.31-.83v-.04c0-.14-.06-.39-.45-.39-.22,0-.44.07-.59.16l-.11-.36c.16-.1.45-.19.8-.19.71,0,.91.45.91.93v.8c0,.2,0,.39.03.53h-.5ZM75.52,23.9c-.39,0-.77.08-.77.41,0,.22.14.32.32.32.22,0,.39-.15.44-.3.01-.04.02-.09.02-.12v-.3Z"/>
    <path class="st0" d="M76.65,21.76h.56v3.22h-.56v-3.22Z"/>
    <path class="st0" d="M42.31,27.21v2.6c0,.23,0,.47.02.62h-.5l-.02-.35h0c-.13.24-.4.4-.72.4-.53,0-.94-.45-.94-1.13,0-.74.46-1.18.99-1.18.3,0,.52.13.62.29h0v-1.25h.56ZM41.75,29.14s0-.1-.01-.15c-.05-.22-.23-.39-.48-.39-.36,0-.56.32-.56.73s.2.7.55.7c.23,0,.43-.15.48-.39.01-.05.02-.1.02-.16v-.33Z"/>
    <path class="st0" d="M43.31,29.48c.01.4.33.57.68.57.26,0,.44-.04.61-.1l.08.39c-.19.08-.45.14-.77.14-.72,0-1.14-.44-1.14-1.12,0-.61.37-1.19,1.08-1.19s.95.59.95,1.07c0,.1,0,.19-.02.24h-1.48ZM44.28,29.09c0-.2-.09-.54-.46-.54-.34,0-.49.31-.51.54h.97Z"/>
    <path class="st0" d="M48.93,28.87c0,1.02-.62,1.61-1.46,1.61s-1.41-.66-1.41-1.56.59-1.6,1.45-1.6,1.42.68,1.42,1.55ZM46.64,28.91c0,.62.31,1.12.85,1.12s.84-.5.84-1.14c0-.58-.29-1.12-.84-1.12s-.85.51-.85,1.14Z"/>
    <path class="st0" d="M49.4,28.95c0-.29,0-.53-.02-.73h.49l.03.34h0c.16-.25.42-.39.76-.39.51,0,.93.44.93,1.12,0,.8-.5,1.18-1.01,1.18-.28,0-.51-.12-.62-.29h0v1.14h-.56v-2.37ZM49.96,29.5c0,.05,0,.1.02.15.05.23.25.39.49.39.35,0,.56-.29.56-.73,0-.39-.19-.71-.55-.71-.23,0-.44.17-.5.41-.01.05-.02.1-.02.14v.34Z"/>
    <path class="st0" d="M52.45,29.48c.01.4.33.57.68.57.26,0,.44-.04.61-.1l.08.39c-.19.08-.45.14-.77.14-.72,0-1.14-.44-1.14-1.12,0-.61.37-1.19,1.08-1.19s.95.59.95,1.07c0,.1,0,.19-.02.24h-1.48ZM53.42,29.09c0-.2-.09-.54-.46-.54-.34,0-.49.31-.51.54h.97Z"/>
    <path class="st0" d="M54.39,28.93c0-.3,0-.51-.02-.71h.49l.02.42h.02c.11-.31.37-.47.6-.47.05,0,.09,0,.13.01v.53s-.1-.02-.16-.02c-.27,0-.45.17-.5.42,0,.05-.02.11-.02.17v1.14h-.56v-1.5Z"/>
    <path class="st0" d="M57.21,30.43l-.04-.24h-.01c-.14.17-.37.29-.65.29-.44,0-.69-.32-.69-.66,0-.56.49-.84,1.31-.83v-.04c0-.14-.06-.39-.45-.39-.22,0-.44.07-.59.16l-.11-.36c.16-.1.45-.19.8-.19.71,0,.91.45.91.93v.8c0,.2,0,.39.03.53h-.5ZM57.14,29.35c-.39,0-.77.08-.77.41,0,.22.14.32.32.32.22,0,.39-.15.44-.3.01-.04.02-.09.02-.12v-.3Z"/>
    <path class="st0" d="M60.31,27.21v2.6c0,.23,0,.47.02.62h-.5l-.02-.35h0c-.13.24-.4.4-.72.4-.53,0-.94-.45-.94-1.13,0-.74.46-1.18.99-1.18.3,0,.52.13.62.29h0v-1.25h.56ZM59.75,29.14s0-.1-.01-.15c-.05-.22-.23-.39-.48-.39-.36,0-.56.32-.56.73s.2.7.55.7c.23,0,.43-.15.48-.39.01-.05.02-.1.02-.16v-.33Z"/>
    <path class="st0" d="M63.01,29.3c0,.81-.57,1.17-1.13,1.17-.63,0-1.11-.43-1.11-1.14s.48-1.17,1.14-1.17,1.1.46,1.1,1.13ZM61.34,29.32c0,.43.21.75.55.75.32,0,.54-.31.54-.76,0-.34-.15-.74-.54-.74s-.55.38-.55.75Z"/>
    <path class="st0" d="M63.47,28.93c0-.3,0-.51-.02-.71h.49l.02.42h.02c.11-.31.37-.47.6-.47.05,0,.09,0,.13.01v.53s-.1-.02-.16-.02c-.27,0-.45.17-.5.42,0,.05-.02.11-.02.17v1.14h-.56v-1.5Z"/>
    <path class="st0" d="M65.44,29.48c.01.4.33.57.68.57.26,0,.44-.04.61-.1l.08.39c-.19.08-.45.14-.77.14-.72,0-1.14-.44-1.14-1.12,0-.61.37-1.19,1.08-1.19s.95.59.95,1.07c0,.1,0,.19-.02.24h-1.48ZM66.41,29.09c0-.2-.09-.54-.46-.54-.34,0-.49.31-.51.54h.97Z"/>
    <path class="st0" d="M67.36,29.91c.13.08.37.16.57.16.24,0,.35-.1.35-.24s-.09-.23-.36-.32c-.43-.15-.61-.39-.61-.64,0-.39.32-.69.83-.69.24,0,.46.06.59.13l-.11.39c-.1-.05-.27-.13-.47-.13s-.31.1-.31.23.1.21.39.31c.4.14.58.35.59.68,0,.4-.31.69-.9.69-.27,0-.51-.06-.67-.15l.11-.4Z"/>
    <path class="st0" d="M42.31,32.65v2.6c0,.23,0,.47.02.62h-.5l-.02-.35h0c-.13.24-.4.4-.72.4-.53,0-.94-.45-.94-1.13,0-.74.46-1.18.99-1.18.3,0,.52.13.62.29h0v-1.25h.56ZM41.75,34.58s0-.1-.01-.15c-.05-.22-.23-.39-.48-.39-.36,0-.56.32-.56.73s.2.7.55.7c.23,0,.43-.15.48-.39.01-.05.02-.1.02-.16v-.33Z"/>
    <path class="st0" d="M43.31,34.92c.01.4.33.57.68.57.26,0,.44-.04.61-.1l.08.39c-.19.08-.45.14-.77.14-.72,0-1.14-.44-1.14-1.12,0-.61.37-1.19,1.08-1.19s.95.59.95,1.07c0,.1,0,.19-.02.24h-1.48ZM44.28,34.53c0-.2-.09-.54-.46-.54-.34,0-.49.31-.51.54h.97Z"/>
    <path class="st0" d="M46.21,32.85c.18-.04.5-.06.81-.06.41,0,.67.05.88.19.19.11.32.31.32.57,0,.28-.18.54-.51.66h0c.32.09.62.34.62.77,0,.27-.12.49-.29.63-.22.19-.58.29-1.13.29-.31,0-.54-.02-.68-.04v-3.01ZM46.77,34.06h.29c.39,0,.6-.18.6-.44,0-.29-.22-.42-.57-.42-.16,0-.26,0-.32.02v.83ZM46.77,35.47c.07,0,.17.01.29.01.36,0,.68-.14.68-.51,0-.35-.31-.5-.69-.5h-.28v1Z"/>
    <path class="st0" d="M50.06,35.87l-.04-.24h-.01c-.14.17-.37.29-.65.29-.44,0-.69-.32-.69-.66,0-.56.49-.84,1.31-.83v-.04c0-.14-.06-.39-.45-.39-.22,0-.44.07-.59.16l-.11-.36c.16-.1.45-.19.8-.19.71,0,.91.45.91.93v.8c0,.2,0,.39.03.53h-.5ZM49.99,34.79c-.39,0-.77.08-.77.41,0,.22.14.32.32.32.22,0,.39-.15.44-.3.01-.04.02-.09.02-.12v-.3Z"/>
    <path class="st0" d="M52.75,35.8c-.12.05-.35.11-.63.11-.69,0-1.14-.44-1.14-1.12s.45-1.18,1.23-1.18c.2,0,.41.05.54.1l-.1.42c-.09-.04-.22-.09-.42-.09-.43,0-.68.31-.68.72,0,.45.29.71.68.71.19,0,.33-.04.44-.09l.08.41Z"/>
    <path class="st0" d="M54.4,35.87l-.04-.24h-.01c-.14.17-.37.29-.65.29-.44,0-.69-.32-.69-.66,0-.56.49-.84,1.31-.83v-.04c0-.14-.06-.39-.45-.39-.22,0-.44.07-.59.16l-.11-.36c.16-.1.45-.19.8-.19.71,0,.91.45.91.93v.8c0,.2,0,.39.03.53h-.5ZM54.33,34.79c-.39,0-.77.08-.77.41,0,.22.14.32.32.32.22,0,.39-.15.44-.3.01-.04.02-.09.02-.12v-.3Z"/>
    <path class="st0" d="M55.46,32.65h.56v3.22h-.56v-3.22Z"/>
    <path class="st0" d="M57.87,35.87l-.04-.24h-.01c-.14.17-.37.29-.65.29-.44,0-.69-.32-.69-.66,0-.56.49-.84,1.31-.83v-.04c0-.14-.06-.39-.45-.39-.22,0-.44.07-.59.16l-.11-.36c.16-.1.45-.19.8-.19.71,0,.91.45.91.93v.8c0,.2,0,.39.03.53h-.5ZM57.8,34.79c-.39,0-.77.08-.77.41,0,.22.14.32.32.32.22,0,.39-.15.44-.3.01-.04.02-.09.02-.12v-.3Z"/>
    <path class="st0" d="M61.03,34.75c0,.81-.57,1.17-1.13,1.17-.63,0-1.11-.43-1.11-1.14s.48-1.17,1.14-1.17,1.1.46,1.1,1.13ZM59.37,34.77c0,.43.21.75.55.75.32,0,.54-.31.54-.76,0-.34-.15-.74-.54-.74s-.55.38-.55.75Z"/>
    <path class="st0" d="M42.31,38.09v2.6c0,.23,0,.47.02.62h-.5l-.02-.35h0c-.13.24-.4.4-.72.4-.53,0-.94-.45-.94-1.13,0-.74.46-1.18.99-1.18.3,0,.52.13.62.29h0v-1.25h.56ZM41.75,40.03s0-.1-.01-.15c-.05-.22-.23-.39-.48-.39-.36,0-.56.32-.56.73s.2.7.55.7c.23,0,.43-.15.48-.39.01-.05.02-.1.02-.16v-.33Z"/>
    <path class="st0" d="M43.31,40.37c.01.4.33.57.68.57.26,0,.44-.04.61-.1l.08.39c-.19.08-.45.14-.77.14-.72,0-1.14-.44-1.14-1.12,0-.61.37-1.19,1.08-1.19s.95.59.95,1.07c0,.1,0,.19-.02.24h-1.48ZM44.28,39.98c0-.2-.09-.54-.46-.54-.34,0-.49.31-.51.54h.97Z"/>
    <path class="st0" d="M46.21,38.3c.2-.04.48-.06.85-.06.41,0,.71.09.9.25.18.15.3.39.3.68s-.09.53-.26.69c-.22.22-.57.33-.97.33-.1,0-.2,0-.27-.02v1.15h-.55v-3.02ZM46.77,39.72c.07.02.16.02.27.02.42,0,.67-.2.67-.56s-.24-.52-.62-.52c-.15,0-.26.01-.32.03v1.03Z"/>
    <path class="st0" d="M48.67,39.82c0-.3,0-.51-.02-.71h.49l.02.42h.02c.11-.31.37-.47.6-.47.05,0,.09,0,.13.01v.53s-.1-.02-.16-.02c-.27,0-.45.17-.5.42,0,.05-.02.11-.02.17v1.14h-.56v-1.5Z"/>
    <path class="st0" d="M52.35,40.19c0,.81-.57,1.17-1.13,1.17-.63,0-1.11-.43-1.11-1.14s.48-1.17,1.14-1.17,1.1.46,1.1,1.13ZM50.68,40.21c0,.43.21.75.55.75.32,0,.54-.31.54-.76,0-.34-.15-.74-.54-.74s-.55.38-.55.75Z"/>
    <path class="st0" d="M52.87,41.31v-1.79h-.3v-.42h.3v-.1c0-.29.08-.57.27-.75.16-.15.39-.21.58-.21.15,0,.27.02.36.05l-.04.43c-.06-.02-.14-.04-.24-.04-.28,0-.37.23-.37.5v.11h.49v.42h-.48v1.79h-.56Z"/>
    <path class="st0" d="M56.23,40.65c0,.26,0,.48.02.66h-.49l-.03-.34h0c-.1.16-.31.39-.71.39s-.77-.24-.77-.96v-1.3h.56v1.2c0,.37.12.6.41.6.22,0,.37-.16.43-.3.02-.05.03-.11.03-.17v-1.33h.56v1.55Z"/>
    <path class="st0" d="M56.83,39.76c0-.25,0-.47-.02-.66h.49l.03.33h.01c.1-.17.34-.38.7-.38s.78.25.78.95v1.31h-.56v-1.25c0-.32-.12-.56-.42-.56-.22,0-.38.16-.44.33-.02.05-.02.12-.02.18v1.3h-.56v-1.55Z"/>
    <path class="st0" d="M61.47,38.09v2.6c0,.23,0,.47.02.62h-.5l-.02-.35h0c-.13.24-.4.4-.72.4-.53,0-.94-.45-.94-1.13,0-.74.46-1.18.99-1.18.3,0,.52.13.62.29h0v-1.25h.56ZM60.91,40.03s0-.1-.01-.15c-.05-.22-.23-.39-.48-.39-.36,0-.56.32-.56.73s.2.7.55.7c.23,0,.43-.15.48-.39.01-.05.02-.1.02-.16v-.33Z"/>
    <path class="st0" d="M62.66,38.49c0,.17-.12.3-.32.3s-.31-.13-.31-.3.13-.3.31-.3.31.13.31.3ZM62.07,41.31v-2.21h.56v2.21h-.56Z"/>
    <path class="st0" d="M65.26,38.09v2.6c0,.23,0,.47.02.62h-.5l-.02-.35h0c-.13.24-.4.4-.72.4-.53,0-.94-.45-.94-1.13,0-.74.46-1.18.99-1.18.3,0,.52.13.62.29h0v-1.25h.56ZM64.71,40.03s0-.1-.01-.15c-.05-.22-.23-.39-.48-.39-.36,0-.56.32-.56.73s.2.7.55.7c.23,0,.43-.15.48-.39.01-.05.02-.1.02-.16v-.33Z"/>
    <path class="st0" d="M67.11,41.31l-.04-.24h-.01c-.14.17-.37.29-.65.29-.44,0-.69-.32-.69-.66,0-.56.49-.84,1.31-.83v-.04c0-.14-.06-.39-.45-.39-.22,0-.44.07-.59.16l-.11-.36c.16-.1.45-.19.8-.19.71,0,.91.45.91.93v.8c0,.2,0,.39.03.53h-.5ZM67.03,40.24c-.39,0-.77.08-.77.41,0,.22.14.32.32.32.22,0,.39-.15.44-.3.01-.04.02-.09.02-.12v-.3Z"/>
    <path class="st0" d="M70.2,38.09v2.6c0,.23,0,.47.02.62h-.5l-.02-.35h0c-.13.24-.4.4-.72.4-.53,0-.94-.45-.94-1.13,0-.74.46-1.18.99-1.18.3,0,.52.13.62.29h0v-1.25h.56ZM69.65,40.03s0-.1-.01-.15c-.05-.22-.23-.39-.48-.39-.36,0-.56.32-.56.73s.2.7.55.7c.23,0,.43-.15.48-.39.01-.05.02-.1.02-.16v-.33Z"/>
    <path class="st0" d="M42.31,43.54v2.6c0,.23,0,.47.02.62h-.5l-.02-.35h0c-.13.24-.4.4-.72.4-.53,0-.94-.45-.94-1.13,0-.74.46-1.18.99-1.18.3,0,.52.13.62.29h0v-1.25h.56ZM41.75,45.47s0-.1-.01-.15c-.05-.22-.23-.39-.48-.39-.36,0-.56.32-.56.73s.2.7.55.7c.23,0,.43-.15.48-.39.01-.05.02-.1.02-.16v-.33Z"/>
    <path class="st0" d="M43.31,45.81c.01.4.33.57.68.57.26,0,.44-.04.61-.1l.08.39c-.19.08-.45.14-.77.14-.72,0-1.14-.44-1.14-1.12,0-.61.37-1.19,1.08-1.19s.95.59.95,1.07c0,.1,0,.19-.02.24h-1.48ZM44.28,45.42c0-.2-.09-.54-.46-.54-.34,0-.49.31-.51.54h.97Z"/>
    <path class="st0" d="M48.79,45.51c-.02-.39-.04-.87-.04-1.28h-.01c-.1.37-.23.78-.36,1.17l-.44,1.32h-.43l-.41-1.31c-.12-.39-.23-.81-.31-1.19h0c-.01.4-.03.88-.05,1.3l-.07,1.23h-.52l.2-3.06h.73l.4,1.23c.11.36.2.72.28,1.06h.01c.08-.33.19-.71.3-1.07l.42-1.22h.73l.18,3.06h-.54l-.06-1.25Z"/>
    <path class="st0" d="M51.2,46.76l-.04-.24h-.01c-.14.17-.37.29-.65.29-.44,0-.69-.32-.69-.66,0-.56.49-.84,1.31-.83v-.04c0-.14-.06-.39-.45-.39-.22,0-.44.07-.59.16l-.11-.36c.16-.1.45-.19.8-.19.71,0,.91.45.91.93v.8c0,.2,0,.39.03.53h-.5ZM51.13,45.68c-.39,0-.77.08-.77.41,0,.22.14.32.32.32.22,0,.39-.15.44-.3.01-.04.02-.09.02-.12v-.3Z"/>
    <path class="st0" d="M54.28,44.55c0,.15-.02.33-.02.63v1.25c0,.46-.1.79-.33,1-.23.2-.55.27-.85.27-.28,0-.58-.06-.77-.18l.12-.42c.14.08.38.17.64.17.36,0,.63-.19.63-.67v-.19h0c-.13.19-.35.33-.64.33-.55,0-.94-.45-.94-1.08,0-.73.47-1.17,1-1.17.34,0,.54.16.64.34h0l.02-.29h.49ZM53.71,45.43s0-.1-.02-.15c-.06-.2-.22-.36-.45-.36-.31,0-.54.27-.54.72,0,.38.19.68.54.68.21,0,.39-.14.45-.34.01-.06.02-.14.02-.2v-.36Z"/>
    <path class="st0" d="M56.11,46.76l-.04-.24h-.01c-.14.17-.37.29-.65.29-.44,0-.69-.32-.69-.66,0-.56.49-.84,1.31-.83v-.04c0-.14-.06-.39-.45-.39-.22,0-.44.07-.59.16l-.11-.36c.16-.1.45-.19.8-.19.71,0,.91.45.91.93v.8c0,.2,0,.39.03.53h-.5ZM56.04,45.68c-.39,0-.77.08-.77.41,0,.22.14.32.32.32.22,0,.39-.15.44-.3.01-.04.02-.09.02-.12v-.3Z"/>
    <path class="st0" d="M57.17,43.54h.56v3.22h-.56v-3.22Z"/>
    <path class="st0" d="M58.34,43.54h.56v3.22h-.56v-3.22Z"/>
    <path class="st0" d="M60.75,46.76l-.04-.24h-.01c-.14.17-.37.29-.65.29-.44,0-.69-.32-.69-.66,0-.56.49-.84,1.31-.83v-.04c0-.14-.06-.39-.45-.39-.22,0-.44.07-.59.16l-.11-.36c.16-.1.45-.19.8-.19.71,0,.91.45.91.93v.8c0,.2,0,.39.03.53h-.5ZM60.67,45.68c-.39,0-.77.08-.77.41,0,.22.14.32.32.32.22,0,.39-.15.44-.3.01-.04.02-.09.02-.12v-.3Z"/>
    <path class="st0" d="M61.81,45.21c0-.25,0-.47-.02-.66h.49l.03.33h.01c.1-.17.34-.38.7-.38s.78.25.78.95v1.31h-.56v-1.25c0-.32-.12-.56-.42-.56-.22,0-.38.16-.44.33-.02.05-.02.12-.02.18v1.3h-.56v-1.55Z"/>
    <path class="st0" d="M64.8,45.81c.01.4.33.57.68.57.26,0,.44-.04.61-.1l.08.39c-.19.08-.45.14-.77.14-.72,0-1.14-.44-1.14-1.12,0-.61.37-1.19,1.08-1.19s.95.59.95,1.07c0,.1,0,.19-.02.24h-1.48ZM65.77,45.42c0-.2-.09-.54-.46-.54-.34,0-.49.31-.51.54h.97Z"/>
    <path class="st0" d="M66.72,46.25c.13.08.37.16.57.16.24,0,.35-.1.35-.24s-.09-.23-.36-.32c-.43-.15-.61-.39-.61-.64,0-.39.32-.69.83-.69.24,0,.46.06.59.13l-.11.39c-.1-.05-.27-.13-.47-.13s-.31.1-.31.23.1.21.39.31c.4.14.58.35.59.68,0,.4-.31.69-.9.69-.27,0-.51-.06-.67-.15l.11-.4Z"/>
  </g>
  <g>
    <polygon class="st0" points="4.61 33.39 4.76 34.63 5.37 33.53 6.6 33.77 5.74 32.86 6.34 31.76 5.21 32.29 4.35 31.38 4.51 32.62 3.38 33.15 4.61 33.39"/>
    <polygon class="st0" points="8.21 26.69 8.37 27.93 8.97 26.84 10.2 27.07 9.34 26.16 9.95 25.06 8.81 25.59 7.96 24.68 8.11 25.92 6.98 26.45 8.21 26.69"/>
    <polygon class="st0" points="12.17 35.19 12.32 36.43 12.93 35.34 14.16 35.57 13.3 34.66 13.9 33.56 12.77 34.09 11.91 33.18 12.07 34.42 10.94 34.96 12.17 35.19"/>
    <polygon class="st0" points="14.17 28.11 14.25 28.73 14.55 28.18 15.16 28.3 14.74 27.84 15.04 27.3 14.47 27.56 14.04 27.11 14.12 27.73 13.55 27.99 14.17 28.11"/>
    <polygon class="st0" points="20.31 26.14 20.47 27.38 21.07 26.29 22.3 26.52 21.45 25.61 22.05 24.51 20.92 25.05 20.06 24.13 20.22 25.37 19.08 25.91 20.31 26.14"/>
    <path class="st0" d="M0,22.09v24.9h36.65v-24.9H0ZM35.76,40.6l-2.74-2.92-2.94,3.13-2.94-3.13-2.94,3.13-2.94-3.13-2.94,3.13-2.94-3.13-2.94,3.13-2.94-3.13-2.94,3.13-2.94-3.13-2.74,2.92v-17.62h34.86v17.62ZM.89,46.1v-4.32l2.74-2.92,2.94,3.13,2.94-3.13,2.94,3.13,2.94-3.13,2.94,3.13,2.94-3.13,2.94,3.13,2.94-3.13,2.94,3.13,2.94-3.13,2.74,2.92v4.32H.89Z"/>
  </g>
</svg>