<?xml version="1.0" encoding="UTF-8"?>
<svg id="Capa_1" xmlns="http://www.w3.org/2000/svg" version="1.1" viewBox="0 0 101.18 55.27">
  <!-- Generator: Adobe Illustrator 30.2.1, SVG Export Plug-In . SVG Version: 2.1.1 Build 1)  -->
  <defs>
    <style>
      .st0 {
        fill: #fff;
      }
    </style>
  </defs>
  <path class="st0" d="M0,0v55.25h61.27V0H0ZM1.25,54.02V1.24h23.31v52.78H1.25ZM60.02,1.24v52.78H25.8V1.24h34.22Z"/>
  <path class="st0" d="M29.21,52.01c.32,0,.59-.07.94-.23v-1.12h-.85l.03.37h.35v.48c-.12.06-.27.08-.44.08-.45,0-.67-.32-.67-.93,0-.51.21-.85.68-.85.26,0,.49.07.64.16l.21-.38c-.2-.13-.46-.22-.85-.22-.81,0-1.21.52-1.21,1.3s.4,1.35,1.17,1.35Z"/>
  <path class="st0" d="M31.37,50.07c-.58,0-.89.42-.89.97,0,.64.32.98.89.98s.89-.34.89-.98c0-.55-.32-.97-.89-.97ZM31.37,51.64c-.25,0-.37-.18-.37-.61s.13-.61.37-.61.37.16.37.61-.12.61-.37.61Z"/>
  <path class="st0" d="M33.6,50.07c-.21,0-.42.11-.5.23l.04-.3v-.65h-.5v2.63h.27l.09-.22c.12.16.28.26.55.26.44,0,.82-.33.82-.98s-.32-.97-.76-.97ZM33.48,51.64c-.14,0-.27-.09-.34-.19v-.87c.08-.08.22-.15.35-.15.23,0,.37.16.37.6s-.16.61-.38.61Z"/>
  <rect class="st0" x="34.88" y="49.34" width=".51" height=".45"/>
  <polygon class="st0" points="34.68 50.42 34.9 50.46 34.9 51.97 35.4 51.97 35.4 50.1 34.68 50.1 34.68 50.42"/>
  <path class="st0" d="M36.67,50.07c-.6,0-.89.39-.89.97,0,.62.35.98.93.98.3,0,.55-.1.71-.18l-.1-.35c-.17.08-.36.16-.55.16-.32,0-.49-.16-.49-.46h1.17v-.22c0-.47-.22-.89-.79-.89ZM36.29,50.88c0-.22.1-.45.35-.45s.33.21.33.45h-.69Z"/>
  <path class="st0" d="M38.26,50.36h-.01l-.05-.25h-.35v1.87h.5v-1.36c.08-.07.2-.13.34-.13.08,0,.17.01.24.03v-.42s-.11-.03-.21-.03c-.22,0-.39.15-.45.28Z"/>
  <path class="st0" d="M40.24,50.07c-.28,0-.49.13-.6.25l-.08-.21h-.35v1.87h.5v-1.41c.09-.06.2-.11.33-.11.23,0,.34.13.34.42v1.11h.51v-1.15c0-.47-.19-.75-.67-.75Z"/>
  <path class="st0" d="M42.12,50.07c-.58,0-.89.42-.89.97,0,.64.32.98.89.98s.89-.34.89-.98c0-.55-.32-.97-.89-.97ZM42.12,51.64c-.25,0-.37-.18-.37-.61s.13-.61.37-.61.37.16.37.61-.12.61-.37.61Z"/>
  <path class="st0" d="M44.17,51.04c0,.67.34.97.77.97.24,0,.42-.13.5-.24l.06.21h.41v-2.63h-.5v.56c0,.14.01.24.05.34-.1-.11-.26-.18-.47-.18-.46,0-.81.35-.81.97ZM45.06,50.44c.15,0,.27.05.34.09v.96c-.1.1-.22.16-.35.16-.24,0-.38-.17-.38-.61s.15-.6.39-.6Z"/>
  <path class="st0" d="M46.29,51.03c0,.62.35.98.93.98.3,0,.55-.1.71-.18l-.1-.35c-.17.08-.36.16-.55.16-.32,0-.49-.16-.49-.46h1.17v-.22c0-.47-.22-.89-.79-.89-.6,0-.89.39-.89.97ZM47.15,50.43c.26,0,.33.21.33.45h-.69c0-.22.1-.45.35-.45Z"/>
  <path class="st0" d="M50.31,51.57c-.42,0-.64-.31-.64-.9,0-.56.22-.86.65-.86.27,0,.5.08.64.18l.19-.4c-.21-.14-.53-.22-.89-.22-.74,0-1.12.51-1.12,1.31,0,.86.39,1.34,1.12,1.34.34,0,.64-.1.89-.27l-.16-.4c-.18.13-.43.24-.69.24Z"/>
  <path class="st0" d="M51.95,50.32c.02-.06.05-.16.05-.29v-.69h-.51v2.63h.51v-1.41c.08-.06.2-.11.33-.11.23,0,.33.14.33.41v1.11h.51v-1.15c0-.47-.15-.75-.69-.75-.27,0-.44.13-.54.26Z"/>
  <rect class="st0" x="53.73" y="49.34" width=".51" height=".45"/>
  <polygon class="st0" points="53.52 50.42 53.74 50.46 53.74 51.97 54.24 51.97 54.24 50.1 53.52 50.1 53.52 50.42"/>
  <path class="st0" d="M55.23,52.01c.13,0,.28-.03.28-.03v-.35c-.21,0-.3-.02-.3-.18v-2.11h-.5v2.13c0,.33.14.53.52.53Z"/>
  <path class="st0" d="M56.69,52.01c.3,0,.56-.1.71-.18l-.1-.35c-.17.08-.36.16-.55.16-.32,0-.49-.16-.49-.46h1.17v-.22c0-.47-.22-.89-.79-.89-.6,0-.89.39-.89.97,0,.62.35.98.93.98ZM56.62,50.43c.26,0,.33.21.33.45h-.69c0-.22.1-.45.35-.45Z"/>
  <path class="st0" d="M28.7,6.52h.02c.06.31.11.53.15.7l.4,1.75h.84l.42-1.75c.04-.17.09-.39.14-.7h.02l.06,2.44h.64l-.11-2.89h-.96s-.38,1.46-.58,2.39h-.01c-.17-.93-.49-2.39-.49-2.39h-.98l-.11,2.89h.52l.04-2.44Z"/>
  <rect class="st0" x="32.02" y="6" width=".57" height=".51"/>
  <polygon class="st0" points="32.04 8.96 32.6 8.96 32.6 6.86 31.79 6.86 31.79 7.21 32.04 7.26 32.04 8.96"/>
  <path class="st0" d="M33.68,7.37c.1-.06.23-.13.37-.13.26,0,.38.15.38.47v1.25h.58v-1.3c0-.53-.21-.85-.75-.85-.32,0-.55.14-.67.28l-.09-.24h-.39v2.1h.57v-1.59Z"/>
  <polygon class="st0" points="35.64 8.96 36.21 8.96 36.21 6.86 35.4 6.86 35.4 7.21 35.64 7.26 35.64 8.96"/>
  <rect class="st0" x="35.63" y="6" width=".57" height=".51"/>
  <path class="st0" d="M37.28,8.61c-.2,0-.4-.08-.5-.15l-.12.39c.14.08.38.15.64.15.55,0,.84-.3.84-.68,0-.69-.92-.59-.92-.91,0-.12.1-.19.29-.19s.37.04.51.11l.08-.41c-.15-.06-.38-.1-.6-.1-.57,0-.81.28-.81.59,0,.72.91.59.91.97,0,.13-.13.23-.31.23Z"/>
  <path class="st0" d="M38.74,8.3c0,.53.25.7.62.7.23,0,.45-.07.57-.14l-.09-.41c-.09.04-.21.08-.33.08-.15,0-.22-.09-.22-.24v-1.03h.57v-.4h-.57v-.54l-.56.18v.36h-.32v.4h.32v1.04Z"/>
  <path class="st0" d="M41.15,9c.33,0,.62-.11.8-.21l-.11-.4c-.19.09-.41.18-.62.18-.35,0-.55-.18-.55-.52h1.32v-.24c0-.53-.25-1-.89-1-.68,0-1,.44-1,1.09,0,.69.39,1.1,1.04,1.1ZM41.07,7.23c.29,0,.38.23.38.5h-.78c0-.25.12-.5.4-.5Z"/>
  <path class="st0" d="M42.98,7.43c.1-.08.23-.14.38-.14.1,0,.19.01.26.03v-.48s-.12-.03-.23-.03c-.25,0-.44.17-.51.32h-.01l-.06-.28h-.39v2.1h.56v-1.53Z"/>
  <rect class="st0" x="44.13" y="6" width=".57" height=".51"/>
  <polygon class="st0" points="44.14 8.96 44.71 8.96 44.71 6.86 43.9 6.86 43.9 7.21 44.14 7.26 44.14 8.96"/>
  <path class="st0" d="M46.13,9c.63,0,1-.38,1-1.1,0-.62-.35-1.09-1-1.09s-1,.47-1,1.09c0,.72.36,1.1,1,1.1ZM46.13,7.22c.26,0,.42.18.42.68s-.14.69-.42.69-.41-.2-.41-.69.15-.68.41-.68Z"/>
  <path class="st0" d="M49.3,9c.27,0,.48-.15.56-.27l.06.23h.46v-2.96h-.56v.63c0,.16.02.27.05.39-.12-.13-.3-.21-.53-.21-.52,0-.91.4-.91,1.09,0,.75.39,1.09.87,1.09ZM49.44,7.24c.17,0,.3.05.39.1v1.08c-.11.11-.25.18-.39.18-.27,0-.43-.19-.43-.69s.17-.67.44-.67Z"/>
  <path class="st0" d="M51.86,9c.33,0,.62-.11.8-.21l-.11-.4c-.19.09-.41.18-.62.18-.35,0-.55-.18-.55-.52h1.32v-.24c0-.53-.25-1-.89-1-.68,0-1,.44-1,1.09,0,.69.39,1.1,1.04,1.1ZM51.78,7.23c.29,0,.38.23.38.5h-.78c0-.25.12-.5.4-.5Z"/>
  <path class="st0" d="M53.73,9c.15,0,.31-.03.31-.03v-.39c-.23,0-.34-.03-.34-.2v-2.37h-.56v2.4c0,.37.16.6.59.6Z"/>
  <path class="st0" d="M29.16,11.21h-.97v2.78c.27.08.62.15,1.04.15.91,0,1.32-.58,1.32-1.52,0-1.08-.54-1.42-1.39-1.42ZM29.26,13.68c-.21,0-.4-.03-.5-.06v-1.95h.39c.58,0,.81.26.81.96,0,.83-.31,1.05-.69,1.05Z"/>
  <path class="st0" d="M30.95,13.05c0,.69.39,1.1,1.04,1.1.33,0,.62-.11.8-.21l-.11-.39c-.19.09-.41.18-.62.18-.35,0-.55-.18-.55-.52h1.32v-.24c0-.53-.25-1-.89-1-.68,0-1,.44-1,1.09ZM32.29,12.88h-.78c0-.25.12-.5.4-.5s.38.23.38.5Z"/>
  <path class="st0" d="M34.35,11.96c-.24,0-.46.14-.56.27l-.04-.23h-.49v2.92h.58v-.63c0-.15-.07-.39-.07-.39.13.16.27.24.52.24.49,0,.93-.37.93-1.1s-.36-1.09-.85-1.09ZM34.21,13.74c-.15,0-.29-.09-.37-.21v-.98c.09-.09.24-.17.39-.17.26,0,.42.17.42.68s-.17.69-.43.69Z"/>
  <path class="st0" d="M35.55,13.05c0,.72.36,1.1,1,1.1s1-.38,1-1.1c0-.62-.35-1.09-1-1.09s-1,.47-1,1.09ZM36.55,12.37c.26,0,.42.18.42.68s-.14.69-.42.69-.41-.2-.41-.69.15-.68.41-.68Z"/>
  <path class="st0" d="M37.96,14.11h.56v-1.53c.1-.08.23-.14.38-.14.1,0,.19.01.26.03v-.48s-.12-.03-.23-.03c-.25,0-.44.17-.51.32h-.01l-.06-.28h-.39v2.1Z"/>
  <path class="st0" d="M39.67,11.64v.36h-.32v.4h.32v1.04c0,.53.25.7.62.7.23,0,.45-.07.57-.14l-.09-.41c-.09.04-.21.08-.33.08-.15,0-.23-.09-.23-.24v-1.03h.57v-.4h-.57v-.54l-.56.18Z"/>
  <path class="st0" d="M41.04,13.05c0,.69.39,1.1,1.04,1.1.33,0,.62-.11.8-.21l-.11-.39c-.19.09-.41.18-.62.18-.35,0-.55-.18-.55-.52h1.32v-.24c0-.53-.25-1-.89-1-.68,0-1,.44-1,1.09ZM42.01,12.37c.29,0,.38.23.38.5h-.78c0-.25.12-.5.4-.5Z"/>
  <path class="st0" d="M64.45,0v55.27h36.72V0h-36.72ZM99.93,54.03h-34.23V1.24h34.23v52.8Z"/>
  <rect class="st0" x="68.16" y="3.39" width=".57" height="2.9"/>
  <path class="st0" d="M69.9,4.69c.1-.06.23-.13.37-.13.26,0,.38.15.38.47v1.25h.58v-1.3c0-.53-.21-.85-.75-.85-.32,0-.55.14-.67.28l-.09-.24h-.39v2.1h.57v-1.59Z"/>
  <path class="st0" d="M72.24,5.93c-.2,0-.4-.08-.5-.15l-.12.39c.14.08.38.15.64.15.55,0,.84-.3.84-.68,0-.69-.92-.59-.92-.91,0-.12.1-.19.29-.19s.37.04.51.11l.08-.41c-.15-.06-.38-.1-.6-.1-.57,0-.81.28-.81.59,0,.72.91.59.91.97,0,.13-.13.23-.31.23Z"/>
  <path class="st0" d="M73.7,5.62c0,.53.25.7.63.7.22,0,.45-.07.57-.14l-.09-.41c-.09.04-.21.08-.33.08-.15,0-.22-.1-.22-.24v-1.03h.57v-.4h-.57v-.55l-.56.18v.36h-.32v.4h.32v1.04Z"/>
  <rect class="st0" x="75.42" y="3.32" width=".57" height=".51"/>
  <polygon class="st0" points="75.44 6.28 76 6.28 76 4.18 75.19 4.18 75.19 4.53 75.44 4.58 75.44 6.28"/>
  <path class="st0" d="M76.68,5.62c0,.53.25.7.62.7.23,0,.45-.07.57-.14l-.09-.41c-.09.04-.21.08-.33.08-.15,0-.23-.1-.23-.24v-1.03h.57v-.4h-.57v-.55l-.56.18v.36h-.32v.4h.32v1.04Z"/>
  <path class="st0" d="M78.97,6.33c.34,0,.56-.17.66-.3l.09.26h.37v-2.1h-.58v1.59c-.1.07-.23.12-.38.12-.26,0-.37-.12-.37-.44v-1.28h-.56v1.27c0,.58.24.87.77.87Z"/>
  <path class="st0" d="M80.72,5.62c0,.53.25.7.62.7.23,0,.45-.07.57-.14l-.09-.41c-.09.04-.21.08-.33.08-.15,0-.22-.1-.22-.24v-1.03h.57v-.4h-.57v-.55l-.56.18v.36h-.32v.4h.32v1.04Z"/>
  <path class="st0" d="M83.08,6.33c.63,0,1-.38,1-1.1,0-.62-.36-1.09-1-1.09s-1,.47-1,1.09c0,.72.36,1.1,1,1.1ZM83.08,4.54c.26,0,.42.18.42.68s-.14.69-.42.69-.41-.2-.41-.69.15-.68.41-.68Z"/>
  <polygon class="st0" points="68.57 9.15 68.59 9.15 69.5 11.43 70.39 11.43 70.39 8.53 69.87 8.53 69.91 10.86 69.89 10.86 68.97 8.53 68.1 8.53 68.1 11.43 68.61 11.43 68.57 9.15"/>
  <path class="st0" d="M71.64,10.18c-.51,0-.8.23-.8.62s.29.67.71.67c.3,0,.51-.15.62-.29l.08.25h.39v-1.33c0-.54-.26-.81-.86-.81-.33,0-.62.08-.84.17l.14.4c.17-.08.39-.14.64-.14.22,0,.37.09.37.36v.11h-.45ZM72.09,10.95c-.1.08-.24.14-.38.14-.21,0-.32-.12-.32-.31,0-.16.11-.27.34-.27h.35v.44Z"/>
  <path class="st0" d="M74.09,11.47c.32,0,.61-.12.73-.18l-.1-.4c-.14.08-.35.16-.58.16-.31,0-.49-.19-.49-.67s.19-.67.48-.67c.19,0,.38.04.53.13l.15-.38c-.2-.12-.45-.17-.73-.17-.63,0-1.01.41-1.01,1.09,0,.74.38,1.09,1.01,1.09Z"/>
  <polygon class="st0" points="75.37 11.43 75.93 11.43 75.93 9.33 75.12 9.33 75.12 9.68 75.37 9.73 75.37 11.43"/>
  <rect class="st0" x="75.35" y="8.47" width=".57" height=".51"/>
  <path class="st0" d="M76.36,10.37c0,.72.36,1.1,1,1.1s1-.38,1-1.1c0-.62-.36-1.09-1-1.09s-1,.47-1,1.09ZM77.77,10.37c0,.5-.14.69-.42.69s-.41-.2-.41-.69.15-.68.41-.68.42.18.42.68Z"/>
  <path class="st0" d="M80.67,11.43v-1.3c0-.53-.21-.85-.75-.85-.32,0-.55.14-.67.28l-.09-.24h-.39v2.1h.57v-1.59c.1-.06.23-.13.37-.13.26,0,.38.15.38.47v1.25h.58Z"/>
  <path class="st0" d="M81.27,9.85c.17-.08.39-.14.64-.14.22,0,.37.09.37.36v.11h-.45c-.51,0-.8.23-.8.62s.29.67.71.67c.3,0,.51-.15.62-.29l.08.25h.39v-1.33c0-.54-.26-.81-.86-.81-.33,0-.62.08-.84.17l.14.4ZM82.28,10.95c-.1.08-.24.14-.38.14-.21,0-.32-.12-.32-.31,0-.16.11-.27.34-.27h.35v.44Z"/>
  <path class="st0" d="M83.89,10.84v-2.37h-.56v2.4c0,.37.16.6.59.6.15,0,.31-.03.31-.03v-.4c-.23,0-.34-.03-.34-.2Z"/>
  <path class="st0" d="M86.35,11.47c.27,0,.48-.15.56-.28l.06.23h.46v-2.96h-.56v.64c0,.16.02.27.05.39-.12-.13-.3-.21-.53-.21-.52,0-.92.4-.92,1.09,0,.75.39,1.09.87,1.09ZM86.49,9.7c.17,0,.3.05.39.1v1.08c-.11.11-.25.18-.39.18-.27,0-.43-.19-.43-.69s.17-.67.44-.67Z"/>
  <path class="st0" d="M88.91,11.47c.33,0,.62-.11.8-.21l-.11-.39c-.19.09-.41.18-.62.18-.35,0-.55-.18-.55-.52h1.32v-.24c0-.53-.25-1-.89-1-.68,0-1,.44-1,1.09,0,.69.39,1.1,1.05,1.1ZM88.83,9.7c.29,0,.38.23.38.5h-.78c0-.25.12-.5.4-.5Z"/>
  <path class="st0" d="M70.45,15.1c0-1.08-.54-1.42-1.39-1.42h-.98v2.78c.27.08.62.15,1.04.15.91,0,1.32-.58,1.32-1.52ZM68.66,14.13h.39c.58,0,.81.26.81.96,0,.83-.31,1.05-.69,1.05-.21,0-.4-.03-.5-.06v-1.95Z"/>
  <path class="st0" d="M72.74,15.43c0-.53-.25-1-.89-1-.68,0-1,.44-1,1.09,0,.69.39,1.1,1.04,1.1.33,0,.62-.11.8-.21l-.11-.39c-.19.09-.41.18-.62.18-.36,0-.55-.18-.55-.52h1.32v-.24ZM71.42,15.34c0-.25.12-.5.4-.5s.38.23.38.5h-.78Z"/>
  <path class="st0" d="M74.25,14.43c-.24,0-.46.14-.56.27l-.04-.23h-.49v2.92h.58v-.63c0-.15-.07-.39-.07-.39.13.16.27.24.51.24.49,0,.93-.37.93-1.1s-.35-1.09-.85-1.09ZM74.11,16.21c-.15,0-.29-.09-.37-.21v-.98c.09-.1.24-.17.39-.17.26,0,.42.18.42.68s-.17.69-.43.69Z"/>
  <path class="st0" d="M76.45,14.43c-.65,0-1,.47-1,1.09,0,.72.36,1.1,1,1.1s1-.38,1-1.1c0-.62-.36-1.09-1-1.09ZM76.45,16.21c-.28,0-.41-.2-.41-.69s.15-.68.41-.68.42.18.42.68-.14.69-.42.69Z"/>
  <path class="st0" d="M78.33,14.76h-.01l-.06-.28h-.4v2.1h.56v-1.53c.1-.08.23-.14.38-.14.1,0,.19.01.26.03v-.48s-.12-.03-.23-.03c-.25,0-.44.17-.51.32Z"/>
  <path class="st0" d="M80.36,16.14c-.15,0-.23-.1-.23-.24v-1.03h.57v-.4h-.57v-.54l-.56.18v.36h-.32v.4h.32v1.04c0,.53.25.7.63.7.22,0,.45-.07.57-.14l-.09-.41c-.09.04-.21.08-.33.08Z"/>
  <path class="st0" d="M81.94,14.43c-.68,0-1,.44-1,1.09,0,.69.39,1.1,1.04,1.1.33,0,.62-.11.8-.21l-.11-.39c-.19.09-.41.18-.62.18-.36,0-.55-.18-.55-.52h1.32v-.24c0-.53-.25-1-.89-1ZM81.51,15.34c0-.25.12-.5.4-.5s.38.23.38.5h-.78Z"/>
  <path class="st0" d="M84.04,14.83c.19,0,.37.04.51.11l.08-.41c-.15-.06-.38-.1-.6-.1-.57,0-.81.28-.81.59,0,.72.91.59.91.97,0,.13-.13.23-.31.23s-.4-.08-.5-.15l-.12.39c.14.08.38.15.64.15.55,0,.84-.3.84-.68,0-.69-.92-.59-.92-.91,0-.12.1-.19.29-.19Z"/>
  <path class="st0" d="M68.18,50.72c0,.29.16.46.36.57-.23.02-.39.14-.39.31,0,.23.25.31.51.34-.33.05-.54.19-.54.44,0,.37.43.55.86.55.51,0,.96-.26.96-.73,0-.75-1.29-.5-1.29-.72,0-.05.04-.09.1-.11.09.02.18.04.26.04.34,0,.84-.2.84-.69-.02-.13-.11-.23-.2-.32.14.05.29.07.38.07v-.4c-.34,0-.8-.04-1.02-.04-.33,0-.84.15-.84.69ZM68.94,51.97c.32.03.48.09.48.27,0,.21-.16.33-.41.33-.22,0-.38-.13-.38-.3s.12-.28.31-.3ZM69.38,50.72c0,.25-.2.32-.36.32s-.36-.06-.36-.32c0-.24.21-.3.36-.3s.36.06.36.3Z"/>
  <path class="st0" d="M71.27,50.04c-.62,0-.95.45-.95,1.04,0,.69.34,1.05.95,1.05s.95-.37.95-1.05c0-.59-.34-1.04-.95-1.04ZM71.27,51.74c-.26,0-.39-.19-.39-.66s.14-.65.39-.65.4.17.4.65-.13.66-.4.66Z"/>
  <path class="st0" d="M73.66,50.04c-.23,0-.45.12-.54.25l.04-.32v-.7h-.54v2.83h.29l.1-.24c.13.17.3.28.59.28.47,0,.89-.36.89-1.05s-.34-1.04-.82-1.04ZM73.53,51.74c-.15,0-.29-.1-.37-.21v-.94c.09-.09.24-.16.38-.16.25,0,.4.17.4.65s-.17.66-.41.66Z"/>
  <rect class="st0" x="74.83" y="51.51" width=".55" height=".58"/>
  <path class="st0" d="M76.76,51.72c-.29,0-.46-.18-.46-.64s.18-.64.46-.64c.18,0,.36.04.51.12l.14-.37c-.19-.11-.43-.16-.69-.16-.6,0-.97.39-.97,1.05,0,.71.36,1.05.97,1.05.31,0,.58-.11.7-.18l-.1-.38c-.13.07-.34.15-.55.15Z"/>
  <path class="st0" d="M78.31,51.53v-2.27h-.53v2.3c0,.36.15.58.56.58.14,0,.3-.03.3-.03v-.38c-.22,0-.33-.02-.33-.19Z"/>
  <path class="st0" d="M9.81,6.44c.35.19.79.16.94.14.12-.03.25-.07.39-.21.04-.04.07-.1.13-.11,0,.09-.03.55.49.77,0,.02,0,.04.01.08.16.63.6.56.6.6-.19.12-.11.28-.06.37.29-.09.51-.1.58-.1s.29.01.58.1c.05-.04.17-.14.08-.32-.04-.09-.16-.09-.11-.1.61-.14.94-1.03.92-1.37.31.29,1.02.37,1.54-.06.33-.32.49-1.15-.08-1.56-.29-.21-.81-.23-1.13.02-.1-.17-.28-.29-.47-.29,0-.06,0-.46-.23-.72-.31-.33-1.17-.36-1.48,0-.62-.15-1.43.13-1.38,1.09-.44-.17-.69-.17-.92-.15-.22.02-.51.21-.61.34-.05.06-.1.14-.13.21-.07.14-.13.32-.11.52.03.34.2.63.45.77Z"/>
  <path class="st0" d="M14.91,8.35h-.02s-.06.02-.09.05c-.08.06-.22.17-.47.17-.04,0-.09,0-.14-.01-.13-.02-.35-.13-.35-.13-.07-.04-.16-.08-.2-.09h-.02c-.36-.15-.66-.17-.75-.17s-.39.01-.75.16h-.01s-.05.03-.09.05l-.22.1c-.07.03-.17.07-.24.08-.05,0-.09.01-.14.01-.25,0-.39-.11-.47-.17-.04-.03-.06-.05-.09-.05h-.02s-.01.01-.01.01c0,0-.28.17-.4.25-.02,0-.07.05-.07.11,0,.03,0,.08.05.14.02.02.44.5.44,1.14.01.07.04.46-.29,1.02-.02.03-.38.69.02,1.26,0,0,.3.54,1.17.54.07,0,.71.01.93.42,0,.02.11.18.15.26l.05.1.05-.1c.04-.08.14-.24.16-.26.22-.4.86-.41.93-.41.86,0,1.16-.53,1.16-.53.41-.59.03-1.27.02-1.27-.33-.56-.3-.95-.28-1.03,0-.64.43-1.13.44-1.13.05-.05.05-.1.05-.14,0-.06-.05-.1-.06-.1-.12-.08-.4-.25-.4-.25l-.02-.02ZM14.58,9.98l-1.12.79.43,1.26-1.08-.81-1.07.81.43-1.26-1.12-.79h0s1.38,0,1.38,0l.39-1.27.39,1.27h1.38,0Z"/>
  <path class="st0" d="M22.41,15.25c-.14-.17-.51-.08-.51-.08.2-.59-.35-.75-.35-.75-.2-.05-.33-.02-.41.04,0,0,0,0,0,0,0,0,0,0,0,0-.02.01-.03.02-.04.03-.05.05-.08.12-.08.2,0,.16.13.28.29.28.06,0,.12-.02.16-.05.06-.04.1-.1.11-.17.08.05.1.13.1.13.16.5-.41.68-.41.68-1.26.37-2.03-.27-2.03-.27l.22-.12c.08-.03.15-.04.2-.04,0,0,0,.02,0,.04,0,.13.11.24.25.24s.25-.11.25-.24c0-.1-.05-.15-.05-.15-.15-.22-.66-.07-.66-.07.17-.41.02-.71.02-.71-.24-.48-.79-.33-.79-.33-.19.06-.23.23-.23.23-.08.38.24.41.24.41.23.01.23-.17.23-.17.03-.18-.22-.19-.22-.19.21-.37.88.24.44.77-.04.05-.09.02-.09.02-.79-.38-1.17-.64-1.37-.78-.02-.21-.21-.32-.17-.37.03-.01.14.04.2-.05.02-.03.07-.37.12-.61.69.31,1.29.22,1.41.18.06-.03.11-.07.11-.16.01-.26-.67-1.8-.69-2.34.32.16.52-.34.58-.49.43.2.58,4.19.92,4.33.17.07.23-.2.25-.25.54-1.78.56-3.52.52-4.1-.06-.91-.13-1.73-.35-2.48-.14-.46-.4-1.4-1.02-1.53-.29-.06-.51.21-.5.44,0,.21.15.31.09.51-.08.13-.15.28-.19.43-.04.15.1.21.05.37-.2-.03-.29.14-.6.06.2-.09.2-.65-.04-.75-.04-.01-.08-.02-.09-.05,0,0,.08-.08.12-.16.14-.28.14-.54.03-.73.1,0,.21-.17.22-.32h0s0,0,0,0h0s0-.17.05-.29c.02-.04,0-.08-.03-.1-.04-.02-.08,0-.1.04-.06.13-.2.06-.14-.07.02-.04,0-.08-.03-.1-.03-.02-.08,0-.1.04-.06.12-.2.05-.14-.07.02-.04,0-.08-.03-.1-.03-.01-.08,0-.1.04-.06.13-.21.06-.15-.07.02-.04,0-.09-.03-.1-.03-.01-.08,0-.1.04-.06.13-.11.19-.18.24-.14.02-.1.18-.08.28-.26-.05-.45.14-.45.31h-.03c-.21,0-.41.11-.4.3,0,.11.14.24.19.25.02,0-.01-.12.1-.12.1,0,.25.08.27.17.02.11-.07.36.28.4,0,0,0,.05,0,.11-.12,0-.15-.01-.28,0-.22.03-.51.16-.59.37-.01.03-.02.11-.01.16,0,.04.04.1.04.15,0,.03-.05.08-.07.1-.09.09-.26.18-.41.19-.16,0-.32-.1-.39-.18-.22-.29.06-.79.06-.98-.01-.5-.65-.2-.9-.07-.3.16-.54.41-.74.66-.11.13-.24.31-.3.45-.01.03-.03.03-.06.03.13.06.36.14.54.14,0,0,.35.05.6-.16,0,0,.03-.03.09-.03.04,0,.07.02.1.04,0,0,.03.03.07.06.02.02.05.04.08.06.01.01.03.02.05.04.04.03.09.07.13.1,0,0,.02.01.03.02.05.04.1.08.14.11.05.04.1.08.13.09h0s.02.02.02.04c0,.02,0,.04-.02.06,0,0-.03.03-.07.08-.08.11-.23.31-.33.57.12.2.32.45.6.45.23,0,.32-.11.36-.26,0,0,.02.02.02.02.03-.02.16.65.32.83-.16.07-.4.31-.27.98-.13-.1-.36-.28-.48-.39-.07-.14-.2-.46-.58-.5.06.17.14.36.26.56,0,0,.23.43.16.91.16-.16.13-.61.13-.61,0,0,.03-.01.04-.02.03,0,.19.31.47.37.36.61.77,1,1.16,1.24,0,.15.01.5-.09.5-.31.07-.59-.14-.86-.12-.02-.01-.05-.02-.05-.02-1.17-.56-2.71.64-2.96.87-.14.12-.29-.04-.29-.04-.09-.11-.21-.17-.33-.15-.12-.01-.24.04-.33.15,0,0-.16.17-.29.04-.24-.22-1.64-1.29-2.78-.92,0-.06-.16-.09-.2-.11-.09-.03-.17-.1-.23-.13-.12-.06-.33-.02-.47-.04-.06,0-.13-.04-.18-.07-.18-.11-.39-.25-.51-.41-.02-.03-.06-.09-.07-.1-.06-.07-.08-.12-.13-.24-.06-.22.04-.46.07-.69.02-.17.02-.18.03-.36.72-.25,1.02-.78,1.19-1.07.02-.02.06-.11.06-.11.03,0,.06,0,.1,0,.29,0,.49-.16.8-.12,0,.02.04.15.25.23,0,.21.02.37.1.53.02.03.04.05.06.08.14-.33.17-.59.17-.74-.01-.01-.02-.03-.02-.06-.07-.35-.23-.44-.39-.53-.08-.04-.16-.05-.23-.11-.11-.08-.23-.16-.31-.3,0,0,.04-.03.08-.08.2-.21.3-.52.38-.85.15-.21.58-.13.75-.1.04,0,.11.02.15.05.05.03.06.1.12.13.07.03.14,0,.23,0,.03.03.05.08.07.12,0,0,.02.04.06.08.2,0,.47-.11.58-.17-.01,0-.03-.02-.03-.03-.09-.11-.23-.24-.35-.26-.16-.03-.19-.17-.35-.2-.04,0-.17-.03-.22-.01-.34.04-.58-.08-.9-.11-.3-.02-.31.18-.42.35-.04.06-.09.14-.14.18-.08.08-.18.08-.28.16l-.05-.13c-.03-.1-.07-.21-.13-.31-.16-.26-.35-.45-.71-.53-.07-.03-.08-.03-.13-.07-.06-.05-.02-.1,0-.11.1-.06.28-.04.4-.09.29-.13.19-.38.07-.4-.15-.03-.41-.1-.46-.13-.07-.04-.19-.26-.31-.32-.13-.03-.08-.24-.2-.28-.05,0-.13.02-.21.06,0-.04-.04-.28-.17-.35-.1-.06-.13.03-.13.09,0,.05.14.12.17.34-.02.01-.05.03-.07.04-.02-.09-.06-.23-.15-.29-.1-.06-.13.03-.13.09,0,.05.13.11.16.3-.03.02-.06.05-.08.07-.19-.05-.25-.18-.3-.19-.06-.01-.14.02-.1.12.05.1.19.16.28.18-.02.02-.04.04-.05.06-.23-.04-.28-.19-.33-.2-.06-.01-.14.02-.1.12.07.14.32.2.35.2-.04.06-.06.12-.05.15-.18-.02-.49.07-.43.28.06.04.27-.13.46-.03.13.19.33.2.37.24.07.06.08.15.11.24.06.17.17.3.27.45.11.16.22.33.33.48.01.04.03.08.02.14-.13.2-.52.44-.67.59-.16.15-1.67,1.29-1.86,1.78-.04.11-.07.25-.06.4-.09.05-.3.13-.36.04-.12-.16.11-.28.06-.44-.02-.06-.11-.1-.17-.06-.38.27-.18.74.06.85.26.11.3-.17.5-.06.05.03.53.45.45.79,0,.02-.02.07-.03.08-.1.13-.28.23-.4.35-.25.16.24,1.14.2,1.65-.03.19.16.17.28.47-.12,0-.23.03-.29.12,0,0-.05.05-.05.15,0,.13.11.24.25.24s.25-.11.25-.24c0-.01,0-.03,0-.04.05,0,.13,0,.2.04l.22.12s-.77.64-2.03.27c0,0-.57-.18-.41-.68,0,0,.03-.08.11-.13.01.07.06.13.11.17.05.03.1.05.16.05.16,0,.28-.13.28-.28,0-.08-.03-.15-.08-.2-.01-.01-.02-.02-.04-.03,0,0,0,0,0,0,0,0,0,0,0,0-.09-.06-.22-.1-.41-.04,0,0-.55.16-.35.75,0,0-.37-.08-.51.08,0,0-.05.05-.04.14h0s.01.08.04.13c.04.06.1.09.18.09.07,0,.13-.03.17-.08h0s.06-.05.13.02c.83.86,2.2.51,2.95-.07,0,0,.42-.42.88-.67.18.08.38.13.56.2-.01.27.04.65.35,1.1,0,0-.21.39-.57.18,0,0-.27-.2-.04-.45,0,0,.15-.12.22.03-.08,0-.14.07-.14.15s.07.14.15.14.14-.06.15-.14c0-.06.01-.21-.12-.32,0,0-.11-.12-.33-.09-.32.05-.5.7.13.98,0,0,.49.22.74-.14,0,0,0-.05.09.04.52.5,1.68.35,2.15.01,0,0,.12-.07.25-.13,0,.19.17.35.36.35s.36-.16.36-.36c0-.18-.13-.32-.3-.35,0,0-.24-.07-.58.14,0,0-.36.22-.34.19.12-.19.19-.44.25-.71.51.06,1.03.09,1.57.1,0,.16-.03.34-.09.49,0,0-.19.08-.19.21,0,0-.02.1.15.23,0,0,.12.13.16.24,0,0,.01.15.21.15.01,0,.03,0,.04,0,.01,0,.03,0,.04,0,.2,0,.21-.15.21-.15.04-.11.16-.24.16-.24.17-.13.15-.23.15-.23,0-.13-.2-.21-.2-.21-.06-.15-.08-.33-.09-.49.54-.01,1.06-.05,1.57-.1.05.27.13.52.25.71.02.03-.34-.19-.34-.19-.34-.2-.57-.14-.58-.14-.17.03-.3.18-.3.35,0,.2.16.36.36.36s.36-.16.36-.35c.13.06.24.13.24.13.46.34,1.62.49,2.15-.01.09-.09.09-.04.09-.04.25.36.75.14.75.14.63-.27.44-.93.13-.98-.22-.03-.33.09-.33.09-.13.11-.13.26-.12.32,0,.08.07.14.15.14s.15-.06.15-.14-.06-.14-.14-.15c.07-.16.22-.03.22-.03.23.24-.04.45-.04.45-.36.22-.57-.18-.57-.18.3-.44.36-.83.34-1.1.19-.07.38-.13.57-.2.47.26.88.67.88.67.75.58,2.12.93,2.95.07.07-.07.11-.04.13-.02h0s.1.08.17.08c.07,0,.14-.04.18-.09.02-.05.04-.09.04-.12h0c0-.09-.04-.15-.04-.15ZM6.82,14.99s-.04.04-.09-.02c-.44-.53.23-1.14.44-.77,0,0-.25,0-.22.19,0,0,0,.18.23.17,0,0,.32-.03.24-.41,0,0-.04-.17-.24-.23,0,0-.56-.15-.79.33,0,0-.05.11-.06.29-.06-.05-.14-.09-.22-.1-.1-.11-.28-.99-.17-1.44.85-.18,1.11-.87,1.15-1.06.17.06.27.25.28.33.01.11-.04.23.03.32.1.14.32.26.45.35.05.03.67.51.75.52.09.02.14-.05.22-.03.03,0,.05.03.07.04,0,0,.04.04.11.09-.16.11-.37.26-.66.51,0,0-.22.28-1.54.92ZM8.9,15.59s-.05.23-.1.28c0,0-.19-.33-.2-.76.14.04.28.09.42.13-.05.11-.09.22-.13.34ZM10.56,16.37s-.89.34-1.49-.28c0,0,.04-.39.21-.79.49.12,1.01.22,1.54.28-.04.33-.11.76-.25.78ZM9.68,14.67c.17-.16.4-.27.69-.28,0,0,.4,0,.47.49-.43-.06-.82-.13-1.15-.21ZM10.57,14.11s-.63.05-1.11.5c-.26-.07-.51-.13-.69-.19.04-.07.08-.15.14-.22,0,0,.75-.9,2.1-.39.03,0-.06.22-.43.31ZM11.18,14.92c.06-.53.1-.98.29-.98,0,0,.14,0,.24.13.17.23.62.51.83.93-.49-.01-.95-.04-1.36-.09ZM13.31,15.01c.21-.42.66-.7.83-.93.1-.13.24-.13.24-.13.19,0,.24.45.29.98-.41.05-.87.08-1.36.09ZM14.86,13.81c1.35-.51,2.1.39,2.1.39.06.07.1.15.14.22-.19.06-.43.12-.69.19-.48-.45-1.06-.49-1.11-.5-.37-.08-.46-.3-.43-.31ZM15.49,14.39c.29,0,.51.12.69.28-.33.08-.72.15-1.15.2.07-.49.47-.49.47-.49ZM15.3,16.37c-.14-.02-.21-.45-.25-.78.53-.07,1.04-.16,1.54-.28.16.4.21.79.21.79-.61.62-1.49.28-1.49.28ZM17.05,15.87s-.1-.28-.1-.28c-.03-.13-.08-.24-.13-.34.14-.04.28-.09.42-.13-.01.43-.2.76-.2.76Z"/>
</svg>