<?xml version="1.0" encoding="UTF-8"?>
<svg id="Capa_1" xmlns="http://www.w3.org/2000/svg" version="1.1" viewBox="0 0 79.51 25.53">
  <!-- Generator: Adobe Illustrator 30.2.1, SVG Export Plug-In . SVG Version: 2.1.1 Build 1)  -->
  <defs>
    <style>
      .st0 {
        fill: #fff;
      }
    </style>
  </defs>
  <path class="st0" d="M10.57,13.43c-.32.05-.63.07-.9.07-2.2,0-3.69-1.03-4.07-1.37-.81-.71-1.56-1.9-1.56-3.59,0-1.56.7-2.88,1.69-3.76.94-.83,2.35-1.27,3.86-1.27.38,0,.73.03,1.06.09.91.12,1.93.39,3.13.88V.9c-1.75-.68-3.12-.9-4.3-.9-2.79,0-5.1.95-6.69,2.34C1.18,3.76,0,5.91,0,8.47s1.18,4.76,2.79,6.18c1.5,1.34,3.73,2.37,7.04,2.37,1.07,0,2.36-.15,3.95-.88v-3.6c-1.23.51-2.28.78-3.21.89"/>
  <path class="st0" d="M21.13,4.86c-.67.68-1.37,1.88-1.37,3.69,0,1.49.46,2.69,1.42,3.66,1,1,2.11,1.34,3.32,1.34,1.58,0,2.69-.61,3.43-1.39.6-.61,1.35-1.76,1.35-3.64,0-1.68-.65-2.93-1.35-3.66-.77-.78-2-1.39-3.41-1.39s-2.55.51-3.39,1.39M30.53,2.37c1.46,1.49,2.41,3.64,2.41,6.15,0,2.17-.74,4.4-2.41,6.1-1.44,1.47-3.39,2.39-5.99,2.39-2.9,0-4.87-1.22-6.03-2.39-1.48-1.47-2.41-3.66-2.41-6.06s1-4.71,2.39-6.18C19.53,1.29,21.46,0,24.54,0,26.95,0,28.97.78,30.53,2.37"/>
  <path class="st0" d="M39.5,7.77h.85c.68,0,1.61-.07,2.25-.71.27-.27.61-.78.61-1.59,0-.93-.44-1.42-.76-1.66-.61-.46-1.59-.51-2.08-.51h-.88v4.47ZM41.46.37c2.08,0,3.37.68,4.15,1.42.68.66,1.42,1.83,1.42,3.64,0,1.03-.22,2.3-1.27,3.32-.56.54-1.37,1.03-2.27,1.25l5.01,6.67h-4.59l-4.4-6.42v6.42h-3.76V.37h5.71Z"/>
  <polygon class="st0" points="61.07 3.54 54.78 3.54 54.78 6.69 60.27 6.69 60.27 9.86 54.78 9.86 54.78 16.65 51.02 16.65 51.02 .37 61.07 .37 61.07 3.54"/>
  <path class="st0" d="M67.7,4.86c-.67.68-1.37,1.88-1.37,3.69,0,1.49.46,2.69,1.41,3.66,1,1,2.11,1.34,3.32,1.34,1.58,0,2.69-.61,3.43-1.39.6-.61,1.35-1.76,1.35-3.64,0-1.68-.65-2.93-1.35-3.66-.76-.78-2-1.39-3.41-1.39s-2.55.51-3.39,1.39M77.09,2.37c1.46,1.49,2.41,3.64,2.41,6.15,0,2.17-.74,4.4-2.41,6.1-1.44,1.47-3.39,2.39-5.99,2.39-2.9,0-4.87-1.22-6.03-2.39-1.48-1.47-2.41-3.66-2.41-6.06s1-4.71,2.39-6.18C66.1,1.29,68.02,0,71.11,0c2.41,0,4.43.78,5.99,2.37"/>
  <path class="st0" d="M33.03,22.07H14.69s-14.67,0-14.67,0v3.46h15.06s17.95,0,17.95,0v-3.46ZM.4,22.4h14.29v2.8H.4v-2.8ZM32.64,25.2H15.08v-2.8h17.56v2.8Z"/>
</svg>