<?xml version="1.0" encoding="UTF-8"?>
<svg id="Capa_1" xmlns="http://www.w3.org/2000/svg" version="1.1" viewBox="0 0 100.61 55.72">
  <!-- Generator: Adobe Illustrator 30.2.1, SVG Export Plug-In . SVG Version: 2.1.1 Build 1)  -->
  <defs>
    <style>
      .st0 {
        fill: #fff;
      }
    </style>
  </defs>
  <path class="st0" d="M55.8,22.21c0,.12-.02.24-.03.35-.01.12-.02.24-.03.35-.04.51-.07.99-.26,1.51-.1.26-.14.46-.18.66-.05.22-.09.45-.21.75,0,.02-.01.05-.03.11-.02.08-.05.21-.09.36,0,.03-.01.05-.02.08,0,.02-.01.04-.02.07-.02.07-.04.15-.06.23-.1.35-.23.79-.42,1.29-.23.74-.54,1.42-.89,2.02.64-.11,1.15-.36,1.77-.92,0,0,0,0,0,0t0,0c.32-.47.63-.92.97-1.46-.19-.27-.51-4.62-.51-5.4h0Z"/>
  <path class="st0" d="M51.38,14.2c-.39-.26-.81-.46-1.25-.59-1.87-.04-3.69,2.25-4.79,3.66.87.16,1.77.73,2.19,1.28.23.3.43.62.69.9.14.15.19.31.26.49.16.42.01.86.1,1.28.03.15.04.3.05.45.04.13.06.45.07.59l.11-.06c1.15-.8,2.36-1.71,3.46-2.57,0-.02,0-.04,0-.06.11-.66.17-1.33.3-1.98.12-.61.05-1.2-.09-1.77-.16-.65-.51-1.22-1.1-1.61"/>
  <path class="st0" d="M81.58,15.42l-.16-.11c-.16-.11-.56-.21-.88-.27-.93.18-2.48,2.58-2.7,3.27.58.26,1.11.66,1.43,1.06.09.11.17.22.25.34.14.2.28.39.43.56.15.16.21.33.28.51v.03c.11.27.1.53.09.79,0,.18-.01.35.02.52.02.13.04.25.05.39.07.06.12.15.14.24.02.09,0,.17-.03.25.05.16.11.49.23,1.08.04.22.08.44.13.64,1.07-2.87,1.98-5.69,2.25-8.33-.14-.15-.29-.29-.47-.4-.34-.22-.7-.41-1.05-.56"/>
  <path class="st0" d="M92.76,23.85c-.05.2-.11.42-.16.63-.04.19-.18.87-.18.87-.04.17-.09.33-.13.5-.11.39-.22.8-.3,1.2-.04.19-.07.34-.1.49-.03.15-.19,1.09-.43,1.16.25-.02,1.34-.27,1.74-.76.04-.05.17-.39.28-.66.01-.03.04-.1.04-.1l.03-.09c-.13-.45-.62-2.2-.8-3.23"/>
  <path class="st0" d="M64.66,19.17c-.08,1.13-.16,2.29-.31,2.75-.11.33-.15.59-.2.84-.05.27-.1.55-.23.92,0,.02,0,.06,0,.1,0,.36.03,1.31-.39,2.59-.21,1.15-.67,2.23-1.34,2.79.32.1.92.09,1.66-.65.18-.33.32-.59.43-.74.26-.36.4-.54.91-1.57l.04-.1c-.27-2.74-.5-5.29-.56-6.92"/>
  <path class="st0" d="M29.95,13.59c-2.59-.97-4.98-1.31-7.58-1.77-3.67,1.68-7.32,3.35-10.13,5.02,1.31-.07,4.02-.03,5.32-.09.53.06,1.1.16,1.67.13.54.18.87.11,1.36.08,1.24.08,2.33.48,3.64.51.51-.04.91.33,1.4.41.22-.08.77.19.98.2.27-.07.54.23.84.26.5.1.94.23,1.37.5.42.14.87.14,1.23.45,1.19.83,2.43,1.78,3.11,3.14.38.81.67,1.46.69,2.22l-.02.04s0,0,0,0c0,0,0,0,0,0l.02-.03c1.35-1.26,2.11-2.26,2.73-3.2.28-1.27.33-2.5.02-3.2-1.42-2.15-4.3-3.57-6.66-4.66"/>
  <path class="st0" d="M62.19,29.15h-.02s0,0,0,0c0,0-.01,0-.01,0-.14-.06-.28-.15-.43-.26-.02-.02-.04-.03-.06-.05-.45-.32-.76-2.31-.79-2.44-.02-.12-.05-.24-.08-.35-.14-.6-.33-1.39-.52-2.19-.02-.08-.05-.16-.08-.23-.04-.11-.08-.21-.08-.29.03-.72-.05-1.42-.14-2.11-.04-.35-.09-.71-.11-1.07-.02-.24-.04-.1-.05-.24-.03-.29-.05-.47-.04-.96,0-.36,0-.72,0-1.1,0-.17,0-.34,0-.52v-.16s-1.03.48-1.25.57c-.08.03-.15.07-.23.1-.4.17-.47.23-.57.33-.06.06-.13.13-.41.3-.02.01-1.13.71-1.68,1.17,0,.01,0,.02,0,.03,0,.01,0,.03,0,.05,0,.02,0,.04,0,.07,0,.03,0,.07,0,.11,0,.13,0,.3.02.52,0,.12.02.25.03.38.01.18.03.37.05.58.02.2.04.1.06.32.01.13.03.25.04.38,0,0,0,.05,0,.12,0,.78.32,5.13.51,5.4h.07c.04.4.19.74.33,1.02.06.12.13.24.19.36.21.37.4.73.46,1.14.01.07.02.15.04.22.13.22.23.44.41.62.09.09.19.17.3.24.21.09.45.14.7.17.27.04.53.07.79.12.08-.02.16-.04.24-.07.05-.02.1-.03.14-.05,1.07-.3,2.48-.85,3.19-1.8l.31-.43s.03-.04.04-.07c.06-.11.24-.43.33-.59-.73.74-1.34.76-1.66.65"/>
  <path class="st0" d="M53.55,30s-.3.05-.3.05c-.23-.01-.31-.06-.33-.08-.3-.25-.54-.95-.6-1.46-.03-.29-.22-1.59-.22-1.6-.03-.17-.05-.5-.06-.94.04-.42.06-.77.08-1.12.02-.47.05-.6.13-1.15.03-.23.06-.9.07-1.47v-.35s-.06.01-.06.01l-.1.04s-.17.09-.23.13c-.08.05-.17.1-.25.15-.33.19-.66.38-.98.6-.48.33-.89.65-1.27.98-.13.11-.26.22-.39.33-.42.35-.85.72-1.21,1.15-.13.16-.49.55-.49.55-1.51,1.41-2.52,2.3-3.88,2.68-.25.07-.38.14-.43.24,0,0-.01,0-.02,0-.05,0-.12,0-.21,0-.02,0-.04,0-.06,0-.12,0-.23.02-.33.03-.08.01-.16.02-.23.02-.1,0-.17-.02-.23-.07-.21-.18-.36-.38-.43-.56l-.03-.08c-.17-.46-.35-.93-.39-1.41-.08-.95.02-1.84.3-2.65.33-.96.69-1.99,1.23-2.94.54-.96,1.18-1.82,1.9-2.76.16-.22.35-.42.52-.61h0s0-.01,0-.01c.08-.12.17-.24.25-.36l.04-.06c1.1-1.41,2.92-3.7,4.79-3.66-.29-.09-.59-.15-.9-.18-.13-.01-.7-.06-.9-.08h0s-.02,0-.03,0c0,0-.01,0-.01,0t0,0c-.3-.03-.64-.06-.89.11-1.1.26-2.03.92-2.81,1.52-1.1.85-2.27,1.77-3.35,2.83-1.5,1.46-2.48,2.87-3.1,4.41-.05.12-.11.24-.17.37-.04.08-.08.16-.12.24-.08.18-.17.36-.25.53-.29.59-.58,1.2-.74,1.85-.04.17-.07.35-.1.52-.02.14-.04.29-.08.43-.11.51-.23,1.02-.34,1.46-.09.37-.01.67.24.9.11.1.16.19.18.34.13.89.48,1.54,1.17,2.15.04.03.08.06.12.08.03.02.07.04.08.06.15.27.39.4.7.4.11,0,.23-.01.37-.05l.1-.02c.16-.14.16-.35.1-.6.07,0-.09-.13-.02-.13.22,0,.64.13.83.16h.03c.15.02.3.05.46.05.28,0,.51-.07.72-.23,0,0,.03-.01.13-.01h.08s.05,0,.08,0c.58-.04,1.12-.3,1.65-.56.32-.16.63-.31.94-.41.13-.04.25-.12.36-.19.04-.03.09-.06.13-.08.24-.14.47-.37.69-.58.23-.23.47-.46.71-.58.27-.13.54-.32.84-.58.08-.07.15-.13.23-.2.06-.05.12-.1.17-.15.21-.11.43-.18.68-.23v.03c.1.56.35,1.76.35,1.76.03.18.06.35.08.49l.03.15c.03.16.09.4.31.57.23.18.4.46.53.86.12.34.49.71,1.03.72.26.08.54.12.83.12s.59-.03.96-.1h0c.17-.04,1.37-.36,2.17-1.39h0c.11-.12.2-.23.28-.35.23-.34.44-.65.64-.94t0,0c-.62.56-1.13.81-1.77.92,0,0-.01,0-.02,0"/>
  <path class="st0" d="M25.77,1.07l.05-.02.33-1.05c-1.91.73-8.61,3.11-11.08,3.94l-.08.03-.26,1.08.25-.08c2.57-.84,8.91-3.14,10.79-3.89"/>
  <path class="st0" d="M91.38,13.92c.49.39,1.35,1.02,1.8,1.45.39.36-.04-.02.41.22.1.05.2.14.28.24.34.38.53.66.89.28.15-.16.19-.64.11-.83-.38-.84-.07-.81.65-.6.48.14.46-.28.5-.89,0-.06-.04-.4,0-.42.25-.19.77-.42.65-.62-.11-.18-.05-.23-.14-.43-.14-.1-.8-.46-.83-.7-.02-.18-.14-.37-.27-.5-.38-.38-1.26-.96-1.73-1.25-.09-.05-.18-.11-.24-.2-.06-.1-.26-.17-.29-.29-.34.1-.39.24-.63.47-.61.6-1.03,1.39-1.6,2.03-.19.21-.33.48-.53.69-.1.1-.15.24-.22.36-.02.16-.2.28-.18.43.3.08.78.22,1.04.38.11.05.22.11.32.19"/>
  <path class="st0" d="M90.74,28.38c-.06-.08-.1-.2-.13-.33-.01-.05-.03-.1-.04-.15-.05-.16-.1-.32-.16-.49-.13-.41-.27-.52-.37-.94-.13-.55-.23-1.12-.33-1.67-.05-.27-.1-.55-.15-.82l-.06-.3c-.19-.99-.38-2.01-.47-3.04v-.06c-.02-.14-.03-.3-.1-.44-.09-.18-.11-.37-.14-.58v-.05c-.03-.19-.06-.39-.09-.58-.05-.31-.1-.63-.12-.95-.02-.33-.15-1.14-.25-1.87-.07-.46-.13-.86-.14-1.01,0-.03,0-.07-.01-.11-.02-.2-.04-.42-.11-.57-.06-.13-.11-.39-.13-.79-.02-.3-.04-.6-.05-.89-.02-.47-.05-.96-.09-1.44-.04-.39.03-3.97.08-5.17.04-.86.07-1.6.06-1.87,0-.22-.03-.45-.07-.67-.02-.1-.01-.56-.01-.56l-.28.11c-.33.03-.79.36-1.19.66-.21.16-.41.31-.54.37-.2.09-.52.31-.87.54-.42.28-.91.6-1.15.68-.11.04-.41.26-.41.26,0,0,.3.19.42.32.1.1.23.24.22.34-.04.36-.05,1-.07,1.73h0c.02.37,0,2.12.03,2.58-.09.45-.15,1.77-.28,2.38-.24,1.24-.52,2.64-.62,3.25,0,.04-.01.08-.02.12-.27,2.64-1.18,5.46-2.25,8.33-.02.04-.03.08-.05.12-.04.08-.07.17-.11.25-.05.12-.1.23-.16.34-.03.06-.06.13-.09.19-.04.09-.08.17-.13.26-.02.05-.05.1-.07.14l-.08.15h0c-.87,1.67-1.7,2.65-2.24,3.17h0s0,0,0,0c0,0-.08.08-.08.08-.17.15-.34.23-.5.23-.39,0-.74-.46-.97-.76-.05-.06-.09-.12-.13-.17h0s0-.01,0-.01c-.19-.18-.33-.41-.43-.68-.29-.76-.41-1.55-.36-2.35.08-1.39.38-2.78.9-4.14.22-.57.51-1.31.84-2.03.02-.05.04-.09.07-.14l.05-.1s.03-.05.04-.08c.02-.03.03-.06.05-.09.02-.04.05-.09.08-.13.02-.04.05-.08.07-.12.04-.07.08-.14.13-.21l.07-.11c.04-.07.08-.13.12-.2l.02-.04c.22-.69,1.78-3.1,2.7-3.28,0,0-.14-.02-.22-.03-.09,0-.14,0-.14,0-.38,0-.7.07-1,.21-.25.12-.62.19-1.02.27-.54.11-1.09.22-1.44.46-.45.31-.92.59-1.38.87l-.2.12c-.61.37-1.13.89-1.51,1.52-.32.52-.63,1.16-.56,1.9.02.21-.04.46-.1.67-.1.36-.21.73-.32,1.08-.12.39-.24.79-.35,1.19-.05.19-.07.38-.09.56,0,.08-.02.16-.03.24v.06s.02.05.02.05c.17.26.1.53.02.84-.02.08-.04.16-.06.25v.03c-.04.17-.09.38.03.58-.27.3-.14.59-.02.8l.03.1c.06.17.07.35.09.54.02.21.04.42.11.63.09.26.58.58.66.66.04.04.1.09.17.13,0,0,0,0,0,0-.04.03-.19.23-.23.26-.06.03-.39.22-.53.24-.3.03-.56,0-.8-.1-.04-.02-.07-.03-.11-.05-.03-.01-.05-.03-.08-.04-.04-.02-.07-.05-.11-.08-.02-.02-.05-.03-.07-.05-.04-.03-.07-.07-.11-.11-.02-.02-.03-.03-.05-.05-.05-.06-.1-.12-.14-.19-.04-.04-.09-.07-.13-.11-.22-.21-.41-.45-.49-.72-.03-.1-.05-.19-.05-.29-.12-.21-.22-.44-.27-.67-.08-.4-.19-.75-.29-1.1-.14-.45-.26-.88-.34-1.38-.04-.3-.08-.54-.11-.78-.05-.34-.09-.67-.16-1.1-.02-.15-.04-.25-.06-.35-.03-.16-.06-.31-.1-.62-.04-.29-.07-.51-.12-.78-.04-.24-.08-.51-.14-.91,0-.04-.04-.29-.07-.47l-.03-.19c-.02-.13-.04-.26-.07-.39-.06-.33-.12-.66-.12-.99,0-.14,0-.3,0-.46,0-.49,0-1.05-.04-1.45l-.02-.45s-1.02.49-1.28.67c-.06.04-.12.08-.17.11-.62.37-.86.49-1.45.77l-.2.09c-.44.21-.67.32-.74.38l-.06.04v.08s0,.04,0,.07c0,.02,0,.04,0,.06,0,.06.02.14.03.23l.04.26c0,.07.02.14.03.21,0,.04.01.09.02.13,0,.06.05.58.04.7.06,1.62.3,4.17.56,6.92,0,.03,0,.06,0,.1.12,1.09.14,1.11.18,1.16.07.09.13.21.2.32.02.04.04.08.06.11.19.33.4.7.85.84.01,0,.06.04.09.1.25.45.48.9.68,1.28.24.45.59.85,1.07,1.21.09.07.21.11.32.11h.03c.07,0,.14,0,.2-.01.06,0,.12-.01.17-.01.03,0,.06,0,.09,0,.04,0,.1.04.15.08.09.06.19.12.31.12h.01s.05,0,.08,0c.13,0,.26,0,.39.02.13,0,.27.02.42.02.18,0,.33-.01.48-.05.58-.13,1.02-.34,1.34-.67.22-.22.46-.39.72-.58.04-.03.07-.05.11-.08.1-.07.2-.14.3-.22.08-.06.17-.12.27-.18.09-.06.19-.11.28-.18.07-.06.12-.13.17-.22,0,0,0,0,0,0,.2.13.37.27.4.38.11.34.33.5.55.63.26.16.56.26.83.35.12.04.61.04.67.04.44,0,.58-.03.63-.05l.08-.02c.51-.06,1.06-.33,1.14-.37,1.02-.45,1.86-1.28,2.41-1.84.17-.17.32-.33.44-.42.09-.07.16-.16.23-.24h0c.68-.8,1.38-1.67,1.95-2.68.03-.05.06-.11.09-.16.16-.26.33-.56.35-.91.21-.06.27-.22.28-.32.02-.12.03-.24.04-.36.01-.11.02-.23.04-.34.03-.09.28-.61.54-1.16l.05.05s.01.09,0,.13c-.02.18.03.32.08.45.02.07.05.14.06.21.02.15.59,1.11.6,1.22.03.22.06.44.16.65.03.05.05.1.09.14.03.07.06.16.08.25.05.18.1.38.26.53-.08.13-.03.26,0,.34,0,.01,0,.03.01.04.16.53.29,1.01.42,1.46.03.11.07.22.1.32.08.25.16.49.18.74.05.45.17.86.32,1.25.13.04.23.16.21.34,0,.02,0,.05,0,.07.23.27.46.53.74.74.04.03.08.05.12.08.16.05.31.09.45.11.09.02.19.04.29.06.28,0,.58-.06.9-.06l.21-.08v-.03c.1-.05.29-.13.62-.29.05-.02.11-.05.11-.05h.01c.22-.18.44-.32.65-.45.38-.24,1.11-1.43,1.19-1.51.06-.06.25-.27.25-.33,0-.13.09-.24.15-.32l.02-.03c-.4.49-1.49.74-1.74.76-.24.08-.63-.19-.72-.31"/>
  <path class="st0" d="M100.59,31.07s-.08-.06-.12-.1c-.04,0-.08-.01-.13-.02-.53.03-1.22-.29-1.46-.56-.24-.27-1.29-4.12-1.47-4.64-.07-.22-.16-.93-.24-1.09-.1-.18-.2-.36-.2-.57,0-.16-.27-1.54-.28-1.74-.01-.16-.02-.33-.04-.49-.03-.39-.28-2.2-.33-2.6-.03-.23-.06-.47-.07-.7,0-.01,0-.03,0-.06.03-.4.02-.53-.04-.61l-.04-.05h-.07c-.1,0-.3.09-.89.41-.19.1-.43.23-.48.24-.51.15-1.14.38-1.52.56-.2.1-1.17.5-1.17.5.14.13.63.49.63.49.16.37.11,3.76.09,3.82.18,1.03.67,2.78.8,3.23.02.07.03.11.03.11,0,0,.16.77.25,1.14.06.07.11.14.13.19.13.26.2,1.19.3,1.47.15.45.35.9.43,1.38.6.75,1.25,1.45,2.23,1.62.21.04.42.05.63.04.07-.02.14-.04.21-.07.56-.18,1.06-.38,1.58-.65.28-.15.53-.29.76-.47.05-.04.09-.09.14-.13.18-.19.3-.38.35-.62,0,0-.01-.02-.02-.03"/>
  <path class="st0" d="M70.39,27.76l-.05-.29c0,.1.02.2.05.29"/>
  <path class="st0" d="M74.02,35.31l-.23.95.25-.08c2.19-.71,7.58-2.67,9.18-3.31l.05-.02.25-.91c-1.63.62-7.33,2.64-9.43,3.35l-.08.03Z"/>
  <path class="st0" d="M65.04,12.02c-.11-.05-.41-.15-.56-.17h-.07s.02-.08.02-.08c.07-.22.1-.46.1-.71,0-1.77-.76-2.4-1.42-2.4-.52,0-1.1.25-1.54.67-.48.45-.74,1.04-.74,1.65,0,.93.63,1.46,2.03,1.71l.14.03-.12.09c-.93.7-3.4,1.73-4.96,2.35l-.41.16.43.1c.36.08.98.15,1.31.15h.05c.63-.24,3.52-1.36,4.53-2.65l.03-.04h.04c.09.04.35.15.45.2l.1.05.74-1.03-.16-.07ZM63.79,11.69l-.02.06h-.06c-1.48-.31-2.3-.82-2.3-1.44,0-.4.56-.81,1.11-.81.61,0,1.3.79,1.33,1.84,0,.11-.02.23-.06.35"/>
  <path class="st0" d="M8.89,17.24c.47-.09.94-.17,1.42-.22.21-.02.43-.04.65-.05.09,0,.84-.18,1.28-.12,2.81-1.67,6.46-3.34,10.13-5.02,1.44-.61,2.57-.93,4.33-1.69.65-.09,3.59-1.85,3.73-.98.26.35.67.69.67.69.93-1.56,1.17-2.24,1.62-3.69.55-1.68,1.28-2.41,1.52-4.24-.47.05-1.16.5-1.49.69-.77.36-1.69.74-2.51,1.17-2.06.84-4.18,1.18-6.26,1.9-.69.13-.93.39-1.56.52-.19.22-.69.31-.94.31-.59.22-1.08.35-1.68.72-.46-.06-.93.49-1.53.38-.72.37-2.81,1.38-3.82,1.46-.5.05-2.06.54-2.72.63-.23.09-.16.32-.33.49-.51,2-1.37,3.21-2.18,5.18-.04.81-.67,1.63-.31,1.86"/>
  <path class="st0" d="M36.44,22.06c.05-.18.09-.36.14-.54,0-.02.01-.04.02-.07,0,0-.01.02-.01.02-.62.94-1.38,1.94-2.72,3.19l-.02.03s0,0,0,0c-.13.14-.29.3-.41.43-1.38,1.48-2.9,2.68-4.53,3.86-.76.79-1.6,1.37-2.59,1.81-1.99,1.17-4.15,1.93-6.27,2.8-.57.24-1.02.06-1.33.7-.04-.03-.08-.06-.12-.09-.95.11-2.32.32-3.09.94,1.03,1.26,3.02-.99,4.09.06-.41.45-1,.54-1.5.85-.32-.11-.6.09-.89.18-.48.14-1.36.28-1.83.44-1.75.07-3.44.47-5.2.36-7.79-.52-10.36-6.64-7.58-13.54.35-.77.8-1.45,1.26-2.15-.32-.45-1.43,1.3-1.72,1.75-2.56,4.72-3.51,10.87,1.27,14.54.15.07.35.15.46.2.16-.09.24-.17.3-.22.15-.12.13-.08.79.25,2.59,1.25,5.88,1.34,8.81.88.23,0,.4-.03.61-.05.28.09.55-.04.83-.12.12-.03.26-.04.38-.08.02,0,.03,0,.05,0,.8-.19,1.63-.29,2.12-1.02.29.07.52.21.78,0,1.14-.26,2.21-.67,3.28-1.16.27-.05.37.21.68.17,5.87-2.47,11.33-6.68,13.43-12.97,0-.01.01-.03.02-.04.1-.24.2-.49.29-.74,0-.01.01-.03.02-.04,0-.03.02-.05.03-.08.06-.18.12-.36.17-.54,0-.01,0-.02,0-.03"/>
  <path class="st0" d="M29.12,44.68v-4.9c0-.71-.1-.94-.36-1.4h2.97c1.87,0,2.9.57,2.9,1.74,0,.85-.59,1.5-2.03,1.8,1.69.16,2.43.86,2.43,2.03,0,1.34-1.18,2.13-3.39,2.13h-2.87c.26-.46.36-.69.36-1.4M32.93,40.27c0-1-.54-1.67-1.71-1.67h-.3v3.33h.36c1.11,0,1.65-.68,1.65-1.66M33.23,43.95c0-1.15-.47-1.8-1.93-1.8h-.37v3.7h.41c1.41,0,1.9-.74,1.9-1.9"/>
  <path class="st0" d="M35.86,38.61l1.2-1.17,1.17,1.17-1.18,1.2-1.19-1.2ZM36.16,44.98v-2.55c0-.62-.04-.85-.26-1.29l1.97-.84v4.42c0,.45.12.88.32,1.25-.22.17-.48.24-.83.24-.78,0-1.2-.41-1.2-1.22"/>
  <path class="st0" d="M38.92,43.39c0-1.83,1.29-3.1,3.12-3.1,1.27,0,2.16.62,2.16,1.42,0,.65-.43,1.1-1.54,1.57l-1.73.73c.28.71.84,1.06,1.63,1.06s1.43-.34,1.72-.9l.13.05c-.36,1.26-1.36,1.97-2.72,1.97-1.67,0-2.79-1.11-2.79-2.81M40.86,43.79l.38-.17c1-.44,1.45-1.07,1.45-1.94,0-.76-.28-1.17-.81-1.17-.75,0-1.17.85-1.17,2.23,0,.4.05.75.13,1.05"/>
  <path class="st0" d="M49.17,44.98v-3.26c0-.61-.29-.91-.77-.91-.26,0-.41.06-1.24.41v3.53c0,.68.06.9.31,1.32h-2.32c.24-.42.3-.64.3-1.32v-2.33c0-.65-.06-.87-.27-1.29l1.97-.84v.68c1.51-.64,1.79-.68,2.15-.68,1.2,0,1.56.85,1.56,1.57v2.84c0,.45.12.88.31,1.25-.2.17-.48.24-.82.24-.78,0-1.2-.41-1.2-1.22"/>
  <path class="st0" d="M54.19,46.08l-1.98-4.6c-.23-.52-.44-.82-.7-1.07h2.52c-.23.22-.28.52-.11.91l1.45,3.41.55-1.2c.71-1.57.64-2.59.24-3.12h1.06c0,.58-.22,1.37-1.05,3.18l-1.14,2.48h-.85Z"/>
  <path class="st0" d="M57.72,43.39c0-1.83,1.29-3.1,3.12-3.1,1.27,0,2.16.62,2.16,1.42,0,.65-.43,1.1-1.54,1.57l-1.73.73c.28.71.84,1.06,1.63,1.06s1.43-.34,1.72-.9l.13.05c-.36,1.26-1.36,1.97-2.72,1.97-1.67,0-2.79-1.11-2.79-2.81M59.67,43.79l.38-.17c1-.44,1.45-1.07,1.45-1.94,0-.76-.28-1.17-.81-1.17-.74,0-1.17.85-1.17,2.23,0,.4.05.75.13,1.05"/>
  <path class="st0" d="M67.97,44.98v-3.26c0-.61-.29-.91-.77-.91-.26,0-.41.06-1.24.41v3.53c0,.68.06.9.31,1.32h-2.32c.24-.42.3-.64.3-1.32v-2.33c0-.65-.06-.87-.26-1.29l1.97-.84v.68c1.51-.64,1.79-.68,2.15-.68,1.2,0,1.56.85,1.56,1.57v2.84c0,.45.12.88.31,1.25-.2.17-.48.24-.82.24-.78,0-1.2-.41-1.2-1.22"/>
  <path class="st0" d="M71.01,38.61l1.2-1.17,1.17,1.17-1.18,1.2-1.19-1.2ZM71.31,44.98v-2.55c0-.62-.04-.85-.26-1.29l1.97-.84v4.42c0,.45.12.88.32,1.25-.22.17-.48.24-.83.24-.78,0-1.2-.41-1.2-1.22"/>
  <path class="st0" d="M74.09,43.73c0-1.83,1.25-3.44,3.28-3.44.25,0,.49.05.71.12v-.69c0-.65-.06-.88-.28-1.31l1.98-.83v6.85c0,.73.1,1.13.3,1.52-.16.15-.43.24-.78.24-.55,0-.95-.21-1.19-.69-1.32.58-1.66.69-2.08.69-1.06,0-1.95-.99-1.95-2.47M77.15,45.55c.3,0,.47-.07.93-.28v-3.96c0-.41-.29-.77-.76-.77-.96,0-1.44,1.31-1.44,2.88,0,1.4.59,2.13,1.27,2.13"/>
  <path class="st0" d="M80.79,43.24c0-1.97,1.45-2.94,2.96-2.94s2.94.97,2.94,2.94-1.45,2.96-2.94,2.96-2.96-.97-2.96-2.96M84.9,43.24c0-2.08-.56-2.72-1.15-2.72s-1.17.64-1.17,2.72.56,2.75,1.17,2.75,1.15-.64,1.15-2.75"/>
  <path class="st0" d="M87.32,45.04c0-.39.17-.59.64-.68.13,1.05.69,1.62,1.38,1.62.46,0,.93-.19.93-.82,0-1.49-2.86-.86-2.86-3.1,0-1.07.87-1.77,2.26-1.77.52,0,.98.08,1.62.48v1.13h-.07c-.35-.99-.93-1.39-1.55-1.39-.39,0-.91.17-.91.84,0,1.42,2.93.92,2.93,3.03,0,.91-.64,1.83-2.45,1.83-1.08,0-1.91-.47-1.91-1.16"/>
  <path class="st0" d="M61.72,55.11c-1.13.5-1.49.61-1.85.61-.95,0-1.59-.61-1.59-1.45,0-.7.43-1.2,1.42-1.62l1.93-.85v-.36c0-.76-.39-1.1-1.2-1.1-.43,0-.81.08-1.51.39v-.24c1.27-.53,1.74-.67,2.39-.67,1.3,0,2.03.62,2.03,1.73v2.41c0,.65.08,1.07.3,1.52-.19.16-.48.24-.79.24-.52,0-.9-.19-1.13-.61M60.93,55.07c.19,0,.37-.04.71-.17v-2.86l-.52.24c-.71.33-1.12.94-1.12,1.68s.34,1.1.93,1.1"/>
  <path class="st0" d="M69.42,48.47l1.61-.7,2.49,6.64c.23.62.49.98.73,1.19h-2.76c.23-.29.29-.53.06-1.19l-.53-1.43h-2.76c-.28.99-.13,2.08.12,2.61h-1.68l1.93-4.11c.83-1.77.9-2.36.79-3.01M70.94,52.75l-1.19-3.18-1.32,2.93-.1.25h2.61Z"/>
  <path class="st0" d="M74.96,54.28v-2.34c0-.65-.06-.87-.26-1.29l1.97-.83v1.84c.38-1.14.78-1.84,1.55-1.84.42,0,.77.29.77.91,0,.34-.12.59-.24.77-.14-.17-.42-.28-.77-.28-.32,0-.85.15-1.31.71v2.35c0,.68.06.9.31,1.32h-2.32c.24-.42.3-.64.3-1.32"/>
  <path class="st0" d="M82.58,55.11c-1.13.5-1.49.61-1.85.61-.95,0-1.59-.61-1.59-1.45,0-.7.43-1.2,1.42-1.62l1.93-.85v-.36c0-.76-.39-1.1-1.2-1.1-.43,0-.81.08-1.51.39v-.24c1.27-.53,1.74-.67,2.39-.67,1.3,0,2.03.62,2.03,1.73v2.41c0,.65.08,1.07.3,1.52-.19.16-.48.24-.79.24-.52,0-.9-.19-1.13-.61M81.79,55.07c.19,0,.37-.04.71-.17v-2.86l-.52.24c-.71.33-1.12.94-1.12,1.68s.34,1.1.93,1.1"/>
  <path class="st0" d="M85.48,47.94l1.97-.84v3.33c1.12-.5,1.49-.62,1.89-.62,1.31,0,1.96,1.27,1.96,2.43,0,1.44-.9,3.41-3.08,3.41-.59,0-.99-.12-1.39-.41l-1.08.47v-6.47c0-.65-.06-.87-.26-1.31M88.12,55.42c.91,0,1.38-1.43,1.38-2.76s-.5-2.2-1.27-2.2c-.26,0-.41.05-.78.21v4.04c0,.44.24.71.67.71"/>
  <path class="st0" d="M92.1,48.13l1.2-1.17,1.17,1.17-1.18,1.2-1.19-1.2ZM92.4,54.5v-2.55c0-.62-.04-.85-.26-1.29l1.97-.84v4.42c0,.45.12.88.32,1.25-.22.17-.48.24-.83.24-.78,0-1.2-.41-1.2-1.22"/>
  <path class="st0" d="M98.68,55.11c-1.13.5-1.49.61-1.85.61-.95,0-1.59-.61-1.59-1.45,0-.7.43-1.2,1.42-1.62l1.93-.85v-.36c0-.76-.39-1.1-1.2-1.1-.43,0-.81.08-1.51.39v-.24c1.27-.53,1.74-.67,2.39-.67,1.3,0,2.03.62,2.03,1.73v2.41c0,.65.08,1.07.3,1.52-.19.16-.48.24-.79.24-.52,0-.9-.19-1.13-.61M97.89,55.07c.19,0,.37-.04.71-.17v-2.86l-.52.24c-.71.33-1.12.94-1.12,1.68s.34,1.1.93,1.1"/>
</svg>