<?xml version="1.0" encoding="UTF-8"?>
<svg id="Capa_1" xmlns="http://www.w3.org/2000/svg" version="1.1" viewBox="0 0 64.08 64.05">
  <!-- Generator: Adobe Illustrator 30.2.1, SVG Export Plug-In . SVG Version: 2.1.1 Build 1)  -->
  <defs>
    <style>
      .st0 {
        fill: #fff;
      }
    </style>
  </defs>
  <path class="st0" d="M25.47,47.8l.18-.69.05.02c0,.22.03.4.11.53.08.13.2.22.36.27.13.04.26.05.39.02.13-.03.25-.11.36-.24.11-.13.2-.3.28-.52.06-.18.09-.35.07-.5-.01-.15-.07-.28-.16-.39-.09-.11-.21-.19-.36-.24-.13-.04-.25-.06-.37-.03-.12.02-.26.09-.44.22l-.04-.04c.16-.14.32-.23.48-.27.16-.04.33-.02.52.04.33.11.55.32.64.63.07.23.07.47-.02.71-.07.2-.17.37-.32.5-.15.14-.31.22-.5.26-.19.04-.37.03-.56-.04-.14-.05-.27-.13-.39-.25-.03-.04-.06-.06-.08-.06-.03,0-.05,0-.08,0-.03.02-.07.05-.09.09l-.05-.02Z"/>
  <path class="st0" d="M24.25,47.11c.17.08.33.09.5.01.2-.09.38-.29.53-.59.15-.31.2-.58.15-.81-.04-.18-.14-.31-.31-.39-.18-.09-.36-.09-.54-.01-.18.08-.35.27-.5.57-.16.32-.22.6-.17.82.04.18.15.31.33.4M24.17,47.2c-.24-.12-.41-.32-.5-.59-.09-.28-.06-.55.08-.83.14-.29.35-.48.62-.58.27-.1.54-.09.8.04.26.13.43.33.52.6.08.27.06.56-.09.85-.15.3-.37.49-.67.58-.26.08-.51.05-.76-.07"/>
  <path class="st0" d="M22.46,44.34l-.04-.04.47-.38,1.36.9-.03.05-.07-.04c-.07-.05-.14-.06-.21-.03-.04.02-.09.07-.15.17l-.75,1.13c-.07.11-.11.19-.1.23,0,.06.05.11.11.16l.07.04-.03.05-.8-.53.03-.05c.09.06.16.1.21.1.05,0,.09,0,.12-.02.03-.02.08-.08.15-.18l.73-1.1c.05-.07.07-.13.08-.16,0-.03,0-.05-.02-.07-.02-.02-.08-.07-.19-.15l-.13-.09c-.13-.09-.24-.14-.3-.16-.07-.02-.14-.01-.22,0-.08.02-.18.07-.29.15"/>
  <path class="st0" d="M21.06,45.01l.54-.64-.35-.3c-.09-.08-.17-.12-.22-.11-.07,0-.15.05-.23.13l-.04-.04.47-.56.04.04c-.06.09-.09.15-.09.18,0,.04,0,.08.02.12.02.04.06.09.13.15l.35.3.45-.53c.06-.07.09-.12.1-.14,0-.02,0-.04,0-.07,0-.02-.03-.05-.08-.09l-.27-.23c-.09-.08-.16-.13-.21-.15-.05-.02-.11-.03-.18-.03-.09,0-.2.04-.34.09l-.05-.04.48-.29,1.24,1.05-.04.04-.06-.05s-.08-.05-.13-.06c-.04,0-.07,0-.1.01-.03.02-.08.07-.15.14l-.88,1.05c-.09.1-.13.17-.13.21,0,.06.04.11.1.17l.06.05-.04.04-1.24-1.05.28-.37.05.04c-.05.1-.09.17-.09.22,0,.05,0,.1.03.15.02.04.07.09.15.16l.44.37Z"/>
  <path class="st0" d="M18.61,42.85l.45-.49.04.04c-.08.15-.13.29-.13.41,0,.17.06.33.19.48.18.2.4.28.65.23.21-.04.41-.14.59-.3.15-.14.26-.29.33-.46.07-.17.09-.33.06-.47-.03-.15-.09-.27-.18-.36-.05-.06-.11-.11-.17-.15-.06-.04-.13-.07-.21-.1l-.45.41c-.08.07-.12.12-.14.16-.01.03-.01.07,0,.11s.04.09.1.15l-.04.04-.55-.6.04-.04.03.03c.05.06.11.08.17.07.04-.01.1-.05.19-.13l.47-.44c.13.04.24.1.34.16.1.07.2.15.3.25.28.3.39.62.34.95-.04.25-.15.46-.34.63-.14.13-.3.21-.48.26-.22.06-.43.06-.64,0-.17-.05-.33-.16-.47-.31-.05-.06-.09-.11-.13-.17-.03-.05-.07-.14-.12-.25-.02-.06-.04-.09-.05-.11-.01-.01-.03-.02-.05-.02-.02,0-.06.02-.1.05l-.04-.04Z"/>
  <path class="st0" d="M19.48,40.52l.05-.03.55.72-.05.04-.05-.06c-.05-.07-.11-.1-.18-.11-.04,0-.11.04-.21.11l-1.09.82c-.09.06-.14.11-.16.14-.01.02-.02.05-.02.09,0,.05.03.1.06.14l.05.06-.05.03-.55-.72.05-.03.05.06c.05.07.11.1.17.1.04,0,.11-.04.21-.11l1.09-.82c.08-.06.14-.11.16-.14.01-.02.02-.05.01-.09,0-.05-.03-.1-.06-.14l-.05-.06Z"/>
  <path class="st0" d="M17.24,40.71c.1.16.24.25.42.28.22.03.48-.04.76-.22.29-.18.48-.38.56-.6.06-.17.04-.33-.05-.49-.1-.17-.26-.27-.45-.3-.2-.03-.44.04-.72.22-.31.19-.5.39-.58.6-.06.17-.04.34.07.51M17.12,40.75c-.14-.23-.18-.49-.11-.77.07-.28.24-.5.51-.66.27-.17.55-.22.84-.16.29.06.5.21.65.46.15.25.19.51.12.79s-.25.5-.53.67c-.29.18-.58.22-.88.14-.26-.07-.46-.23-.61-.46"/>
  <path class="st0" d="M17.81,37.75c-.02-.13-.05-.24-.08-.32-.09-.22-.24-.38-.45-.47-.21-.09-.46-.08-.73.03-.27.11-.46.26-.56.47-.1.21-.1.43-.01.66.03.09.09.18.16.28l1.67-.65ZM18.18,38.26l-.05.02-.03-.07c-.03-.08-.08-.13-.15-.15-.04,0-.12,0-.23.05l-1.27.5c-.12.05-.19.09-.21.13-.03.05-.03.12,0,.19l.03.07-.05.02-.31-.8c-.11-.29-.17-.53-.16-.71,0-.18.07-.35.19-.5.12-.15.28-.27.48-.35.27-.11.53-.11.78-.02.28.11.49.35.64.73l.34.88Z"/>
  <path class="st0" d="M15.34,36.2l.81-.2-.11-.45c-.03-.12-.07-.19-.11-.22-.06-.04-.15-.05-.27-.03v-.06s.7-.18.7-.18v.06c-.08.04-.14.07-.17.09-.03.03-.05.06-.06.11,0,.05,0,.11.02.2l.11.45.67-.17c.09-.02.14-.04.16-.05.02-.01.03-.03.04-.05,0-.02,0-.06-.01-.12l-.09-.35c-.03-.12-.06-.2-.09-.25-.03-.05-.07-.09-.13-.13-.08-.05-.19-.09-.33-.12l-.02-.06.56.05.39,1.58h-.06s-.02-.06-.02-.06c-.01-.05-.04-.09-.07-.13-.02-.03-.05-.04-.09-.05-.04,0-.1,0-.2.03l-1.33.33c-.13.03-.21.07-.23.1-.03.05-.04.11-.01.2l.02.07h-.06s-.39-1.56-.39-1.56l.44-.14v.06c-.09.05-.16.09-.19.13-.03.04-.05.08-.06.14,0,.04,0,.12.03.22l.14.56Z"/>
  <path class="st0" d="M14.58,32.35l.71-.11v.05c-.2.08-.35.19-.43.31-.08.13-.12.27-.11.44.01.14.06.26.14.37.08.11.2.19.36.24.16.05.36.07.59.05.19-.02.35-.06.49-.13.13-.07.23-.17.3-.3.06-.13.09-.27.08-.43-.01-.14-.05-.25-.12-.35-.07-.1-.19-.2-.38-.31l.03-.05c.2.09.34.2.44.33.1.13.16.3.17.49.03.35-.08.63-.32.84-.18.16-.4.25-.66.27-.21.02-.41-.01-.59-.09-.18-.08-.33-.2-.44-.35s-.17-.33-.19-.53c-.01-.15.01-.3.07-.46.02-.05.03-.08.03-.1,0-.03-.01-.05-.04-.07-.03-.02-.07-.04-.12-.05v-.05Z"/>
  <path class="st0" d="M16.7,31.19h.06s0,.9,0,.9h-.06v-.07c0-.09-.02-.15-.07-.19-.03-.03-.11-.04-.24-.04h-1.36c-.11-.01-.18,0-.21,0-.03.01-.05.03-.07.06-.03.05-.04.09-.04.14v.07s-.06,0-.06,0v-.9s.06,0,.06,0v.08c0,.09.02.15.07.19.03.03.11.04.24.04h1.36c.11.01.18,0,.21,0,.03-.01.05-.03.07-.06.03-.04.04-.09.04-.14v-.08Z"/>
  <path class="st0" d="M15.71,30.56s0-.04,0-.05c0-.01,0-.03,0-.04.02-.2,0-.36-.09-.47-.08-.11-.18-.17-.32-.19-.13-.01-.24.02-.33.09-.09.07-.14.18-.16.31,0,.06,0,.14,0,.25l.87.09ZM16.93,29.17l-.06.56-1.05.61c0,.05,0,.1,0,.13,0,.01,0,.03,0,.04,0,.02,0,.03,0,.05l.61.06c.13.01.21,0,.25-.02.05-.03.08-.09.09-.17v-.08s.07,0,.07,0l-.09.9h-.06s0-.08,0-.08c0-.09-.01-.16-.07-.2-.03-.02-.1-.04-.22-.05l-1.36-.13c-.13-.01-.22,0-.25.02-.05.04-.08.09-.09.17v.08s-.06,0-.06,0l.08-.76c.02-.22.05-.39.1-.49.04-.1.11-.19.21-.25.09-.07.2-.09.32-.08.13.01.24.07.32.16.09.09.14.23.16.41l.64-.37c.15-.09.25-.16.3-.23.05-.07.09-.16.11-.27h.06Z"/>
  <path class="st0" d="M15.23,27.48h-.06s.17-.74.17-.74h.06s-.02.09-.02.09c-.02.08,0,.15.06.21.03.03.1.06.21.08l.83.19c.21.05.36.11.46.17.1.07.18.17.24.31.05.14.06.31,0,.52-.05.22-.13.39-.24.48-.1.1-.23.16-.37.17-.1.01-.27-.01-.52-.07l-.8-.19c-.13-.03-.21-.03-.26,0-.05.03-.08.08-.1.15l-.02.08h-.06s.21-.9.21-.9h.06s-.02.09-.02.09c-.02.08,0,.15.04.2.03.03.1.06.22.09l.9.21c.08.02.17.03.28.04.11,0,.19,0,.26-.02.07-.03.13-.07.18-.13.05-.06.09-.15.12-.25.03-.13.03-.26,0-.38-.03-.12-.09-.21-.17-.27-.08-.06-.23-.12-.45-.17l-.83-.19c-.13-.03-.21-.03-.25-.01-.05.03-.09.08-.11.16l-.02.08Z"/>
  <path class="st0" d="M15.54,26.42l-.05-.02.3-.85.05.02-.02.07c-.03.08-.02.15.01.2.02.03.09.07.21.11l.97.34c.15.05.27.11.35.18.08.06.14.15.18.25.04.1.04.21,0,.33-.03.09-.08.16-.14.19-.06.04-.12.05-.18.03-.05-.02-.08-.04-.1-.07-.02-.04-.02-.09,0-.13.01-.03.03-.06.06-.07.03-.02.1-.03.2-.04.06,0,.1-.02.11-.06,0-.03,0-.06-.02-.09-.02-.03-.08-.07-.16-.09l-1.36-.47c-.1-.03-.17-.05-.21-.05-.03,0-.06.02-.08.04-.04.03-.07.07-.08.12l-.03.07Z"/>
  <path class="st0" d="M17.53,24.77l-.92-.04.62.69.31-.66ZM17.66,24.78l-.35.74.24.27c.06.07.11.11.14.13.03.01.06.01.1,0,.04-.02.08-.07.13-.16l.05.02-.28.6-.05-.02c.02-.09.03-.15.02-.18-.02-.07-.09-.16-.2-.29l-1.26-1.41.02-.05,1.9.08c.15,0,.26,0,.32-.03.06-.03.11-.08.15-.15l.05.02-.35.75-.05-.02c.03-.08.04-.14.03-.17,0-.04-.03-.06-.06-.08-.04-.02-.12-.03-.22-.04h-.33Z"/>
  <path class="st0" d="M16.75,23.4l.31-.48,2.03-.22-1.02-.66c-.11-.07-.18-.1-.23-.1-.06,0-.11.05-.15.12l-.04.06-.05-.03.4-.62.05.03-.04.06c-.05.07-.06.14-.04.2.02.04.07.09.17.15l1.49.97-.03.05-2.18.24,1.09.71c.11.07.18.1.23.1.06,0,.11-.05.15-.12l.04-.06.05.03-.4.62-.05-.03.04-.06c.05-.08.06-.14.04-.2-.02-.04-.07-.09-.17-.15l-1.23-.8c-.09.01-.16.03-.19.04-.04.01-.08.04-.13.08-.02.02-.05.06-.09.11l-.05-.03Z"/>
  <path class="st0" d="M19.96,21.16l-.88-.29.41.83.47-.55ZM20.07,21.21l-.53.62.16.33c.04.08.07.13.1.16.02.02.06.03.09.02s.09-.05.17-.12l.04.04-.43.5-.04-.04c.05-.08.07-.13.07-.17,0-.07-.04-.18-.11-.33l-.83-1.7.04-.04,1.81.59c.15.05.25.07.31.06.06,0,.12-.04.18-.11l.04.04-.54.63-.04-.04c.05-.07.08-.12.08-.16,0-.04-.01-.07-.04-.09-.03-.03-.1-.06-.2-.09l-.31-.1Z"/>
  <path class="st0" d="M20.65,18.61l.49.54-.04.04c-.11-.09-.21-.15-.3-.18s-.19-.03-.29,0-.18.07-.25.13c-.08.07-.12.16-.13.25,0,.1.02.18.07.24.04.05.1.08.17.08.1.01.28-.01.55-.08.22-.05.37-.08.46-.09.09,0,.18,0,.26.04.08.03.15.08.21.14.11.12.15.26.14.43-.01.17-.09.32-.24.45-.05.04-.09.08-.14.11-.03.02-.09.05-.19.09-.1.04-.16.07-.17.09-.02.02-.03.04-.03.06,0,.02.01.05.04.09l-.04.04-.49-.53.04-.04c.12.09.22.15.31.18.08.02.18.02.28,0,.1-.03.2-.08.28-.15.1-.09.15-.18.16-.28,0-.1-.02-.19-.08-.26-.03-.04-.08-.07-.14-.09-.06-.02-.12-.03-.2-.02-.05,0-.18.03-.38.08-.2.05-.35.07-.45.08-.1,0-.18,0-.26-.03-.08-.03-.15-.07-.2-.14-.1-.11-.15-.25-.13-.41.01-.16.08-.3.22-.42.08-.08.19-.14.32-.18.06-.02.1-.04.12-.05.02-.02.03-.04.03-.06,0-.02-.01-.06-.04-.1l.04-.04Z"/>
  <path class="st0" d="M22.64,17.22l.61-.41.03.05-.03.02s-.05.05-.08.09c-.03.05-.05.1-.06.16-.01.06-.01.15-.01.27l.02.95.29.44c.07.11.13.17.17.18.06.01.12,0,.19-.05l.06-.04.03.05-.75.5-.03-.05.06-.04c.07-.05.11-.11.11-.17,0-.04-.03-.11-.1-.21l-.28-.42-.97-.42c-.11-.05-.19-.08-.22-.08-.03,0-.09,0-.18,0-.02,0-.05.02-.08.04l-.03-.05.75-.5.03.05-.04.03s-.07.06-.09.1c-.02.04-.02.08,0,.12.02.03.08.07.19.12l.74.32-.02-.77c0-.12-.02-.19-.04-.23-.02-.02-.04-.04-.06-.05s-.05-.01-.08,0c-.03,0-.07.02-.12.05l-.03-.05Z"/>
  <path class="st0" d="M25.58,15.66l.34.63-.04.02c-.15-.17-.29-.27-.44-.31-.15-.04-.3-.02-.45.05-.13.06-.23.14-.3.25-.07.11-.11.25-.1.42,0,.17.05.36.15.57.08.17.17.31.29.42.11.1.24.16.38.18.14.02.29,0,.43-.07.12-.06.22-.13.29-.23.07-.1.13-.25.17-.46h.06c-.02.22-.08.4-.17.54-.09.14-.23.25-.41.32-.32.14-.62.14-.9-.02-.21-.12-.37-.3-.47-.53-.09-.19-.12-.39-.11-.59.01-.2.08-.38.19-.53.11-.16.26-.27.43-.35.14-.06.29-.09.46-.08.05,0,.08,0,.1,0,.03-.01.04-.03.05-.06.01-.04.02-.08,0-.13l.05-.02Z"/>
  <path class="st0" d="M27.38,17.27l.02.05-.85.29-.02-.05.07-.02c.08-.03.13-.07.16-.13.01-.04,0-.12-.04-.24l-.44-1.29c-.03-.1-.06-.17-.09-.19-.02-.02-.05-.04-.08-.04-.05,0-.1,0-.15.01l-.07.02-.02-.05.85-.29.02.05-.07.02c-.08.03-.13.07-.15.13-.01.04,0,.12.04.24l.44,1.29c.03.1.06.17.09.19.02.02.05.04.08.04.05,0,.1,0,.15-.01l.07-.02Z"/>
  <path class="st0" d="M27.65,16.12s.04,0,.05-.01c.01,0,.03,0,.03,0,.2-.05.33-.12.41-.23.08-.11.1-.23.07-.36-.03-.13-.1-.22-.2-.28-.1-.06-.22-.08-.35-.04-.06.01-.14.04-.23.09l.2.85ZM29.36,16.83l-.55.13-.92-.79c-.05.01-.09.03-.12.03-.01,0-.03,0-.04.01-.02,0-.03,0-.05,0l.14.6c.03.13.06.21.1.23.05.04.11.04.19.02l.08-.02v.06s-.86.21-.86.21v-.06s.06-.02.06-.02c.09-.02.14-.06.17-.13.01-.04,0-.11-.02-.23l-.32-1.32c-.03-.13-.06-.21-.1-.23-.05-.03-.11-.04-.19-.02l-.08.02v-.06s.73-.18.73-.18c.22-.05.38-.07.49-.07.11,0,.21.04.31.11.09.07.15.16.18.28.03.13.02.25-.04.36-.06.11-.17.21-.33.29l.56.49c.13.11.23.18.31.21.08.03.18.03.29.02v.06Z"/>
  <path class="st0" d="M30.41,14.67v-.06s.74-.08.74-.08v.06s-.07,0-.07,0c-.08,0-.14.05-.18.12-.02.03-.02.11,0,.23l.09.85c.02.21.02.38-.01.5-.03.12-.1.23-.22.32-.11.1-.28.15-.49.18-.23.02-.41,0-.53-.06-.13-.07-.22-.16-.29-.29-.04-.09-.08-.26-.1-.51l-.09-.82c-.01-.13-.04-.21-.08-.25-.04-.04-.1-.05-.18-.04h-.08s0-.05,0-.05l.91-.09v.06s-.07,0-.07,0c-.09,0-.15.04-.18.1-.02.04-.03.12-.01.24l.1.91c0,.08.03.17.05.28.03.1.06.18.11.24.05.05.11.1.18.13.08.03.17.04.28.03.14-.01.26-.06.36-.13.1-.07.17-.16.2-.25.03-.1.03-.26.01-.48l-.09-.85c-.01-.13-.04-.21-.07-.24-.04-.04-.11-.06-.19-.05h-.08Z"/>
  <path class="st0" d="M31.5,14.61v-.06h.9s0,.06,0,.06h-.08c-.09,0-.15.03-.19.08-.02.03-.04.11-.04.24v1.03c0,.16-.02.29-.05.39-.03.1-.09.18-.18.26-.08.07-.19.11-.31.11-.1,0-.17-.02-.23-.07-.06-.05-.08-.1-.08-.17,0-.05.01-.09.04-.11.03-.03.07-.05.12-.05.03,0,.06.01.09.03.03.02.06.08.1.17.02.06.05.08.09.08.03,0,.05-.02.08-.05.02-.03.04-.09.04-.18v-1.44c0-.11,0-.18-.02-.21-.01-.03-.03-.05-.07-.07-.04-.03-.09-.04-.14-.04h-.08Z"/>
  <path class="st0" d="M33.71,15.95l-.27-.88-.45.81.72.07ZM33.74,16.07l-.81-.08-.18.32c-.04.08-.07.14-.07.18,0,.03,0,.06.04.09.03.03.09.05.19.07v.06s-.67-.07-.67-.07v-.06c.09,0,.15-.02.18-.04.06-.04.13-.14.21-.28l.91-1.65h.05s.55,1.82.55,1.82c.04.15.09.24.13.29.04.05.11.08.19.09v.06s-.83-.08-.83-.08v-.06c.09,0,.15,0,.18-.03.03-.02.05-.05.05-.08,0-.05,0-.12-.04-.22l-.1-.31Z"/>
  <path class="st0" d="M34.75,14.76l.56.14.88,1.84.29-1.18c.03-.13.04-.21.01-.25-.03-.05-.08-.09-.16-.11l-.07-.02v-.06s.73.17.73.17v.06s-.09-.02-.09-.02c-.09-.02-.15-.01-.2.03-.03.03-.06.1-.09.21l-.42,1.73h-.05s-.95-1.99-.95-1.99l-.31,1.26c-.03.13-.04.21-.02.25.03.05.08.09.16.11l.07.02v.06s-.73-.17-.73-.17v-.06s.08.02.08.02c.09.02.16.01.2-.03.03-.03.06-.1.09-.21l.35-1.43c-.04-.08-.08-.14-.1-.17-.03-.03-.07-.06-.12-.09-.03-.02-.07-.03-.13-.05v-.06Z"/>
  <path class="st0" d="M38.11,15.81c-.18-.07-.34-.06-.5.03-.2.11-.36.32-.48.63-.13.32-.15.59-.09.82.05.17.17.29.34.36.18.07.36.06.54-.04.18-.1.33-.3.45-.61.13-.34.16-.61.1-.83-.05-.17-.18-.3-.36-.37M38.18,15.71c.25.1.44.28.55.55.11.27.11.55,0,.83-.12.3-.31.51-.57.63-.27.12-.53.13-.8.03-.27-.11-.46-.29-.57-.56-.11-.26-.1-.55.02-.85.12-.31.33-.52.62-.64.25-.1.5-.1.76,0"/>
  <path class="st0" d="M40.55,16.86l-.35.64-.05-.03c.05-.13.07-.25.07-.34s-.03-.19-.09-.27-.12-.15-.21-.2c-.09-.05-.19-.06-.28-.04-.09.02-.16.07-.2.15-.03.06-.04.12-.02.19.02.1.1.26.25.49.12.19.2.32.24.41.04.08.05.17.05.26,0,.09-.02.17-.06.24-.08.14-.2.23-.36.27-.16.04-.33.02-.5-.08-.05-.03-.1-.06-.15-.09-.03-.02-.08-.07-.15-.15-.07-.08-.12-.12-.15-.14-.02-.01-.04-.02-.07,0-.02,0-.05.03-.08.07l-.05-.03.34-.64.05.03c-.05.15-.07.26-.07.35,0,.09.04.18.09.26.06.09.14.16.24.21.11.06.22.08.32.06.1-.02.17-.08.21-.16.02-.05.04-.1.04-.16,0-.06-.02-.12-.05-.19-.02-.05-.09-.16-.2-.33-.11-.17-.18-.31-.22-.4-.04-.09-.06-.18-.06-.26s.02-.16.06-.24c.07-.13.18-.22.34-.26.15-.04.31-.02.47.07.1.05.19.13.27.24.04.05.07.08.09.09.02.01.05.02.07.01.02,0,.05-.03.08-.07l.05.03Z"/>
  <path class="st0" d="M40.76,19.38c.09.1.16.18.24.24.19.15.4.2.63.17.23-.04.43-.17.61-.4.18-.23.26-.46.23-.69s-.13-.42-.33-.57c-.07-.06-.17-.11-.28-.16l-1.1,1.42ZM40.19,19.14l.04-.05.06.05c.07.05.14.07.2.05.04-.01.09-.07.17-.16l.83-1.08c.08-.1.12-.18.12-.22,0-.06-.04-.12-.1-.16l-.06-.05.04-.05.68.53c.25.19.42.37.5.52.09.16.12.33.09.53-.02.19-.1.38-.23.55-.18.23-.4.37-.66.42-.29.05-.6-.05-.93-.3l-.74-.58Z"/>
  <path class="st0" d="M43.67,19.43l-.59.59.33.33c.09.08.16.13.21.13.07,0,.15-.03.24-.11l.04.04-.52.52-.04-.04c.06-.08.1-.14.11-.17.01-.04.01-.08,0-.13-.02-.04-.05-.1-.12-.16l-.33-.33-.49.49c-.07.07-.1.11-.11.13,0,.02,0,.04,0,.06,0,.02.03.06.07.1l.25.25c.08.08.15.14.2.17.05.03.11.04.18.04.09,0,.21-.02.35-.07l.04.04-.5.25-1.15-1.15.04-.04.05.05s.08.06.13.07c.04.01.07.01.1,0,.03-.02.08-.06.16-.13l.97-.97c.09-.09.14-.16.15-.2,0-.06-.03-.11-.09-.18l-.05-.05.04-.04,1.15,1.15-.31.34-.04-.04c.06-.09.1-.16.11-.21.01-.05,0-.1-.02-.15-.02-.04-.06-.1-.14-.17l-.41-.41Z"/>
  <path class="st0" d="M44.67,20.25l.35.45-.45,1.99.96-.75c.1-.08.16-.14.16-.18.01-.06,0-.12-.06-.18l-.04-.06.05-.04.45.58-.05.04-.05-.06c-.06-.07-.11-.1-.18-.1-.04,0-.11.04-.2.11l-1.4,1.09-.03-.04.48-2.14-1.02.8c-.1.08-.16.14-.17.18-.01.06.01.12.06.18l.05.06-.04.04-.45-.58.05-.04.05.06c.06.07.12.1.18.1.04,0,.11-.04.2-.11l1.16-.9c.02-.09.03-.16.03-.2,0-.04-.01-.09-.04-.15-.01-.03-.04-.07-.07-.12l.05-.04Z"/>
  <path class="st0" d="M47.07,23.71l-.41.27-.03-.05c.07-.05.11-.1.14-.14.03-.06.05-.12.05-.18,0-.06-.03-.13-.07-.2l-.15-.26-1.38.82c-.11.07-.17.12-.19.16-.02.06,0,.12.04.19l.04.06-.05.03-.46-.77.05-.03.04.06c.05.08.1.12.17.12.04,0,.11-.03.21-.09l1.38-.82-.13-.22c-.05-.08-.09-.14-.13-.17-.04-.04-.1-.06-.17-.06-.07,0-.14.01-.23.06l-.03-.05.44-.23.88,1.48Z"/>
  <path class="st0" d="M45.67,25.57l-.05.03-.39-.81.05-.02.03.07c.04.08.09.12.15.14.04,0,.12-.02.23-.07l1.23-.59c.1-.05.16-.08.18-.11.02-.02.03-.05.03-.09,0-.05,0-.1-.03-.15l-.03-.07.05-.03.39.81-.05.03-.03-.07c-.04-.08-.09-.12-.15-.14-.04,0-.12.01-.23.07l-1.23.59c-.1.05-.16.08-.18.11-.02.02-.03.05-.03.09,0,.05,0,.1.03.14l.03.07Z"/>
  <path class="st0" d="M48.13,26.07l-.68.26-.02-.05c.12-.07.22-.14.28-.21.06-.08.1-.16.11-.26.01-.1,0-.2-.03-.28-.04-.1-.1-.17-.19-.21-.09-.04-.17-.05-.25-.02-.06.02-.11.07-.14.13-.05.09-.09.27-.12.54-.03.22-.05.38-.08.46-.03.09-.07.16-.13.23-.06.06-.13.11-.2.14-.15.06-.3.05-.45-.02-.15-.07-.26-.2-.33-.38-.02-.06-.04-.11-.05-.17,0-.03-.01-.1-.02-.21s-.01-.17-.02-.2c0-.02-.02-.04-.04-.05-.02,0-.05,0-.1,0l-.02-.05.67-.26.02.05c-.13.08-.22.15-.28.22s-.09.16-.1.26c-.01.1,0,.21.04.31.05.12.12.2.21.25.09.05.18.05.27.02.05-.02.09-.05.13-.1.04-.05.07-.1.09-.18.01-.05.04-.18.07-.38.03-.2.06-.35.09-.45.03-.09.07-.17.12-.23.05-.06.12-.11.2-.14.14-.05.28-.05.43.02.14.07.25.19.31.35.04.1.06.22.05.36,0,.06,0,.11,0,.13,0,.03.03.04.05.05.02.01.06.01.11,0l.02.05Z"/>
  <path class="st0" d="M48.68,28.17l-.47.15-.02-.06c.08-.03.14-.06.17-.09.05-.05.08-.1.1-.16.01-.06,0-.13-.01-.21l-.08-.29-1.56.41c-.13.03-.2.07-.22.1-.03.05-.04.11-.02.19l.02.07-.06.02-.23-.86h.06s.02.06.02.06c.02.09.07.14.13.16.04.01.11,0,.23-.03l1.56-.41-.07-.24c-.03-.09-.05-.16-.07-.2-.03-.05-.08-.08-.15-.1-.06-.02-.14-.03-.24,0l-.02-.06.48-.1.44,1.66Z"/>
  <path class="st0" d="M47.61,29.63l.79-.48-.9-.24.11.72ZM47.5,29.69l-.12-.81-.35-.09c-.09-.02-.15-.03-.19-.03-.03,0-.06.02-.08.06-.02.03-.03.1-.02.2h-.06s-.1-.65-.1-.65h.06c.03.08.06.13.08.15.06.05.17.09.33.13l1.83.47v.05s-1.62.99-1.62.99c-.13.08-.21.15-.25.2-.03.05-.05.12-.04.21h-.06s-.12-.81-.12-.81h.06c.02.07.04.13.07.15.03.03.06.04.09.03.04,0,.11-.04.2-.09l.28-.17Z"/>
  <path class="st0" d="M49.09,31.8l-.73.02v-.06c.14-.02.25-.06.33-.11.08-.05.15-.12.19-.21.05-.09.07-.18.06-.28,0-.11-.04-.2-.11-.26-.07-.07-.14-.1-.23-.1-.06,0-.12.03-.17.07-.08.07-.18.22-.3.47-.1.2-.18.34-.23.41-.05.07-.12.13-.19.17-.08.04-.16.06-.24.07-.16,0-.3-.05-.42-.17s-.18-.28-.19-.47c0-.06,0-.12,0-.17,0-.03.02-.1.05-.2.03-.1.04-.17.04-.19,0-.03,0-.05-.03-.06-.02-.01-.05-.02-.1-.03v-.06s.72-.02.72-.02v.06c-.15.03-.26.07-.33.12-.07.05-.13.12-.18.21-.05.09-.07.2-.07.31,0,.13.04.23.11.3.07.07.15.11.25.11.05,0,.1-.02.16-.05.05-.03.1-.08.14-.14.03-.04.09-.15.19-.34.1-.18.17-.31.23-.39.06-.08.12-.14.19-.18.07-.04.15-.06.24-.07.15,0,.28.05.4.16.11.11.17.26.18.44,0,.11-.02.23-.07.36-.02.06-.04.1-.04.12,0,.03,0,.05.03.07.02.02.05.03.1.04v.06Z"/>
  <path class="st0" d="M47.01,33.25c-.05.13-.07.23-.09.32-.03.24.03.45.17.63.15.18.36.29.65.32.29.04.53-.01.71-.15.19-.14.3-.33.33-.57.01-.09.01-.2,0-.32l-1.78-.23ZM46.94,32.63h.06s-.01.09-.01.09c-.01.09,0,.15.06.2.03.03.11.05.22.06l1.35.18c.13.02.21.01.25-.01.05-.03.08-.09.09-.17v-.08s.07,0,.07,0l-.11.85c-.04.31-.11.55-.2.7-.09.15-.23.27-.41.35-.18.08-.38.1-.59.07-.29-.04-.52-.16-.69-.36-.19-.23-.26-.54-.21-.95l.12-.93Z"/>
  <path class="st0" d="M48.44,35.79l-.81-.21-.12.45c-.03.12-.03.2,0,.25.03.06.11.11.22.15v.06s-.72-.19-.72-.19l.02-.06c.1.01.17.01.2,0,.04,0,.07-.03.11-.07.03-.04.06-.1.08-.18l.12-.45-.67-.18c-.09-.02-.15-.03-.17-.03-.02,0-.04.01-.06.03-.02.02-.03.05-.05.11l-.09.35c-.03.11-.04.2-.04.26,0,.06.02.11.06.18.05.08.12.17.23.26l-.02.06-.47-.31.41-1.57h.06s-.02.09-.02.09c-.01.05-.01.1,0,.15,0,.04.03.06.06.08.03.02.09.04.19.07l1.32.35c.13.03.21.04.25.02.05-.03.09-.08.11-.17l.02-.07h.06s-.41,1.59-.41,1.59l-.45-.09.02-.06c.11,0,.19,0,.24-.01.05-.02.09-.05.12-.09.03-.04.05-.1.08-.21l.15-.56Z"/>
  <path class="st0" d="M47.26,39.53l-.67-.25.02-.04c.22.03.4,0,.54-.06.13-.07.24-.18.3-.33.06-.13.08-.26.06-.39-.02-.13-.09-.26-.2-.38-.12-.12-.28-.23-.49-.32-.17-.08-.34-.12-.49-.12-.15,0-.29.04-.41.12-.12.08-.21.2-.27.34-.06.12-.08.25-.07.37.01.12.07.27.18.46l-.05.03c-.13-.17-.2-.34-.23-.51-.02-.16,0-.33.08-.51.14-.32.37-.51.68-.58.23-.05.47-.03.71.08.19.09.35.21.47.36.12.16.19.33.22.52.02.19,0,.37-.09.55-.06.14-.16.26-.29.37-.04.03-.06.05-.07.07-.01.03-.01.05,0,.08.01.04.04.07.08.1l-.02.05Z"/>
  <path class="st0" d="M45.93,39.8l-.51.83.51.32c.09.06.16.09.19.09.03,0,.06,0,.09-.02.04-.03.08-.06.11-.1l.04-.06.05.03-.47.77-.05-.03.04-.06s.04-.09.04-.14c0-.04,0-.07-.03-.1-.02-.03-.08-.07-.17-.12l-1.16-.71c-.09-.06-.15-.09-.19-.09-.03,0-.06,0-.09.02-.04.03-.08.06-.11.1l-.04.06-.05-.03.47-.77.05.03-.04.06c-.05.07-.06.14-.03.2.01.04.08.09.18.16l.55.34.51-.83-.55-.34c-.09-.06-.16-.09-.19-.09-.03,0-.06,0-.09.02-.04.03-.08.06-.11.1l-.04.06-.05-.03.47-.77.05.03-.04.06c-.05.07-.06.14-.03.2.02.04.08.09.18.16l1.16.71c.09.06.16.09.19.09.03,0,.06,0,.09-.02.04-.03.08-.06.11-.1l.04-.06.05.03-.47.77-.05-.03.04-.07s.04-.09.04-.14c0-.04,0-.07-.03-.1-.02-.03-.08-.07-.17-.12l-.51-.32Z"/>
  <path class="st0" d="M43.65,41.24l-.05-.03.55-.72.05.03-.05.06c-.05.07-.07.14-.05.2.01.04.07.1.17.17l1.09.82c.09.06.15.1.18.11.03,0,.06,0,.09-.01.05-.02.09-.05.12-.09l.05-.06.05.03-.55.72-.05-.03.05-.06c.05-.07.07-.13.05-.2-.01-.04-.07-.1-.17-.18l-1.09-.82c-.09-.06-.15-.1-.18-.11-.03,0-.06,0-.09.01-.05.02-.09.05-.12.09l-.05.06Z"/>
  <path class="st0" d="M42.91,42.87l-.04.03-.3-.52,1.09-1.21.04.04-.05.06c-.06.07-.08.13-.06.2,0,.04.06.1.15.18l1.01.91c.1.09.17.13.21.13.06,0,.12-.03.17-.09l.05-.06.04.04-.64.71-.04-.04c.08-.08.12-.15.13-.2.01-.05.01-.09,0-.12-.01-.04-.07-.09-.16-.18l-.98-.89c-.06-.06-.11-.09-.15-.1-.02,0-.05,0-.07.01-.02.01-.08.07-.17.17l-.1.11c-.11.12-.18.21-.2.28-.03.06-.03.14-.03.22,0,.08.04.18.1.31"/>
  <path class="st0" d="M43.37,44.35l-.55-.62-.35.31c-.09.08-.14.15-.14.2,0,.07.02.15.1.25l-.04.04-.49-.55.04-.04c.08.07.13.11.16.12.04.01.08.02.13,0,.05-.01.1-.05.17-.11l.35-.31-.46-.52c-.06-.07-.1-.11-.12-.12-.02,0-.04-.01-.06,0-.02,0-.06.03-.1.06l-.27.24c-.09.08-.15.14-.18.19-.03.05-.05.11-.05.18,0,.09,0,.21.04.35l-.05.04-.21-.52,1.22-1.08.04.04-.06.05s-.06.07-.08.12c-.01.03-.01.07,0,.1.01.03.05.09.12.16l.91,1.03c.09.1.15.15.19.16.06,0,.12-.02.18-.08l.06-.05.04.04-1.22,1.08-.32-.33.05-.04c.09.07.16.11.21.12.05.01.1.01.15,0,.04-.02.1-.06.18-.13l.43-.38Z"/>
  <path class="st0" d="M40.17,45.31l.76.53-.15-.92-.61.39ZM40.07,45.23l.69-.44-.06-.36c-.01-.09-.03-.15-.05-.18-.02-.03-.05-.04-.08-.05-.04,0-.1.02-.19.07l-.03-.05.56-.36.03.05c-.07.06-.1.11-.11.14-.02.07-.01.19.02.35l.31,1.86-.05.03-1.56-1.08c-.13-.09-.22-.14-.28-.14-.06,0-.13,0-.21.05l-.03-.05.7-.45.03.05c-.07.05-.11.09-.12.13-.01.04,0,.07,0,.1.02.04.08.09.17.15l.27.19Z"/>
  <path class="st0" d="M38.93,45.41s-.09.03-.13.01-.08-.04-.1-.09c-.02-.04-.03-.09-.01-.13.01-.05.04-.08.08-.1.04-.02.09-.03.13-.01.05.01.08.04.1.08.02.04.03.09.01.13-.01.04-.04.08-.09.1"/>
  <path class="st0" d="M37.65,48.01l-.3-.59.05-.02c.11.13.23.22.34.27.16.06.33.06.52-.02.25-.1.4-.28.45-.53.04-.21.01-.43-.08-.66-.08-.19-.18-.34-.32-.46s-.28-.2-.42-.22c-.15-.02-.28-.01-.4.04-.07.03-.14.07-.2.11-.06.05-.11.1-.16.16l.23.56c.04.1.07.16.1.18.03.02.06.04.1.04.04,0,.1-.01.17-.04l.02.05-.75.31-.02-.05.04-.02c.07-.03.12-.08.12-.14,0-.04-.01-.12-.06-.22l-.24-.6c.09-.1.18-.19.27-.27s.21-.14.34-.19c.38-.16.71-.15,1.01,0,.22.12.38.3.48.54.07.17.1.35.08.54-.02.23-.1.43-.23.6-.11.14-.26.25-.45.33-.07.03-.14.05-.2.06-.06.01-.16.02-.28.03-.06,0-.1,0-.12.01-.02,0-.03.02-.04.04,0,.02,0,.06.02.11l-.05.02Z"/>
  <path class="st0" d="M36.4,46.45s-.09.01-.13-.01c-.04-.02-.07-.06-.08-.1-.01-.05-.01-.09.01-.13.02-.04.06-.07.1-.08.05-.01.09-.01.13.01.04.02.07.06.08.1.01.05.01.09-.01.13-.02.04-.06.07-.1.08"/>
  <path class="st0" d="M57.69,32.67s.03.05.04.07c.13.19.13.19.32.07.31-.19.61-.38.92-.58.09-.06.14-.05.21.03.08.11.13.24.19.37.03.4-.1.74-.32,1.07-.23.35-.5.67-.77.98-.51.58-1.04,1.14-1.46,1.79-.28.43-.46.88-.54,1.39-.04.25,0,.41.24.52.01.01.02.03.03.04q.3.31.71.18c.31-.1.61-.2.93-.3.07.14-.07.27,0,.41-.09.23-.16.45-.27.67-.26.52-.68.91-1.1,1.28-.62.53-1.28,1.02-1.9,1.55-.56.49-1.02,1.06-1.17,1.82-.04.21-.05.21.14.27.04.01.09.02.14.02.63.05,1.26-.01,1.88-.07.03.16-.09.25-.08.37-.02.04-.05.08-.07.12-.29.58-.72,1.04-1.25,1.4-.45.3-.93.55-1.43.76-.39.17-.78.35-1.15.57-.67.4-1.19.91-1.49,1.65-.14.36-.16.36.22.5.39.17.79.24,1.21.26.05,0,.09,0,.14,0,.09,0,.12.04.07.12-.03.07-.07.13-.1.2-.24.21-.48.41-.75.57-.58.34-1.22.55-1.85.78-1.22.44-2.49.75-3.7,1.23-.39.15-.77.31-1.13.52.13.18.3.27.48.35.26.19.55.31.83.44.07.04.15.07.23.1q.23.11.19.36c-.16.21-.35.4-.6.47-.42.12-.85.13-1.27.06-.83-.14-1.64-.34-2.41-.68-.33-.14-.64-.13-.97-.02-.77.27-1.5.6-2.23.95-1.13.54-2.24,1.13-3.34,1.74-.51.28-1.05.53-1.53.86-.44.3-.47.21-.02.61.12.13.25.27.37.4.05.05.11.1.08.19-.24-.09-.5-.12-.77-.15.03.22.18.38.2.59-.09.03-.18.04-.26.02-.23-.04-.46-.04-.69-.08-.56-.1-1.07,0-1.5.41-.18.18-.18.17-.33-.05-.05-.07-.11-.12-.17-.19q-.2-.27-.02-.56c.04-.06.07-.13.11-.19.15-.19.28-.4.39-.68-.15.09-.25.13-.34.19-.11.07-.19.07-.29-.02-.39-.35-.81-.66-1.25-.94-.74-.47-1.48-.94-2.23-1.39-.94-.57-1.91-1.1-2.89-1.58-.36-.18-.73-.33-1.11-.45-.31-.09-.62-.12-.95,0-.98.37-1.98.71-2.97,1.06-.18.06-.34.07-.52.01-.4-.13-.82-.19-1.19-.38-.05-.02-.11-.02-.16-.03-.09-.08-.24-.09-.31-.22.05-.1.15-.14.23-.19.55-.38,1.1-.76,1.68-1.09.06-.03.1-.08.15-.12.17-.13.18-.13.05-.26-.08-.09-.16-.18-.26-.25-.8-.62-1.7-.94-2.71-.98-.77-.03-1.54-.05-2.31-.14-.45-.05-.9-.15-1.32-.33-.43-.18-.82-.44-1.19-.72-.11-.11-.16-.23-.15-.4.02-.18,0-.37,0-.58.27.06.51.16.76.22.35.08.7.09,1.05.08.15,0,.29-.07.42-.15.09-.06.16-.14.17-.25.02-.23.05-.46-.08-.68.02-.11-.03-.2-.09-.28-.19-.43-.5-.76-.9-1-.47-.29-.97-.54-1.48-.77-.73-.33-1.46-.64-2.16-1.03-.52-.29-.94-.68-1.3-1.14-.05-.09-.11-.19-.16-.29.12-.07.22-.04.33-.02.54.1,1.07.22,1.63.18.1,0,.2-.01.3-.02.38-.05.49-.19.48-.57,0-.05-.01-.09-.02-.14-.02-.17-.07-.33-.19-.45-.21-.21-.41-.43-.64-.62-.56-.45-1.16-.83-1.72-1.28-.48-.38-.95-.77-1.37-1.22-.24-.25-.45-.51-.66-.78h0s0-.09-.06-.11h0s0-.06-.04-.06c-.14-.32-.29-.62-.34-.97-.06-.43-.02-.47.38-.32.49.18.98.35,1.47.53.04.02.09.03.13.04.3.09.4.03.46-.27.04-.23.1-.46,0-.69.02-.08-.02-.15-.06-.21-.21-.39-.49-.72-.81-1.02-.42-.39-.86-.77-1.23-1.21-.18-.2-.34-.41-.51-.62,0-.05-.05-.07-.08-.1h0c-.03-.11-.07-.21-.16-.29h0s0-.08-.05-.11c-.28-.6-.42-1.24-.49-1.9,0-.06,0-.13,0-.19,0-.04.01-.07.02-.12.2,0,.36.08.53.16.54.24,1,.6,1.46.96-.01,0-.02,0-.03,0,0-.03.02-.03.04,0,.12.08.23,0,.4.03-.11-.12-.17-.18-.23-.25-.02-.03-.04-.06-.07-.09h0c-.19-.4-.14-.81-.04-1.22.06-.27.13-.54.16-.82.02-.2.02-.39-.03-.58-.07-.34-.21-.64-.46-.89-.39-.85-.77-1.71-.83-2.67-.02-.29-.03-.58-.04-.86,0-.17.07-.23.28-.32.14-.06.19.05.25.12.24.26.49.52.7.79.16.21.34.34.61.28.08-.02.17,0,.27-.03-.04-.17-.13-.32-.21-.47-.06-.12-.08-.22-.02-.34.26-.46.25-.96.22-1.47-.04-.85-.08-1.69-.13-2.54-.02-.43.07-.85.15-1.27.09-.49.21-.98.3-1.48.03-.14.08-.2.22-.18.03,0,.06,0,.08,0q.29,0,.34.3s0,.04.01.05c.01.28.08.56.12.84.03.21.11.4.26.56h0s0,.04.04.05c.12.17.3.24.49.29.14.04.2-.01.25-.14.2-.5.37-1.01.46-1.54.17-.93.36-1.86.61-2.77.22-.8.57-1.55,1.13-2.19.15-.17.32-.33.51-.48.13.1.06.27.15.38.05.47.08.94.07,1.41,0,.22,0,.22.26.18q.23,0,.59.26c.14-.19.25-.39.32-.61.17-.55.3-1.11.35-1.69.06-.7.13-1.4.37-2.06.23-.63.61-1.15,1.18-1.51.17-.11.33-.24.55-.31-.03.18-.05.33-.07.48,0,.04-.02.09-.02.14.01.55.14,1.08.43,1.55,0,0,0,.02,0,.02.01.03.03.05.04.08.01.02.02.05.04.07.02.03.04.07.06.1.21.39.52.7.87.96.33.26.72.45,1.11.57,0,.11-.08.15-.1.22-.03.02-.07.04-.09.06-.42.56-1,.87-1.64,1.1-.53.18-1.05.36-1.57.56-.52.2-1,.48-1.39.9-.23.25-.22.3.04.51.03.02.07.03.1.05.2.23.47.37.71.53.07.05.14.1.21.14.12.07.04.13,0,.2-.48.43-1.04.75-1.64.98-.27.1-.54.2-.81.31-.38.16-.74.35-1.05.62-.53.46-.7,1.1-.81,1.76-.01.07.01.11.09.11.06,0,.13,0,.2,0,.2.03.4.06.59.1.11.02.21.05.31.08.01.13-.11.18-.13.28-.03.03-.05.05-.08.08-.38.52-.83.97-1.25,1.46-.46.52-.91,1.06-1.24,1.68-.27.52-.4,1.06-.4,1.63,0,.1,0,.2.04.3.1,0,.17-.05.22-.12.21-.1.4-.24.59-.36.1-.06.19-.09.31-.05.09.04.2.05.3.07q.28.07.18.34c-.43.76-.85,1.53-1.28,2.29-.4.69-.7,1.41-.79,2.22-.04.35.04.68.12,1.02,0,.02.02.03.03.05.06.07.09.01.12-.03.22-.09.34-.31.52-.45.18-.15.36-.26.61-.15,0,.11-.09.21-.07.32-.19.48-.21.99-.26,1.5-.06.65,0,1.3-.07,1.95-.04.3-.05.61-.16.87-.18.39-.12.75.03,1.12.05.14.1.28.14.42.01.04.02.1.09.09.01-.04.02-.08.03-.13.12-.22.2-.45.29-.69.04-.12.1-.18.23-.17.17.01.33,0,.5,0,.12,0,.17.04.16.16,0,.07,0,.15,0,.22-.04.14-.05.29-.06.44-.02.34,0,.67,0,1,0,.75.12,1.48.35,2.19.04.12.04.23-.01.35-.1.21-.18.43-.27.64q-.12.28.14.47s.03.02.05.03c.06.07.12.14.19.21.24.23.46.48.65.76.04.06.06.14.17.15.08-.17.11-.36.14-.55.04-.27.16-.49.31-.7.14-.19.19-.2.34-.03.22.24.46.46.6.76.03.08.08.14.12.22.09.36.25.7.31,1.07.14.8.25,1.62.48,2.4.08.27.18.53.35.75h0c.02.05.04.09.06.13.11.24.3.43.47.63.05.06.1.12.18.03.01.03,0,.04-.02.02,0,0,0-.02,0-.03,0,0,0-.02.01-.02.06-.06.07-.13.01-.2-.09-.1-.12-.25-.24-.34-.2-.24-.16-.48-.02-.74.11-.19.17-.41.28-.6.05-.09.1-.11.2-.05.45.29.84.64,1.15,1.08.25.36.47.73.66,1.13,0,.03,0,.06.04.07h0s0,.09.06.11h0s-.02.1.06.11h0c.05.32.22.6.34.89,0,.02,0,.04,0,.06.06.13.08.29.21.39h0c.01.19.13.34.23.5.32.55.8.9,1.42,1.03.27.06.3.03.32-.25.03-.51-.07-1-.14-1.5-.04-.29-.06-.59-.08-.87.06-.05.1-.04.14-.01.65.4,1.37.67,2.04,1.03.13.07.26.15.4.2.37.14.62.39.78.76.05.21.09.41.15.62.07.24.13.47.29.67,0,.01.01.02.03.03h0c.07.11.18.18.29.26.8.58,1.67,1.04,2.55,1.5,1.18.61,2.4,1.15,3.52,1.88.77.5,1.46,1.09,2,1.85.08.11.13.12.24.04,1.52-1.1,3.2-1.9,4.87-2.73,1.17-.58,2.3-1.23,3.4-1.93.37-.24.57-.57.65-.99.04-.22.06-.44.15-.65.19-.42.56-.63.92-.86.54-.34,1.14-.55,1.72-.81.21-.09.42-.19.66-.3.01.16.02.29.03.42-.03.42-.14.81-.31,1.19-.12.27-.12.27.16.39.02.01.05.02.08.02.38.19.77.19,1.16.02.26-.11.5-.25.74-.4.08-.05.15-.09.09-.2-.2-.37-.1-.73.03-1.08.2-.57.56-1.05.92-1.52.4-.53.85-1.01,1.27-1.52.13-.15.21-.34.39-.51.02.18.03.32.04.47-.07.16-.07.33-.05.49.03.32.05.65.3.9.12.15.3.17.47.21.08.02.14-.03.19-.09.3-.44.67-.82,1.02-1.22.08-.09.08-.17.03-.27-.16-.32-.26-.66-.34-1-.13-.6.03-1.16.3-1.7.11-.21.23-.43.34-.64.21-.39.28-.8.1-1.27.22.05.41.13.56.26.27.24.58.44.81.72.02.03.05.05.08.08.34.29.4.29.62-.09.25-.43.47-.87.71-1.3.06-.12.07-.23.03-.35-.07-.22-.12-.45-.2-.67-.23-.68-.28-1.36-.18-2.07.06-.44.01-.89.02-1.34,0-.19,0-.39,0-.61.67.19,1.14.64,1.7.99.16-.36.34-.71.47-1.07.07-.06.06-.12,0-.19-.25-.29-.43-.62-.65-.93-.31-.7-.39-1.45-.46-2.2-.05-.57-.17-1.12-.42-1.64-.07-.14-.04-.17.13-.16.55.03,1.05.21,1.51.52.1.07.2.13.32.21.15-.29.25-.58.35-.87.11-.13-.02-.21-.07-.29-.7-1.04-1.41-2.08-2.11-3.12-.21-.31-.42-.64-.62-.95-.2-.24-.15-.45.04-.68.1-.13.17-.18.34-.12.58.18,1.16.33,1.74.5.18.05.2.04.24-.15.07-.33.05-.65-.05-.96.01-.08-.03-.14-.06-.21-.26-.53-.64-.96-1.08-1.33-.77-.66-1.61-1.24-2.34-1.95-.31-.38-.28-.26.02-.59.34-.37.74-.68,1.28-.7.13.02.26.04.4.07-.12-.23-.23-.45-.35-.66-.23-.4-.52-.74-.8-1.1-.06-.07-.12-.12-.24-.11-.73.1-1.42-.05-2.08-.37-.4-.2-.76-.46-1.13-.71q-.23-.28-.04-.58c.3-.46.72-.77,1.21-.99.08-.04.15-.07.23-.11.05,0,.11,0,.15-.04,0-.01,0-.02,0-.03-.41-.51-.83-1.03-1.24-1.54-.07-.09-.15-.09-.25-.06-.18.07-.37.13-.56.19-.56.17-1.11.21-1.65-.08-.11-.06-.21-.12-.31-.19-.39-.25-.78-.51-1.17-.77-.29-.2-.28-.19-.08-.5.26-.43.62-.7,1.11-.82.35-.09.58-.32.65-.69.12-.59.11-1.18.09-1.78,0-.28,0-.56,0-.87.31.13.58.27.82.48.38.33.65.73.86,1.18.18.64.31,1.3.47,1.95.07.31.15.63.35.9.04.09.06.19.14.25h0s.01.06.05.07h0s.01.09.06.11c.25.5.69.8,1.18,1.14,0-.67-.13-1.28-.13-1.92.22.07.4.15.56.27.35.25.57.6.75.98.13.47.28.94.34,1.43.04.36.1.72.21,1.06.1.32.14.66.38.91,0,.02.01.03.02.05,0,.02,0,.03.02.04.14.3.32.57.51.83.28.38.52.79.78,1.23.51-.54.58-1.18.56-1.87.13.06.19.15.26.24.21.26.37.55.53.84,0,.09.03.17.05.24.14.42.18.85.17,1.29-.02.59.01,1.19-.03,1.78-.04.6.07,1.2.18,1.79.09.52.27,1,.47,1.48.02.05.02.05.11.06.25-.33.53-.64.84-.95.1.13.08.28.13.4,0,.02-.02.04-.01.05.07.78-.09,1.53-.29,2.28-.1.37-.22.73-.3,1.1-.19.92-.36,1.84-.36,2.78,0,.23.05.42.21.57"/>
  <path class="st0" d="M17.84,11.72c-.11-.01-.18-.03-.17-.19.04-.5.21-.96.42-1.41.27-.6.64-1.14,1.11-1.6.3-.3.66-.52,1.08-.61.25-.05.27-.03.25.23,0,.05,0,.11,0,.17-.08.18-.08.38-.12.57-.14.63-.3,1.25-.65,1.8-.28.44-.64.76-1.15.92-.26.08-.51.09-.77.12"/>
  <path class="st0" d="M44.18,10.94c-.31-.72-.49-1.48-.7-2.23-.05-.17-.09-.34-.14-.51-.03-.09.01-.12.09-.13.06,0,.13,0,.19.02.69.11,1.18.51,1.57,1.06.19.27.33.56.48.85,0,.04,0,.07.04.08h0c0,.1.06.19.09.28.1.27.21.53.29.81.11.38.11.4-.26.56-.48.2-.99.22-1.38-.37-.04-.06-.06-.13-.14-.17h0c-.05-.08-.09-.17-.14-.25"/>
  <path class="st0" d="M6.02,28.89c.24.25.39.55.46.89-.16-.29-.33-.58-.46-.89"/>
  <path class="st0" d="M17.4,49.99c-.12-.29-.29-.57-.34-.89.05.01.08.05.1.09.09.23.18.47.27.7.01.04,0,.07-.02.1"/>
  <path class="st0" d="M14.64,47.99c.11.09.15.23.24.34.06.07.04.13-.01.2,0,0-.01.02-.01.02,0,0,0,.02,0,.03.02.01.03,0,.02-.02-.04-.15-.15-.27-.22-.41-.03-.05-.05-.1,0-.15"/>
  <path class="st0" d="M6.44,32.49c.06.07.12.13.23.25-.17-.03-.29.05-.4-.03-.02-.02-.03-.02-.04,0,0,0,.02,0,.03,0q.23.03.19-.23"/>
  <path class="st0" d="M17.85,50.94c-.1-.16-.22-.3-.23-.5.12.15.2.31.23.5"/>
  <path class="st0" d="M17.62,50.44c-.13-.1-.15-.26-.21-.39.17.08.18.24.21.39"/>
  <path class="st0" d="M13.42,48.43s.05-.02.08-.03c.06.08.11.17.09.28-.08-.07-.13-.15-.17-.25"/>
  <path class="st0" d="M4.8,33.92c.09.08.13.18.16.29-.14-.04-.14-.17-.16-.29"/>
  <path class="st0" d="M44.18,10.94l.14.26c-.12-.05-.09-.18-.14-.26"/>
  <path class="st0" d="M50.29,14.13s.02-.02.03-.02c.08.07.12.16.11.27-.08-.06-.11-.16-.14-.25"/>
  <path class="st0" d="M14.22,47.88s-.04-.08-.06-.13c.02.04.04.08.06.13"/>
  <path class="st0" d="M16.4,11.92s-.04-.07-.06-.1c.05.02.04.07.06.1"/>
  <path class="st0" d="M5.04,34.31s-.01.04-.02.06c-.06-.04-.08-.09-.06-.16.03.03.07.05.08.1"/>
  <polyline class="st0" points="37.03 13.19 37.04 13.2 37.03 13.19"/>
  <path class="st0" d="M17,48.99c-.06-.02-.06-.07-.06-.12.06.02.06.06.06.12"/>
  <path class="st0" d="M17.06,49.1c-.07-.01-.06-.07-.06-.12.06.02.07.06.06.12"/>
  <path class="st0" d="M5.54,39.07s.03.04.04.07c-.04,0-.04-.04-.04-.07"/>
  <path class="st0" d="M5.58,39.13c.05.02.06.07.06.11-.07-.01-.06-.07-.06-.11"/>
  <path class="st0" d="M4.75,33.81s.05.07.05.11c-.05-.02-.06-.07-.05-.11"/>
  <path class="st0" d="M50.54,14.56c-.05-.02-.06-.06-.06-.12.05.03.06.07.06.12"/>
  <path class="st0" d="M16.31,11.74s-.03-.05-.04-.08c.02.02.05.04.04.08"/>
  <path class="st0" d="M45.72,10.08s-.04-.05-.04-.08c.04.01.04.05.04.08"/>
  <path class="st0" d="M53.88,18.52s-.02-.02-.02-.04c.02,0,.03.02.02.04"/>
  <path class="st0" d="M8.64,20.26s-.04-.03-.04-.06c.03,0,.04.03.04.06"/>
  <polyline class="st0" points="23.19 52.64 23.19 52.64 23.19 52.64"/>
  <polyline class="st0" points="6.38 32.4 6.38 32.4 6.38 32.4"/>
  <path class="st0" d="M50.48,14.45s-.05-.04-.05-.07c.03.01.05.03.05.07"/>
  <path class="st0" d="M16.95,48.87s-.04-.04-.04-.07c.03.02.04.04.04.07"/>
  <path class="st0" d="M50.74,32.61c-.34,9.78-8.43,17.95-18.67,17.91-10.25.02-18.32-8.19-18.63-17.94-.17-5.37,1.63-10.02,5.4-13.84,3.43-3.48,7.64-5.33,12.52-5.51,5.41-.2,10.1,1.62,13.93,5.46,3.83,3.83,5.64,8.53,5.45,13.93M35.65,8.15s-.03.05-.05.06c-.04.02-.1.03-.22.03-.17,0-.3-.05-.41-.16-.02-.02-.03-.03-.05-.05-.07-.08-.08-.17-.05-.26.04-.1.14-.12.23-.11.15.01.29.07.41.15.11.07.17.25.13.34M51.34,30.41c-.07-.93-.21-1.85-.41-2.76-.26-1.18-.62-2.32-1.1-3.43-.67-1.54-1.53-2.96-2.57-4.28-.68-.87-1.43-1.68-2.25-2.41-.99-.89-2.07-1.68-3.23-2.35-1.09-.64-2.23-1.17-3.43-1.56-.44-.15-.89-.28-1.33-.42,0,0,0,0,0,0-.04-.01-.08-.03-.11-.04-.09,0-.16-.01-.09-.12.17-.28.3-.57.43-.87.37-.88.36-1.77.09-2.67-.11-.38-.24-.77-.45-1.1-.46-.71-1.07-1.18-1.95-1.22-.17,0-.33-.03-.49-.09-.25-.09-.51-.1-.77-.07-.13.01-.23.08-.34.12h0s-.03.08-.05.12c-.04.1-.04.18.08.22.27.11.46.35.74.43.05.01.08.05.05.11-.02.05-.07.06-.12.05-.1-.02-.19-.07-.27-.13-.15-.11-.3-.22-.47-.3-.05.26.04.54.24.78.14.16.31.29.48.42.54.44,1.11.85,1.58,1.36.11.12.2.24.27.38.11.26.09.49-.06.74-.25.43-.58.77-.92,1.11-.21.21-.45.36-.77.24,0,0-.03,0-.03,0,0,.03.03.02.04.03-.3-.07-.61-.05-.92-.09-.12-.02-.24,0-.36-.05-.29.04-.58.01-.86.02-.36,0-.73.01-1.09.01-.07.02-.14.02-.21,0-.05.03-.1.04-.16.04-1.47.09-2.9.39-4.3.82-1.69.52-3.28,1.28-4.76,2.26-1.28.85-2.45,1.82-3.5,2.94-.93,1-1.76,2.08-2.47,3.24-.87,1.42-1.53,2.94-1.99,4.54-.35,1.22-.59,2.46-.71,3.73-.08.87-.09,1.75-.05,2.63.04,1.14.21,2.26.46,3.37.31,1.36.75,2.67,1.35,3.93.73,1.55,1.67,2.97,2.77,4.28.74.87,1.54,1.67,2.43,2.39,1.32,1.08,2.75,1.98,4.3,2.69,1.37.62,2.8,1.08,4.28,1.36.48.09.97.17,1.46.25.07-.02.17-.06.14.08-.04.16-.09.32-.14.48-.08.25-.07.5.05.73.15.27.24.56.35.85.26.7.6,1.36.96,2.01.09-.02.05-.09.06-.14.04-.81-.08-1.59-.32-2.37-.15-.48-.1-.95.03-1.43.03-.1.07-.14.18-.12.2.05.41-.06.61.02.08-.03.16-.03.24-.01.54-.04,1.08-.02,1.62-.07,1.44-.12,2.84-.39,4.22-.82,2.26-.7,4.31-1.8,6.17-3.26,1.16-.91,2.21-1.95,3.13-3.1,1.39-1.75,2.48-3.67,3.2-5.8.85-2.51,1.19-5.09.98-7.74"/>
  <path class="st0" d="M45.13,28.75c-.05-.55-.23-1.05-.42-1.56-.34-.94-.71-1.86-1.27-2.7-.36-.53-.68-1.1-1.11-1.57-.61-.67-1.25-1.33-1.97-1.89-1.34-1.04-2.8-1.83-4.42-2.33-.72-.22-1.46-.36-2.21-.46-.33-.04-.66-.1-1-.05-.02-.01-.03-.01-.05,0-.06-.06-.14-.03-.21-.04-.46-.01-.93,0-1.39.05-.2-.01-.32,0-.33.21-.01.4.08.78.23,1.14.17.4.39.78.65,1.13.56.77,1.14,1.52,1.7,2.29.48.65,1.01,1.35,1.33,2.1.23.53.4,1.08.47,1.66.07.63.03,1.26-.13,1.88-.02.1-.07.19-.04.32h9.93c.06,0,.11,0,.17,0,.15,0,.11-.09.08-.17M28.11,18.73c-.27.05-.5.19-.76.28-1.1.37-2.08.95-3.02,1.62-.35.25-.71.49-1.02.78-.52.48-1,1.01-1.49,1.51-.02.02-.04.04-.06.06-.58.8-1.18,1.58-1.61,2.48-.49,1.04-.91,2.1-1.13,3.23-.04.2-.03.21.19.22.03,0,.06,0,.08,0,3.85,0,7.71,0,11.56,0,.6,0,1.3,0,1.89-.02.02-.04.05-.08.06-.12.08-.35.1-.71.06-1.06-.1-.9-.49-1.69-1.07-2.39-.6-.73-1.36-1.4-1.97-2.12-.43-.51-.87-1.02-1.13-1.65-.26-.62-.38-1.26-.31-1.93.03-.33.02-.67.08-1-.15-.03-.25.05-.37.08M32.06,29.56h-13.43c-.44,0-.44,0-.34-.42.13-.6.25-1.2.44-1.79.27-.87.62-1.7,1.04-2.5.36-.69.82-1.31,1.26-1.94.39-.57.92-1,1.38-1.5.74-.78,1.62-1.37,2.51-1.95.76-.48,1.59-.82,2.42-1.14.97-.38,1.98-.58,3.01-.72.71-.09,1.43-.12,2.15-.1,1.72.05,3.38.42,4.97,1.08,1.15.48,2.17,1.15,3.17,1.87.62.45,1.13,1,1.66,1.54,1.15,1.17,2.01,2.53,2.65,4.04.33.79.62,1.6.8,2.44.07.31.11.62.17.93.02.13-.02.17-.14.17-.1,0-.2,0-.31,0h-13.41"/>
  <path class="st0" d="M34.13,45.24c.78-.12,1.56-.29,2.3-.55,1.16-.4,2.24-.96,3.25-1.65.84-.58,1.6-1.25,2.28-2,.73-.81,1.35-1.68,1.86-2.64.57-1.08,1.02-2.21,1.27-3.42.08-.4.09-.36-.3-.36-4.54,0-9.08,0-13.62,0-.07,0-.15-.02-.22.03-.03.06-.01.12,0,.19.06.42.26.77.5,1.11.4.58.9,1.06,1.38,1.57.32.35.62.72.88,1.11.28.41.47.87.7,1.3.25.46.37.94.39,1.46.03.98-.17,1.92-.46,2.85-.1.32-.22.63-.32.95-.04.13.03.09.1.05M31.62,45.39c.1.02.21.02.32,0,.14.05.2-.02.23-.15.05-.25.11-.49.15-.74.13-.69.31-1.37.36-2.08.07-1.09-.29-2.04-.91-2.89-.59-.81-1.29-1.54-1.91-2.33-.55-.7-.97-1.45-1.13-2.34-.04-.22-.05-.22-.29-.21-.05,0-.09-.01-.14-.01-3.01,0-6.02,0-9.04,0-.05,0-.09,0-.14,0-.08,0-.12.04-.11.12,0,.06,0,.11.02.17.19.67.35,1.35.61,2,.25.59.49,1.2.82,1.74.65,1.07,1.38,2.07,2.28,2.95.48.47,1,.89,1.55,1.28.39.28.79.56,1.21.79.61.34,1.24.64,1.9.89.93.35,1.89.58,2.87.7.36.05.72.13,1.08.07.08.05.17.07.26.04M31.97,33.98c4.3,0,8.6,0,12.9,0,.31,0,.61,0,.92-.02.16-.01.19.02.15.17-.15.57-.23,1.15-.38,1.72-.3,1.09-.76,2.12-1.3,3.12-.32.59-.71,1.13-1.12,1.67-.47.62-.99,1.21-1.57,1.74-1.2,1.09-2.55,1.93-4.03,2.57-1.21.53-2.47.84-3.77,1-.95.12-1.92.11-2.87.05-.74-.05-1.48-.18-2.21-.35-1.14-.27-2.2-.73-3.24-1.27-.87-.45-1.64-1.04-2.41-1.61-.34-.25-.6-.58-.9-.88-.08-.08-.15-.17-.23-.24-.65-.59-1.11-1.32-1.6-2.04-.59-.87-1.01-1.83-1.38-2.8-.29-.76-.5-1.54-.63-2.34,0,0,0-.02,0-.03q-.07-.43.38-.43h13.29"/>
  <path class="st0" d="M31.3,30.69c-.06.07-.12.04-.17.05-.12.03-.19.1-.19.24,0,.65,0,1.31,0,1.96,0,.23.19.21.38.28h-1.39c.04-.06.1-.04.15-.06.12-.04.19-.11.19-.24,0-.26,0-.52,0-.78,0-.09-.04-.13-.13-.13-.24,0-.48,0-.73,0-.09,0-.13.04-.13.14,0,.24,0,.48,0,.73,0,.22.03.25.24.31.02,0,.04,0,.06,0,.02,0,.04.01.03.04h-1.33s.04-.04.07-.05c.24-.07.25-.07.25-.32,0-.58,0-1.16,0-1.73,0-.34-.01-.35-.35-.44h1.38c-.01.07-.06.05-.09.06-.23.04-.27.08-.27.31,0,.21,0,.41,0,.62,0,.14.05.18.18.17.21,0,.43,0,.64,0,.12,0,.17-.04.16-.16,0-.21,0-.41,0-.62,0-.25-.03-.28-.29-.32-.02,0-.06.01-.07-.04h1.39Z"/>
  <path class="st0" d="M39.03,32.63c-.02.15-.06.29-.07.44,0,.14-.08.17-.2.16-.29,0-.58,0-.87,0h-1.29c0-.06.04-.05.07-.06.24-.06.25-.07.25-.32,0-.58,0-1.16,0-1.73,0-.34-.01-.35-.34-.41.04-.07.1-.04.15-.04.64,0,1.29,0,1.93,0,.2,0,.2,0,.2.2,0,.18,0,.36,0,.55-.13,0-.11-.1-.13-.15-.08-.24-.26-.37-.49-.41-.2-.03-.44-.09-.6.01-.13.08-.03.33-.05.5-.01.15,0,.3,0,.46.45.07.53-.25.65-.54v1.27c-.14-.28-.2-.62-.65-.54,0,.28,0,.56,0,.84,0,.12.05.21.17.21.2,0,.41.03.61-.03.27-.08.45-.25.56-.5.02.03.05.06.07.09"/>
  <path class="st0" d="M36.1,32.33c-.03.25-.07.5-.09.75-.01.14-.08.16-.2.16-.74,0-1.47,0-2.21,0,0-.08.06-.05.1-.06.2-.07.22-.07.22-.29,0-.58,0-1.16,0-1.73,0-.36,0-.37-.35-.47h1.47q-.45.13-.45.59c0,.49,0,.99,0,1.48,0,.27.04.3.31.31.7.03.81-.04,1.11-.69.01-.02.02-.05.1-.05"/>
  <path class="st0" d="M27.62,32.7c.04.11.02.17-.04.23-.61.57-1.9.43-2.32-.29-.43-.74-.01-1.58.68-1.87.39-.17.79-.18,1.2-.05.09.03.18.05.27.07.13.03.19-.07.28-.22v.9c-.1,0-.09-.07-.11-.13-.19-.39-.52-.59-.95-.55-.38.03-.68.32-.78.73-.07.31-.06.61.01.91.15.62.75.87,1.35.57.15-.07.27-.19.41-.31"/>
  <path class="st0" d="M33.11,30.68c-.02.07-.07.05-.1.06-.21.04-.25.08-.26.29,0,.2,0,.41,0,.61v1.06q0,.39.35.52h-1.35s.03-.04.05-.05c.27-.07.27-.07.27-.33,0-.57,0-1.14,0-1.71,0-.36,0-.36-.35-.46h1.38Z"/>
  <path class="st0" d="M39.03,32.63s-.05-.06-.07-.09c0-.05.04-.11.06-.09.07.05.04.12,0,.18"/>
  <path class="st0" d="M31.89,1.03c-.25,0-.5,0-.75,0-5.33.11-10.39,1.59-15.05,4.39-4.68,2.82-8.4,6.64-11.07,11.38-2.96,5.24-4.28,10.91-3.94,16.85.48,8.32,3.79,15.4,9.83,21.04,6.12,5.71,13.6,8.51,22.2,8.33,8.52-.41,15.74-3.69,21.47-9.75,2.77-2.94,4.89-6.24,6.29-9.8,1.39-3.52,2.12-7.43,2.17-11.6-.13-8.56-3.29-15.99-9.4-22.07C47.52,3.98,40.2,1.03,31.89,1.03M32.34,64.05c-8.56,0-15.99-2.9-22.13-8.61C3.97,49.62.55,42.31.05,33.71c-.35-6.14,1.02-11.99,4.07-17.41,2.76-4.89,6.61-8.84,11.44-11.75C20.37,1.65,25.61.12,31.12,0c8.9-.19,16.72,2.86,23.25,9.05,6.31,6.3,9.58,13.96,9.71,22.8h0c-.11,8.65-3.06,16.09-8.75,22.11-5.91,6.26-13.37,9.65-22.18,10.07-.27,0-.54,0-.81,0"/>
  <path class="st0" d="M30.95,25.29l.14,4.04h1.64v-1.11s-.26-1.21-.78-1.93c-.52-.72-.99-1.01-.99-1.01"/>
  <path class="st0" d="M32.72,21.63v-3.96h-1.88l.03.88s.1.46.32.86c.39.71,1.54,2.22,1.54,2.22"/>
  <path class="st0" d="M32.32,36.21v-1.92s-1.16-.18-1.16-.18l.03.61s.19.44.46.77c.25.31.67.72.67.72"/>
  <path class="st0" d="M31.21,39.62l.11,6.04h.97l.03-4.36s-.22-.71-.5-1.04c-.28-.33-.6-.65-.6-.65"/>
  <path class="st0" d="M32.16,51.55l-.32,6.13-.22-.07-.13-6.06c.29.09.67,0,.67,0"/>
  <path class="st0" d="M33.54,6c0-.97-.81-1.76-1.79-1.72-.91.03-1.66.81-1.66,1.72,0,.44.17.85.45,1.15.17.19.25.43.26.68l.12,4.94h1.79l.12-4.94c0-.26.11-.51.29-.71.26-.3.42-.69.42-1.12"/>
</svg>