<?xml version="1.0" encoding="UTF-8"?>
<svg id="Capa_1" xmlns="http://www.w3.org/2000/svg" version="1.1" viewBox="0 0 84.92 31.22">
  <!-- Generator: Adobe Illustrator 30.2.1, SVG Export Plug-In . SVG Version: 2.1.1 Build 1)  -->
  <defs>
    <style>
      .st0 {
        fill: #fff;
      }
    </style>
  </defs>
  <path class="st0" d="M44.18,13.04v-3.64h4.09c1.19,0,2.61.3,2.61,1.76v.06c0,1.21-.98,1.82-2.9,1.82h-3.8ZM49.16,21.19h-4.98v-3.82h4.84c1.98,0,2.98.63,2.98,1.88v.06c0,1.25-.95,1.88-2.84,1.88M53.66,14.78c1.54-1.04,2.29-2.45,2.29-4.31v-.06c0-1.47-.49-2.67-1.48-3.67-1.23-1.23-3.15-1.88-5.53-1.88h-9.73v20.87h9.96c5.02,0,7.91-2.14,7.91-5.87v-.06c0-2.4-1.06-3.97-3.42-5.03"/>
  <path class="st0" d="M79.62,15.3v.06c0,3.42-2.33,5.72-5.79,5.72h-3.13v-11.56h3.13c3.47,0,5.79,2.32,5.79,5.78M73.83,4.86h-8.23v20.87h8.23c3.13,0,5.97-1.07,8-3.01,2-1.91,3.1-4.55,3.1-7.42v-.06c0-6.01-4.67-10.37-11.09-10.37"/>
  <path class="st0" d="M61.03,4.83c1.41,0,2.55,1.14,2.55,2.54v18.36h-5.1V4.83h2.55Z"/>
  <path class="st0" d="M24.86,12.41c-.73-.03-.86.41.24.64,1.55.33.49-.61-.24-.64M22.57,10.69c-2.19-.71-.75,1.04.29,1.16,1.04.12,1.26-.66-.29-1.16M16.11,9.1c-.64.34.51,1.82,3.43,1.9,2.93.08-.85-3.25-3.43-1.9M21.73,30.56c.92-1.71,2.92-4.2,7.21-9.22,6.41-7.51-12.58-4.99-15.84-10.68C10.43,5.97,20.4,2.61,26.43,0c3.92,2.58,6.76,6.75,7.49,11.74,1.25,8.54-4.09,16.52-12.19,18.82M17.92,18.45c-2.69,4.34,5.95,4.41,1.95,12.53-.12.02-.23.04-.35.06C10.2,32.4,1.54,25.96.18,16.67c-.65-4.41.47-8.67,2.8-12.08-.43,9.81,17.45,9.8,14.93,13.86"/>
</svg>