<?xml version="1.0" encoding="UTF-8"?>
<svg id="Capa_1" xmlns="http://www.w3.org/2000/svg" version="1.1" viewBox="0 0 92.76 55.42">
  <!-- Generator: Adobe Illustrator 30.2.1, SVG Export Plug-In . SVG Version: 2.1.1 Build 1)  -->
  <defs>
    <style>
      .st0 {
        fill: #fff;
      }
    </style>
  </defs>
  <path class="st0" d="M81.28,15.78c.54-.56,1.57-1.52,2.55-2.33.61-.51,3.55.11,2.9.95-.78,1.01-3.25,2.35-4.15,2.85-.87.49-2.48-.25-1.3-1.47"/>
  <path class="st0" d="M54.06,17.69c2.38-.55,3.36,2.28.02,2.52-1.4.1-2.49.04-2.49.04.35-1.3,1.25-2.27,2.47-2.56M38.64,35.09c-2.86,2-8.28,3.8-13.58,4.72-3.34.58-7.16.47-9.59-1.12-5.58-3.66-6.25-13.24-6.25-16.77,0-3.75.82-11.23,12.19-11.9,12.13-.71,16.26,3.69,17.35,10.06l-3.45-.2c-.37-1.13-1.16-2.37-1.89-3.24-1.62-1.87-4.36-3.1-7.98-3.11-10.6-.05-11.72,7.35-11.48,10.97.25,3.77,1.43,8.55,5.33,10.12,1.6.64,4.3.83,6.1.78,5.83-.2,11.03-2.14,13.95-5.59,1.2-1.41,1.85-4.51,1.85-6.66,0-.51.05-.69,0-1.22.52.02,1.9.07,1.9.07.02,4.52-.47,10.3-4.46,13.09M33.33,21.77c.4,2.39-1.05,5.69-5.63,5.13-4.95-.61-3.79-4.99-.74-5.17,2.63-.16,5.51,0,6.37.04M26.79,32.67c-1.65.09-4.41.17-6.28-.66-2.89-1.29-4.05-4.85-4.04-8.11,0-3.68,2.22-8.28,8.66-8.29,5.96,0,7.53,3.45,7.81,4.1-.89-.1-5.23-.52-7.5-.33-1.73.15-4.63.81-4.63,4.34s3.23,7.06,9.96,5.58c1.63-.36,5.09-1.55,4.98-7.49,1.24.06,1.91.06,3.28.11.83,7.74-5.17,10.39-12.24,10.75M92.3,24.39c-2.62-.47-3.69-1.77-3.88-2.9-.45-2.6.5-3.84-.32-3.83-.82,0-2.19.54-2.28,1.31-.43,3.66-2.01,5.8-4.31,5.79-2.5,0-2.93-3.31-2.44-5.43.35-1.5-.99-1.16-2.11-.68-.41.17-.71.42-.85,1.04-.3,1.27-.7,3.24-2.47,4.34-1.7,1.05-3.79.77-3.85-3.37-.08-4.71-4.8-2.58-6.32-2.1-1.52.48-2.32.26-2.28,1.74.1,3.73-2.69,4.89-4.89,5.01-3.09.17-4.61-2.08-4.61-2.96,2.77.08,4.47-.18,5.66-1.28,1.58-1.45,1.05-4.63-2.74-4.93-3.78-.3-5.84,2.44-6.02,4.06-1.31-.03-1.6-.03-2.99-.07-.33-5.59-1.89-11.61-4.83-15.29C37.81,1.29,31.09.04,24.15,0c-4.2,0-9.17.46-12.71,1.44-3.54,1-6.36,2.41-8.36,5.44C-.34,12.1-.23,18.31.24,26.25c.61,9.86,2.94,19.68,5.83,28.69.3.92,1.29.3,2.04-.19.75-.5,1.25-.77,1-1.44-3.3-8.48-5.94-20.82-6.34-27.07-.39-5.98-.35-14.74,2.69-18.39C9.68,2.77,19.88,2.24,23.92,2.24c6.69-.05,11.79,1.19,14.41,3.8,2.85,2.84,4.42,8.75,4.76,14-.59-.02-1.6-.03-2.19-.05-.13-1.51-.59-3.82-1.38-5.43-1.35-2.69-3.27-4.49-6.26-5.58-2.83-1.04-6.67-1.46-10.95-1.47-4.99.01-10.38,1.49-13.33,5.27-1.89,2.47-2.61,5.38-2.62,9.38,0,3.78.52,8.16,1.99,11.53,1.47,3.36,3.75,6.77,6.72,8.13,1.75.79,4.29,1.16,6.21,1.06,6.23-.31,18.25-3.44,21.49-8.21,3.46-5.11,2.91-12.37,2.91-12.48,1.37.04,2.13,0,2.96,0,.14,1.86,1.94,5.3,6.97,5.3s6.63-4.22,6.89-5.38c.22-1,1.42-1.62,2.99-1.8,1.99-.24.36,1.81,2.99,4.91,2.4,2.83,5.3.75,5.84.32,1.11-.88,2.2-2.9,2.39-3.82.05,2.91,1.43,4.69,4.42,4.99,3.04.31,5.13-2.02,5.78-3.16,1.79,2.94,4.05,3.64,4.66,3.4.62-.24,1.86-2.37.73-2.57"/>
</svg>