<?xml version="1.0" encoding="UTF-8"?>
<svg id="Capa_1" xmlns="http://www.w3.org/2000/svg" version="1.1" viewBox="0 0 119.9 35.84">
  <!-- Generator: Adobe Illustrator 30.2.1, SVG Export Plug-In . SVG Version: 2.1.1 Build 1)  -->
  <defs>
    <style>
      .st0 {
        fill: #fff;
      }
    </style>
  </defs>
  <path class="st0" d="M0,27.79V0h43.54l-16.28,27.78H0ZM.52.52v26.74h26.43S42.62.52,42.62.52H.52Z"/>
  <path class="st0" d="M.52,35.84h26.92v-6.35H.52v6.35ZM15.77,34.75l-.47-2.09-.84,2.09h-1.56l-.81-2.08-.42,2.08h-2.16l1.02-4.19,2.36.04.79,2.01.76-2.05h2.28l1.13,4.19h-2.11ZM21.74,31.89h-1.16v2.92l-2.13-.06v-2.86h-1.25v-1.33h4.54v1.33ZM24.43,34.81c-1.83,0-2.62-.54-2.62-.54l.7-1.01s.87.48,1.27.48.76-.09.8-.34c.04-.29-2.57-.08-2.57-1.55,0-1.15.97-1.63,2.19-1.63s2.22.56,2.22.56l-.58,1.05-1.09-.36s-.77-.2-.77.26c0,.32.73.22.73.22,1.89,0,1.95.98,1.95,1.35s-.4,1.51-2.22,1.51"/>
  <path class="st0" d="M45.69.29l-15.67,27.27h5.72l3.62-6.39h9.79v6.39h5.6V.29h-9.06ZM49.14,16.85h-7.21s5.96-10.56,5.96-10.56h1.25v10.56Z"/>
  <polygon class="st0" points="64.94 .29 58.18 .29 58.18 9.82 64.94 9.82 64.94 8.36 60.2 8.36 60.2 5.68 64.22 5.68 64.22 4.25 60.2 4.25 60.2 1.69 64.94 1.69 64.94 .29"/>
  <rect class="st0" x="66.63" y=".29" width="1.91" height="9.54"/>
  <path class="st0" d="M72.27,12.92c-1.73-.67-6.47-.74-6.47-.74,0,0-9.57-.2-9.57,7.71,0,7.18,4.99,8.02,6.62,8.02s3.82-.24,5.61-2.8c1.05,6.97-2.52,8.11-10.05,5.63l.38,3.34s3.4.89,7,.89,6.85-1.27,6.85-5.48-.39-16.57-.39-16.57M64.44,24.84c-4.66,0-4.04-4.47-4.04-4.47,0-5.15,5.01-5.6,7.87-4.8,0,3.13.83,9.27-3.83,9.27"/>
  <path class="st0" d="M90.15,12.38h-4.17v8.78s-.09,3.47-3.61,3.47c-3.73,0-3.61-3.47-3.61-3.47v-8.78h-4.11v11.12s.4,4.56,6.05,4.56c4.64,0,5.27-2.74,5.27-2.74v2.23h4.17v-15.17Z"/>
  <rect class="st0" x="92.47" y="7.44" width="4.59" height="2.38"/>
  <rect class="st0" x="92.47" y="12.38" width="4.59" height="15.17"/>
  <rect class="st0" x="99.47" y="7.44" width="4.29" height="20.11"/>
  <path class="st0" d="M106.91,13.12s2.27-.95,6.48-.95,6.52,1.02,6.52,3.55v11.83h-4.21v-7.69c-1.46,1.45-6.44,1.12-6.44,3.88s5.05,1.54,5.05,1.54l-.48,2.48s-8.68,1.89-8.68-4.22,10.2-3.67,10.2-7.2-8.59-.52-8.59-.52l.16-2.7Z"/>
  <path class="st0" d="M21.19,7.3c-.43,0-.77-.35-.77-.77s.35-.77.77-.77.77.35.77.77-.35.77-.77.77ZM21.19,6.02c-.28,0-.51.23-.51.51s.23.51.51.51.51-.23.51-.51-.23-.51-.51-.51Z"/>
  <path class="st0" d="M20.81,8.17c-.22,0-.44-.03-.68-.09-1.73-.67-1.99-2.55-2.01-2.63v-.08s.05-.05.05-.05c.05-.04,1.27-.94,2.1-.95h0c.35,0,.8.25,1.37.56.86.47,1.93,1.06,3.11,1.06l.02.26s-.61.11-1.38-.08c-.15.85-.59,1.24-.61,1.26-.04.04-.89.74-1.99.74ZM18.4,5.49c.07.35.43,1.8,1.81,2.34.3.08.59.09.86.06-.7-.06-1.25-.65-1.25-1.36,0-.47.24-.88.6-1.13-.36.16-.69.37-.72.56-.07.43.16.95.16.95l.35.79-.57-.65c-.06-.07-.6-.69-.6-1.15v-.03c.24-1.08,1.79-.92,1.86-.92l.31.03c-.38-.2-.7-.35-.92-.35h0c-.65,0-1.63.67-1.88.86ZM21.19,5.42c-.61,0-1.11.5-1.11,1.11s.5,1.11,1.11,1.11,1.11-.5,1.11-1.11-.5-1.11-1.11-1.11ZM21.98,5.41c.35.25.58.66.58,1.12,0,.43-.2.81-.51,1.06.35-.17.57-.36.58-.36,0,0,.44-.39.55-1.24v-.03c-.42-.16-.83-.35-1.2-.55ZM19.3,5.91c0,.11.06.24.13.38-.01-.12-.01-.25,0-.38.04-.26.35-.49.66-.65-.35.08-.7.25-.8.65ZM21.19,5.16c.18,0,.35.03.5.09-.05-.03-.11-.06-.16-.09-.06-.03-.11-.06-.16-.09l-.29.09s.08,0,.12,0Z"/>
  <path class="st0" d="M27.29,9.33c-.06,0-.12-.02-.15-.1-.09-.18.11-.35.23-.45l.04-.03c.4-.35.97-.44.99-.45.1,0,.56-.04.73.2.05.08.09.21,0,.4-.24.48-.79.35-1.09.28-.07-.02-.13-.03-.17-.04-.09,0-.21.05-.31.1-.08.04-.18.08-.26.08ZM27.85,8.88s.02,0,.04,0c.05,0,.13.02.21.04.35.08.66.13.79-.14.02-.04.04-.1.02-.13-.06-.08-.31-.1-.48-.09h0s-.5.09-.85.38c.08-.03.18-.06.26-.06Z"/>
  <path class="st0" d="M19.57,5.93c.08-.48,1.32-.85,1.32-.85,0,0-1.5-.16-1.71.81,0,.42.57,1.06.57,1.06,0,0-.25-.55-.17-1.03"/>
  <path class="st0" d="M21.19,7.76c.68,0,1.24-.55,1.24-1.24s-.55-1.24-1.24-1.24-1.24.55-1.24,1.24.55,1.24,1.24,1.24M21.19,5.88c.35,0,.64.29.64.64s-.29.64-.64.64-.64-.29-.64-.64.29-.64.64-.64"/>
  <path class="st0" d="M30.73,14.01c-.27-.16-1.69-.72-2.5-1.22-.81-.5-.85-1.08-1.77-1.26-.33-.07-1.2-.24-2.17-.44-1.74-.35-3.16-.78-3.83-.77.41.27,1.11.22,1.98.51.56.18,1.02.38,1.04.57.04.47-1.37,1.15-1.37,1.15,0,0,4,.71,5.12.97,1.12.27,4.06,1.25,4.06,1.25,0,0-.29-.6-.56-.75"/>
  <path class="st0" d="M33.57,12.46c0-2.48-2.34-4.35-2.34-4.35,0,0-.69.08-.77.15-.09.07-.16.25-.16.25l-.28.69s2.64.65,2.32,4.07c-1.11-3.1-3.3-3.29-3.55-3.25-.25.04-1.28.85-1.68.8-.37-.05-3.25-.72-6.23-.85-.16,0-.39.04-.39.04.05.02.15.02.36.08,1.58.42,5.36,1.02,5.95,1.28.66.29,1.95,1.42,1.95,1.42,0,0,2.17.81,2.67,1.56.74,1.02.08,2.83.08,2.83,0,0,2.09-2.71,2.09-4.72"/>
  <path class="st0" d="M28.1,6.77c-.62,0-1.06.67-1.06.67l-.34-.19s.76-1.03,1.19-.98c.43.05.78.28,1.3.6,0,0,.13-.82-.81-1.84-.94-1.02-4.65-3.68-13.17-3.68S4.31,9.9,4.31,9.9c0,0,1.09-1.53,2.7-2.44-4.72,6.91-4.45,11.5-4.45,11.5,0,0,.61-1.58,1.91-3.07-1.89,4.65-1.52,7.06-1.52,7.06,0,0,1.86-4.25,3.25-5.71-.94,5.96.03,8.14.03,8.14,0,0,1.36-2.96,2.86-5.14-1.33,3.38-.54,4.57-.54,4.57,0,0,.76-1.89,2.03-3.46-.86,2.35-.4,4.05-.4,4.05,0,0,.94-.6,1.47-2.09-.15,1.48-.06,2.52-.06,2.52,0,0,.69.66,2.97-2.37-.16,1.16-.12,2.21-.12,2.21,0,0,.86-1.04,1.37-4.66.37,1.3-.31,3.77-.31,3.77,0,0,1.04-.36,1.92-3.29-.07,2.07,1.27,2.98,1.27,2.98,0,0-.76-2.09.19-4.56-.3,2.73.72,4.65.72,4.65,0,0,.8-.86,1.59-3.73-.61,3.04,2.37,6.09,2.37,6.09,0,0-.7-2.07-.69-3.58.27.92,1.46,3.58,1.46,3.58,0,0-.89-9.37-.39-10.74.51-1.37,2.67-2.49,2.67-2.49,0,0-5.16-.75-5.2-.93-.04-.18,1.49-.99,1.49-1.36s-2.8-.54-2.8-1.19,1.33-.63,1.33-.63c.89,0,5.63.88,5.63.88,1.45-.82,1.73-.6,2.29-1.04.57-.44.73-1.38.73-1.38,0,0,.07-.22.7-.2-.29-.14-2.05-1.07-2.67-1.07M9.45,11.54s-.62.75-.79,1c-.18.25-1.24,1.42-1.42,1.99-.18.58-.37,1.58-.46,1.57-.09,0,.33-3.07.79-3.73.46-.66,1.45-1.67,2.03-1.89.58-.22,2.58-.18,2.58-.18l.16.42s-2.38.45-2.88.8M15.86,15.86c-.22.16-2.57,4.67-2.94,4.66-.37,0,1.61-3.06,1.42-3.26-.13-.13-1.29.86-1.29.86,0,0-.34.3-.52.46-.18.16-.46,1.07-.56,1.03-.1-.04.18-.77.18-.77,0,0,.28-.51.43-.68s.32-.56.32-.56l1.81-1.37s.3-.34.42-.48c.12-.14,1.64-.59,1.61-.44-.03.15-.66.38-.88.54M21.25,15.19s1.45-.39,2.01-.76c.56-.38.88-.78.88-.78l.92-.03c-.36.2-.97.8-.97.8,0,0-.47.77-.68.99-.21.23-.52.67-.67.83-.15.17-.04.82-.12,1.27-.08.45.19,1.48.24,1.77.05.29.05,1.6.08,1.82.03.22.37.64.38.75.01.12-.11.23-.46.14-.35-.09-.28-1-.28-1l-.51-.91.03-1.51c-.3-.48-.04-2.02-.04-2.02-.03-.28-1.63,1.27-1.73,1.59-.1.32-.8,3.38-.8,3.38,0,0-.2-1.91-.17-2.17.03-.25.35-1.11.35-1.11,0,0,0-.55.26-1.04.26-.49.89-1.13.89-1.13,0,0-2.35.27-2.74.65-.21.23-.09.31-.13.41-.04.1-.97,1.71-.97,1.71l.13-.81c.41-.51.52-1.44,1.14-2.09.56-.43,2.96-.74,2.96-.74M23.31,6.01c-.12.91-.59,1.32-.59,1.32,0,0-1.18,1-2.55.62-1.66-.65-1.91-2.52-1.91-2.52,0,0,1.23-.92,2.03-.93s2.5,1.62,4.48,1.62c0,0-.65.12-1.46-.12M29.01,8.85c-.24.49-.89.19-1.13.17-.24-.02-.56.26-.62.16-.05-.11.14-.24.23-.32.38-.33.93-.42.93-.42,0,0,.83-.07.59.41"/>
</svg>