<?xml version="1.0" encoding="UTF-8"?>
<svg id="Capa_1" xmlns="http://www.w3.org/2000/svg" version="1.1" viewBox="0 0 166.58 37.67">
  <!-- Generator: Adobe Illustrator 30.2.1, SVG Export Plug-In . SVG Version: 2.1.1 Build 1)  -->
  <defs>
    <style>
      .st0 {
        fill: #fff;
      }
    </style>
  </defs>
  <path class="st0" d="M47.35,9.01c.03-.06.08-.12.15-.17.07-.05.14-.07.23-.07h1.53c.07,0,.14.02.21.07.07.05.12.1.15.17l3.2,7.45c.03.07.02.13-.02.21-.04.07-.12.11-.24.11h-1.87c-.08,0-.16-.02-.23-.07s-.12-.1-.16-.17l-.3-.66c-.04-.07-.09-.12-.16-.17-.07-.05-.14-.07-.21-.07h-2.31c-.08,0-.16.02-.23.07-.07.05-.12.1-.15.17l-.31.66c-.03.07-.08.12-.15.17s-.14.07-.21.07h-1.88s-.08,0-.11-.02c-.04-.02-.07-.04-.1-.07-.03-.03-.04-.07-.05-.11,0-.04,0-.1.03-.15l3.18-7.42ZM47.99,13.78h.98c.07,0,.13-.02.16-.07s.03-.1,0-.17c-.07-.18-.16-.4-.26-.64-.1-.24-.2-.47-.28-.69-.03-.07-.06-.1-.1-.1s-.07.03-.1.1l-.55,1.33c-.03.07-.03.12,0,.17.03.05.08.07.16.07Z" data-v-35978371=""/>
  <path class="st0" d="M53.6,16.52v-7.49c0-.07.03-.13.08-.19.05-.05.11-.08.19-.08h2.99c1.15,0,2.09.34,2.82,1.01.39.36.69.8.9,1.3.2.5.31,1.07.31,1.7s-.1,1.2-.31,1.7c-.2.51-.5.94-.9,1.31-.36.33-.78.58-1.25.75-.47.17-.99.25-1.56.25h-2.99c-.07,0-.13-.03-.19-.08-.05-.05-.08-.11-.08-.19ZM56.03,14.76h.82c.2,0,.42-.03.64-.08s.42-.15.59-.29c.18-.14.32-.34.43-.6.11-.26.17-.6.17-1.01s-.06-.75-.17-1.01c-.11-.26-.26-.46-.44-.6-.18-.14-.38-.24-.59-.29-.21-.05-.43-.08-.63-.08h-.82c-.07,0-.13.03-.19.08-.05.05-.08.11-.08.19v3.44c0,.07.03.13.08.19.05.05.11.08.18.08Z" data-v-35978371=""/>
  <path class="st0" d="M64.22,16.54l-3.31-7.46c-.04-.08-.04-.15,0-.22.03-.07.1-.1.19-.1h1.79c.07,0,.14.02.21.07.07.05.12.1.16.17l1.93,4.4c.04.07.08.1.14.1s.11-.03.14-.1l1.92-4.4c.04-.07.09-.12.16-.17.07-.05.14-.07.21-.07h1.82c.08,0,.14.03.18.09.04.06.04.12.01.18l-3.34,7.51c-.04.07-.09.12-.16.17-.07.05-.14.07-.21.07h-1.46c-.07,0-.14-.02-.21-.07-.07-.05-.12-.1-.16-.17Z" data-v-35978371=""/>
  <path class="st0" d="M72.8,11.04v.46c0,.07.03.13.08.19.05.05.11.08.19.08h2.97c.07,0,.13.03.19.08.05.05.08.11.08.19v1.51c0,.07-.03.13-.08.19-.05.05-.11.08-.19.08h-2.97c-.07,0-.13.03-.19.08-.05.05-.08.11-.08.19v.42c0,.07.03.13.08.19s.11.08.19.08h3.41c.07,0,.13.03.19.08.05.05.08.11.08.19v1.51c0,.07-.03.13-.08.19-.05.05-.11.08-.19.08h-5.58c-.07,0-.13-.03-.19-.08-.05-.05-.08-.11-.08-.19v-7.49c0-.07.03-.13.08-.19.05-.05.11-.08.19-.08h5.58c.07,0,.13.03.19.08.05.05.08.11.08.19v1.49c0,.07-.03.13-.08.19-.05.05-.11.08-.19.08h-3.41c-.07,0-.13.03-.19.08-.05.05-.08.11-.08.19Z" data-v-35978371=""/>
  <path class="st0" d="M85.66,9.02v7.49c0,.07-.03.13-.08.19-.05.05-.11.08-.19.08h-1.62c-.07,0-.15-.02-.23-.07s-.14-.1-.19-.15l-2.85-4.02c-.04-.06-.09-.08-.14-.07-.05.01-.07.05-.07.13v3.92c0,.07-.03.13-.08.19-.05.05-.11.08-.19.08h-1.64c-.07,0-.14-.03-.19-.08-.05-.05-.08-.11-.08-.19v-7.49c0-.07.03-.13.08-.19.05-.05.11-.08.19-.08h1.64c.07,0,.15.02.23.06.08.04.14.09.19.15l2.85,4.02c.04.06.09.08.14.08s.07-.05.07-.12v-3.92c0-.07.03-.13.08-.19.05-.05.11-.08.19-.08h1.62c.07,0,.13.03.19.08.05.05.08.11.08.19Z" data-v-35978371=""/>
  <path class="st0" d="M92.67,10.77h-1.53c-.07,0-.13.03-.19.08-.05.05-.08.11-.08.19v5.48c0,.07-.02.13-.07.19-.05.05-.11.08-.19.08h-1.64c-.07,0-.13-.03-.19-.08-.05-.05-.08-.11-.08-.19v-5.48c0-.07-.02-.13-.07-.19-.05-.05-.11-.08-.19-.08h-1.55c-.07,0-.13-.03-.19-.08-.05-.05-.08-.11-.08-.19v-1.49c0-.07.03-.13.08-.19.05-.05.11-.08.19-.08h5.78c.08,0,.14.03.19.08.05.05.07.11.07.19v1.49c0,.07-.02.13-.07.19-.05.05-.11.08-.19.08Z" data-v-35978371=""/>
  <path class="st0" d="M93.78,9.03c0-.07.03-.13.08-.19s.11-.08.19-.08h1.65c.07,0,.13.03.19.08s.08.11.08.19v4.44c0,.28.05.52.14.71.09.19.21.33.34.44.14.11.28.18.43.23.15.04.29.06.42.06s.26-.02.42-.06c.15-.04.3-.12.43-.23.13-.11.24-.25.34-.44.09-.19.14-.42.14-.71v-4.44c0-.07.03-.13.08-.19.05-.05.11-.08.19-.08h1.65c.07,0,.13.03.19.08s.08.11.08.19v4.44c0,.52-.08.99-.25,1.41-.16.42-.4.79-.71,1.08-.31.3-.68.53-1.1.7-.43.16-.91.25-1.43.25s-1-.08-1.43-.25c-.43-.16-.8-.4-1.1-.7-.31-.3-.54-.66-.71-1.08-.17-.42-.25-.9-.25-1.41v-4.44h0Z" data-v-35978371=""/>
  <path class="st0" d="M104.33,16.78h-1.64c-.07,0-.14-.03-.19-.08-.05-.05-.08-.11-.08-.19v-7.49c0-.07.03-.13.08-.19.05-.05.11-.08.19-.08h3.41c.42,0,.81.07,1.17.21.36.14.66.34.92.6.25.26.45.56.59.91.14.35.21.74.21,1.16,0,.23-.03.47-.08.7s-.13.45-.24.65c-.1.2-.22.39-.36.55-.14.16-.29.3-.47.41-.06.04-.1.1-.11.16-.02.06,0,.12.04.18.28.36.57.74.88,1.13s.58.74.82,1.06c.04.06.05.12.03.19-.02.07-.07.1-.14.1h-2.04c-.07,0-.15-.02-.24-.06-.08-.04-.15-.09-.19-.15-.23-.31-.46-.62-.69-.93-.23-.31-.46-.63-.68-.95-.04-.06-.11-.11-.19-.15-.08-.04-.16-.06-.23-.06h-.24c-.07,0-.13.03-.19.08-.05.05-.08.11-.08.19v1.77c0,.07-.03.13-.08.19-.05.05-.12.08-.19.08ZM104.85,12.46h1.16c.09,0,.18-.02.27-.05.09-.03.18-.08.26-.15.08-.07.14-.16.2-.26s.08-.22.08-.36c0-.07-.01-.16-.04-.26-.03-.1-.07-.19-.13-.28-.06-.09-.14-.17-.25-.23-.11-.06-.23-.09-.39-.09h-1.16c-.07,0-.13.03-.19.08s-.08.11-.08.19v1.16c0,.07.03.13.08.19.05.05.11.08.18.08Z" data-v-35978371=""/>
  <path class="st0" d="M112.46,11.04v.46c0,.07.03.13.08.19.05.05.11.08.19.08h2.97c.07,0,.13.03.19.08.05.05.08.11.08.19v1.51c0,.07-.03.13-.08.19-.05.05-.11.08-.19.08h-2.97c-.07,0-.13.03-.19.08-.05.05-.08.11-.08.19v.42c0,.07.03.13.08.19s.11.08.19.08h3.41c.07,0,.13.03.19.08.05.05.08.11.08.19v1.51c0,.07-.03.13-.08.19-.05.05-.11.08-.19.08h-5.58c-.07,0-.13-.03-.19-.08-.05-.05-.08-.11-.08-.19v-7.49c0-.07.03-.13.08-.19.05-.05.11-.08.19-.08h5.58c.07,0,.13.03.19.08.05.05.08.11.08.19v1.49c0,.07-.03.13-.08.19-.05.05-.11.08-.19.08h-3.41c-.07,0-.13.03-.19.08-.05.05-.08.11-.08.19Z" data-v-35978371=""/>
  <path class="st0" d="M127.24,10.77h-1.53c-.07,0-.13.03-.19.08-.05.05-.08.11-.08.19v5.48c0,.07-.02.13-.07.19-.05.05-.11.08-.19.08h-1.64c-.07,0-.13-.03-.19-.08-.05-.05-.08-.11-.08-.19v-5.48c0-.07-.02-.13-.07-.19-.05-.05-.11-.08-.19-.08h-1.55c-.07,0-.13-.03-.19-.08-.05-.05-.08-.11-.08-.19v-1.49c0-.07.03-.13.08-.19.05-.05.11-.08.19-.08h5.78c.08,0,.14.03.19.08.05.05.07.11.07.19v1.49c0,.07-.02.13-.07.19-.05.05-.11.08-.19.08Z" data-v-35978371=""/>
  <path class="st0" d="M130.26,16.78h-1.64c-.07,0-.14-.03-.19-.08-.05-.05-.08-.11-.08-.19v-7.49c0-.07.03-.13.08-.19.05-.05.11-.08.19-.08h3.41c.42,0,.81.07,1.17.21.36.14.66.34.92.6s.45.56.59.91c.14.35.21.74.21,1.16,0,.23-.03.47-.08.7s-.13.45-.24.65c-.1.2-.22.39-.36.55-.14.16-.29.3-.47.41-.06.04-.1.1-.12.16-.02.06,0,.12.04.18.28.36.57.74.88,1.13s.58.74.82,1.06c.04.06.05.12.03.19-.02.07-.07.1-.14.1h-2.04c-.07,0-.15-.02-.24-.06-.08-.04-.15-.09-.19-.15-.23-.31-.46-.62-.69-.93-.23-.31-.46-.63-.68-.95-.04-.06-.11-.11-.19-.15-.08-.04-.16-.06-.23-.06h-.24c-.07,0-.13.03-.19.08-.05.05-.08.11-.08.19v1.77c0,.07-.03.13-.08.19-.05.05-.11.08-.19.08ZM130.78,12.46h1.16c.09,0,.18-.02.27-.05.09-.03.18-.08.26-.15.08-.07.14-.16.2-.26s.08-.22.08-.36c0-.07-.01-.16-.04-.26-.03-.1-.07-.19-.13-.28-.06-.09-.14-.17-.25-.23-.11-.06-.23-.09-.39-.09h-1.16c-.07,0-.13.03-.19.08-.05.05-.08.11-.08.19v1.16c0,.07.03.13.08.19.05.05.11.08.18.08Z" data-v-35978371=""/>
  <path class="st0" d="M138.76,9.01c.03-.06.08-.12.15-.17.07-.05.14-.07.23-.07h1.53c.07,0,.14.02.21.07.07.05.12.1.15.17l3.2,7.45c.03.07.02.13-.02.21s-.12.11-.24.11h-1.87c-.08,0-.16-.02-.23-.07-.07-.05-.12-.1-.16-.17l-.3-.66c-.04-.07-.09-.12-.16-.17-.07-.05-.14-.07-.21-.07h-2.31c-.08,0-.16.02-.23.07-.07.05-.12.1-.15.17l-.31.66c-.03.07-.08.12-.15.17-.07.05-.14.07-.21.07h-1.88s-.08,0-.11-.02c-.04-.02-.07-.04-.1-.07-.03-.03-.04-.07-.05-.11,0-.04,0-.1.03-.15l3.18-7.42ZM139.41,13.78h.98c.07,0,.13-.02.16-.07s.03-.1,0-.17c-.07-.18-.16-.4-.26-.64-.1-.24-.2-.47-.28-.69-.03-.07-.06-.1-.1-.1s-.07.03-.1.1l-.55,1.33c-.03.07-.03.12,0,.17.03.05.08.07.16.07Z" data-v-35978371=""/>
  <path class="st0" d="M146.69,16.54l-3.31-7.46c-.04-.08-.04-.15,0-.22.03-.07.1-.1.19-.1h1.79c.07,0,.14.02.21.07.07.05.12.1.16.17l1.93,4.4c.04.07.08.1.14.1s.11-.03.14-.1l1.92-4.4c.04-.07.09-.12.16-.17.07-.05.14-.07.21-.07h1.82c.08,0,.14.03.18.09.04.06.04.12.01.18l-3.34,7.51c-.04.07-.09.12-.16.17-.07.05-.14.07-.21.07h-1.46c-.07,0-.14-.02-.21-.07-.07-.05-.12-.1-.16-.17Z" data-v-35978371=""/>
  <path class="st0" d="M155.27,11.04v.46c0,.07.03.13.08.19.05.05.11.08.19.08h2.97c.07,0,.13.03.19.08.05.05.08.11.08.19v1.51c0,.07-.03.13-.08.19-.05.05-.11.08-.19.08h-2.97c-.07,0-.13.03-.19.08-.05.05-.08.11-.08.19v.42c0,.07.03.13.08.19s.11.08.19.08h3.41c.07,0,.13.03.19.08.05.05.08.11.08.19v1.51c0,.07-.03.13-.08.19-.05.05-.11.08-.19.08h-5.58c-.07,0-.13-.03-.19-.08-.05-.05-.08-.11-.08-.19v-7.49c0-.07.03-.13.08-.19.05-.05.11-.08.19-.08h5.58c.07,0,.13.03.19.08.05.05.08.11.08.19v1.49c0,.07-.03.13-.08.19-.05.05-.11.08-.19.08h-3.41c-.07,0-.13.03-.19.08-.05.05-.08.11-.08.19Z" data-v-35978371=""/>
  <path class="st0" d="M166.58,15.03v1.49c0,.07-.03.13-.08.19-.05.05-.11.08-.19.08h-5.47c-.08,0-.14-.03-.19-.08-.05-.05-.07-.11-.07-.19v-7.49c0-.07.02-.13.07-.19.05-.05.11-.08.19-.08h1.64c.07,0,.13.03.19.08.05.05.08.11.08.19v5.48c0,.07.02.13.07.19.05.05.11.08.19.08h3.3c.07,0,.13.03.19.08.05.05.08.11.08.19Z" data-v-35978371=""/>
  <path class="st0" d="M46.51,27.64v-5.78h-2.05v-.49h4.64v.49h-2.05v5.78h-.55Z" data-v-35978371=""/>
  <path class="st0" d="M53.88,27.64l-1.76-2.59h-1.38v2.59h-.54v-6.26h2.34c1.08,0,1.91.69,1.91,1.83s-.81,1.77-1.74,1.8l1.81,2.63h-.65ZM53.89,23.21c0-.79-.56-1.34-1.39-1.34h-1.76v2.7h1.76c.83,0,1.39-.56,1.39-1.35Z" data-v-35978371=""/>
  <path class="st0" d="M60.32,27.64l-.62-1.54h-3.31l-.62,1.54h-.62l2.56-6.26h.67l2.56,6.26h-.62ZM58.04,21.95l-1.47,3.66h2.96l-1.48-3.66Z" data-v-35978371=""/>
  <path class="st0" d="M61.86,27.64v-6.26h2c1.94,0,3.16,1.42,3.16,3.14s-1.22,3.13-3.16,3.13h-2ZM66.47,24.51c0-1.46-.94-2.65-2.6-2.65h-1.46v5.29h1.46c1.65,0,2.6-1.17,2.6-2.64Z" data-v-35978371=""/>
  <path class="st0" d="M68.36,27.64v-6.27h3.97v.49h-3.44v2.32h3.37v.49h-3.37v2.48h3.44v.49h-3.97Z" data-v-35978371=""/>
  <path class="st0" d="M80.63,27.64l-.62-1.54h-3.31l-.62,1.54h-.62l2.56-6.26h.67l2.56,6.26h-.62ZM78.34,21.95l-1.47,3.66h2.96l-1.48-3.66Z" data-v-35978371=""/>
  <path class="st0" d="M81.66,26.75l.35-.4c.4.47,1.06.91,1.95.91,1.29,0,1.65-.71,1.65-1.25,0-1.84-3.76-.88-3.76-3.07,0-1.02.92-1.67,2.06-1.67.94,0,1.63.33,2.12.88l-.36.39c-.45-.54-1.09-.79-1.79-.79-.84,0-1.46.48-1.46,1.16,0,1.61,3.76.72,3.76,3.06,0,.81-.54,1.77-2.22,1.77-1.04,0-1.82-.41-2.29-.99Z" data-v-35978371=""/>
  <path class="st0" d="M87.11,26.75l.35-.4c.4.47,1.06.91,1.95.91,1.29,0,1.65-.71,1.65-1.25,0-1.84-3.76-.88-3.76-3.07,0-1.02.92-1.67,2.06-1.67.94,0,1.63.33,2.12.88l-.36.39c-.45-.54-1.09-.79-1.79-.79-.84,0-1.46.48-1.46,1.16,0,1.61,3.76.72,3.76,3.06,0,.81-.54,1.77-2.22,1.77-1.04,0-1.82-.41-2.29-.99Z" data-v-35978371=""/>
  <path class="st0" d="M92.68,24.51c0-1.83,1.2-3.24,3.04-3.24s3.04,1.41,3.04,3.24-1.21,3.24-3.04,3.24c-1.84,0-3.04-1.41-3.04-3.24ZM98.21,24.51c0-1.6-.98-2.75-2.48-2.75s-2.48,1.16-2.48,2.75.96,2.75,2.48,2.75,2.48-1.17,2.48-2.75Z" data-v-35978371=""/>
  <path class="st0" d="M99.86,24.51c0-1.92,1.4-3.24,3.17-3.24,1,0,1.75.44,2.28,1.11l-.45.29c-.39-.54-1.08-.91-1.83-.91-1.47,0-2.61,1.12-2.61,2.75s1.14,2.75,2.61,2.75c.75,0,1.44-.37,1.83-.91l.45.28c-.55.69-1.29,1.12-2.28,1.12-1.78,0-3.17-1.32-3.17-3.24Z" data-v-35978371=""/>
  <path class="st0" d="M106.94,21.37h-.54v6.26h.54v-6.26Z" data-v-35978371=""/>
  <path class="st0" d="M113.03,27.64l-.62-1.54h-3.31l-.62,1.54h-.62l2.56-6.26h.67l2.56,6.26h-.62ZM110.75,21.95l-1.47,3.66h2.96l-1.48-3.66Z" data-v-35978371=""/>
  <path class="st0" d="M115.52,27.64v-5.78h-2.05v-.49h4.64v.49h-2.05v5.78h-.54Z" data-v-35978371=""/>
  <path class="st0" d="M119.76,21.37h-.54v6.26h.54v-6.26Z" data-v-35978371=""/>
  <path class="st0" d="M121.08,24.51c0-1.83,1.2-3.24,3.04-3.24s3.04,1.41,3.04,3.24-1.21,3.24-3.04,3.24c-1.84,0-3.04-1.41-3.04-3.24ZM126.6,24.51c0-1.6-.98-2.75-2.48-2.75s-2.48,1.16-2.48,2.75.96,2.75,2.48,2.75,2.48-1.17,2.48-2.75Z" data-v-35978371=""/>
  <path class="st0" d="M132.97,27.64l-3.94-5.38v5.38h-.54v-6.27h.54l3.93,5.31v-5.31h.53v6.27h-.53Z" data-v-35978371=""/>
  <path class="st0" d="M27.96,14.72v.17l-.23.2-.03.14.44.03.05.08.28.02.12-.11v-.19l-.24-.17v-.27l-.55-.36.02-.2.43.02v-.21s-.32-.13-.32-.13l-.36.03-.09.2.02.41.44.32Z" data-v-35978371=""/>
  <path class="st0" d="M11.21,10.78h-.16c-.08.07-.15.14-.23.21l.48.02-.1-.23Z" data-v-35978371=""/>
  <path class="st0" d="M12.81,27.68l.07-.84-.37-.5.15-.84-.22-.06v-1.83s-.62-.47-.66-.47-.33-.08-.33-.08l-.06-.34-.81-1.01.08-.36.03-.6.56-.39-.08-.66-.81-.06-.64-.73-.45-.12-.29-.05.04-.27-.37-.05v.15l-.93-.23-.11-.16c-.02.25-.03.5-.03.76,0,4.45,2.58,8.29,6.32,10.13l-.58-.51-.49-.86Z" data-v-35978371=""/>
  <path class="st0" d="M29.94,17.02l-.38-.06-.72-.04-.63-.36-.04-.38h-.3s0,.52,0,.55,1.37.67,1.37.67l.39.05v.29s-.36.24-.36.24l-1.17.85-.56.04-.27-.27-.03-.45-1.19-1.44-.08.1,1.2,2.26.29.14,1.14-.24.21.1-1.1,1.57-1,.95.22.39.11,1.05-.51.69-.24.28v.43l-.36.08-.28.51-.91.93h-1.21v-.71l-.41-.55v-.85l-.31-.31-.03-.35.4-.75-.75-1.32.09-.9-.67-.07-.25-.25h-.45l-.23.21h-.8l-.03.07h-.44l-1.02-1.16v-.91s.18-.06.18-.06l.06-.35h-.24l-.1-.36,1.18-.85v-.6l.58-.32.23.02h.48l.37-.2,1.2-.09v.61l.94.24.19.13h.17v-.33l.55-.05.52.39h.85l.31-.28v-.44l-.25-.19h-.84s-.28-.29-.28-.29l-.05-.49-.29.16-.15.6-.41-.44-.02-.42-.4-.34-.15-.15h-.46l.15.41.56.31.1.1-.12.06v.33s-.27.11-.27.11l-.23-.05-.14-.2.38.02.1-.14-.83-.56-.06-.24-.34.31-.34-.07-.52.68-.1.27-.33.03h-.49s-.29-.14-.29-.14l-.09-.59.11-.28.5-.11.55.11.07-.3-.23-.05.08-.47.55-.09.39-.55.4-.07.36.05h.13l-.07-.51-.44.18-.15-.38-.25-.04-.05-.26.21-.23.49-.19.28-.5.75-.38,1.33-.04,1.09.51-.19.16-.91.04.04.19.87.02.35-.28.12-.33.17-.04.1.3.27-.12c-2.04-2.04-4.85-3.29-7.96-3.29-2.77,0-5.3,1-7.26,2.66l.04.06.47.03.28-.27.21.11-.39.38s-.54,0-.51,0c.03,0,.04.37.04.37l.66-.02.07-.18.45-.03.05-.27-.27-.04.09-.24.2-.06.71.04-.39.36.06.27.41.06-.03-.5.39-.2.69-.08,1,.44v.38l.32.08-.16.3h-.45l-.13.35-1.03-.24.81-.43-.31-.26-.7.09-.06.06h0v.02s-.21.21-.21.21l-.33.03.03.17.12.05v.05s-.28.04-.28.04l-.02.16h-.26s-.05-.3-.05-.3l-.47.14-.95.56.11.39.27.17.53.07v.61l.25-.04.23-.47.57-.18v-.73l.32-.24.76.18-.05.48h.2l.56-.28.03.63.41.25-.02.37-.39.13.03.12.47.21v.26s-.15.01-.15.01c0,0,0,0,0,0l-.59-.18-.03-.19.17-.12v-.17l-.19-.05-.05.16-.33.05h-.03s0,0,0,0l-.11.02-.09-.19-.11-.05h-.23l-.11.09v.19l.2.07.2.03-.04.02-.18.2-.08-.1-.17-.05-.47.44.06.05-.7.39-.66.68-.04.31-.66.43-.33.33.04.66-.45-.21v-.39s-1.26,0-1.26,0l-.65.33-.28.52-.11.41.18.4.51.06.82-.55.07.27-.25.47.62.11.06.96.85.14.54-.62.66.13.23.32.63-.04.02-.19.35.17.39.61h.67s.25.44.25.44l.04.53.75.28h.94s.27.46.27.46l.42.13-.08.37-.46.58-.13,1.28-.41.33-.61-.02-.2.35.15.67-.66.85-.21.39-.63.31-.42.06-.02.18.29.08-.04.19-.26.25.16.2h.32s-.02.25-.02.25l-.08.24-.03.2.47.39-.06.2h-.6c1.47.69,3.12,1.09,4.86,1.09,6.22,0,11.27-5.04,11.27-11.27,0-.65-.06-1.29-.16-1.91ZM20.51,12.32l.1-.15.35-.07.09.43.19.3.12.14.23.09-.21.25-.41.04h-.31l.04-.37.26-.05-.02-.17-.24-.15-.17-.12v-.17h0ZM19.93,12.99l.21-.34.29-.07.2.09-.02.23-.44.31h-.25v-.22ZM14.14,14.3l-.22.02v-.15s.11-.12.11-.12l.13.1-.02.16ZM14.91,14.03h-.15s-.03.16-.03.16l-.12.07-.19.02s-.01-.08-.01-.08h-.07v-.16h.31l.06-.16h.12s.14.03.14.03l-.06.13ZM28.25,23.84l-.54.79-.27.44-.3-.29v-.47l.22-.26.15-.23-.2-.23v-.43l.55.07.32-.64h.33l-.26,1.24Z" data-v-35978371=""/>
  <path class="st0" d="M25.96,14.13l-.15-.07-.08.12-.37.04-.17.05-.16.17v.47l.21-.03.69.03h.48l-.04-.2-.4-.17-.02-.43Z" data-v-35978371=""/>
  <path class="st0" d="M24.31,11.22v-.21h-.17l-.78.54v.87s-.46.23-.46.23l.05.15h.73s.42-.62.42-.62l-.02-.29-.3-.14v-.21l.53-.32Z" data-v-35978371=""/>
  <path class="st0" d="M37.57,18.93l-2.5-1.44-1.5-.86c-1-6.44-6.11-11.51-12.57-12.46l-.96-1.67-1.44-2.5-1.44,2.5-1.01,1.76c-1.35.25-2.64.67-3.84,1.26-4.33,2.07-7.49,6.18-8.27,11.09l-1.54.89-2.5,1.44,2.5,1.44,1.54.89c.77,4.9,3.94,9.01,8.27,11.09,1.23.6,2.56,1.04,3.96,1.28l.9,1.55,1.44,2.5,1.44-2.5.85-1.47c6.51-.9,11.68-5.99,12.69-12.47l1.5-.86,2.5-1.44ZM22.07,31.56c-1.03.26-2.12.41-3.23.41-7.19,0-13.03-5.83-13.03-13.04s5.83-13.03,13.03-13.03c1.12,0,2.2.14,3.24.41,5.58,1.48,9.71,6.58,9.71,12.63s-4.13,11.14-9.72,12.63Z" data-v-35978371=""/>
</svg>