<?xml version="1.0" encoding="UTF-8"?>
<svg id="Capa_1" xmlns="http://www.w3.org/2000/svg" version="1.1" viewBox="0 0 90 90">
  <!-- Generator: Adobe Illustrator 30.2.1, SVG Export Plug-In . SVG Version: 2.1.1 Build 1)  -->
  <defs>
    <style>
      .st0 {
        fill: #246082;
      }

      .st1 {
        fill: none;
      }
    </style>
  </defs>
  <circle class="st0" cx="45.05" cy="37.11" r="12.91" transform="translate(-1.42 72.43) rotate(-76.72)"/>
  <path class="st0" d="M76.82,13.18C68.68,5.04,57.42,0,45,0,20.15,0,0,20.15,0,45s20.15,45,45,45,45-20.15,45-45c0-12.42-5.04-23.68-13.18-31.82ZM48.86,74.49c-1.16,1.35-2.33,2.15-3.9,2.11-1.57-.04-2.65-.89-3.72-2.1-9.32-10.63-18.42-20.43-19.84-34.86-1.35-13.69,8.84-25.49,22.31-26.22,13.42-.72,25.04,10,24.98,23.83-.07,14.9-10.33,26.23-19.84,37.23h.01Z"/>
  <path class="st1" d="M68.69,37.25c.06-13.83-11.56-24.55-24.98-23.83-13.47.73-23.66,12.53-22.31,26.22,1.42,14.43,10.52,24.23,19.84,34.86,1.07,1.21,2.15,2.06,3.72,2.1,1.57.04,2.74-.76,3.9-2.11h-.01c9.51-11.01,19.77-22.34,19.84-37.24ZM45.05,50.02c-7.13,0-12.91-5.78-12.91-12.91s5.78-12.91,12.91-12.91,12.91,5.78,12.91,12.91-5.78,12.91-12.91,12.91Z"/>
</svg>