<?xml version="1.0" encoding="UTF-8"?>
<svg id="Capa_1" xmlns="http://www.w3.org/2000/svg" version="1.1" viewBox="0 0 90 90">
  <!-- Generator: Adobe Illustrator 30.2.1, SVG Export Plug-In . SVG Version: 2.1.1 Build 1)  -->
  <defs>
    <style>
      .st0 {
        fill: #246082;
      }
    </style>
  </defs>
  <path class="st0" d="M45,0C20.15,0,0,20.15,0,45s20.15,45,45,45,45-20.15,45-45h0C90,20.15,69.85,0,45,0ZM25.27,26.95h39.45c.5,0,1,.1,1.47.29l-18.74,18.74c-1.36,1.35-3.55,1.35-4.91,0l-18.74-18.74c.47-.19.97-.29,1.47-.29ZM68.73,59.08c0,2.21-1.79,4-4,4H25.27c-2.21,0-4-1.79-4-4v-28.13c0-.57.12-1.13.36-1.64l18.79,18.79c2.53,2.52,6.62,2.52,9.15,0l18.79-18.79c.24.51.36,1.07.36,1.64v28.13h.01Z"/>
</svg>