<?xml version="1.0" encoding="UTF-8"?>
<svg id="Capa_1" xmlns="http://www.w3.org/2000/svg" version="1.1" viewBox="0 0 384 384">
  <!-- Generator: Adobe Illustrator 30.3.0, SVG Export Plug-In . SVG Version: 2.1.3 Build 182)  -->
  <defs>
    <style>
      .st0 {
        fill: #246082;
      }

      .st1 {
        fill: none;
      }
    </style>
  </defs>
  <path class="st1" d="M181.5,384H0v-181.5l.63,4.22c6.93,94.1,82.55,169.69,176.65,176.65l4.22.63Z"/>
  <path class="st1" d="M181.54.07c-1.52.41-3.2.47-5.02.61C83,7.99,7.96,82.99.67,176.51l-.57,4.95L0,0l181.54.07Z"/>
  <path class="st1" d="M384,0v181.5l-.63-4.22C376.41,83.18,300.84,7.53,206.72.63l-4.22-.63h181.5Z"/>
  <g>
    <path class="st0" d="M384,181.5v21.42l-.68,3.97c-5.9,79.7-61.44,147.5-138.27,169.65l-.03-142.06,41.42-.03,6.2-48.06h-47.61l.02-34.88c.59-5.03,1.82-9.44,4.89-13.36,4.12-3.31,9.22-5.51,14.81-5.55l29.26-.19-.02-42.97c-22.31-1.31-46.28-4.92-66.24,4.03-11.81,5.45-20.82,14.47-26.25,26.3-3.9,8.8-5.61,17.9-6.11,27.57l-.06,39.11-41.24.03.05,48.02,41.24.04-.55,149.45h-13.33s-4.22-.62-4.22-.62C83.18,376.41,7.56,300.82.63,206.72l-.63-4.22.1-21.04.57-4.95C7.96,82.99,83,7.99,176.52.68c1.82-.14,3.5-.2,5.02-.61l20.96-.07,4.22.63c94.12,6.9,169.69,82.55,176.65,176.65l.63,4.22Z"/>
    <path class="st1" d="M384,202.92v181.08s-189.17-.01-189.17-.01l.55-149.45-41.24-.04-.05-48.02,41.24-.03.06-39.11c.5-9.67,2.21-18.77,6.11-27.57,5.43-11.83,14.44-20.85,26.25-26.3,19.96-8.95,43.93-5.34,66.24-4.03l.02,42.97-29.26.19c-5.59.04-10.69,2.24-14.81,5.55-3.07,3.92-4.3,8.33-4.89,13.36l-.02,34.88h47.61l-6.2,48.06-41.42.03.03,142.06c76.83-22.15,132.37-89.95,138.27-169.65l.68-3.97Z"/>
  </g>
</svg>