<?xml version="1.0" encoding="UTF-8"?>
<svg id="Capa_1" xmlns="http://www.w3.org/2000/svg" version="1.1" viewBox="0 0 438.86 438.86">
  <!-- Generator: Adobe Illustrator 30.3.0, SVG Export Plug-In . SVG Version: 2.1.3 Build 182)  -->
  <defs>
    <style>
      .st0 {
        fill: #246082;
      }

      .st1 {
        fill: none;
      }
    </style>
  </defs>
  <path class="st1" d="M438.86,0v438.86H0v-124.05l.77,5.12c5.8,62.33,55.79,111.98,118.18,117.38l8.7.62h182.7l8.69-.61c62.45-5.42,112.09-55.09,118.23-117.41l.69-7V124.24l-.76-6.99c-6.71-61.72-55.43-111.51-117.32-116.54l-4.21-.71h123.19Z"/>
  <path class="st1" d="M122.36.01c-1.47.45-3.01.55-5.1.76C55.75,7.11,7.1,55.75.77,117.26c-.2,1.97-.27,3.26-.76,5.05V0s122.35.01,122.35.01Z"/>
  <g>
    <path class="st0" d="M437.2,117.25c-6.71-61.72-55.43-111.51-117.32-116.54l-4.21-.71H122.36c-1.47.46-3.01.56-5.1.77C55.75,7.11,7.1,55.75.77,117.26c-.2,1.97-.27,3.26-.76,5.05v192.5s.76,5.12.76,5.12c5.8,62.33,55.79,111.98,118.18,117.38l8.7.62h182.7l8.69-.61c62.45-5.42,112.09-55.09,118.23-117.41l.69-7V124.24l-.76-6.99ZM308.17,393.84l-177.86.06c-47.7,0-86.24-38.85-86.22-86.45l.09-177.57c.02-47.6,38.94-85.8,86.38-85.8h176.88c47.45,0,86.36,38.21,86.38,85.8l.09,177.6c.03,47.13-38.02,86.35-85.74,86.36Z"/>
    <g>
      <path class="st1" d="M393.82,129.88c-.02-47.59-38.93-85.8-86.38-85.8h-176.88c-47.44,0-86.36,38.2-86.38,85.8l-.09,177.57c-.02,47.6,38.52,86.46,86.22,86.45l177.86-.06c47.72-.01,85.77-39.23,85.74-86.36l-.09-177.6ZM219,332.18c-62.51,0-113.18-50.67-113.18-113.18s50.67-113.19,113.18-113.19,113.18,50.68,113.18,113.19-50.67,113.18-113.18,113.18ZM332.49,133.63c-14.94,0-27.06-12.12-27.06-27.06s12.12-27.06,27.06-27.06,27.06,12.11,27.06,27.06-12.11,27.06-27.06,27.06Z"/>
      <path class="st0" d="M219,105.81c-62.51,0-113.18,50.68-113.18,113.19s50.67,113.18,113.18,113.18,113.18-50.67,113.18-113.18-50.67-113.19-113.18-113.19ZM219,288.2c-38.21,0-69.19-30.98-69.19-69.19s30.98-69.18,69.19-69.18,69.19,30.97,69.19,69.18-30.98,69.19-69.19,69.19Z"/>
      <circle class="st0" cx="332.49" cy="106.57" r="27.06"/>
      <path class="st1" d="M288.19,219.01c0,38.21-30.98,69.19-69.19,69.19s-69.19-30.98-69.19-69.19,30.98-69.18,69.19-69.18,69.19,30.97,69.19,69.18Z"/>
    </g>
  </g>
</svg>