<?xml version="1.0" encoding="UTF-8"?>
<svg id="Capa_1" xmlns="http://www.w3.org/2000/svg" version="1.1" viewBox="0 0 384 384">
  <!-- Generator: Adobe Illustrator 30.3.0, SVG Export Plug-In . SVG Version: 2.1.3 Build 182)  -->
  <defs>
    <style>
      .st0 {
        fill: #246082;
      }

      .st1 {
        fill: none;
      }
    </style>
  </defs>
  <path class="st0" d="M337.5,0L46.7.03C22.13,3.42,3.55,21.65.04,46.61l-.04,290.89c2.88,24.12,22.39,43.61,46.5,46.5h291c24.11-2.87,43.61-22.4,46.5-46.5V46.5c-2.89-24.13-22.36-43.61-46.5-46.5ZM122.98,311.97l-34.48.04c-4.67,0-8.29-3.48-8.29-8.37v-144.53c0-4.7,3.95-7.95,8.25-7.94l34.58.03c4.39,0,7.87,3.71,7.87,8.19l.02,143.75c0,5.04-3.21,8.82-7.95,8.83ZM105.55,137.43c-18.07,0-32.71-14.65-32.71-32.71s14.64-32.71,32.71-32.71,32.71,14.65,32.71,32.71-14.65,32.71-32.71,32.71ZM303,311.95l-36.68-.09c-4.01-.01-7.09-3.43-7.1-7.38l-.02-79.24c-.01-6.1-1.33-12.06-3.28-17.53-3.34-9.38-11.38-14.82-21.17-15.32-9.69-.49-18.76,3.25-23.85,12.24-3.72,6.56-6.42,14-6.43,21.62l-.13,78.22c-.01,4.01-3.13,7.5-7.13,7.5l-35.97.03c-4.14,0-7.49-3.26-7.49-7.61v-145.98c.01-4.24,3.61-7.2,7.46-7.19h36.08c3.61,0,6.9,2.96,7.03,6.55l.46,12.91c7.13-10.37,16.54-17.13,28.63-19.86,11.72-2.65,23.58-2.75,35.37-.34,17.59,3.59,30.58,15.81,36.32,32.8,3.98,11.76,5.82,23.74,5.86,36.53l.28,83.89c.02,5.02-3.34,8.26-8.24,8.25Z"/>
  <path class="st1" d="M384,337.5v46.5h-46.5c24.11-2.87,43.61-22.4,46.5-46.5Z"/>
  <path class="st1" d="M46.7.03C22.13,3.42,3.55,21.65.04,46.61L0,0l46.7.03Z"/>
  <path class="st1" d="M384,0v46.5c-2.89-24.13-22.36-43.61-46.5-46.5h46.5Z"/>
  <path class="st1" d="M46.5,384H0v-46.5c2.88,24.12,22.39,43.61,46.5,46.5Z"/>
  <g>
    <path class="st1" d="M311.24,303.7c.02,5.02-3.34,8.26-8.24,8.25l-36.68-.09c-4.01-.01-7.09-3.43-7.1-7.38l-.02-79.24c-.01-6.1-1.33-12.06-3.28-17.53-3.34-9.38-11.38-14.82-21.17-15.32-9.69-.49-18.76,3.25-23.85,12.24-3.72,6.56-6.42,14-6.43,21.62l-.13,78.22c-.01,4.01-3.13,7.5-7.13,7.5l-35.97.03c-4.14,0-7.49-3.26-7.49-7.61v-145.98c.01-4.24,3.61-7.2,7.46-7.19h36.08c3.61,0,6.9,2.96,7.03,6.55l.46,12.91c7.13-10.37,16.54-17.13,28.63-19.86,11.72-2.65,23.58-2.75,35.37-.34,17.59,3.59,30.58,15.81,36.32,32.8,3.98,11.76,5.82,23.74,5.86,36.53l.28,83.89Z"/>
    <g>
      <path class="st1" d="M130.93,303.14c0,5.04-3.21,8.82-7.95,8.83l-34.48.04c-4.67,0-8.29-3.48-8.29-8.37v-144.53c0-4.7,3.95-7.95,8.25-7.94l34.58.03c4.39,0,7.87,3.71,7.87,8.19l.02,143.75Z"/>
      <circle class="st1" cx="105.55" cy="104.72" r="32.71" transform="translate(-20.62 183.39) rotate(-76.72)"/>
    </g>
  </g>
</svg>