<?xml version="1.0" encoding="UTF-8"?>
<svg id="Capa_1" xmlns="http://www.w3.org/2000/svg" version="1.1" viewBox="0 0 70.37 71.56">
  <!-- Generator: Adobe Illustrator 30.2.1, SVG Export Plug-In . SVG Version: 2.1.1 Build 1)  -->
  <defs>
    <style>
      .st0 {
        fill: #246082;
      }
    </style>
  </defs>
  <path class="st0" d="M18.56,65.56c5.08,2.8,10.8,4.27,16.62,4.27,19.02,0,34.5-15.48,34.5-34.5S54.21.83,35.19.83.69,16.31.69,35.33c0,6.11,1.61,12.09,4.68,17.35L.97,70.73s17.59-5.17,17.59-5.17ZM20.4,19.21c.73-.67,1.68-1.03,2.67-1.03h1.05c1.39,0,2.63.87,3.1,2.17l2.15,5.92c.2.56.1,1.18-.27,1.65l-1.7,2.12c-.67.83-.85,1.96-.46,2.95,2.06,5.18,8.18,8.82,11.38,10.42,1.16.58,2.55.36,3.47-.55l1.88-1.88c.45-.45,1.12-.61,1.73-.42l5.7,1.82c1.37.44,2.3,1.71,2.3,3.15v1.45c0,1.06-.42,2.08-1.17,2.83-5.55,5.48-14.76,1.46-20.73-2.2-4.3-2.64-8.05-6.11-10.84-10.32-6.75-10.19-2.65-15.9-.26-18.08h0Z"/>
</svg>