<?xml version="1.0" encoding="UTF-8"?>
<svg id="Capa_1" xmlns="http://www.w3.org/2000/svg" version="1.1" viewBox="0 0 512 512">
  <!-- Generator: Adobe Illustrator 30.3.0, SVG Export Plug-In . SVG Version: 2.1.3 Build 182)  -->
  <defs>
    <style>
      .st0 {
        fill: #246082;
      }

      .st1 {
        fill: none;
      }
    </style>
  </defs>
  <path class="st0" d="M511.79,232.06c-1.06-8.3-.72-16.84-1.21-25.71-1.23-22.77-3.09-44.76-7.56-67.12-5.57-27.88-26.23-48.5-54.49-52.99-19.78-3.15-38.92-4.79-59.25-5.83-89.98-4.6-179.4-4.42-269.38,0-18.09.89-34.81,2.66-52.49,4.74-29.76,3.5-52.66,24.61-58.41,54.15-4.53,23.31-6.34,46.33-7.57,70.04-.45,8.56-.23,16.73-1.21,24.73l-.22,43.93.92,1.03.5,24.63c.48,23.18,3.1,45.5,7.3,68.35,5.16,28.13,25.81,49.55,54.34,54.11,18.17,2.91,35.61,4.64,54.32,5.63,93.57,4.98,186.67,4.83,280.23-.02,17.26-.9,33.19-2.59,49.98-4.97,28.49-4.03,49.84-24.84,55.35-53.05,4.57-23.35,7.15-46.31,7.63-70.04l.5-24.64.93-1.03-.21-45.94ZM205,333.06v-153.62s133.29,76.8,133.29,76.8l-133.29,76.82Z"/>
  <polygon class="st1" points="338.29 256.24 205 333.06 205.01 179.44 338.29 256.24"/>
</svg>