<?xml version="1.0" encoding="UTF-8"?>
<svg id="Capa_2" data-name="Capa 2" xmlns="http://www.w3.org/2000/svg" viewBox="0 0 365.69 429.43">
  <defs>
    <style>
      .cls-1 {
        fill: #e94f1b;
      }
    </style>
  </defs>
  <circle class="cls-1" cx="131.83" cy="425.18" r="4.25"/>
  <circle class="cls-1" cx="144.7" cy="425.18" r="4.25"/>
  <circle class="cls-1" cx="157.34" cy="425.18" r="4.25"/>
  <circle class="cls-1" cx="169.98" cy="425.18" r="4.25"/>
  <circle class="cls-1" cx="182.62" cy="425.18" r="4.25"/>
  <circle class="cls-1" cx="182.62" cy="412.42" r="4.25"/>
  <circle class="cls-1" cx="195.61" cy="412.42" r="4.25"/>
  <circle class="cls-1" cx="208.36" cy="412.42" r="4.25"/>
  <circle class="cls-1" cx="208.36" cy="399.67" r="4.25"/>
  <circle class="cls-1" cx="195.61" cy="399.67" r="4.25"/>
  <circle class="cls-1" cx="182.85" cy="399.67" r="4.25"/>
  <circle class="cls-1" cx="170.09" cy="399.67" r="4.25"/>
  <circle class="cls-1" cx="157.34" cy="399.67" r="4.25"/>
  <circle class="cls-1" cx="144.58" cy="399.67" r="4.25"/>
  <circle class="cls-1" cx="131.83" cy="399.67" r="4.25"/>
  <circle class="cls-1" cx="119.07" cy="399.67" r="4.25"/>
  <circle class="cls-1" cx="106.31" cy="399.67" r="4.25"/>
  <circle class="cls-1" cx="221.12" cy="399.67" r="4.25"/>
  <circle class="cls-1" cx="169.98" cy="412.42" r="4.25"/>
  <circle class="cls-1" cx="157.34" cy="412.42" r="4.25"/>
  <circle class="cls-1" cx="144.58" cy="412.42" r="4.25"/>
  <circle class="cls-1" cx="131.83" cy="412.42" r="4.25"/>
  <circle class="cls-1" cx="119.07" cy="412.42" r="4.25"/>
  <circle class="cls-1" cx="106.57" cy="412.42" r="4.25"/>
  <circle class="cls-1" cx="93.56" cy="412.42" r="4.25"/>
  <circle class="cls-1" cx="93.56" cy="399.67" r="4.25"/>
  <circle class="cls-1" cx="208.36" cy="386.91" r="4.25"/>
  <circle class="cls-1" cx="195.61" cy="386.91" r="4.25"/>
  <circle class="cls-1" cx="182.85" cy="386.91" r="4.25"/>
  <circle class="cls-1" cx="170.09" cy="386.91" r="4.25"/>
  <circle class="cls-1" cx="157.34" cy="386.91" r="4.25"/>
  <circle class="cls-1" cx="144.58" cy="386.91" r="4.25"/>
  <circle class="cls-1" cx="131.83" cy="386.91" r="4.25"/>
  <circle class="cls-1" cx="119.07" cy="386.91" r="4.25"/>
  <circle class="cls-1" cx="106.31" cy="386.91" r="4.25"/>
  <circle class="cls-1" cx="221.12" cy="386.91" r="4.25"/>
  <circle class="cls-1" cx="233.87" cy="386.91" r="4.25"/>
  <circle class="cls-1" cx="259.39" cy="386.91" r="4.25"/>
  <circle class="cls-1" cx="259.39" cy="374.16" r="4.25"/>
  <circle class="cls-1" cx="272.14" cy="374.16" r="4.25"/>
  <circle class="cls-1" cx="284.9" cy="374.16" r="4.25"/>
  <circle class="cls-1" cx="297.65" cy="374.16" r="4.25"/>
  <circle class="cls-1" cx="310.41" cy="374.16" r="4.25"/>
  <circle class="cls-1" cx="272.14" cy="386.91" r="4.25"/>
  <circle class="cls-1" cx="284.9" cy="386.91" r="4.25"/>
  <circle class="cls-1" cx="297.65" cy="386.91" r="4.25"/>
  <circle class="cls-1" cx="310.41" cy="386.91" r="4.25"/>
  <circle class="cls-1" cx="259.39" cy="399.67" r="4.25"/>
  <circle class="cls-1" cx="93.56" cy="386.91" r="4.25"/>
  <circle class="cls-1" cx="80.8" cy="386.91" r="4.25"/>
  <circle class="cls-1" cx="68.05" cy="386.91" r="4.25"/>
  <circle class="cls-1" cx="55.29" cy="386.91" r="4.25"/>
  <circle class="cls-1" cx="208.36" cy="374.16" r="4.25"/>
  <circle class="cls-1" cx="195.61" cy="374.16" r="4.25"/>
  <circle class="cls-1" cx="182.85" cy="374.16" r="4.25"/>
  <circle class="cls-1" cx="170.09" cy="374.16" r="4.25"/>
  <circle class="cls-1" cx="157.34" cy="374.16" r="4.25"/>
  <circle class="cls-1" cx="144.58" cy="374.16" r="4.25"/>
  <circle class="cls-1" cx="131.83" cy="374.16" r="4.25"/>
  <circle class="cls-1" cx="119.07" cy="374.16" r="4.25"/>
  <circle class="cls-1" cx="106.31" cy="374.16" r="4.25"/>
  <circle class="cls-1" cx="221.12" cy="374.16" r="4.25"/>
  <circle class="cls-1" cx="233.87" cy="374.16" r="4.25"/>
  <circle class="cls-1" cx="93.56" cy="374.16" r="4.25"/>
  <circle class="cls-1" cx="80.8" cy="374.16" r="4.25"/>
  <circle class="cls-1" cx="68.05" cy="374.16" r="4.25"/>
  <circle class="cls-1" cx="55.29" cy="374.16" r="4.25"/>
  <circle class="cls-1" cx="42.53" cy="374.16" r="4.25"/>
  <circle class="cls-1" cx="29.78" cy="361.4" r="4.25"/>
  <circle class="cls-1" cx="42.54" cy="361.4" r="4.25"/>
  <circle class="cls-1" cx="55.29" cy="361.4" r="4.25"/>
  <circle class="cls-1" cx="68.05" cy="361.4" r="4.25"/>
  <circle class="cls-1" cx="80.8" cy="361.4" r="4.25"/>
  <circle class="cls-1" cx="93.56" cy="361.4" r="4.25"/>
  <circle class="cls-1" cx="106.32" cy="361.4" r="4.25"/>
  <circle class="cls-1" cx="119.07" cy="361.4" r="4.25"/>
  <circle class="cls-1" cx="131.83" cy="361.4" r="4.25"/>
  <circle class="cls-1" cx="144.59" cy="361.4" r="4.25"/>
  <circle class="cls-1" cx="157.34" cy="361.4" r="4.25"/>
  <circle class="cls-1" cx="170.1" cy="361.4" r="4.25"/>
  <circle class="cls-1" cx="182.86" cy="361.4" r="4.25"/>
  <circle class="cls-1" cx="195.61" cy="361.4" r="4.25"/>
  <circle class="cls-1" cx="208.37" cy="361.4" r="4.25"/>
  <circle class="cls-1" cx="221.12" cy="361.4" r="4.25"/>
  <circle class="cls-1" cx="29.78" cy="348.65" r="4.25"/>
  <circle class="cls-1" cx="17.02" cy="348.65" r="4.25"/>
  <circle class="cls-1" cx="42.54" cy="348.65" r="4.25"/>
  <circle class="cls-1" cx="55.29" cy="348.65" r="4.25"/>
  <circle class="cls-1" cx="68.05" cy="348.65" r="4.25"/>
  <circle class="cls-1" cx="80.8" cy="348.65" r="4.25"/>
  <circle class="cls-1" cx="93.56" cy="348.65" r="4.25"/>
  <circle class="cls-1" cx="106.32" cy="348.65" r="4.25"/>
  <circle class="cls-1" cx="119.07" cy="348.65" r="4.25"/>
  <circle class="cls-1" cx="131.83" cy="348.65" r="4.25"/>
  <circle class="cls-1" cx="144.59" cy="348.65" r="4.25"/>
  <circle class="cls-1" cx="157.34" cy="348.65" r="4.25"/>
  <circle class="cls-1" cx="170.1" cy="348.65" r="4.25"/>
  <circle class="cls-1" cx="182.86" cy="348.65" r="4.25"/>
  <circle class="cls-1" cx="195.61" cy="348.65" r="4.25"/>
  <circle class="cls-1" cx="208.37" cy="348.65" r="4.25"/>
  <circle class="cls-1" cx="221.12" cy="348.65" r="4.25"/>
  <circle class="cls-1" cx="29.78" cy="335.89" r="4.25"/>
  <circle class="cls-1" cx="17.02" cy="335.89" r="4.25"/>
  <circle class="cls-1" cx="42.54" cy="335.89" r="4.25"/>
  <circle class="cls-1" cx="55.29" cy="335.89" r="4.25"/>
  <circle class="cls-1" cx="68.05" cy="335.89" r="4.25"/>
  <circle class="cls-1" cx="80.8" cy="335.89" r="4.25"/>
  <circle class="cls-1" cx="93.56" cy="335.89" r="4.25"/>
  <circle class="cls-1" cx="106.32" cy="335.89" r="4.25"/>
  <circle class="cls-1" cx="119.07" cy="335.89" r="4.25"/>
  <circle class="cls-1" cx="131.83" cy="335.89" r="4.25"/>
  <circle class="cls-1" cx="144.59" cy="335.89" r="4.25"/>
  <circle class="cls-1" cx="157.34" cy="335.89" r="4.25"/>
  <circle class="cls-1" cx="170.1" cy="335.89" r="4.25"/>
  <circle class="cls-1" cx="182.86" cy="335.89" r="4.25"/>
  <circle class="cls-1" cx="195.61" cy="335.89" r="4.25"/>
  <circle class="cls-1" cx="208.37" cy="335.89" r="4.25"/>
  <circle class="cls-1" cx="221.12" cy="335.89" r="4.25"/>
  <circle class="cls-1" cx="29.78" cy="323.14" r="4.25"/>
  <circle class="cls-1" cx="17.02" cy="323.14" r="4.25"/>
  <circle class="cls-1" cx="42.54" cy="323.14" r="4.25"/>
  <circle class="cls-1" cx="55.29" cy="323.14" r="4.25"/>
  <circle class="cls-1" cx="68.05" cy="323.14" r="4.25"/>
  <circle class="cls-1" cx="80.8" cy="323.14" r="4.25"/>
  <circle class="cls-1" cx="93.56" cy="323.14" r="4.25"/>
  <circle class="cls-1" cx="106.32" cy="323.14" r="4.25"/>
  <circle class="cls-1" cx="119.07" cy="323.14" r="4.25"/>
  <circle class="cls-1" cx="131.83" cy="323.14" r="4.25"/>
  <circle class="cls-1" cx="144.59" cy="323.14" r="4.25"/>
  <circle class="cls-1" cx="157.34" cy="323.14" r="4.25"/>
  <circle class="cls-1" cx="170.1" cy="323.14" r="4.25"/>
  <circle class="cls-1" cx="182.86" cy="323.14" r="4.25"/>
  <circle class="cls-1" cx="195.61" cy="323.14" r="4.25"/>
  <circle class="cls-1" cx="208.37" cy="323.14" r="4.25"/>
  <circle class="cls-1" cx="221.12" cy="323.14" r="4.25"/>
  <circle class="cls-1" cx="29.78" cy="310.38" r="4.25"/>
  <circle class="cls-1" cx="17.02" cy="310.38" r="4.25"/>
  <circle class="cls-1" cx="42.54" cy="310.38" r="4.25"/>
  <circle class="cls-1" cx="55.29" cy="310.38" r="4.25"/>
  <circle class="cls-1" cx="68.05" cy="310.38" r="4.25"/>
  <circle class="cls-1" cx="80.8" cy="310.38" r="4.25"/>
  <circle class="cls-1" cx="93.56" cy="310.38" r="4.25"/>
  <circle class="cls-1" cx="106.32" cy="310.38" r="4.25"/>
  <circle class="cls-1" cx="119.07" cy="310.38" r="4.25"/>
  <circle class="cls-1" cx="131.83" cy="310.38" r="4.25"/>
  <circle class="cls-1" cx="144.59" cy="310.38" r="4.25"/>
  <circle class="cls-1" cx="157.34" cy="310.38" r="4.25"/>
  <circle class="cls-1" cx="170.1" cy="310.38" r="4.25"/>
  <circle class="cls-1" cx="182.86" cy="310.38" r="4.25"/>
  <circle class="cls-1" cx="195.61" cy="310.38" r="4.25"/>
  <circle class="cls-1" cx="208.37" cy="310.38" r="4.25"/>
  <circle class="cls-1" cx="221.12" cy="310.38" r="4.25"/>
  <circle class="cls-1" cx="29.78" cy="297.62" r="4.25"/>
  <circle class="cls-1" cx="17.02" cy="297.62" r="4.25"/>
  <circle class="cls-1" cx="4.25" cy="297.62" r="4.25"/>
  <circle class="cls-1" cx="42.54" cy="297.62" r="4.25"/>
  <circle class="cls-1" cx="55.29" cy="297.62" r="4.25"/>
  <circle class="cls-1" cx="68.05" cy="297.62" r="4.25"/>
  <circle class="cls-1" cx="80.8" cy="297.62" r="4.25"/>
  <circle class="cls-1" cx="93.56" cy="297.62" r="4.25"/>
  <circle class="cls-1" cx="106.32" cy="297.62" r="4.25"/>
  <circle class="cls-1" cx="119.07" cy="297.62" r="4.25"/>
  <circle class="cls-1" cx="131.83" cy="297.62" r="4.25"/>
  <circle class="cls-1" cx="144.59" cy="297.62" r="4.25"/>
  <circle class="cls-1" cx="157.34" cy="297.62" r="4.25"/>
  <circle class="cls-1" cx="170.1" cy="297.62" r="4.25"/>
  <circle class="cls-1" cx="182.86" cy="297.62" r="4.25"/>
  <circle class="cls-1" cx="195.61" cy="297.62" r="4.25"/>
  <circle class="cls-1" cx="208.37" cy="297.62" r="4.25"/>
  <circle class="cls-1" cx="221.12" cy="297.62" r="4.25"/>
  <circle class="cls-1" cx="29.78" cy="284.87" r="4.25"/>
  <circle class="cls-1" cx="17.02" cy="284.87" r="4.25"/>
  <circle class="cls-1" cx="4.25" cy="284.87" r="4.25"/>
  <circle class="cls-1" cx="42.54" cy="284.87" r="4.25"/>
  <circle class="cls-1" cx="55.29" cy="284.87" r="4.25"/>
  <circle class="cls-1" cx="68.05" cy="284.87" r="4.25"/>
  <circle class="cls-1" cx="80.8" cy="284.87" r="4.25"/>
  <circle class="cls-1" cx="93.56" cy="284.87" r="4.25"/>
  <circle class="cls-1" cx="106.32" cy="284.87" r="4.25"/>
  <circle class="cls-1" cx="119.07" cy="284.87" r="4.25"/>
  <circle class="cls-1" cx="131.83" cy="284.87" r="4.25"/>
  <circle class="cls-1" cx="144.59" cy="284.87" r="4.25"/>
  <circle class="cls-1" cx="157.34" cy="284.87" r="4.25"/>
  <circle class="cls-1" cx="170.1" cy="284.87" r="4.25"/>
  <circle class="cls-1" cx="182.86" cy="284.87" r="4.25"/>
  <circle class="cls-1" cx="195.61" cy="284.87" r="4.25"/>
  <circle class="cls-1" cx="208.37" cy="284.87" r="4.25"/>
  <circle class="cls-1" cx="221.12" cy="284.87" r="4.25"/>
  <circle class="cls-1" cx="29.78" cy="272.11" r="4.25"/>
  <circle class="cls-1" cx="17.02" cy="272.11" r="4.25"/>
  <circle class="cls-1" cx="42.54" cy="272.11" r="4.25"/>
  <circle class="cls-1" cx="55.29" cy="272.11" r="4.25"/>
  <circle class="cls-1" cx="68.05" cy="272.11" r="4.25"/>
  <circle class="cls-1" cx="80.8" cy="272.11" r="4.25"/>
  <circle class="cls-1" cx="93.56" cy="272.11" r="4.25"/>
  <circle class="cls-1" cx="106.32" cy="272.11" r="4.25"/>
  <circle class="cls-1" cx="119.07" cy="272.11" r="4.25"/>
  <circle class="cls-1" cx="131.83" cy="272.11" r="4.25"/>
  <circle class="cls-1" cx="144.59" cy="272.11" r="4.25"/>
  <circle class="cls-1" cx="157.34" cy="272.11" r="4.25"/>
  <circle class="cls-1" cx="170.1" cy="272.11" r="4.25"/>
  <circle class="cls-1" cx="182.86" cy="272.11" r="4.25"/>
  <circle class="cls-1" cx="195.61" cy="272.11" r="4.25"/>
  <circle class="cls-1" cx="208.37" cy="272.11" r="4.25"/>
  <circle class="cls-1" cx="221.12" cy="272.11" r="4.25"/>
  <circle class="cls-1" cx="29.78" cy="259.36" r="4.25"/>
  <circle class="cls-1" cx="29.78" cy="246.6" r="4.25"/>
  <circle class="cls-1" cx="17.02" cy="259.36" r="4.25"/>
  <circle class="cls-1" cx="17.02" cy="246.6" r="4.25"/>
  <circle class="cls-1" cx="42.54" cy="259.36" r="4.25"/>
  <circle class="cls-1" cx="55.29" cy="259.36" r="4.25"/>
  <circle class="cls-1" cx="68.05" cy="259.36" r="4.25"/>
  <circle class="cls-1" cx="68.05" cy="246.6" r="4.25"/>
  <circle class="cls-1" cx="80.8" cy="259.36" r="4.25"/>
  <circle class="cls-1" cx="80.8" cy="246.6" r="4.25"/>
  <circle class="cls-1" cx="93.56" cy="259.36" r="4.25"/>
  <circle class="cls-1" cx="93.56" cy="246.6" r="4.25"/>
  <circle class="cls-1" cx="106.32" cy="259.36" r="4.25"/>
  <circle class="cls-1" cx="119.07" cy="259.36" r="4.25"/>
  <circle class="cls-1" cx="131.83" cy="259.36" r="4.25"/>
  <circle class="cls-1" cx="144.59" cy="259.36" r="4.25"/>
  <circle class="cls-1" cx="157.34" cy="259.36" r="4.25"/>
  <circle class="cls-1" cx="170.1" cy="259.36" r="4.25"/>
  <circle class="cls-1" cx="182.86" cy="259.36" r="4.25"/>
  <circle class="cls-1" cx="195.61" cy="259.36" r="4.25"/>
  <circle class="cls-1" cx="208.37" cy="259.36" r="4.25"/>
  <circle class="cls-1" cx="221.12" cy="259.36" r="4.25"/>
  <circle class="cls-1" cx="106.32" cy="246.6" r="4.25"/>
  <circle class="cls-1" cx="106.32" cy="233.9" r="4.25"/>
  <circle class="cls-1" cx="119.07" cy="246.6" r="4.25"/>
  <circle class="cls-1" cx="131.83" cy="246.6" r="4.25"/>
  <circle class="cls-1" cx="144.59" cy="246.6" r="4.25"/>
  <circle class="cls-1" cx="157.34" cy="246.6" r="4.25"/>
  <circle class="cls-1" cx="170.1" cy="246.6" r="4.25"/>
  <circle class="cls-1" cx="182.86" cy="246.6" r="4.25"/>
  <circle class="cls-1" cx="195.61" cy="246.6" r="4.25"/>
  <circle class="cls-1" cx="208.37" cy="246.6" r="4.25"/>
  <circle class="cls-1" cx="221.12" cy="246.6" r="4.25"/>
  <circle class="cls-1" cx="119.07" cy="233.85" r="4.25"/>
  <circle class="cls-1" cx="131.83" cy="233.85" r="4.25"/>
  <circle class="cls-1" cx="144.59" cy="233.85" r="4.25"/>
  <circle class="cls-1" cx="157.34" cy="233.85" r="4.25"/>
  <circle class="cls-1" cx="170.1" cy="233.85" r="4.25"/>
  <circle class="cls-1" cx="182.86" cy="233.85" r="4.25"/>
  <circle class="cls-1" cx="195.61" cy="233.85" r="4.25"/>
  <circle class="cls-1" cx="208.37" cy="233.85" r="4.25"/>
  <circle class="cls-1" cx="221.12" cy="233.85" r="4.25"/>
  <circle class="cls-1" cx="131.83" cy="221.09" r="4.25"/>
  <circle class="cls-1" cx="144.59" cy="221.09" r="4.25"/>
  <circle class="cls-1" cx="157.34" cy="221.09" r="4.25"/>
  <circle class="cls-1" cx="170.1" cy="221.09" r="4.25"/>
  <circle class="cls-1" cx="182.86" cy="221.09" r="4.25"/>
  <circle class="cls-1" cx="195.61" cy="221.09" r="4.25"/>
  <circle class="cls-1" cx="208.37" cy="221.09" r="4.25"/>
  <circle class="cls-1" cx="221.12" cy="221.09" r="4.25"/>
  <circle class="cls-1" cx="131.83" cy="208.33" r="4.25"/>
  <circle class="cls-1" cx="144.59" cy="208.33" r="4.25"/>
  <circle class="cls-1" cx="157.34" cy="208.33" r="4.25"/>
  <circle class="cls-1" cx="170.1" cy="208.33" r="4.25"/>
  <circle class="cls-1" cx="182.86" cy="208.33" r="4.25"/>
  <circle class="cls-1" cx="195.61" cy="208.33" r="4.25"/>
  <circle class="cls-1" cx="208.37" cy="208.33" r="4.25"/>
  <circle class="cls-1" cx="221.12" cy="208.33" r="4.25"/>
  <circle class="cls-1" cx="144.59" cy="195.53" r="4.25"/>
  <circle class="cls-1" cx="119.07" cy="195.53" r="4.25"/>
  <circle class="cls-1" cx="80.7" cy="182.83" r="4.25"/>
  <circle class="cls-1" cx="68.05" cy="221.09" r="4.25"/>
  <circle class="cls-1" cx="157.34" cy="195.53" r="4.25"/>
  <circle class="cls-1" cx="170.1" cy="195.53" r="4.25"/>
  <circle class="cls-1" cx="182.86" cy="195.53" r="4.25"/>
  <circle class="cls-1" cx="195.61" cy="195.53" r="4.25"/>
  <circle class="cls-1" cx="208.37" cy="195.53" r="4.25"/>
  <circle class="cls-1" cx="221.12" cy="195.53" r="4.25"/>
  <circle class="cls-1" cx="144.59" cy="182.83" r="4.25"/>
  <circle class="cls-1" cx="131.83" cy="182.83" r="4.25"/>
  <circle class="cls-1" cx="157.34" cy="182.83" r="4.25"/>
  <circle class="cls-1" cx="170.1" cy="182.83" r="4.25"/>
  <circle class="cls-1" cx="182.86" cy="182.83" r="4.25"/>
  <circle class="cls-1" cx="195.61" cy="182.83" r="4.25"/>
  <circle class="cls-1" cx="208.37" cy="182.83" r="4.25"/>
  <circle class="cls-1" cx="221.12" cy="182.83" r="4.25"/>
  <circle class="cls-1" cx="144.59" cy="170.06" r="4.25"/>
  <circle class="cls-1" cx="131.83" cy="170.06" r="4.25"/>
  <circle class="cls-1" cx="119.07" cy="170.06" r="4.25"/>
  <circle class="cls-1" cx="157.34" cy="170.06" r="4.25"/>
  <circle class="cls-1" cx="170.1" cy="170.06" r="4.25"/>
  <circle class="cls-1" cx="182.86" cy="170.06" r="4.25"/>
  <circle class="cls-1" cx="195.61" cy="170.06" r="4.25"/>
  <circle class="cls-1" cx="208.37" cy="170.06" r="4.25"/>
  <circle class="cls-1" cx="221.12" cy="170.06" r="4.25"/>
  <circle class="cls-1" cx="144.59" cy="157.42" r="4.25"/>
  <circle class="cls-1" cx="131.83" cy="157.42" r="4.25"/>
  <circle class="cls-1" cx="119.07" cy="157.42" r="4.25"/>
  <circle class="cls-1" cx="106.3" cy="157.42" r="4.25"/>
  <circle class="cls-1" cx="93.56" cy="157.42" r="4.25"/>
  <circle class="cls-1" cx="93.56" cy="144.56" r="4.25"/>
  <circle class="cls-1" cx="106.31" cy="144.56" r="4.25"/>
  <circle class="cls-1" cx="119.07" cy="144.56" r="4.25"/>
  <circle class="cls-1" cx="131.83" cy="144.56" r="4.25"/>
  <circle class="cls-1" cx="144.59" cy="144.56" r="4.25"/>
  <circle class="cls-1" cx="157.35" cy="144.56" r="4.25"/>
  <circle class="cls-1" cx="170.11" cy="144.56" r="4.25"/>
  <circle class="cls-1" cx="182.87" cy="144.56" r="4.25"/>
  <circle class="cls-1" cx="195.63" cy="144.56" r="4.25"/>
  <circle class="cls-1" cx="208.39" cy="144.56" r="4.25"/>
  <circle class="cls-1" cx="208.39" cy="131.81" r="4.25"/>
  <circle class="cls-1" cx="195.63" cy="131.81" r="4.25"/>
  <circle class="cls-1" cx="195.63" cy="119.05" r="4.25"/>
  <circle class="cls-1" cx="182.87" cy="131.81" r="4.25"/>
  <circle class="cls-1" cx="182.87" cy="119.05" r="4.25"/>
  <circle class="cls-1" cx="182.87" cy="106.3" r="4.25"/>
  <circle class="cls-1" cx="170.09" cy="106.3" r="4.25"/>
  <circle class="cls-1" cx="157.32" cy="106.3" r="4.25"/>
  <circle class="cls-1" cx="144.54" cy="106.3" r="4.25"/>
  <circle class="cls-1" cx="131.76" cy="106.3" r="4.25"/>
  <circle class="cls-1" cx="118.98" cy="106.3" r="4.25"/>
  <circle class="cls-1" cx="106.2" cy="106.3" r="4.25"/>
  <circle class="cls-1" cx="106.2" cy="93.54" r="4.25"/>
  <circle class="cls-1" cx="118.98" cy="93.54" r="4.25"/>
  <circle class="cls-1" cx="131.76" cy="93.54" r="4.25"/>
  <circle class="cls-1" cx="144.54" cy="93.54" r="4.25"/>
  <circle class="cls-1" cx="157.32" cy="93.54" r="4.25"/>
  <circle class="cls-1" cx="170.09" cy="93.54" r="4.25"/>
  <circle class="cls-1" cx="170.09" cy="80.78" r="4.25"/>
  <circle class="cls-1" cx="157.35" cy="80.78" r="4.25"/>
  <circle class="cls-1" cx="144.64" cy="80.78" r="4.25"/>
  <circle class="cls-1" cx="131.76" cy="80.78" r="4.25"/>
  <circle class="cls-1" cx="118.98" cy="80.78" r="4.25"/>
  <circle class="cls-1" cx="182.87" cy="93.54" r="4.25"/>
  <circle class="cls-1" cx="182.87" cy="80.78" r="4.25"/>
  <circle class="cls-1" cx="195.61" cy="80.78" r="4.25"/>
  <circle class="cls-1" cx="208.43" cy="80.78" r="4.25"/>
  <circle class="cls-1" cx="221.08" cy="80.78" r="4.25"/>
  <circle class="cls-1" cx="233.88" cy="80.78" r="4.25"/>
  <circle class="cls-1" cx="246.63" cy="80.78" r="4.25"/>
  <circle class="cls-1" cx="246.63" cy="68.03" r="4.25"/>
  <circle class="cls-1" cx="233.85" cy="68.03" r="4.25"/>
  <circle class="cls-1" cx="221.08" cy="68.03" r="4.25"/>
  <circle class="cls-1" cx="208.43" cy="68.03" r="4.25"/>
  <circle class="cls-1" cx="195.61" cy="68.03" r="4.25"/>
  <circle class="cls-1" cx="182.87" cy="68.03" r="4.25"/>
  <circle class="cls-1" cx="170.09" cy="68.03" r="4.25"/>
  <circle class="cls-1" cx="157.35" cy="68.03" r="4.25"/>
  <circle class="cls-1" cx="157.15" cy="55.27" r="4.25"/>
  <circle class="cls-1" cx="170.09" cy="55.27" r="4.25"/>
  <circle class="cls-1" cx="183.04" cy="55.27" r="4.25"/>
  <circle class="cls-1" cx="195.61" cy="55.27" r="4.25"/>
  <circle class="cls-1" cx="208.36" cy="55.27" r="4.25"/>
  <circle class="cls-1" cx="157.15" cy="42.52" r="4.25"/>
  <circle class="cls-1" cx="144.58" cy="55.27" r="4.25"/>
  <circle class="cls-1" cx="259.58" cy="68.03" r="4.25"/>
  <circle class="cls-1" cx="259.58" cy="55.28" r="4.25"/>
  <circle class="cls-1" cx="259.58" cy="42.52" r="4.25"/>
  <circle class="cls-1" cx="259.58" cy="29.76" r="4.25"/>
  <circle class="cls-1" cx="284.9" cy="4.25" r="4.25"/>
  <circle class="cls-1" cx="297.65" cy="4.25" r="4.25"/>
  <circle class="cls-1" cx="310.41" cy="4.25" r="4.25"/>
  <circle class="cls-1" cx="272.14" cy="17.01" r="4.25"/>
  <circle class="cls-1" cx="246.63" cy="42.52" r="4.25"/>
  <circle class="cls-1" cx="233.85" cy="42.52" r="4.25"/>
  <circle class="cls-1" cx="246.63" cy="29.76" r="4.25"/>
  <circle class="cls-1" cx="246.63" cy="55.28" r="4.25"/>
  <circle class="cls-1" cx="195.65" cy="93.54" r="4.25"/>
  <circle class="cls-1" cx="195.65" cy="106.31" r="4.25"/>
  <circle class="cls-1" cx="233.85" cy="106.31" r="4.25"/>
  <circle class="cls-1" cx="208.43" cy="93.54" r="4.25"/>
  <circle class="cls-1" cx="106.2" cy="80.78" r="4.25"/>
  <circle class="cls-1" cx="93.43" cy="80.78" r="4.25"/>
  <circle class="cls-1" cx="93.43" cy="106.3" r="4.25"/>
  <circle class="cls-1" cx="170.11" cy="131.81" r="4.25"/>
  <circle class="cls-1" cx="170.11" cy="119.05" r="4.25"/>
  <circle class="cls-1" cx="157.35" cy="131.81" r="4.25"/>
  <circle class="cls-1" cx="157.35" cy="119.05" r="4.25"/>
  <circle class="cls-1" cx="144.59" cy="131.81" r="4.25"/>
  <circle class="cls-1" cx="144.59" cy="119.05" r="4.25"/>
  <circle class="cls-1" cx="131.83" cy="131.81" r="4.25"/>
  <circle class="cls-1" cx="131.83" cy="119.05" r="4.25"/>
  <circle class="cls-1" cx="119.07" cy="131.81" r="4.25"/>
  <circle class="cls-1" cx="119.07" cy="119.05" r="4.25"/>
  <circle class="cls-1" cx="106.31" cy="131.81" r="4.25"/>
  <circle class="cls-1" cx="106.31" cy="119.05" r="4.25"/>
  <circle class="cls-1" cx="93.55" cy="131.81" r="4.25"/>
  <circle class="cls-1" cx="93.55" cy="119.05" r="4.25"/>
  <circle class="cls-1" cx="80.79" cy="131.81" r="4.25"/>
  <circle class="cls-1" cx="80.79" cy="119.05" r="4.25"/>
  <circle class="cls-1" cx="80.7" cy="157.42" r="4.25"/>
  <circle class="cls-1" cx="157.34" cy="157.42" r="4.25"/>
  <circle class="cls-1" cx="170.1" cy="157.42" r="4.25"/>
  <circle class="cls-1" cx="182.86" cy="157.42" r="4.25"/>
  <circle class="cls-1" cx="195.61" cy="157.42" r="4.25"/>
  <circle class="cls-1" cx="208.37" cy="157.42" r="4.25"/>
  <circle class="cls-1" cx="221.12" cy="157.42" r="4.25"/>
  <circle class="cls-1" cx="233.88" cy="361.4" r="4.25"/>
  <circle class="cls-1" cx="233.88" cy="348.65" r="4.25"/>
  <circle class="cls-1" cx="246.63" cy="348.65" r="4.25"/>
  <circle class="cls-1" cx="259.39" cy="348.65" r="4.25"/>
  <circle class="cls-1" cx="272.14" cy="348.65" r="4.25"/>
  <circle class="cls-1" cx="284.9" cy="348.65" r="4.25"/>
  <circle class="cls-1" cx="297.65" cy="348.65" r="4.25"/>
  <circle class="cls-1" cx="310.41" cy="348.65" r="4.25"/>
  <circle class="cls-1" cx="323.17" cy="348.65" r="4.25"/>
  <circle class="cls-1" cx="323.17" cy="361.42" r="4.25"/>
  <circle class="cls-1" cx="310.41" cy="361.42" r="4.25"/>
  <circle class="cls-1" cx="297.65" cy="361.42" r="4.25"/>
  <circle class="cls-1" cx="284.9" cy="361.42" r="4.25"/>
  <circle class="cls-1" cx="272.14" cy="361.42" r="4.25"/>
  <circle class="cls-1" cx="259.39" cy="361.42" r="4.25"/>
  <circle class="cls-1" cx="246.63" cy="361.42" r="4.25"/>
  <circle class="cls-1" cx="233.88" cy="335.89" r="4.25"/>
  <circle class="cls-1" cx="246.63" cy="335.89" r="4.25"/>
  <circle class="cls-1" cx="259.38" cy="335.89" r="4.25"/>
  <circle class="cls-1" cx="272.13" cy="335.89" r="4.25"/>
  <circle class="cls-1" cx="284.88" cy="335.89" r="4.25"/>
  <circle class="cls-1" cx="297.63" cy="335.89" r="4.25"/>
  <circle class="cls-1" cx="310.38" cy="335.89" r="4.25"/>
  <circle class="cls-1" cx="323.12" cy="335.89" r="4.25"/>
  <circle class="cls-1" cx="323.12" cy="323.14" r="4.25"/>
  <circle class="cls-1" cx="323.12" cy="310.38" r="4.25"/>
  <circle class="cls-1" cx="335.92" cy="310.38" r="4.25"/>
  <circle class="cls-1" cx="348.68" cy="323.14" r="4.25"/>
  <circle class="cls-1" cx="335.92" cy="297.63" r="4.25"/>
  <circle class="cls-1" cx="323.16" cy="297.63" r="4.25"/>
  <circle class="cls-1" cx="310.41" cy="297.63" r="4.25"/>
  <circle class="cls-1" cx="297.65" cy="297.63" r="4.25"/>
  <circle class="cls-1" cx="284.9" cy="297.63" r="4.25"/>
  <circle class="cls-1" cx="272.14" cy="297.63" r="4.25"/>
  <circle class="cls-1" cx="259.39" cy="297.63" r="4.25"/>
  <circle class="cls-1" cx="246.63" cy="297.63" r="4.25"/>
  <circle class="cls-1" cx="335.92" cy="284.87" r="4.25"/>
  <circle class="cls-1" cx="323.16" cy="284.87" r="4.25"/>
  <circle class="cls-1" cx="310.41" cy="284.87" r="4.25"/>
  <circle class="cls-1" cx="297.65" cy="284.87" r="4.25"/>
  <circle class="cls-1" cx="284.9" cy="284.87" r="4.25"/>
  <circle class="cls-1" cx="272.14" cy="284.87" r="4.25"/>
  <circle class="cls-1" cx="259.39" cy="284.87" r="4.25"/>
  <circle class="cls-1" cx="246.63" cy="284.87" r="4.25"/>
  <circle class="cls-1" cx="335.92" cy="272.11" r="4.25"/>
  <circle class="cls-1" cx="323.16" cy="272.11" r="4.25"/>
  <circle class="cls-1" cx="310.41" cy="272.11" r="4.25"/>
  <circle class="cls-1" cx="297.65" cy="272.11" r="4.25"/>
  <circle class="cls-1" cx="284.9" cy="272.11" r="4.25"/>
  <circle class="cls-1" cx="272.14" cy="272.11" r="4.25"/>
  <circle class="cls-1" cx="259.39" cy="272.11" r="4.25"/>
  <circle class="cls-1" cx="246.63" cy="272.11" r="4.25"/>
  <circle class="cls-1" cx="335.92" cy="259.36" r="4.25"/>
  <circle class="cls-1" cx="323.16" cy="259.36" r="4.25"/>
  <circle class="cls-1" cx="310.41" cy="259.36" r="4.25"/>
  <circle class="cls-1" cx="297.65" cy="259.36" r="4.25"/>
  <circle class="cls-1" cx="284.9" cy="259.36" r="4.25"/>
  <circle class="cls-1" cx="272.14" cy="259.36" r="4.25"/>
  <circle class="cls-1" cx="259.39" cy="259.36" r="4.25"/>
  <circle class="cls-1" cx="246.63" cy="259.36" r="4.25"/>
  <circle class="cls-1" cx="335.92" cy="246.6" r="4.25"/>
  <circle class="cls-1" cx="323.16" cy="246.6" r="4.25"/>
  <circle class="cls-1" cx="310.41" cy="246.6" r="4.25"/>
  <circle class="cls-1" cx="297.65" cy="246.6" r="4.25"/>
  <circle class="cls-1" cx="284.9" cy="246.6" r="4.25"/>
  <circle class="cls-1" cx="272.14" cy="246.6" r="4.25"/>
  <circle class="cls-1" cx="259.39" cy="246.6" r="4.25"/>
  <circle class="cls-1" cx="246.63" cy="246.6" r="4.25"/>
  <circle class="cls-1" cx="335.92" cy="233.85" r="4.25"/>
  <circle class="cls-1" cx="323.16" cy="233.85" r="4.25"/>
  <circle class="cls-1" cx="310.41" cy="233.85" r="4.25"/>
  <circle class="cls-1" cx="297.65" cy="233.85" r="4.25"/>
  <circle class="cls-1" cx="284.9" cy="233.85" r="4.25"/>
  <circle class="cls-1" cx="272.14" cy="233.85" r="4.25"/>
  <circle class="cls-1" cx="259.39" cy="233.85" r="4.25"/>
  <circle class="cls-1" cx="246.63" cy="233.85" r="4.25"/>
  <circle class="cls-1" cx="335.92" cy="221.09" r="4.25"/>
  <circle class="cls-1" cx="323.16" cy="221.09" r="4.25"/>
  <circle class="cls-1" cx="310.41" cy="221.09" r="4.25"/>
  <circle class="cls-1" cx="297.65" cy="221.09" r="4.25"/>
  <circle class="cls-1" cx="284.9" cy="221.09" r="4.25"/>
  <circle class="cls-1" cx="272.14" cy="221.09" r="4.25"/>
  <circle class="cls-1" cx="259.39" cy="221.09" r="4.25"/>
  <circle class="cls-1" cx="246.63" cy="221.09" r="4.25"/>
  <circle class="cls-1" cx="335.92" cy="208.33" r="4.25"/>
  <circle class="cls-1" cx="323.16" cy="208.33" r="4.25"/>
  <circle class="cls-1" cx="310.41" cy="208.33" r="4.25"/>
  <circle class="cls-1" cx="297.65" cy="208.33" r="4.25"/>
  <circle class="cls-1" cx="284.9" cy="208.33" r="4.25"/>
  <circle class="cls-1" cx="272.14" cy="208.33" r="4.25"/>
  <circle class="cls-1" cx="259.39" cy="208.33" r="4.25"/>
  <circle class="cls-1" cx="246.63" cy="208.33" r="4.25"/>
  <circle class="cls-1" cx="335.92" cy="195.53" r="4.25"/>
  <circle class="cls-1" cx="323.16" cy="195.53" r="4.25"/>
  <circle class="cls-1" cx="310.41" cy="195.53" r="4.25"/>
  <circle class="cls-1" cx="297.65" cy="195.53" r="4.25"/>
  <circle class="cls-1" cx="284.9" cy="195.53" r="4.25"/>
  <circle class="cls-1" cx="272.14" cy="195.53" r="4.25"/>
  <circle class="cls-1" cx="259.39" cy="195.53" r="4.25"/>
  <circle class="cls-1" cx="246.63" cy="195.53" r="4.25"/>
  <circle class="cls-1" cx="335.92" cy="182.82" r="4.25"/>
  <circle class="cls-1" cx="348.68" cy="272.11" r="4.25"/>
  <circle class="cls-1" cx="348.68" cy="259.36" r="4.25"/>
  <circle class="cls-1" cx="348.68" cy="246.6" r="4.25"/>
  <circle class="cls-1" cx="361.43" cy="246.6" r="4.25"/>
  <circle class="cls-1" cx="348.68" cy="233.85" r="4.25"/>
  <circle class="cls-1" cx="361.43" cy="233.85" r="4.25"/>
  <circle class="cls-1" cx="348.68" cy="221.09" r="4.25"/>
  <circle class="cls-1" cx="361.43" cy="221.09" r="4.25"/>
  <circle class="cls-1" cx="348.68" cy="208.33" r="4.25"/>
  <circle class="cls-1" cx="348.68" cy="195.53" r="4.25"/>
  <circle class="cls-1" cx="348.68" cy="182.82" r="4.25"/>
  <circle class="cls-1" cx="323.16" cy="182.82" r="4.25"/>
  <circle class="cls-1" cx="310.41" cy="182.82" r="4.25"/>
  <circle class="cls-1" cx="297.65" cy="182.82" r="4.25"/>
  <circle class="cls-1" cx="284.9" cy="182.82" r="4.25"/>
  <circle class="cls-1" cx="272.14" cy="182.82" r="4.25"/>
  <circle class="cls-1" cx="259.39" cy="182.82" r="4.25"/>
  <circle class="cls-1" cx="246.63" cy="182.82" r="4.25"/>
  <circle class="cls-1" cx="335.92" cy="170.06" r="4.25"/>
  <circle class="cls-1" cx="323.16" cy="170.06" r="4.25"/>
  <circle class="cls-1" cx="310.41" cy="170.06" r="4.25"/>
  <circle class="cls-1" cx="297.65" cy="170.06" r="4.25"/>
  <circle class="cls-1" cx="297.65" cy="157.32" r="4.25"/>
  <circle class="cls-1" cx="284.9" cy="170.06" r="4.25"/>
  <circle class="cls-1" cx="284.9" cy="157.31" r="4.25"/>
  <circle class="cls-1" cx="272.14" cy="170.06" r="4.25"/>
  <circle class="cls-1" cx="272.14" cy="157.32" r="4.25"/>
  <circle class="cls-1" cx="272.14" cy="144.66" r="4.25"/>
  <circle class="cls-1" cx="259.58" cy="131.81" r="4.25"/>
  <circle class="cls-1" cx="246.63" cy="131.81" r="4.25"/>
  <circle class="cls-1" cx="259.39" cy="170.06" r="4.25"/>
  <circle class="cls-1" cx="246.63" cy="170.06" r="4.25"/>
  <circle class="cls-1" cx="246.63" cy="157.42" r="4.25"/>
  <circle class="cls-1" cx="310.41" cy="310.38" r="4.25"/>
  <circle class="cls-1" cx="297.7" cy="310.38" r="4.25"/>
  <circle class="cls-1" cx="284.98" cy="310.38" r="4.25"/>
  <circle class="cls-1" cx="272.27" cy="310.38" r="4.25"/>
  <circle class="cls-1" cx="259.56" cy="310.38" r="4.25"/>
  <circle class="cls-1" cx="246.85" cy="310.38" r="4.25"/>
  <circle class="cls-1" cx="310.41" cy="323.14" r="4.25"/>
  <circle class="cls-1" cx="297.7" cy="323.14" r="4.25"/>
  <circle class="cls-1" cx="284.98" cy="323.14" r="4.25"/>
  <circle class="cls-1" cx="272.27" cy="323.14" r="4.25"/>
  <circle class="cls-1" cx="259.56" cy="323.14" r="4.25"/>
  <circle class="cls-1" cx="246.85" cy="323.14" r="4.25"/>
  <circle class="cls-1" cx="233.88" cy="323.14" r="4.25"/>
  <circle class="cls-1" cx="233.88" cy="310.38" r="4.25"/>
  <circle class="cls-1" cx="233.88" cy="297.62" r="4.25"/>
  <circle class="cls-1" cx="233.88" cy="284.87" r="4.25"/>
  <circle class="cls-1" cx="233.88" cy="272.11" r="4.25"/>
  <circle class="cls-1" cx="233.88" cy="259.36" r="4.25"/>
  <circle class="cls-1" cx="233.88" cy="246.6" r="4.25"/>
  <circle class="cls-1" cx="233.88" cy="233.85" r="4.25"/>
  <circle class="cls-1" cx="233.88" cy="221.09" r="4.25"/>
  <circle class="cls-1" cx="233.88" cy="208.33" r="4.25"/>
  <circle class="cls-1" cx="233.88" cy="195.53" r="4.25"/>
  <circle class="cls-1" cx="233.88" cy="182.82" r="4.25"/>
  <circle class="cls-1" cx="233.88" cy="170.07" r="4.25"/>
</svg>