<?xml version="1.0" encoding="UTF-8"?>
<svg id="Capa_2" data-name="Capa 2" xmlns="http://www.w3.org/2000/svg" viewBox="0 0 467.72 225.35">
  <defs>
    <style>
      .cls-1 {
        fill: #e94f1b;
      }
    </style>
  </defs>
  <circle class="cls-1" cx="93.55" cy="131.81" r="4.25"/>
  <circle class="cls-1" cx="93.55" cy="144.56" r="4.25"/>
  <circle class="cls-1" cx="93.55" cy="157.32" r="4.25"/>
  <circle class="cls-1" cx="93.55" cy="119.05" r="4.25"/>
  <circle class="cls-1" cx="93.55" cy="93.54" r="4.25"/>
  <circle class="cls-1" cx="93.55" cy="68.03" r="4.25"/>
  <circle class="cls-1" cx="106.3" cy="68.03" r="4.25"/>
  <circle class="cls-1" cx="106.3" cy="55.27" r="4.25"/>
  <circle class="cls-1" cx="119.06" cy="55.27" r="4.25"/>
  <circle class="cls-1" cx="119.06" cy="42.52" r="4.25"/>
  <circle class="cls-1" cx="131.81" cy="42.52" r="4.25"/>
  <circle class="cls-1" cx="144.57" cy="42.52" r="4.25"/>
  <circle class="cls-1" cx="144.57" cy="29.76" r="4.25"/>
  <circle class="cls-1" cx="157.32" cy="29.76" r="4.25"/>
  <circle class="cls-1" cx="157.32" cy="42.52" r="4.25"/>
  <circle class="cls-1" cx="157.32" cy="55.27" r="4.25"/>
  <circle class="cls-1" cx="131.81" cy="55.27" r="4.25"/>
  <circle class="cls-1" cx="106.3" cy="119.05" r="4.25"/>
  <circle class="cls-1" cx="93.55" cy="106.3" r="4.25"/>
  <circle class="cls-1" cx="93.55" cy="80.78" r="4.25"/>
  <circle class="cls-1" cx="80.79" cy="55.27" r="4.25"/>
  <circle class="cls-1" cx="93.55" cy="42.52" r="4.25"/>
  <circle class="cls-1" cx="80.79" cy="68.03" r="4.25"/>
  <circle class="cls-1" cx="80.79" cy="42.52" r="4.25"/>
  <circle class="cls-1" cx="68.03" cy="29.76" r="4.25"/>
  <circle class="cls-1" cx="80.79" cy="131.81" r="4.25"/>
  <circle class="cls-1" cx="80.79" cy="144.56" r="4.25"/>
  <circle class="cls-1" cx="80.79" cy="157.32" r="4.25"/>
  <circle class="cls-1" cx="68.03" cy="170.07" r="4.25"/>
  <circle class="cls-1" cx="68.03" cy="182.83" r="4.25"/>
  <circle class="cls-1" cx="68.03" cy="195.58" r="4.25"/>
  <circle class="cls-1" cx="55.28" cy="208.34" r="4.25"/>
  <circle class="cls-1" cx="55.28" cy="221.09" r="4.25"/>
  <circle class="cls-1" cx="42.52" cy="221.09" r="4.25"/>
  <circle class="cls-1" cx="29.76" cy="221.09" r="4.25"/>
  <circle class="cls-1" cx="17.01" cy="221.09" r="4.25"/>
  <circle class="cls-1" cx="4.25" cy="221.09" r="4.25"/>
  <circle class="cls-1" cx="68.03" cy="221.09" r="4.25"/>
  <circle class="cls-1" cx="80.79" cy="221.09" r="4.25"/>
  <circle class="cls-1" cx="93.55" cy="221.09" r="4.25"/>
  <circle class="cls-1" cx="106.3" cy="221.09" r="4.25"/>
  <circle class="cls-1" cx="119.06" cy="221.09" r="4.25"/>
  <circle class="cls-1" cx="131.81" cy="221.09" r="4.25"/>
  <circle class="cls-1" cx="144.57" cy="221.09" r="4.25"/>
  <circle class="cls-1" cx="157.32" cy="221.09" r="4.25"/>
  <circle class="cls-1" cx="68.03" cy="208.34" r="4.25"/>
  <circle class="cls-1" cx="80.79" cy="208.34" r="4.25"/>
  <circle class="cls-1" cx="93.55" cy="208.34" r="4.25"/>
  <circle class="cls-1" cx="80.79" cy="182.83" r="4.25"/>
  <circle class="cls-1" cx="80.79" cy="195.58" r="4.25"/>
  <circle class="cls-1" cx="93.55" cy="182.83" r="4.25"/>
  <circle class="cls-1" cx="93.55" cy="195.58" r="4.25"/>
  <circle class="cls-1" cx="106.3" cy="182.83" r="4.25"/>
  <circle class="cls-1" cx="106.3" cy="170.07" r="4.25"/>
  <circle class="cls-1" cx="106.3" cy="157.32" r="4.25"/>
  <circle class="cls-1" cx="106.3" cy="144.56" r="4.25"/>
  <circle class="cls-1" cx="119.06" cy="157.32" r="4.25"/>
  <circle class="cls-1" cx="119.06" cy="144.56" r="4.25"/>
  <circle class="cls-1" cx="119.06" cy="131.81" r="4.25"/>
  <circle class="cls-1" cx="131.81" cy="144.56" r="4.25"/>
  <circle class="cls-1" cx="131.81" cy="131.81" r="4.25"/>
  <circle class="cls-1" cx="144.57" cy="131.81" r="4.25"/>
  <circle class="cls-1" cx="144.57" cy="119.05" r="4.25"/>
  <circle class="cls-1" cx="157.32" cy="119.05" r="4.25"/>
  <circle class="cls-1" cx="131.81" cy="119.05" r="4.25"/>
  <circle class="cls-1" cx="131.81" cy="106.3" r="4.25"/>
  <circle class="cls-1" cx="144.57" cy="106.3" r="4.25"/>
  <circle class="cls-1" cx="157.33" cy="106.3" r="4.25"/>
  <circle class="cls-1" cx="170.08" cy="106.3" r="4.25"/>
  <circle class="cls-1" cx="170.08" cy="93.54" r="4.25"/>
  <circle class="cls-1" cx="182.84" cy="93.54" r="4.25"/>
  <circle class="cls-1" cx="195.59" cy="106.3" r="4.25"/>
  <circle class="cls-1" cx="157.32" cy="93.54" r="4.25"/>
  <circle class="cls-1" cx="144.57" cy="93.54" r="4.25"/>
  <circle class="cls-1" cx="144.57" cy="68.03" r="4.25"/>
  <circle class="cls-1" cx="157.32" cy="80.78" r="4.25"/>
  <circle class="cls-1" cx="170.08" cy="80.78" r="4.25"/>
  <circle class="cls-1" cx="182.84" cy="80.78" r="4.25"/>
  <circle class="cls-1" cx="195.59" cy="80.78" r="4.25"/>
  <circle class="cls-1" cx="208.35" cy="80.78" r="4.25"/>
  <circle class="cls-1" cx="195.59" cy="68.03" r="4.25"/>
  <circle class="cls-1" cx="208.35" cy="68.03" r="4.25"/>
  <circle class="cls-1" cx="221.1" cy="68.03" r="4.25"/>
  <circle class="cls-1" cx="233.86" cy="68.03" r="4.25"/>
  <circle class="cls-1" cx="246.62" cy="68.03" r="4.25"/>
  <circle class="cls-1" cx="259.37" cy="68.03" r="4.25"/>
  <circle class="cls-1" cx="246.62" cy="80.78" r="4.25"/>
  <circle class="cls-1" cx="259.37" cy="80.78" r="4.25"/>
  <circle class="cls-1" cx="259.37" cy="93.54" r="4.25"/>
  <circle class="cls-1" cx="272.13" cy="93.54" r="4.25"/>
  <circle class="cls-1" cx="272.13" cy="80.79" r="4.25"/>
  <circle class="cls-1" cx="284.88" cy="80.79" r="4.25"/>
  <circle class="cls-1" cx="297.64" cy="80.79" r="4.25"/>
  <circle class="cls-1" cx="310.4" cy="80.79" r="4.25"/>
  <circle class="cls-1" cx="310.4" cy="68.03" r="4.25"/>
  <circle class="cls-1" cx="323.15" cy="80.79" r="4.25"/>
  <circle class="cls-1" cx="335.91" cy="80.79" r="4.25"/>
  <circle class="cls-1" cx="323.15" cy="68.03" r="4.25"/>
  <circle class="cls-1" cx="335.91" cy="68.03" r="4.25"/>
  <circle class="cls-1" cx="335.91" cy="93.54" r="4.25"/>
  <circle class="cls-1" cx="348.66" cy="93.54" r="4.25"/>
  <circle class="cls-1" cx="348.66" cy="80.78" r="4.25"/>
  <circle class="cls-1" cx="361.42" cy="80.78" r="4.25"/>
  <circle class="cls-1" cx="361.42" cy="106.3" r="4.25"/>
  <circle class="cls-1" cx="374.17" cy="119.05" r="4.25"/>
  <circle class="cls-1" cx="386.93" cy="119.05" r="4.25"/>
  <circle class="cls-1" cx="399.69" cy="119.05" r="4.25"/>
  <circle class="cls-1" cx="399.69" cy="106.3" r="4.25"/>
  <circle class="cls-1" cx="272.13" cy="68.03" r="4.25"/>
  <circle class="cls-1" cx="284.88" cy="68.03" r="4.25"/>
  <circle class="cls-1" cx="297.64" cy="68.03" r="4.25"/>
  <circle class="cls-1" cx="272.13" cy="55.27" r="4.25"/>
  <circle class="cls-1" cx="284.88" cy="55.27" r="4.25"/>
  <circle class="cls-1" cx="297.64" cy="55.27" r="4.25"/>
  <circle class="cls-1" cx="272.13" cy="42.52" r="4.25"/>
  <circle class="cls-1" cx="284.88" cy="42.52" r="4.25"/>
  <circle class="cls-1" cx="272.13" cy="29.76" r="4.25"/>
  <circle class="cls-1" cx="284.88" cy="29.76" r="4.25"/>
  <circle class="cls-1" cx="297.64" cy="29.76" r="4.25"/>
  <circle class="cls-1" cx="310.4" cy="29.76" r="4.25"/>
  <circle class="cls-1" cx="323.15" cy="29.76" r="4.25"/>
  <circle class="cls-1" cx="335.91" cy="29.76" r="4.25"/>
  <circle class="cls-1" cx="348.66" cy="29.76" r="4.25"/>
  <circle class="cls-1" cx="310.4" cy="42.52" r="4.25"/>
  <circle class="cls-1" cx="310.4" cy="55.27" r="4.25"/>
  <circle class="cls-1" cx="323.15" cy="55.27" r="4.25"/>
  <circle class="cls-1" cx="335.91" cy="55.27" r="4.25"/>
  <circle class="cls-1" cx="348.66" cy="55.27" r="4.25"/>
  <circle class="cls-1" cx="361.42" cy="55.27" r="4.25"/>
  <circle class="cls-1" cx="374.17" cy="55.27" r="4.25"/>
  <circle class="cls-1" cx="386.93" cy="68.03" r="4.25"/>
  <circle class="cls-1" cx="399.69" cy="68.03" r="4.25"/>
  <circle class="cls-1" cx="412.44" cy="68.03" r="4.25"/>
  <circle class="cls-1" cx="374.17" cy="68.03" r="4.25"/>
  <circle class="cls-1" cx="374.17" cy="80.78" r="4.25"/>
  <circle class="cls-1" cx="386.93" cy="80.78" r="4.25"/>
  <circle class="cls-1" cx="399.69" cy="80.78" r="4.25"/>
  <circle class="cls-1" cx="361.42" cy="68.03" r="4.25"/>
  <circle class="cls-1" cx="348.66" cy="68.03" r="4.25"/>
  <circle class="cls-1" cx="323.15" cy="42.52" r="4.25"/>
  <circle class="cls-1" cx="335.91" cy="42.52" r="4.25"/>
  <circle class="cls-1" cx="348.66" cy="42.52" r="4.25"/>
  <circle class="cls-1" cx="361.42" cy="42.52" r="4.25"/>
  <circle class="cls-1" cx="361.42" cy="29.76" r="4.25"/>
  <circle class="cls-1" cx="374.17" cy="29.76" r="4.25"/>
  <circle class="cls-1" cx="386.93" cy="29.76" r="4.25"/>
  <circle class="cls-1" cx="399.69" cy="29.76" r="4.25"/>
  <circle class="cls-1" cx="412.44" cy="29.76" r="4.25"/>
  <circle class="cls-1" cx="425.2" cy="29.76" r="4.25"/>
  <circle class="cls-1" cx="297.64" cy="42.52" r="4.25"/>
  <circle class="cls-1" cx="272.13" cy="17.01" r="4.25"/>
  <circle class="cls-1" cx="284.88" cy="17.01" r="4.25"/>
  <circle class="cls-1" cx="297.64" cy="17.01" r="4.25"/>
  <circle class="cls-1" cx="310.4" cy="17.01" r="4.25"/>
  <circle class="cls-1" cx="323.15" cy="17.01" r="4.25"/>
  <circle class="cls-1" cx="323.15" cy="4.25" r="4.25"/>
  <circle class="cls-1" cx="335.91" cy="17.01" r="4.25"/>
  <circle class="cls-1" cx="348.66" cy="17.01" r="4.25"/>
  <circle class="cls-1" cx="361.42" cy="17.01" r="4.25"/>
  <circle class="cls-1" cx="348.66" cy="4.25" r="4.25"/>
  <circle class="cls-1" cx="361.42" cy="4.25" r="4.25"/>
  <circle class="cls-1" cx="374.17" cy="17.01" r="4.25"/>
  <circle class="cls-1" cx="386.93" cy="17.01" r="4.25"/>
  <circle class="cls-1" cx="399.69" cy="17.01" r="4.25"/>
  <circle class="cls-1" cx="412.44" cy="17.01" r="4.25"/>
  <circle class="cls-1" cx="425.2" cy="17.01" r="4.25"/>
  <circle class="cls-1" cx="437.95" cy="29.76" r="4.25"/>
  <circle class="cls-1" cx="437.95" cy="42.52" r="4.25"/>
  <circle class="cls-1" cx="425.2" cy="42.52" r="4.25"/>
  <circle class="cls-1" cx="412.44" cy="42.52" r="4.25"/>
  <circle class="cls-1" cx="399.69" cy="42.52" r="4.25"/>
  <circle class="cls-1" cx="386.93" cy="42.52" r="4.25"/>
  <circle class="cls-1" cx="374.17" cy="42.52" r="4.25"/>
  <circle class="cls-1" cx="437.95" cy="55.27" r="4.25"/>
  <circle class="cls-1" cx="425.2" cy="55.27" r="4.25"/>
  <circle class="cls-1" cx="412.44" cy="55.27" r="4.25"/>
  <circle class="cls-1" cx="450.71" cy="55.27" r="4.25"/>
  <circle class="cls-1" cx="450.71" cy="68.03" r="4.25"/>
  <circle class="cls-1" cx="437.95" cy="80.78" r="4.25"/>
  <circle class="cls-1" cx="450.71" cy="93.54" r="4.25"/>
  <circle class="cls-1" cx="463.47" cy="93.54" r="4.25"/>
  <circle class="cls-1" cx="425.2" cy="80.78" r="4.25"/>
  <circle class="cls-1" cx="412.44" cy="80.78" r="4.25"/>
  <circle class="cls-1" cx="425.2" cy="93.54" r="4.25"/>
  <circle class="cls-1" cx="386.93" cy="93.54" r="4.25"/>
  <circle class="cls-1" cx="425.2" cy="68.03" r="4.25"/>
  <circle class="cls-1" cx="463.47" cy="68.03" r="4.25"/>
  <circle class="cls-1" cx="284.88" cy="106.3" r="4.25"/>
  <circle class="cls-1" cx="284.88" cy="93.54" r="4.25"/>
  <circle class="cls-1" cx="297.64" cy="93.54" r="4.25"/>
  <circle class="cls-1" cx="310.4" cy="93.54" r="4.25"/>
  <circle class="cls-1" cx="182.84" cy="68.03" r="4.25"/>
  <circle class="cls-1" cx="182.84" cy="55.27" r="4.25"/>
  <circle class="cls-1" cx="182.84" cy="42.52" r="4.25"/>
  <circle class="cls-1" cx="195.59" cy="42.52" r="4.25"/>
  <circle class="cls-1" cx="208.35" cy="42.52" r="4.25"/>
  <circle class="cls-1" cx="208.35" cy="55.27" r="4.25"/>
  <circle class="cls-1" cx="195.59" cy="29.76" r="4.25"/>
  <circle class="cls-1" cx="208.35" cy="29.76" r="4.25"/>
  <circle class="cls-1" cx="221.1" cy="29.76" r="4.25"/>
  <circle class="cls-1" cx="221.1" cy="42.52" r="4.25"/>
  <circle class="cls-1" cx="221.1" cy="55.27" r="4.25"/>
  <circle class="cls-1" cx="233.86" cy="42.52" r="4.25"/>
  <circle class="cls-1" cx="233.86" cy="55.27" r="4.25"/>
  <circle class="cls-1" cx="246.62" cy="42.52" r="4.25"/>
  <circle class="cls-1" cx="246.62" cy="55.27" r="4.25"/>
  <circle class="cls-1" cx="259.37" cy="42.52" r="4.25"/>
  <circle class="cls-1" cx="259.37" cy="55.27" r="4.25"/>
  <circle class="cls-1" cx="233.86" cy="29.76" r="4.25"/>
  <circle class="cls-1" cx="246.62" cy="29.76" r="4.25"/>
  <circle class="cls-1" cx="259.37" cy="29.76" r="4.25"/>
  <circle class="cls-1" cx="195.59" cy="17.01" r="4.25"/>
  <circle class="cls-1" cx="208.35" cy="17.01" r="4.25"/>
  <circle class="cls-1" cx="221.1" cy="17.01" r="4.25"/>
  <circle class="cls-1" cx="233.86" cy="17.01" r="4.25"/>
  <circle class="cls-1" cx="246.62" cy="17.01" r="4.25"/>
  <circle class="cls-1" cx="246.62" cy="4.25" r="4.25"/>
  <circle class="cls-1" cx="259.37" cy="17.01" r="4.25"/>
  <circle class="cls-1" cx="170.08" cy="68.03" r="4.25"/>
  <circle class="cls-1" cx="144.57" cy="80.78" r="4.25"/>
  <circle class="cls-1" cx="80.79" cy="170.07" r="4.25"/>
  <circle class="cls-1" cx="93.55" cy="170.07" r="4.25"/>
</svg>