<?xml version="1.0" encoding="UTF-8"?>
<svg id="Capa_2" data-name="Capa 2" xmlns="http://www.w3.org/2000/svg" viewBox="0 0 391.18 466.68">
  <defs>
    <style>
      .cls-1 {
        fill: #e94f1b;
      }
    </style>
  </defs>
  <circle class="cls-1" cx="195.59" cy="157.32" r="4.25"/>
  <circle class="cls-1" cx="195.59" cy="80.79" r="4.25"/>
  <circle class="cls-1" cx="195.59" cy="55.28" r="4.25"/>
  <circle class="cls-1" cx="208.35" cy="42.52" r="4.25"/>
  <circle class="cls-1" cx="182.84" cy="55.28" r="4.25"/>
  <circle class="cls-1" cx="195.59" cy="29.76" r="4.25"/>
  <circle class="cls-1" cx="182.84" cy="29.76" r="4.25"/>
  <circle class="cls-1" cx="195.59" cy="4.25" r="4.25"/>
  <circle class="cls-1" cx="182.84" cy="4.25" r="4.25"/>
  <circle class="cls-1" cx="170.08" cy="17.01" r="4.25"/>
  <circle class="cls-1" cx="195.59" cy="93.54" r="4.25"/>
  <circle class="cls-1" cx="195.59" cy="106.3" r="4.25"/>
  <circle class="cls-1" cx="195.59" cy="119.05" r="4.25"/>
  <circle class="cls-1" cx="182.84" cy="106.3" r="4.25"/>
  <circle class="cls-1" cx="182.84" cy="93.54" r="4.25"/>
  <circle class="cls-1" cx="182.84" cy="80.78" r="4.25"/>
  <circle class="cls-1" cx="170.08" cy="80.78" r="4.25"/>
  <circle class="cls-1" cx="170.08" cy="93.54" r="4.25"/>
  <circle class="cls-1" cx="157.32" cy="80.79" r="4.25"/>
  <circle class="cls-1" cx="157.32" cy="93.54" r="4.25"/>
  <circle class="cls-1" cx="144.57" cy="80.79" r="4.25"/>
  <circle class="cls-1" cx="144.57" cy="93.54" r="4.25"/>
  <circle class="cls-1" cx="131.81" cy="93.54" r="4.25"/>
  <circle class="cls-1" cx="131.81" cy="106.3" r="4.25"/>
  <circle class="cls-1" cx="119.06" cy="93.54" r="4.25"/>
  <circle class="cls-1" cx="119.06" cy="106.3" r="4.25"/>
  <circle class="cls-1" cx="106.3" cy="106.3" r="4.25"/>
  <circle class="cls-1" cx="106.3" cy="119.05" r="4.25"/>
  <circle class="cls-1" cx="93.54" cy="106.3" r="4.25"/>
  <circle class="cls-1" cx="93.54" cy="119.05" r="4.25"/>
  <circle class="cls-1" cx="80.79" cy="119.05" r="4.25"/>
  <circle class="cls-1" cx="80.79" cy="131.81" r="4.25"/>
  <circle class="cls-1" cx="68.03" cy="131.81" r="4.25"/>
  <circle class="cls-1" cx="68.03" cy="144.73" r="4.25"/>
  <circle class="cls-1" cx="55.28" cy="144.73" r="4.25"/>
  <circle class="cls-1" cx="42.52" cy="157.32" r="4.25"/>
  <circle class="cls-1" cx="42.52" cy="170.07" r="4.25"/>
  <circle class="cls-1" cx="42.52" cy="182.83" r="4.25"/>
  <circle class="cls-1" cx="29.76" cy="182.83" r="4.25"/>
  <circle class="cls-1" cx="29.76" cy="195.58" r="4.25"/>
  <circle class="cls-1" cx="29.76" cy="208.34" r="4.25"/>
  <circle class="cls-1" cx="17.01" cy="208.34" r="4.25"/>
  <circle class="cls-1" cx="17.01" cy="221.1" r="4.25"/>
  <circle class="cls-1" cx="17.01" cy="233.85" r="4.25"/>
  <circle class="cls-1" cx="29.76" cy="233.85" r="4.25"/>
  <circle class="cls-1" cx="17.01" cy="246.61" r="4.25"/>
  <circle class="cls-1" cx="4.25" cy="246.61" r="4.25"/>
  <circle class="cls-1" cx="17.01" cy="259.36" r="4.25"/>
  <circle class="cls-1" cx="4.25" cy="259.36" r="4.25"/>
  <circle class="cls-1" cx="29.76" cy="259.36" r="4.25"/>
  <circle class="cls-1" cx="17.01" cy="284.87" r="4.25"/>
  <circle class="cls-1" cx="4.25" cy="284.87" r="4.25"/>
  <circle class="cls-1" cx="29.77" cy="284.87" r="4.25"/>
  <circle class="cls-1" cx="42.33" cy="271.6" r="4.25"/>
  <circle class="cls-1" cx="17.01" cy="272.12" r="4.25"/>
  <circle class="cls-1" cx="4.25" cy="272.12" r="4.25"/>
  <circle class="cls-1" cx="29.77" cy="272.12" r="4.25"/>
  <circle class="cls-1" cx="29.77" cy="221.1" r="4.25"/>
  <circle class="cls-1" cx="55.28" cy="157.4" r="4.25"/>
  <circle class="cls-1" cx="195.59" cy="462.42" r="4.25"/>
  <circle class="cls-1" cx="195.59" cy="449.67" r="4.25"/>
  <circle class="cls-1" cx="195.59" cy="436.91" r="4.25"/>
  <circle class="cls-1" cx="195.59" cy="424.16" r="4.25"/>
  <circle class="cls-1" cx="182.84" cy="436.91" r="4.25"/>
  <circle class="cls-1" cx="182.84" cy="449.67" r="4.25"/>
  <circle class="cls-1" cx="182.84" cy="462.42" r="4.25"/>
  <circle class="cls-1" cx="170.08" cy="462.42" r="4.25"/>
  <circle class="cls-1" cx="170.08" cy="449.67" r="4.25"/>
  <circle class="cls-1" cx="157.32" cy="462.42" r="4.25"/>
  <circle class="cls-1" cx="157.32" cy="449.67" r="4.25"/>
  <circle class="cls-1" cx="144.57" cy="462.42" r="4.25"/>
  <circle class="cls-1" cx="144.57" cy="449.67" r="4.25"/>
  <circle class="cls-1" cx="131.81" cy="449.67" r="4.25"/>
  <circle class="cls-1" cx="131.81" cy="436.91" r="4.25"/>
  <circle class="cls-1" cx="119.06" cy="449.67" r="4.25"/>
  <circle class="cls-1" cx="119.06" cy="436.91" r="4.25"/>
  <circle class="cls-1" cx="106.3" cy="436.91" r="4.25"/>
  <circle class="cls-1" cx="106.3" cy="424.16" r="4.25"/>
  <circle class="cls-1" cx="93.54" cy="436.91" r="4.25"/>
  <circle class="cls-1" cx="93.54" cy="424.16" r="4.25"/>
  <circle class="cls-1" cx="80.79" cy="424.16" r="4.25"/>
  <circle class="cls-1" cx="80.79" cy="411.4" r="4.25"/>
  <circle class="cls-1" cx="68.03" cy="411.4" r="4.25"/>
  <circle class="cls-1" cx="68.03" cy="398.47" r="4.25"/>
  <circle class="cls-1" cx="55.28" cy="398.47" r="4.25"/>
  <circle class="cls-1" cx="42.52" cy="385.89" r="4.25"/>
  <circle class="cls-1" cx="42.52" cy="373.13" r="4.25"/>
  <circle class="cls-1" cx="42.52" cy="360.38" r="4.25"/>
  <circle class="cls-1" cx="29.76" cy="360.38" r="4.25"/>
  <circle class="cls-1" cx="29.76" cy="347.62" r="4.25"/>
  <circle class="cls-1" cx="29.76" cy="334.87" r="4.25"/>
  <circle class="cls-1" cx="17.01" cy="334.87" r="4.25"/>
  <circle class="cls-1" cx="17.01" cy="322.11" r="4.25"/>
  <circle class="cls-1" cx="17.01" cy="309.36" r="4.25"/>
  <circle class="cls-1" cx="29.76" cy="309.36" r="4.25"/>
  <circle class="cls-1" cx="17.01" cy="296.6" r="4.25"/>
  <circle class="cls-1" cx="4.25" cy="296.6" r="4.25"/>
  <circle class="cls-1" cx="17.01" cy="258.34" r="4.25"/>
  <circle class="cls-1" cx="4.25" cy="258.34" r="4.25"/>
  <circle class="cls-1" cx="29.77" cy="258.34" r="4.25"/>
  <circle class="cls-1" cx="29.77" cy="322.11" r="4.25"/>
  <circle class="cls-1" cx="55.28" cy="385.8" r="4.25"/>
  <circle class="cls-1" cx="208.35" cy="106.3" r="4.25"/>
  <circle class="cls-1" cx="208.35" cy="93.54" r="4.25"/>
  <circle class="cls-1" cx="208.35" cy="80.78" r="4.25"/>
  <circle class="cls-1" cx="221.1" cy="80.78" r="4.25"/>
  <circle class="cls-1" cx="221.1" cy="93.54" r="4.25"/>
  <circle class="cls-1" cx="233.86" cy="80.79" r="4.25"/>
  <circle class="cls-1" cx="233.86" cy="93.54" r="4.25"/>
  <circle class="cls-1" cx="246.62" cy="80.79" r="4.25"/>
  <circle class="cls-1" cx="246.62" cy="93.54" r="4.25"/>
  <circle class="cls-1" cx="259.37" cy="93.54" r="4.25"/>
  <circle class="cls-1" cx="259.37" cy="106.3" r="4.25"/>
  <circle class="cls-1" cx="272.13" cy="93.54" r="4.25"/>
  <circle class="cls-1" cx="272.13" cy="106.3" r="4.25"/>
  <circle class="cls-1" cx="284.88" cy="106.3" r="4.25"/>
  <circle class="cls-1" cx="284.88" cy="119.05" r="4.25"/>
  <circle class="cls-1" cx="297.64" cy="106.3" r="4.25"/>
  <circle class="cls-1" cx="297.64" cy="119.05" r="4.25"/>
  <circle class="cls-1" cx="310.4" cy="119.05" r="4.25"/>
  <circle class="cls-1" cx="310.4" cy="131.81" r="4.25"/>
  <circle class="cls-1" cx="323.15" cy="131.81" r="4.25"/>
  <circle class="cls-1" cx="323.15" cy="144.73" r="4.25"/>
  <circle class="cls-1" cx="335.91" cy="144.73" r="4.25"/>
  <circle class="cls-1" cx="348.66" cy="157.32" r="4.25"/>
  <circle class="cls-1" cx="348.66" cy="170.07" r="4.25"/>
  <circle class="cls-1" cx="348.66" cy="182.83" r="4.25"/>
  <circle class="cls-1" cx="361.42" cy="182.83" r="4.25"/>
  <circle class="cls-1" cx="361.42" cy="195.58" r="4.25"/>
  <circle class="cls-1" cx="361.42" cy="208.34" r="4.25"/>
  <circle class="cls-1" cx="374.18" cy="208.34" r="4.25"/>
  <circle class="cls-1" cx="374.18" cy="221.1" r="4.25"/>
  <circle class="cls-1" cx="374.18" cy="233.85" r="4.25"/>
  <circle class="cls-1" cx="361.42" cy="233.85" r="4.25"/>
  <circle class="cls-1" cx="374.18" cy="246.61" r="4.25"/>
  <circle class="cls-1" cx="386.93" cy="246.61" r="4.25"/>
  <circle class="cls-1" cx="374.18" cy="259.36" r="4.25"/>
  <circle class="cls-1" cx="386.93" cy="259.36" r="4.25"/>
  <circle class="cls-1" cx="361.42" cy="259.36" r="4.25"/>
  <circle class="cls-1" cx="374.18" cy="284.87" r="4.25"/>
  <circle class="cls-1" cx="386.93" cy="284.87" r="4.25"/>
  <circle class="cls-1" cx="361.42" cy="284.87" r="4.25"/>
  <circle class="cls-1" cx="348.85" cy="271.6" r="4.25"/>
  <circle class="cls-1" cx="374.18" cy="272.12" r="4.25"/>
  <circle class="cls-1" cx="386.93" cy="272.12" r="4.25"/>
  <circle class="cls-1" cx="361.42" cy="272.12" r="4.25"/>
  <circle class="cls-1" cx="361.42" cy="221.1" r="4.25"/>
  <circle class="cls-1" cx="335.91" cy="157.4" r="4.25"/>
  <circle class="cls-1" cx="208.35" cy="436.91" r="4.25"/>
  <circle class="cls-1" cx="208.35" cy="449.67" r="4.25"/>
  <circle class="cls-1" cx="208.35" cy="462.42" r="4.25"/>
  <circle class="cls-1" cx="221.1" cy="462.42" r="4.25"/>
  <circle class="cls-1" cx="221.1" cy="449.67" r="4.25"/>
  <circle class="cls-1" cx="233.86" cy="462.42" r="4.25"/>
  <circle class="cls-1" cx="233.86" cy="449.67" r="4.25"/>
  <circle class="cls-1" cx="246.62" cy="462.42" r="4.25"/>
  <circle class="cls-1" cx="246.62" cy="449.67" r="4.25"/>
  <circle class="cls-1" cx="259.37" cy="449.67" r="4.25"/>
  <circle class="cls-1" cx="259.37" cy="436.91" r="4.25"/>
  <circle class="cls-1" cx="272.13" cy="449.67" r="4.25"/>
  <circle class="cls-1" cx="272.13" cy="436.91" r="4.25"/>
  <circle class="cls-1" cx="284.88" cy="436.91" r="4.25"/>
  <circle class="cls-1" cx="284.88" cy="424.16" r="4.25"/>
  <circle class="cls-1" cx="297.64" cy="436.91" r="4.25"/>
  <circle class="cls-1" cx="297.64" cy="424.16" r="4.25"/>
  <circle class="cls-1" cx="310.4" cy="424.16" r="4.25"/>
  <circle class="cls-1" cx="310.4" cy="411.4" r="4.25"/>
  <circle class="cls-1" cx="323.15" cy="411.4" r="4.25"/>
  <circle class="cls-1" cx="323.15" cy="398.47" r="4.25"/>
  <circle class="cls-1" cx="335.91" cy="398.47" r="4.25"/>
  <circle class="cls-1" cx="348.66" cy="385.89" r="4.25"/>
  <circle class="cls-1" cx="348.66" cy="373.13" r="4.25"/>
  <circle class="cls-1" cx="348.66" cy="360.38" r="4.25"/>
  <circle class="cls-1" cx="361.42" cy="360.38" r="4.25"/>
  <circle class="cls-1" cx="361.42" cy="347.62" r="4.25"/>
  <circle class="cls-1" cx="361.42" cy="334.87" r="4.25"/>
  <circle class="cls-1" cx="374.18" cy="334.87" r="4.25"/>
  <circle class="cls-1" cx="374.18" cy="322.11" r="4.25"/>
  <circle class="cls-1" cx="374.18" cy="309.36" r="4.25"/>
  <circle class="cls-1" cx="361.42" cy="309.36" r="4.25"/>
  <circle class="cls-1" cx="374.18" cy="296.6" r="4.25"/>
  <circle class="cls-1" cx="386.93" cy="296.6" r="4.25"/>
  <circle class="cls-1" cx="374.18" cy="258.34" r="4.25"/>
  <circle class="cls-1" cx="386.93" cy="258.34" r="4.25"/>
  <circle class="cls-1" cx="361.42" cy="258.34" r="4.25"/>
  <circle class="cls-1" cx="361.42" cy="322.11" r="4.25"/>
  <circle class="cls-1" cx="335.91" cy="385.8" r="4.25"/>
  <circle class="cls-1" cx="195.59" cy="170.07" r="4.25"/>
  <circle class="cls-1" cx="208.35" cy="182.83" r="4.25"/>
  <circle class="cls-1" cx="195.59" cy="182.83" r="4.25"/>
  <circle class="cls-1" cx="182.84" cy="182.83" r="4.25"/>
  <circle class="cls-1" cx="208.35" cy="195.59" r="4.25"/>
  <circle class="cls-1" cx="195.59" cy="195.59" r="4.25"/>
  <circle class="cls-1" cx="182.84" cy="195.59" r="4.25"/>
  <circle class="cls-1" cx="170.08" cy="208.34" r="4.25"/>
  <circle class="cls-1" cx="170.08" cy="221.1" r="4.25"/>
  <circle class="cls-1" cx="182.84" cy="208.34" r="4.25"/>
  <circle class="cls-1" cx="182.84" cy="221.1" r="4.25"/>
  <circle class="cls-1" cx="195.59" cy="208.34" r="4.25"/>
  <circle class="cls-1" cx="195.59" cy="221.1" r="4.25"/>
  <circle class="cls-1" cx="208.35" cy="208.34" r="4.25"/>
  <circle class="cls-1" cx="208.35" cy="221.1" r="4.25"/>
  <circle class="cls-1" cx="221.11" cy="208.34" r="4.25"/>
  <circle class="cls-1" cx="221.1" cy="221.1" r="4.25"/>
  <circle class="cls-1" cx="221.1" cy="233.85" r="4.25"/>
  <circle class="cls-1" cx="221.1" cy="246.61" r="4.25"/>
  <circle class="cls-1" cx="233.86" cy="233.85" r="4.25"/>
  <circle class="cls-1" cx="233.86" cy="246.61" r="4.25"/>
  <circle class="cls-1" cx="208.35" cy="233.85" r="4.25"/>
  <circle class="cls-1" cx="208.35" cy="246.61" r="4.25"/>
  <circle class="cls-1" cx="195.59" cy="233.85" r="4.25"/>
  <circle class="cls-1" cx="195.59" cy="246.61" r="4.25"/>
  <circle class="cls-1" cx="182.84" cy="233.85" r="4.25"/>
  <circle class="cls-1" cx="182.84" cy="246.61" r="4.25"/>
  <circle class="cls-1" cx="170.08" cy="233.85" r="4.25"/>
  <circle class="cls-1" cx="170.08" cy="246.61" r="4.25"/>
  <circle class="cls-1" cx="157.32" cy="233.85" r="4.25"/>
  <circle class="cls-1" cx="157.32" cy="246.61" r="4.25"/>
  <circle class="cls-1" cx="144.57" cy="259.36" r="4.25"/>
  <circle class="cls-1" cx="157.32" cy="259.36" r="4.25"/>
  <circle class="cls-1" cx="170.08" cy="259.36" r="4.25"/>
  <circle class="cls-1" cx="182.83" cy="259.36" r="4.25"/>
  <circle class="cls-1" cx="195.59" cy="259.36" r="4.25"/>
  <circle class="cls-1" cx="208.34" cy="259.36" r="4.25"/>
  <circle class="cls-1" cx="221.1" cy="259.36" r="4.25"/>
  <circle class="cls-1" cx="233.86" cy="259.36" r="4.25"/>
  <circle class="cls-1" cx="246.61" cy="259.36" r="4.25"/>
  <circle class="cls-1" cx="144.57" cy="272.12" r="4.25"/>
  <circle class="cls-1" cx="131.81" cy="284.87" r="4.25"/>
  <circle class="cls-1" cx="144.57" cy="284.87" r="4.25"/>
  <circle class="cls-1" cx="157.32" cy="284.87" r="4.25"/>
  <circle class="cls-1" cx="170.08" cy="284.87" r="4.25"/>
  <circle class="cls-1" cx="182.84" cy="284.87" r="4.25"/>
  <circle class="cls-1" cx="195.59" cy="284.87" r="4.25"/>
  <circle class="cls-1" cx="208.35" cy="284.87" r="4.25"/>
  <circle class="cls-1" cx="221.1" cy="284.87" r="4.25"/>
  <circle class="cls-1" cx="233.86" cy="284.87" r="4.25"/>
  <circle class="cls-1" cx="246.62" cy="284.87" r="4.25"/>
  <circle class="cls-1" cx="259.37" cy="284.87" r="4.25"/>
  <circle class="cls-1" cx="131.81" cy="297.63" r="4.25"/>
  <circle class="cls-1" cx="119.06" cy="310.38" r="4.25"/>
  <circle class="cls-1" cx="131.81" cy="310.38" r="4.25"/>
  <circle class="cls-1" cx="144.57" cy="310.38" r="4.25"/>
  <circle class="cls-1" cx="157.33" cy="310.38" r="4.25"/>
  <circle class="cls-1" cx="233.86" cy="310.38" r="4.25"/>
  <circle class="cls-1" cx="170.08" cy="310.38" r="4.25"/>
  <circle class="cls-1" cx="182.83" cy="310.38" r="4.25"/>
  <circle class="cls-1" cx="221.1" cy="310.38" r="4.25"/>
  <circle class="cls-1" cx="208.35" cy="310.38" r="4.25"/>
  <circle class="cls-1" cx="246.62" cy="310.38" r="4.25"/>
  <circle class="cls-1" cx="259.37" cy="310.38" r="4.25"/>
  <circle class="cls-1" cx="272.13" cy="310.38" r="4.25"/>
  <circle class="cls-1" cx="119.06" cy="323.14" r="4.25"/>
  <circle class="cls-1" cx="131.81" cy="323.14" r="4.25"/>
  <circle class="cls-1" cx="144.57" cy="323.14" r="4.25"/>
  <circle class="cls-1" cx="157.33" cy="323.14" r="4.25"/>
  <circle class="cls-1" cx="233.86" cy="323.14" r="4.25"/>
  <circle class="cls-1" cx="246.62" cy="323.14" r="4.25"/>
  <circle class="cls-1" cx="259.37" cy="323.14" r="4.25"/>
  <circle class="cls-1" cx="272.13" cy="323.14" r="4.25"/>
  <circle class="cls-1" cx="119.06" cy="335.89" r="4.25"/>
  <circle class="cls-1" cx="106.3" cy="335.89" r="4.25"/>
  <circle class="cls-1" cx="93.54" cy="361.4" r="4.25"/>
  <circle class="cls-1" cx="297.64" cy="361.4" r="4.25"/>
  <circle class="cls-1" cx="106.3" cy="348.65" r="4.25"/>
  <circle class="cls-1" cx="284.88" cy="348.65" r="4.25"/>
  <circle class="cls-1" cx="272.13" cy="348.65" r="4.25"/>
  <circle class="cls-1" cx="119.06" cy="348.65" r="4.25"/>
  <circle class="cls-1" cx="131.81" cy="335.89" r="4.25"/>
  <circle class="cls-1" cx="144.57" cy="335.89" r="4.25"/>
  <circle class="cls-1" cx="246.62" cy="335.89" r="4.25"/>
  <circle class="cls-1" cx="259.37" cy="335.89" r="4.25"/>
  <circle class="cls-1" cx="272.13" cy="335.89" r="4.25"/>
  <circle class="cls-1" cx="284.88" cy="335.89" r="4.25"/>
  <circle class="cls-1" cx="144.57" cy="297.63" r="4.25"/>
  <circle class="cls-1" cx="157.32" cy="297.63" r="4.25"/>
  <circle class="cls-1" cx="170.08" cy="297.63" r="4.25"/>
  <circle class="cls-1" cx="182.84" cy="297.63" r="4.25"/>
  <circle class="cls-1" cx="195.59" cy="297.63" r="4.25"/>
  <circle class="cls-1" cx="208.35" cy="297.63" r="4.25"/>
  <circle class="cls-1" cx="221.1" cy="297.63" r="4.25"/>
  <circle class="cls-1" cx="233.86" cy="297.63" r="4.25"/>
  <circle class="cls-1" cx="246.62" cy="297.63" r="4.25"/>
  <circle class="cls-1" cx="259.37" cy="297.63" r="4.25"/>
  <circle class="cls-1" cx="157.32" cy="272.12" r="4.25"/>
  <circle class="cls-1" cx="170.08" cy="272.12" r="4.25"/>
  <circle class="cls-1" cx="182.83" cy="272.12" r="4.25"/>
  <circle class="cls-1" cx="195.59" cy="272.12" r="4.25"/>
  <circle class="cls-1" cx="208.34" cy="272.12" r="4.25"/>
  <circle class="cls-1" cx="221.1" cy="272.12" r="4.25"/>
  <circle class="cls-1" cx="233.86" cy="272.12" r="4.25"/>
  <circle class="cls-1" cx="246.61" cy="272.12" r="4.25"/>
</svg>