<?xml version="1.0" encoding="UTF-8"?>
<svg id="Capa_1" data-name="Capa 1" xmlns="http://www.w3.org/2000/svg" viewBox="0 0 1366 768">
  <defs>
    <style>
      .cls-1 {
        fill: #20425a;
      }
    </style>
  </defs>
  <path class="cls-1" d="M1114.23,291.5c-12.25-28.67-29.32-54.15-50.66-75.66-21.38-21.54-46.85-38.74-75.64-51.16-28.73-12.4-60-18.69-92.77-18.69s-63.4,6.29-91.99,18.69c-28.67,12.41-54.12,29.62-75.64,51.16-7.99,8.01-15.28,16.65-22.05,25.73l52.91,104.05c1.64-5.83,3.52-11.57,5.92-17.12,7.41-17.19,17.69-32.36,30.57-45.09,12.88-12.7,28.14-22.89,45.27-30.27,34.9-15.08,76.25-14.8,110.56,0,17.17,7.43,32.36,17.62,45.01,30.29,12.75,12.7,22.88,27.9,30.09,45.16,7.27,17.2,11.02,35.9,11.02,55.43s-3.75,37.69-11.02,54.94c-7.21,17.24-17.31,32.5-30.03,45.35-12.71,12.91-27.9,23.22-45.06,30.62-17.23,7.42-35.98,11.19-55.54,11.19s-38.2-3.77-55.3-11.24c-16.97-7.35-32.13-17.61-45-30.54-12.88-12.88-23.15-28.12-30.55-45.32-.3-.7-.51-1.43-.8-2.14l-.09.05-81.41-162.58c-11.27-21.68-25.29-41.42-42.25-58.52-21.37-21.54-46.8-38.74-75.63-51.16-28.78-12.4-60.02-18.69-92.76-18.69s-63.38,6.29-92.04,18.69c-28.62,12.41-54.12,29.62-75.63,51.16-21.56,21.58-38.87,47.03-51.49,75.73-12.55,28.57-18.91,59.68-18.91,92.46s6.36,63.5,18.91,92.2c12.62,28.91,29.96,54.49,51.49,75.97,21.48,21.53,46.97,38.76,75.63,51.21,57.5,24.91,127.55,24.66,184.79,0,28.83-12.44,54.25-29.62,75.59-51.18,7.95-7.99,15.19-16.65,21.88-25.77l-53.61-105.44c-1.63,6.1-3.53,12.12-6,17.95-7.23,17.24-17.33,32.5-30.07,45.35-12.69,12.91-27.84,23.22-45.05,30.62-17.32,7.42-35.96,11.19-55.51,11.19s-38.23-3.77-55.32-11.24c-16.98-7.35-32.11-17.61-45.06-30.54-12.86-12.88-23.15-28.12-30.51-45.32-7.48-17.2-11.31-35.72-11.31-55s3.83-38.28,11.31-55.53c7.36-17.19,17.7-32.36,30.53-45.09,12.92-12.7,28.19-22.89,45.34-30.27,34.85-15.08,76.23-14.8,110.52,0,17.17,7.43,32.33,17.62,45.03,30.29,11.06,11.09,20.09,24.18,27.05,38.79l.15-.09,84.22,168.97c11.75,22.79,26.45,43.37,44.18,61.09,21.52,21.53,46.97,38.76,75.64,51.21,57.51,24.91,127.52,24.66,184.77,0,28.8-12.44,54.26-29.62,75.64-51.18,21.34-21.45,38.37-47.01,50.66-75.89,12.23-28.8,18.46-59.81,18.46-92.3s-6.23-63.9-18.46-92.53Z"/>
</svg>