<?xml version="1.0" encoding="UTF-8"?>
<svg id="Capa_2" data-name="Capa 2" xmlns="http://www.w3.org/2000/svg" viewBox="0 0 250.87 403.92">
  <defs>
    <style>
      .cls-1 {
        fill: #e94f1b;
      }
    </style>
  </defs>
  <circle class="cls-1" cx="42.52" cy="284.87" r="4.25"/>
  <circle class="cls-1" cx="55.28" cy="386.92" r="4.25"/>
  <circle class="cls-1" cx="68.03" cy="386.92" r="4.25"/>
  <circle class="cls-1" cx="80.79" cy="386.92" r="4.25"/>
  <circle class="cls-1" cx="93.54" cy="386.92" r="4.25"/>
  <circle class="cls-1" cx="106.3" cy="386.92" r="4.25"/>
  <circle class="cls-1" cx="106.3" cy="374.16" r="4.25"/>
  <circle class="cls-1" cx="119.06" cy="374.16" r="4.25"/>
  <circle class="cls-1" cx="131.81" cy="374.16" r="4.25"/>
  <circle class="cls-1" cx="144.57" cy="374.16" r="4.25"/>
  <circle class="cls-1" cx="144.57" cy="361.4" r="4.25"/>
  <circle class="cls-1" cx="144.57" cy="348.65" r="4.25"/>
  <circle class="cls-1" cx="157.32" cy="348.65" r="4.25"/>
  <circle class="cls-1" cx="170.08" cy="348.65" r="4.25"/>
  <circle class="cls-1" cx="182.83" cy="348.65" r="4.25"/>
  <circle class="cls-1" cx="195.59" cy="348.65" r="4.25"/>
  <circle class="cls-1" cx="208.34" cy="348.65" r="4.25"/>
  <circle class="cls-1" cx="208.34" cy="335.89" r="4.25"/>
  <circle class="cls-1" cx="195.59" cy="335.89" r="4.25"/>
  <circle class="cls-1" cx="182.84" cy="335.89" r="4.25"/>
  <circle class="cls-1" cx="170.08" cy="335.89" r="4.25"/>
  <circle class="cls-1" cx="157.32" cy="335.89" r="4.25"/>
  <circle class="cls-1" cx="157.32" cy="323.14" r="4.25"/>
  <circle class="cls-1" cx="157.32" cy="310.38" r="4.25"/>
  <circle class="cls-1" cx="170.08" cy="323.14" r="4.25"/>
  <circle class="cls-1" cx="170.08" cy="310.38" r="4.25"/>
  <circle class="cls-1" cx="170.08" cy="297.63" r="4.25"/>
  <circle class="cls-1" cx="170.08" cy="284.87" r="4.25"/>
  <circle class="cls-1" cx="182.84" cy="284.87" r="4.25"/>
  <circle class="cls-1" cx="195.59" cy="284.87" r="4.25"/>
  <circle class="cls-1" cx="208.35" cy="284.87" r="4.25"/>
  <circle class="cls-1" cx="221.1" cy="284.87" r="4.25"/>
  <circle class="cls-1" cx="221.1" cy="272.12" r="4.25"/>
  <circle class="cls-1" cx="208.34" cy="272.12" r="4.25"/>
  <circle class="cls-1" cx="195.59" cy="272.12" r="4.25"/>
  <circle class="cls-1" cx="182.83" cy="272.12" r="4.25"/>
  <circle class="cls-1" cx="170.07" cy="272.12" r="4.25"/>
  <circle class="cls-1" cx="157.31" cy="272.12" r="4.25"/>
  <circle class="cls-1" cx="221.1" cy="259.36" r="4.25"/>
  <circle class="cls-1" cx="208.34" cy="259.36" r="4.25"/>
  <circle class="cls-1" cx="195.59" cy="259.36" r="4.25"/>
  <circle class="cls-1" cx="182.83" cy="259.36" r="4.25"/>
  <circle class="cls-1" cx="170.07" cy="259.36" r="4.25"/>
  <circle class="cls-1" cx="157.31" cy="259.36" r="4.25"/>
  <circle class="cls-1" cx="144.55" cy="272.12" r="4.25"/>
  <circle class="cls-1" cx="144.55" cy="259.36" r="4.25"/>
  <circle class="cls-1" cx="131.8" cy="259.36" r="4.25"/>
  <circle class="cls-1" cx="221.1" cy="246.61" r="4.25"/>
  <circle class="cls-1" cx="208.34" cy="246.61" r="4.25"/>
  <circle class="cls-1" cx="195.59" cy="246.61" r="4.25"/>
  <circle class="cls-1" cx="182.83" cy="246.61" r="4.25"/>
  <circle class="cls-1" cx="170.07" cy="246.61" r="4.25"/>
  <circle class="cls-1" cx="157.31" cy="246.61" r="4.25"/>
  <circle class="cls-1" cx="144.55" cy="246.61" r="4.25"/>
  <circle class="cls-1" cx="131.8" cy="246.61" r="4.25"/>
  <circle class="cls-1" cx="221.1" cy="233.85" r="4.25"/>
  <circle class="cls-1" cx="208.34" cy="233.85" r="4.25"/>
  <circle class="cls-1" cx="195.59" cy="233.85" r="4.25"/>
  <circle class="cls-1" cx="182.83" cy="233.85" r="4.25"/>
  <circle class="cls-1" cx="170.07" cy="233.85" r="4.25"/>
  <circle class="cls-1" cx="157.31" cy="233.85" r="4.25"/>
  <circle class="cls-1" cx="144.55" cy="233.85" r="4.25"/>
  <circle class="cls-1" cx="131.8" cy="233.85" r="4.25"/>
  <circle class="cls-1" cx="221.1" cy="221.09" r="4.25"/>
  <circle class="cls-1" cx="208.34" cy="221.09" r="4.25"/>
  <circle class="cls-1" cx="195.59" cy="221.09" r="4.25"/>
  <circle class="cls-1" cx="182.83" cy="221.09" r="4.25"/>
  <circle class="cls-1" cx="170.07" cy="221.09" r="4.25"/>
  <circle class="cls-1" cx="157.31" cy="221.09" r="4.25"/>
  <circle class="cls-1" cx="144.55" cy="221.09" r="4.25"/>
  <circle class="cls-1" cx="131.8" cy="221.09" r="4.25"/>
  <circle class="cls-1" cx="208.34" cy="208.34" r="4.25"/>
  <circle class="cls-1" cx="195.59" cy="208.34" r="4.25"/>
  <circle class="cls-1" cx="182.83" cy="208.34" r="4.25"/>
  <circle class="cls-1" cx="170.07" cy="208.34" r="4.25"/>
  <circle class="cls-1" cx="157.31" cy="208.34" r="4.25"/>
  <circle class="cls-1" cx="144.55" cy="208.34" r="4.25"/>
  <circle class="cls-1" cx="131.8" cy="208.34" r="4.25"/>
  <circle class="cls-1" cx="208.34" cy="195.58" r="4.25"/>
  <circle class="cls-1" cx="195.59" cy="195.58" r="4.25"/>
  <circle class="cls-1" cx="182.83" cy="195.58" r="4.25"/>
  <circle class="cls-1" cx="170.07" cy="195.58" r="4.25"/>
  <circle class="cls-1" cx="157.31" cy="195.58" r="4.25"/>
  <circle class="cls-1" cx="144.55" cy="195.58" r="4.25"/>
  <circle class="cls-1" cx="131.8" cy="195.58" r="4.25"/>
  <circle class="cls-1" cx="208.34" cy="182.83" r="4.25"/>
  <circle class="cls-1" cx="195.59" cy="182.83" r="4.25"/>
  <circle class="cls-1" cx="182.83" cy="182.83" r="4.25"/>
  <circle class="cls-1" cx="170.07" cy="182.83" r="4.25"/>
  <circle class="cls-1" cx="157.31" cy="182.83" r="4.25"/>
  <circle class="cls-1" cx="144.55" cy="182.83" r="4.25"/>
  <circle class="cls-1" cx="131.8" cy="182.83" r="4.25"/>
  <circle class="cls-1" cx="208.34" cy="170.07" r="4.25"/>
  <circle class="cls-1" cx="195.59" cy="170.07" r="4.25"/>
  <circle class="cls-1" cx="182.83" cy="170.07" r="4.25"/>
  <circle class="cls-1" cx="170.07" cy="170.07" r="4.25"/>
  <circle class="cls-1" cx="157.31" cy="170.07" r="4.25"/>
  <circle class="cls-1" cx="144.55" cy="170.07" r="4.25"/>
  <circle class="cls-1" cx="131.8" cy="170.07" r="4.25"/>
  <circle class="cls-1" cx="119.05" cy="157.32" r="4.25"/>
  <circle class="cls-1" cx="195.59" cy="157.32" r="4.25"/>
  <circle class="cls-1" cx="182.83" cy="157.32" r="4.25"/>
  <circle class="cls-1" cx="170.07" cy="157.32" r="4.25"/>
  <circle class="cls-1" cx="157.31" cy="157.32" r="4.25"/>
  <circle class="cls-1" cx="144.55" cy="157.32" r="4.25"/>
  <circle class="cls-1" cx="131.8" cy="157.32" r="4.25"/>
  <circle class="cls-1" cx="119.05" cy="144.56" r="4.25"/>
  <circle class="cls-1" cx="195.59" cy="144.56" r="4.25"/>
  <circle class="cls-1" cx="182.83" cy="144.56" r="4.25"/>
  <circle class="cls-1" cx="170.07" cy="144.56" r="4.25"/>
  <circle class="cls-1" cx="157.31" cy="144.56" r="4.25"/>
  <circle class="cls-1" cx="144.55" cy="144.56" r="4.25"/>
  <circle class="cls-1" cx="131.8" cy="144.56" r="4.25"/>
  <circle class="cls-1" cx="119.05" cy="131.81" r="4.25"/>
  <circle class="cls-1" cx="195.59" cy="131.81" r="4.25"/>
  <circle class="cls-1" cx="182.83" cy="131.81" r="4.25"/>
  <circle class="cls-1" cx="170.07" cy="131.81" r="4.25"/>
  <circle class="cls-1" cx="157.31" cy="131.81" r="4.25"/>
  <circle class="cls-1" cx="144.55" cy="131.81" r="4.25"/>
  <circle class="cls-1" cx="131.8" cy="131.81" r="4.25"/>
  <circle class="cls-1" cx="119.05" cy="119.05" r="4.25"/>
  <circle class="cls-1" cx="182.83" cy="119.05" r="4.25"/>
  <circle class="cls-1" cx="170.07" cy="119.05" r="4.25"/>
  <circle class="cls-1" cx="157.31" cy="119.05" r="4.25"/>
  <circle class="cls-1" cx="144.55" cy="119.05" r="4.25"/>
  <circle class="cls-1" cx="131.8" cy="119.05" r="4.25"/>
  <circle class="cls-1" cx="119.05" cy="106.3" r="4.25"/>
  <circle class="cls-1" cx="106.3" cy="93.54" r="4.25"/>
  <circle class="cls-1" cx="93.54" cy="80.79" r="4.25"/>
  <circle class="cls-1" cx="4.25" cy="29.76" r="4.25"/>
  <circle class="cls-1" cx="17.01" cy="29.76" r="4.25"/>
  <circle class="cls-1" cx="29.77" cy="29.76" r="4.25"/>
  <circle class="cls-1" cx="17.01" cy="42.52" r="4.25"/>
  <circle class="cls-1" cx="29.77" cy="42.52" r="4.25"/>
  <circle class="cls-1" cx="42.52" cy="29.76" r="4.25"/>
  <circle class="cls-1" cx="55.28" cy="29.76" r="4.25"/>
  <circle class="cls-1" cx="55.28" cy="17.01" r="4.25"/>
  <circle class="cls-1" cx="68.03" cy="17.01" r="4.25"/>
  <circle class="cls-1" cx="68.03" cy="29.76" r="4.25"/>
  <circle class="cls-1" cx="80.79" cy="29.76" r="4.25"/>
  <circle class="cls-1" cx="106.3" cy="29.76" r="4.25"/>
  <circle class="cls-1" cx="80.79" cy="17.01" r="4.25"/>
  <circle class="cls-1" cx="80.79" cy="4.25" r="4.25"/>
  <circle class="cls-1" cx="93.54" cy="17.01" r="4.25"/>
  <circle class="cls-1" cx="93.54" cy="4.25" r="4.25"/>
  <circle class="cls-1" cx="106.3" cy="17.01" r="4.25"/>
  <circle class="cls-1" cx="106.3" cy="4.25" r="4.25"/>
  <circle class="cls-1" cx="42.52" cy="42.52" r="4.25"/>
  <circle class="cls-1" cx="55.28" cy="42.52" r="4.25"/>
  <circle class="cls-1" cx="68.03" cy="42.52" r="4.25"/>
  <circle class="cls-1" cx="80.79" cy="42.52" r="4.25"/>
  <circle class="cls-1" cx="93.54" cy="42.52" r="4.25"/>
  <circle class="cls-1" cx="106.3" cy="42.52" r="4.25"/>
  <circle class="cls-1" cx="119.06" cy="42.52" r="4.25"/>
  <circle class="cls-1" cx="80.79" cy="55.27" r="4.25"/>
  <circle class="cls-1" cx="93.54" cy="55.27" r="4.25"/>
  <circle class="cls-1" cx="106.3" cy="55.27" r="4.25"/>
  <circle class="cls-1" cx="119.06" cy="55.27" r="4.25"/>
  <circle class="cls-1" cx="68.03" cy="55.28" r="4.25"/>
  <circle class="cls-1" cx="80.79" cy="68.03" r="4.25"/>
  <circle class="cls-1" cx="80.79" cy="80.79" r="4.25"/>
  <circle class="cls-1" cx="182.83" cy="106.3" r="4.25"/>
  <circle class="cls-1" cx="170.07" cy="106.3" r="4.25"/>
  <circle class="cls-1" cx="157.31" cy="106.3" r="4.25"/>
  <circle class="cls-1" cx="144.55" cy="106.3" r="4.25"/>
  <circle class="cls-1" cx="131.8" cy="106.3" r="4.25"/>
  <circle class="cls-1" cx="170.07" cy="93.54" r="4.25"/>
  <circle class="cls-1" cx="157.31" cy="93.54" r="4.25"/>
  <circle class="cls-1" cx="144.55" cy="93.54" r="4.25"/>
  <circle class="cls-1" cx="131.8" cy="93.54" r="4.25"/>
  <circle class="cls-1" cx="157.31" cy="80.79" r="4.25"/>
  <circle class="cls-1" cx="144.55" cy="80.79" r="4.25"/>
  <circle class="cls-1" cx="157.31" cy="68.03" r="4.25"/>
  <circle class="cls-1" cx="144.55" cy="68.03" r="4.25"/>
  <circle class="cls-1" cx="157.31" cy="55.27" r="4.25"/>
  <circle class="cls-1" cx="144.55" cy="55.27" r="4.25"/>
  <circle class="cls-1" cx="144.55" cy="42.52" r="4.25"/>
  <circle class="cls-1" cx="144.55" cy="29.76" r="4.25"/>
  <circle class="cls-1" cx="131.8" cy="29.76" r="4.25"/>
  <circle class="cls-1" cx="131.8" cy="17.01" r="4.25"/>
  <circle class="cls-1" cx="119.06" cy="17.01" r="4.25"/>
  <circle class="cls-1" cx="131.8" cy="80.79" r="4.25"/>
  <circle class="cls-1" cx="157.32" cy="297.63" r="4.25"/>
  <circle class="cls-1" cx="157.32" cy="284.87" r="4.25"/>
  <circle class="cls-1" cx="144.57" cy="284.87" r="4.25"/>
  <circle class="cls-1" cx="182.84" cy="323.14" r="4.25"/>
  <circle class="cls-1" cx="182.84" cy="310.38" r="4.25"/>
  <circle class="cls-1" cx="182.84" cy="297.63" r="4.25"/>
  <circle class="cls-1" cx="195.59" cy="297.63" r="4.25"/>
  <circle class="cls-1" cx="208.35" cy="297.63" r="4.25"/>
  <circle class="cls-1" cx="221.1" cy="297.63" r="4.25"/>
  <circle class="cls-1" cx="195.59" cy="323.14" r="4.25"/>
  <circle class="cls-1" cx="195.59" cy="310.38" r="4.25"/>
  <circle class="cls-1" cx="208.35" cy="323.14" r="4.25"/>
  <circle class="cls-1" cx="208.35" cy="310.38" r="4.25"/>
  <circle class="cls-1" cx="221.1" cy="310.38" r="4.25"/>
  <circle class="cls-1" cx="157.32" cy="361.4" r="4.25"/>
  <circle class="cls-1" cx="170.08" cy="361.4" r="4.25"/>
  <circle class="cls-1" cx="182.84" cy="361.4" r="4.25"/>
  <circle class="cls-1" cx="195.59" cy="361.4" r="4.25"/>
  <circle class="cls-1" cx="208.35" cy="361.4" r="4.25"/>
  <circle class="cls-1" cx="221.1" cy="361.4" r="4.25"/>
  <circle class="cls-1" cx="157.32" cy="386.92" r="4.25"/>
  <circle class="cls-1" cx="170.08" cy="386.92" r="4.25"/>
  <circle class="cls-1" cx="182.84" cy="386.92" r="4.25"/>
  <circle class="cls-1" cx="195.59" cy="374.16" r="4.25"/>
  <circle class="cls-1" cx="208.35" cy="374.16" r="4.25"/>
  <circle class="cls-1" cx="208.35" cy="386.92" r="4.25"/>
  <circle class="cls-1" cx="221.1" cy="374.16" r="4.25"/>
  <circle class="cls-1" cx="221.1" cy="386.92" r="4.25"/>
  <circle class="cls-1" cx="233.86" cy="386.92" r="4.25"/>
  <circle class="cls-1" cx="233.86" cy="399.67" r="4.25"/>
  <circle class="cls-1" cx="246.62" cy="399.67" r="4.25"/>
  <circle class="cls-1" cx="182.84" cy="374.16" r="4.25"/>
  <circle class="cls-1" cx="170.08" cy="399.67" r="4.25"/>
  <circle class="cls-1" cx="157.32" cy="399.67" r="4.25"/>
  <circle class="cls-1" cx="144.57" cy="399.67" r="4.25"/>
  <circle class="cls-1" cx="131.81" cy="399.67" r="4.25"/>
  <circle class="cls-1" cx="119.06" cy="399.67" r="4.25"/>
  <circle class="cls-1" cx="119.06" cy="386.92" r="4.25"/>
  <circle class="cls-1" cx="93.54" cy="374.16" r="4.25"/>
  <circle class="cls-1" cx="42.52" cy="272.12" r="4.25"/>
  <circle class="cls-1" cx="42.52" cy="259.36" r="4.25"/>
  <circle class="cls-1" cx="42.52" cy="246.61" r="4.25"/>
  <circle class="cls-1" cx="42.52" cy="233.85" r="4.25"/>
  <circle class="cls-1" cx="42.52" cy="221.09" r="4.25"/>
  <circle class="cls-1" cx="55.28" cy="208.34" r="4.25"/>
  <circle class="cls-1" cx="55.28" cy="195.58" r="4.25"/>
  <circle class="cls-1" cx="68.03" cy="182.83" r="4.25"/>
  <circle class="cls-1" cx="68.03" cy="170.07" r="4.25"/>
  <circle class="cls-1" cx="68.03" cy="157.32" r="4.25"/>
  <circle class="cls-1" cx="68.03" cy="144.56" r="4.25"/>
  <circle class="cls-1" cx="68.03" cy="131.81" r="4.25"/>
  <circle class="cls-1" cx="80.79" cy="93.54" r="4.25"/>
  <circle class="cls-1" cx="93.54" cy="93.54" r="4.25"/>
  <circle class="cls-1" cx="68.03" cy="106.3" r="4.25"/>
  <circle class="cls-1" cx="68.03" cy="119.05" r="4.25"/>
  <circle class="cls-1" cx="68.03" cy="195.58" r="4.25"/>
  <circle class="cls-1" cx="68.03" cy="208.34" r="4.25"/>
  <circle class="cls-1" cx="68.03" cy="221.1" r="4.25"/>
  <circle class="cls-1" cx="68.03" cy="233.85" r="4.25"/>
  <circle class="cls-1" cx="80.79" cy="246.61" r="4.25"/>
  <circle class="cls-1" cx="80.79" cy="259.36" r="4.25"/>
  <circle class="cls-1" cx="80.79" cy="272.12" r="4.25"/>
  <circle class="cls-1" cx="93.54" cy="284.87" r="4.25"/>
  <circle class="cls-1" cx="93.54" cy="297.63" r="4.25"/>
  <circle class="cls-1" cx="93.54" cy="310.38" r="4.25"/>
  <circle class="cls-1" cx="106.3" cy="323.14" r="4.25"/>
  <circle class="cls-1" cx="106.3" cy="335.89" r="4.25"/>
  <circle class="cls-1" cx="106.3" cy="361.4" r="4.25"/>
  <circle class="cls-1" cx="119.06" cy="348.65" r="4.25"/>
  <circle class="cls-1" cx="119.06" cy="335.89" r="4.25"/>
  <circle class="cls-1" cx="55.28" cy="233.85" r="4.25"/>
  <circle class="cls-1" cx="55.28" cy="246.61" r="4.25"/>
  <circle class="cls-1" cx="55.28" cy="259.36" r="4.25"/>
  <circle class="cls-1" cx="55.28" cy="221.1" r="4.25"/>
</svg>